<svg width="1128" height="253" viewBox="0 0 1128 253" fill="none" xmlns="http://www.w3.org/2000/svg">
<path fill-rule="evenodd" clip-rule="evenodd" d="M327.252 99.6081C324.839 96.3201 321.522 93.8021 317.704 92.3594C314.044 90.8858 310.141 90.1093 306.195 90.07C301.401 90.07 297.039 90.9392 293.115 92.6832C289.282 94.3622 285.833 96.8079 282.982 99.8695C280.114 102.973 277.891 106.615 276.442 110.584C274.884 114.853 274.108 119.367 274.15 123.911C274.15 128.967 274.889 133.58 276.374 137.761C277.852 141.942 279.968 145.532 282.714 148.543C285.467 151.548 288.754 153.877 292.592 155.53C296.431 157.184 300.747 158.013 305.541 158.013C310.511 158.013 314.912 157.036 318.751 155.07C322.419 153.252 325.603 150.588 328.037 147.299L341.247 156.576C337.217 161.659 332.071 165.749 326.206 168.528C320.275 171.363 313.343 172.777 305.41 172.777C298.171 172.777 291.523 171.585 285.461 169.182C279.621 166.928 274.303 163.507 269.834 159.126C265.42 154.733 261.948 149.487 259.632 143.709C257.187 137.744 255.97 131.143 255.97 123.911C255.97 116.509 257.255 109.822 259.825 103.857C262.253 98.0975 265.865 92.9108 270.425 88.6327C275.024 84.3851 280.426 81.0979 286.314 78.9639C292.416 76.6973 299.046 75.5668 306.195 75.5668C309.157 75.5668 312.257 75.8508 315.481 76.4189C318.705 76.987 321.805 77.8505 324.767 79.0321C327.704 80.1924 330.509 81.6585 333.138 83.4063C335.754 85.1504 337.978 87.2409 339.809 89.678L327.252 99.6081V99.6081ZM363.932 77.9186H380.412V155.792H419.781V170.426H363.937V77.9186H363.932ZM434.885 123.911C434.885 116.509 436.124 109.822 438.609 103.857C440.942 98.1125 444.463 92.9245 448.942 88.6327C453.463 84.379 458.803 81.0893 464.637 78.9639C470.699 76.6973 477.307 75.5668 484.455 75.5668C491.695 75.5668 498.365 76.7029 504.467 78.9639C510.341 81.0879 515.724 84.3767 520.293 88.6327C524.804 92.9097 528.349 98.1006 530.688 103.857C533.173 109.822 534.419 116.509 534.419 123.911C534.419 131.143 533.173 137.738 530.688 143.709C528.318 149.504 524.779 154.75 520.293 159.121C515.744 163.498 510.363 166.919 504.467 169.182C498.365 171.579 491.695 172.777 484.45 172.777C477.307 172.777 470.699 171.585 464.637 169.182C458.782 166.919 453.443 163.499 448.942 159.126C444.488 154.739 440.973 149.494 438.609 143.709C436.124 137.744 434.885 131.143 434.885 123.911V123.911ZM452.798 123.911C452.798 128.876 453.565 133.426 455.089 137.562C456.619 141.703 458.797 145.294 461.629 148.344C464.457 151.387 467.886 153.811 471.7 155.462C475.584 157.167 479.878 158.013 484.586 158.013C489.295 158.013 493.611 157.161 497.535 155.462C501.374 153.823 504.826 151.398 507.669 148.344C510.547 145.222 512.771 141.556 514.208 137.562C515.738 133.426 516.5 128.876 516.5 123.911C516.5 119.122 515.738 114.679 514.208 110.584C512.766 106.627 510.568 102.988 507.737 99.8695C504.917 96.7997 501.487 94.3521 497.666 92.6832C493.742 90.9392 489.38 90.07 484.586 90.07C479.792 90.07 475.453 90.9392 471.569 92.6832C467.773 94.3639 464.366 96.8105 461.561 99.8695C458.729 102.988 456.531 106.627 455.089 110.584C453.534 114.853 452.759 119.367 452.803 123.911H452.798ZM637.194 136.454C637.194 142.027 636.233 147.06 634.317 151.548C632.519 155.858 629.847 159.75 626.469 162.978C623.075 166.163 619.071 168.628 614.698 170.227C609.966 171.961 604.958 172.825 599.918 172.777C594.601 172.777 589.671 171.925 585.138 170.227C580.752 168.618 576.729 166.154 573.304 162.978C569.899 159.773 567.223 155.875 565.457 151.548C563.58 147.06 562.642 142.027 562.642 136.454V77.9186H579.122V135.801C579.122 138.499 579.469 141.181 580.168 143.839C580.868 146.492 582.022 148.867 583.637 150.957C585.246 153.048 587.385 154.746 590.046 156.053C592.702 157.36 595.994 158.013 599.918 158.013C603.842 158.013 607.135 157.36 609.796 156.053C612.452 154.746 614.59 153.048 616.205 150.957C617.814 148.867 618.969 146.492 619.674 143.839C620.367 141.181 620.714 138.499 620.714 135.801V77.9186H637.194V136.454V136.454ZM669.864 77.9186H702.694C708.71 77.9186 714.772 78.7026 720.874 80.2705C726.822 81.7639 732.42 84.4038 737.354 88.0419C742.245 91.6606 746.208 96.4041 749.256 102.289C752.31 108.169 753.834 115.463 753.834 124.172C753.834 132.273 752.31 139.243 749.256 145.078C746.208 150.912 742.239 155.701 737.354 159.45C732.426 163.217 726.837 166.03 720.874 167.744C714.973 169.501 708.851 170.404 702.694 170.426H669.864V77.9186V77.9186ZM700.078 156.053C704.354 156.053 708.625 155.553 712.896 154.553C717.045 153.605 720.975 151.874 724.474 149.452C727.92 147.06 730.729 143.817 732.907 139.721C735.091 135.63 736.177 130.444 736.177 124.172C736.177 117.554 735.091 112.151 732.907 107.97C730.729 103.789 727.92 100.523 724.474 98.1709C720.979 95.7979 717.041 94.1536 712.896 93.3365C708.678 92.471 704.384 92.0333 700.078 92.0299H686.344V156.053H700.078ZM772.907 161.279C772.907 158.496 773.931 156.099 775.978 154.093C778.025 152.088 780.493 151.088 783.371 151.088C786.157 151.088 788.603 152.048 790.695 153.963C792.788 155.877 793.834 158.229 793.834 161.018C793.834 163.802 792.811 166.199 790.764 168.204C788.711 170.21 786.248 171.21 783.371 171.21C781.972 171.21 780.641 170.948 779.379 170.426C778.155 169.927 777.027 169.22 776.046 168.335C775.079 167.454 774.3 166.388 773.755 165.199C773.186 163.978 772.902 162.671 772.902 161.279H772.907ZM897.924 165.591C893.215 167.858 888.046 169.625 882.422 170.88C876.798 172.147 870.326 172.777 863.002 172.777C855.501 172.777 848.654 171.585 842.467 169.182C836.274 166.79 830.957 163.438 826.51 159.126C822.021 154.754 818.481 149.506 816.109 143.709C813.624 137.744 812.384 131.143 812.384 123.911C812.384 116.509 813.67 109.822 816.24 103.857C818.666 98.098 822.276 92.9114 826.834 88.6327C831.435 84.3845 836.839 81.0972 842.729 78.9639C848.83 76.6973 855.455 75.5668 862.609 75.5668C870.019 75.5668 876.798 76.6348 882.945 78.7708C889.092 80.9011 894.04 83.7131 897.787 87.1955L886.414 99.4775C884.06 96.8643 880.767 94.6431 876.536 92.8138C872.176 90.9582 867.479 90.024 862.74 90.07C857.855 90.07 853.431 90.9392 849.462 92.6832C845.616 94.3402 842.163 96.7889 839.328 99.8695C836.494 102.988 834.294 106.627 832.851 110.584C831.295 114.853 830.521 119.367 830.565 123.911C830.565 128.876 831.327 133.426 832.851 137.562C834.375 141.703 836.559 145.294 839.391 148.344C842.282 151.432 845.807 153.86 849.723 155.462C853.778 157.167 858.378 158.013 863.525 158.013C870.588 158.013 876.735 156.922 881.967 154.746V131.228H862.479V117.639H897.924V165.591V165.591ZM924.293 123.911C924.293 116.509 925.533 109.822 928.018 103.857C930.351 98.1125 933.872 92.9245 938.35 88.6327C942.871 84.379 948.211 81.0893 954.046 78.9639C960.108 76.6973 966.71 75.5668 973.864 75.5668C981.097 75.5668 987.768 76.7029 993.875 78.9639C999.749 81.0879 1005.13 84.3767 1009.7 88.6327C1014.21 92.9097 1017.76 98.1006 1020.1 103.857C1022.58 109.822 1023.83 116.509 1023.83 123.911C1023.83 131.143 1022.58 137.738 1020.1 143.709C1017.73 149.504 1014.19 154.75 1009.7 159.121C1005.15 163.498 999.771 166.919 993.875 169.182C987.768 171.579 981.097 172.777 973.858 172.777C966.71 172.777 960.108 171.585 954.046 169.182C948.19 166.919 942.852 163.499 938.35 159.126C933.896 154.739 930.381 149.494 928.018 143.709C925.533 137.744 924.293 131.143 924.293 123.911V123.911ZM942.206 123.911C942.206 128.876 942.974 133.426 944.498 137.562C946.022 141.703 948.205 145.294 951.037 148.344C953.865 151.387 957.295 153.811 961.109 155.462C964.987 157.167 969.286 158.013 973.995 158.013C978.703 158.013 983.019 157.161 986.943 155.462C990.782 153.823 994.234 151.398 997.077 148.344C999.955 145.222 1002.18 141.556 1003.62 137.562C1005.14 133.426 1005.91 128.876 1005.91 123.911C1005.91 119.122 1005.14 114.679 1003.62 110.584C1002.17 106.627 999.977 102.988 997.145 99.8695C994.325 96.7997 990.895 94.3521 987.074 92.6832C983.15 90.9392 978.788 90.07 973.995 90.07C969.195 90.07 964.856 90.9392 960.978 92.6832C957.181 94.3639 953.774 96.8105 950.969 99.8695C948.138 102.988 945.94 106.627 944.498 110.584C942.942 114.853 942.168 119.367 942.212 123.911H942.206ZM1039.76 77.9186H1058.2L1083.7 149.128H1084.23L1109.99 77.9186H1127.78L1090.63 170.426H1076.38L1039.76 77.9186V77.9186Z" fill="#333333"/>
<path fill-rule="evenodd" clip-rule="evenodd" d="M96.6738 0L0 70.3119L39.4088 100.591H82.3832L96.6397 56.6949L110.902 100.591H154.007L193.348 70.3119L96.6738 0Z" fill="#046CD5"/>
<path fill-rule="evenodd" clip-rule="evenodd" d="M154.007 100.574H154.03L119.716 127.694L133.979 171.579L96.6397 144.453L59.3009 171.579L73.5631 127.694L39.4031 100.574L0 70.3062V181.906L96.6738 252.093L193.348 181.906V70.3062L154.007 100.574Z" fill="#333333"/>
</svg>
