<?xml version="1.0" encoding="utf-8"?>
<!-- Generator: Adobe Illustrator 19.2.1, SVG Export Plug-In . SVG Version: 6.00 Build 0)  -->
<svg version="1.1" id="Layer_1" xmlns="http://www.w3.org/2000/svg" xmlns:xlink="http://www.w3.org/1999/xlink" x="0px" y="0px"
	 viewBox="0 0 910 512" style="enable-background:new 0 0 910 512;" xml:space="preserve">
<style type="text/css">
	.st0{fill:#FFFFFF;}
</style>
<title>angle-arrow-right</title>
<path class="st0" d="M30.8,5.1L5.1,30.8c-6.5,6.1-6.9,16.3-0.8,22.8c0.3,0.3,0.5,0.5,0.8,0.8L206.8,256L5.1,457.6
	c-6.5,6.1-6.9,16.3-0.8,22.8c0.3,0.3,0.5,0.5,0.8,0.8l25.6,25.6c6.1,6.5,16.3,6.9,22.8,0.8c0.3-0.3,0.5-0.5,0.8-0.8l239.1-239.1
	c6.5-6.1,6.9-16.3,0.8-22.8c-0.3-0.3-0.5-0.5-0.8-0.8L54.4,5.1C48.3-1.4,38-1.7,31.5,4.4C31.3,4.6,31,4.9,30.8,5.1L30.8,5.1
	L30.8,5.1z"/>
</svg>
