<?xml version="1.0" encoding="UTF-8" standalone="no"?>
<!-- Created with Inkscape (http://www.inkscape.org/) -->

<svg
   xmlns:dc="http://purl.org/dc/elements/1.1/"
   xmlns:cc="http://creativecommons.org/ns#"
   xmlns:rdf="http://www.w3.org/1999/02/22-rdf-syntax-ns#"
   xmlns:svg="http://www.w3.org/2000/svg"
   xmlns="http://www.w3.org/2000/svg"
   xmlns:sodipodi="http://sodipodi.sourceforge.net/DTD/sodipodi-0.dtd"
   xmlns:inkscape="http://www.inkscape.org/namespaces/inkscape"
   width="62.052872mm"
   height="11.017956mm"
   viewBox="0 0 219.87238 39.040001"
   id="svg4566"
   version="1.1"
   inkscape:version="0.91 r13725"
   sodipodi:docname="logo.svg">
  <defs
     id="defs4568">
    <clipPath
       clipPathUnits="userSpaceOnUse"
       id="clipPath498">
      <path
         d="m 0,912.752 1068,0 L 1068,0 0,0 0,912.752 Z"
         id="path500"
         inkscape:connector-curvature="0" />
    </clipPath>
  </defs>
  <sodipodi:namedview
     id="base"
     pagecolor="#ffffff"
     bordercolor="#666666"
     borderopacity="1.0"
     inkscape:pageopacity="0.0"
     inkscape:pageshadow="2"
     inkscape:zoom="0.35"
     inkscape:cx="367.79334"
     inkscape:cy="-146.19434"
     inkscape:document-units="px"
     inkscape:current-layer="layer1"
     showgrid="false"
     fit-margin-top="0"
     fit-margin-left="0"
     fit-margin-right="0"
     fit-margin-bottom="0"
     inkscape:window-width="1920"
     inkscape:window-height="971"
     inkscape:window-x="0"
     inkscape:window-y="31"
     inkscape:window-maximized="1" />
  <metadata
     id="metadata4571">
    <rdf:RDF>
      <cc:Work
         rdf:about="">
        <dc:format>image/svg+xml</dc:format>
        <dc:type
           rdf:resource="http://purl.org/dc/dcmitype/StillImage" />
        <dc:title></dc:title>
      </cc:Work>
    </rdf:RDF>
  </metadata>
  <g
     inkscape:label="Layer 1"
     inkscape:groupmode="layer"
     id="layer1"
     transform="translate(-7.206665,-4.270725)">
    <g
       transform="matrix(1.25,0,0,-1.25,-154.04296,1110.0236)"
       id="g494">
      <g
         id="g496"
         clip-path="url(#clipPath498)">
        <g
           id="g502"
           transform="translate(176.2797,864.2856)">
          <path
             d="M 0,0 C 0.142,0 0.265,-0.056 0.37,-0.168 L 1.413,-1.3 c -0.658,-0.793 -1.465,-1.404 -2.422,-1.834 -0.957,-0.429 -2.1,-0.644 -3.431,-0.644 -1.181,0 -2.248,0.203 -3.201,0.611 -0.952,0.407 -1.765,0.975 -2.438,1.704 -0.673,0.729 -1.191,1.598 -1.553,2.607 -0.362,1.009 -0.544,2.119 -0.544,3.33 0,1.211 0.193,2.322 0.578,3.335 0.385,1.013 0.926,1.884 1.625,2.612 0.699,0.729 1.536,1.295 2.512,1.699 0.975,0.403 2.05,0.605 3.223,0.605 1.166,0 2.196,-0.189 3.089,-0.566 0.893,-0.377 1.668,-0.88 2.326,-1.508 L 0.314,9.429 C 0.254,9.347 0.183,9.276 0.101,9.216 0.019,9.156 -0.093,9.126 -0.235,9.126 c -0.15,0 -0.32,0.069 -0.51,0.208 -0.191,0.138 -0.434,0.291 -0.729,0.46 -0.295,0.168 -0.666,0.321 -1.11,0.459 -0.445,0.138 -1,0.208 -1.665,0.208 -0.77,0 -1.476,-0.135 -2.119,-0.404 C -7.011,9.788 -7.564,9.396 -8.027,8.88 -8.491,8.364 -8.852,7.736 -9.109,6.996 -9.367,6.256 -9.496,5.415 -9.496,4.474 c 0,-0.95 0.135,-1.796 0.404,-2.54 0.269,-0.744 0.638,-1.372 1.11,-1.883 0.47,-0.513 1.023,-0.903 1.659,-1.172 0.635,-0.269 1.319,-0.404 2.052,-0.404 0.448,0 0.85,0.025 1.205,0.073 0.355,0.049 0.682,0.127 0.981,0.236 0.299,0.108 0.581,0.244 0.846,0.409 0.266,0.164 0.529,0.366 0.791,0.605 C -0.299,-0.067 -0.15,0 0,0"
             style="fill:#1f2c38;fill-opacity:1;fill-rule:nonzero;stroke:none"
             id="path504"
             inkscape:connector-curvature="0" />
        </g>
        <g
           id="g506"
           transform="translate(184.0493,862.8844)">
          <path
             d="m 0,0 6.705,0 0,-2.198 -9.329,0 0,16.145 2.624,0 L 0,0 Z"
             style="fill:#1f2c38;fill-opacity:1;fill-rule:nonzero;stroke:none"
             id="path508"
             inkscape:connector-curvature="0" />
        </g>
        <g
           id="g510"
           transform="translate(206.4652,868.7592)">
          <path
             d="M 0,0 C 0,0.927 -0.125,1.76 -0.376,2.5 -0.626,3.24 -0.985,3.868 -1.452,4.384 -1.919,4.899 -2.485,5.295 -3.15,5.572 -3.816,5.849 -4.563,5.987 -5.393,5.987 -6.215,5.987 -6.959,5.849 -7.624,5.572 -8.289,5.295 -8.857,4.899 -9.328,4.384 -9.799,3.868 -10.161,3.24 -10.416,2.5 -10.67,1.76 -10.797,0.927 -10.797,0 c 0,-0.934 0.127,-1.771 0.381,-2.512 0.255,-0.739 0.617,-1.365 1.088,-1.877 0.471,-0.512 1.039,-0.905 1.704,-1.178 0.665,-0.272 1.409,-0.409 2.231,-0.409 0.83,0 1.577,0.137 2.243,0.409 0.665,0.273 1.231,0.666 1.698,1.178 0.467,0.512 0.826,1.138 1.076,1.877 C -0.125,-1.771 0,-0.934 0,0 M 2.68,0 C 2.68,-1.196 2.485,-2.299 2.097,-3.308 1.708,-4.316 1.161,-5.185 0.454,-5.914 -0.252,-6.643 -1.1,-7.213 -2.091,-7.624 -3.081,-8.035 -4.182,-8.24 -5.393,-8.24 c -1.203,0 -2.3,0.205 -3.29,0.616 -0.991,0.411 -1.841,0.981 -2.551,1.71 -0.71,0.729 -1.259,1.598 -1.648,2.606 -0.389,1.009 -0.583,2.112 -0.583,3.308 0,1.196 0.194,2.298 0.583,3.307 0.389,1.009 0.938,1.88 1.648,2.613 0.71,0.732 1.56,1.304 2.551,1.715 0.99,0.411 2.087,0.617 3.29,0.617 1.211,0 2.312,-0.206 3.302,-0.617 C -1.1,7.224 -0.252,6.652 0.454,5.92 1.161,5.187 1.708,4.316 2.097,3.307 2.485,2.298 2.68,1.196 2.68,0"
             style="fill:#1f2c38;fill-opacity:1;fill-rule:nonzero;stroke:none"
             id="path512"
             inkscape:connector-curvature="0" />
        </g>
        <g
           id="g514"
           transform="translate(219.9148,862.8056)">
          <path
             d="m 0,0 c 0.62,0 1.175,0.105 1.665,0.314 0.489,0.209 0.904,0.501 1.244,0.874 0.34,0.374 0.6,0.825 0.779,1.352 0.18,0.526 0.269,1.111 0.269,1.754 l 0,9.732 2.613,0 0,-9.732 C 6.57,3.345 6.418,2.467 6.116,1.66 5.813,0.852 5.378,0.155 4.81,-0.431 4.242,-1.018 3.552,-1.478 2.741,-1.81 1.93,-2.143 1.016,-2.309 0,-2.309 c -1.017,0 -1.931,0.166 -2.741,0.499 -0.811,0.332 -1.501,0.792 -2.069,1.379 C -5.378,0.155 -5.813,0.852 -6.116,1.66 -6.419,2.467 -6.57,3.345 -6.57,4.294 l 0,9.732 2.623,0 0,-9.72 c 0,-0.644 0.09,-1.228 0.269,-1.755 0.18,-0.527 0.438,-0.979 0.774,-1.357 0.337,-0.377 0.749,-0.671 1.239,-0.88 C -1.176,0.105 -0.621,0 0,0"
             style="fill:#1f2c38;fill-opacity:1;fill-rule:nonzero;stroke:none"
             id="path516"
             inkscape:connector-curvature="0" />
        </g>
        <g
           id="g518"
           transform="translate(243.1582,868.7592)">
          <path
             d="m 0,0 c 0,0.927 -0.125,1.76 -0.376,2.5 -0.25,0.74 -0.609,1.364 -1.076,1.872 -0.467,0.509 -1.033,0.899 -1.698,1.172 -0.666,0.273 -1.413,0.409 -2.243,0.409 l -3.464,0 0,-11.907 3.464,0 c 0.83,0 1.577,0.135 2.243,0.404 0.665,0.269 1.231,0.66 1.698,1.172 0.467,0.512 0.826,1.136 1.076,1.872 C -0.125,-1.77 0,-0.934 0,0 M 2.679,0 C 2.679,-1.196 2.485,-2.289 2.096,-3.279 1.708,-4.27 1.16,-5.12 0.454,-5.83 -0.252,-6.54 -1.101,-7.091 -2.091,-7.484 -3.082,-7.876 -4.182,-8.072 -5.393,-8.072 l -6.099,0 0,16.144 6.099,0 c 1.211,0 2.311,-0.196 3.302,-0.588 C -1.101,7.091 -0.252,6.54 0.454,5.83 1.16,5.12 1.708,4.27 2.096,3.279 2.485,2.289 2.679,1.196 2.679,0"
             style="fill:#1f2c38;fill-opacity:1;fill-rule:nonzero;stroke:none"
             id="path520"
             inkscape:connector-curvature="0" />
        </g>
        <g
           id="g522"
           transform="translate(247.923,862.0771)">
          <path
             d="M 0,0 C 0,0.217 0.039,0.421 0.118,0.611 0.196,0.802 0.304,0.968 0.443,1.11 0.581,1.252 0.745,1.364 0.936,1.446 1.127,1.528 1.33,1.57 1.547,1.57 1.764,1.57 1.968,1.528 2.158,1.446 2.349,1.364 2.515,1.252 2.657,1.11 2.799,0.968 2.911,0.802 2.993,0.611 3.076,0.421 3.117,0.217 3.117,0 3.117,-0.224 3.076,-0.43 2.993,-0.617 2.911,-0.804 2.799,-0.968 2.657,-1.11 2.515,-1.252 2.349,-1.362 2.158,-1.441 1.968,-1.519 1.764,-1.558 1.547,-1.558 1.33,-1.558 1.127,-1.519 0.936,-1.441 0.745,-1.362 0.581,-1.252 0.443,-1.11 0.304,-0.968 0.196,-0.804 0.118,-0.617 0.039,-0.43 0,-0.224 0,0"
             style="fill:#277cb2;fill-opacity:1;fill-rule:nonzero;stroke:none"
             id="path524"
             inkscape:connector-curvature="0" />
        </g>
        <g
           id="g526"
           transform="translate(262.0382,860.5074)">
          <path
             d="m 0,0 c -1.308,0 -2.491,0.203 -3.549,0.611 -1.057,0.407 -1.96,0.975 -2.707,1.704 -0.748,0.729 -1.323,1.598 -1.727,2.607 -0.403,1.009 -0.605,2.119 -0.605,3.33 0,1.218 0.194,2.333 0.583,3.346 0.389,1.013 0.945,1.884 1.67,2.613 0.725,0.728 1.6,1.293 2.624,1.693 1.024,0.399 2.175,0.599 3.453,0.599 0.65,0 1.254,-0.05 1.811,-0.151 0.557,-0.101 1.074,-0.241 1.552,-0.42 0.479,-0.18 0.92,-0.397 1.324,-0.651 0.403,-0.254 0.773,-0.538 1.11,-0.852 L 4.787,13.23 C 4.668,13.043 4.514,12.927 4.328,12.882 c -0.187,-0.045 -0.389,0 -0.606,0.134 -0.217,0.127 -0.446,0.262 -0.689,0.404 -0.243,0.142 -0.522,0.275 -0.835,0.398 -0.314,0.124 -0.677,0.224 -1.088,0.303 -0.411,0.078 -0.897,0.118 -1.457,0.118 -0.853,0 -1.621,-0.141 -2.305,-0.421 -0.683,-0.28 -1.268,-0.68 -1.754,-1.2 C -4.892,12.099 -5.266,11.469 -5.527,10.73 -5.789,9.989 -5.92,9.164 -5.92,8.252 c 0,-0.964 0.139,-1.826 0.415,-2.585 0.277,-0.758 0.669,-1.401 1.177,-1.928 0.509,-0.527 1.123,-0.929 1.845,-1.205 0.721,-0.277 1.526,-0.415 2.416,-0.415 0.665,0 1.257,0.071 1.777,0.213 0.519,0.142 1.029,0.34 1.53,0.594 l 0,3.207 -2.253,0 C 0.815,6.133 0.68,6.179 0.583,6.273 0.486,6.366 0.437,6.488 0.437,6.637 l 0,1.491 5.169,0 0,-6.39 C 3.999,0.579 2.13,0 0,0"
             style="fill:#277cb2;fill-opacity:1;fill-rule:nonzero;stroke:none"
             id="path528"
             inkscape:connector-curvature="0" />
        </g>
        <g
           id="g530"
           transform="translate(284.8806,868.7592)">
          <path
             d="M 0,0 C 0,0.927 -0.125,1.76 -0.376,2.5 -0.626,3.24 -0.985,3.868 -1.452,4.384 -1.919,4.899 -2.485,5.295 -3.15,5.572 -3.816,5.849 -4.563,5.987 -5.393,5.987 -6.215,5.987 -6.959,5.849 -7.624,5.572 -8.289,5.295 -8.857,4.899 -9.328,4.384 -9.799,3.868 -10.161,3.24 -10.416,2.5 -10.67,1.76 -10.797,0.927 -10.797,0 c 0,-0.934 0.127,-1.771 0.381,-2.512 0.255,-0.739 0.617,-1.365 1.088,-1.877 0.471,-0.512 1.039,-0.905 1.704,-1.178 0.665,-0.272 1.409,-0.409 2.231,-0.409 0.83,0 1.577,0.137 2.243,0.409 0.665,0.273 1.231,0.666 1.698,1.178 0.467,0.512 0.826,1.138 1.076,1.877 C -0.125,-1.771 0,-0.934 0,0 M 2.68,0 C 2.68,-1.196 2.485,-2.299 2.097,-3.308 1.708,-4.316 1.161,-5.185 0.454,-5.914 -0.252,-6.643 -1.1,-7.213 -2.091,-7.624 -3.081,-8.035 -4.182,-8.24 -5.393,-8.24 c -1.203,0 -2.3,0.205 -3.29,0.616 -0.991,0.411 -1.841,0.981 -2.551,1.71 -0.71,0.729 -1.259,1.598 -1.648,2.606 -0.389,1.009 -0.583,2.112 -0.583,3.308 0,1.196 0.194,2.298 0.583,3.307 0.389,1.009 0.938,1.88 1.648,2.613 0.71,0.732 1.56,1.304 2.551,1.715 0.99,0.411 2.087,0.617 3.29,0.617 1.211,0 2.312,-0.206 3.302,-0.617 C -1.1,7.224 -0.252,6.652 0.454,5.92 1.161,5.187 1.708,4.316 2.097,3.307 2.485,2.298 2.68,1.196 2.68,0"
             style="fill:#277cb2;fill-opacity:1;fill-rule:nonzero;stroke:none"
             id="path532"
             inkscape:connector-curvature="0" />
        </g>
        <g
           id="g534"
           transform="translate(289.4366,876.8315)">
          <path
             d="m 0,0 2.097,0 c 0.231,0 0.418,-0.058 0.56,-0.174 0.142,-0.116 0.251,-0.26 0.325,-0.431 l 4.16,-10.528 c 0.105,-0.292 0.211,-0.609 0.319,-0.953 0.109,-0.344 0.208,-0.706 0.297,-1.088 0.083,0.382 0.17,0.744 0.264,1.088 0.093,0.344 0.196,0.661 0.308,0.953 l 4.148,10.528 c 0.06,0.149 0.165,0.287 0.314,0.414 C 12.942,-0.064 13.129,0 13.353,0 l 2.108,0 -6.548,-16.145 -2.365,0 L 0,0 Z"
             style="fill:#277cb2;fill-opacity:1;fill-rule:nonzero;stroke:none"
             id="path536"
             inkscape:connector-curvature="0" />
        </g>
        <g
           id="g538"
           transform="translate(139.2037,872.1443)">
          <path
             d="M 0,0 1.767,5.437 3.533,0 8.873,0 13.745,3.75 1.771,12.458 -10.204,3.75 -5.323,0 0,0 Z"
             style="fill:#3498db;fill-opacity:1;fill-rule:nonzero;stroke:none"
             id="path540"
             inkscape:connector-curvature="0" />
        </g>
        <g
           id="g542"
           transform="translate(148.0763,872.1443)">
          <path
             d="m 0,0 0.002,0 -4.25,-3.36 1.767,-5.437 -4.625,3.36 -4.625,-3.36 1.767,5.437 -4.232,3.36 0,0 -4.88,3.75 0,-13.827 11.974,-8.697 11.974,8.697 0,13.827 L 0,0 Z"
             style="fill:#1f2c38;fill-opacity:1;fill-rule:nonzero;stroke:none"
             id="path544"
             inkscape:connector-curvature="0" />
        </g>
      </g>
    </g>
  </g>
</svg>
