<svg id="Layer_1" data-name="Layer 1" xmlns="http://www.w3.org/2000/svg" viewBox="0 0 33 33"><defs><style>.cls-1{fill:#fff;}</style></defs><title>southeast-arrow-white</title><path class="cls-1" d="M40,26.66a125.72,125.72,0,0,0,.9,14.76l-0.24.24a126,126,0,0,0-14.76-.9A85.59,85.59,0,0,0,11.43,41.9L11,32.84q2.46-.18,4.74-0.18a56.07,56.07,0,0,1,11.58,1.2q-3.72-3.06-9.12-8.46l-10-10L14.67,8.9l10,10A113.2,113.2,0,0,1,33.15,28a56,56,0,0,1-1.2-11.58q0-2.34.18-4.74l9.06,0.42A85.58,85.58,0,0,0,40,26.66Z" transform="translate(-8.19 -8.9)"/></svg>