<svg height="188" viewBox="0 0 176 188" width="176" xmlns="http://www.w3.org/2000/svg"><g fill="none" fill-rule="evenodd"><circle cx="79" cy="85" fill="#0271bb" r="69"/><g transform="translate(2 2)"><g stroke="#f1f1f1" stroke-width="4" transform="translate(45)"><path d="m0 11h114v98.004101c0 .55002-.44746.995899-1.002875.995899h-111.99424991c-.55387262 0-1.00287509-.441384-1.00287509-.995899z" fill="#112d51"/><path d="m0 .9955775c0-.54984227.44746004-.9955775 1.00287509-.9955775h111.99424991c.553873 0 1.002875.44483697 1.002875.9955775v10.0044225h-114z" fill="#0271bb"/></g><g stroke="#0271bb" stroke-width="4" transform="translate(118 23)"><path d="m51.11748 64h-47.93256c-1.55736 0-3.18492-.9900522-3.18492-2.2088348v-59.58233042c0-1.21878261 1.62756-2.20883478 3.18492-2.20883478h36.65304l14.16204 11.0369391v50.7542261c0 1.2187826-1.32552 2.2088348-2.88252 2.2088348z" fill="#fff"/><path d="m42 47h-29"/><path d="m42 39h-29"/><path d="m42 30h-29"/><path d="m24 22h-11"/><path d="m40 0v11h14"/></g><g transform="translate(0 29)"><path d="m18.4294267 17c-1.1348667 0-2.4294267 1.0870462-2.4294267 2.1737107v37.6533423c0 1.0843735 1.29456 2.172947 2.4294267 2.172947h53.14308c1.1340933 0 2.4274933-1.0885735 2.4274933-2.172947v-37.6533423c0-1.0866645-1.2934-2.1737107-2.4271067-2.1737107z" fill="#0271bb" stroke="#fff" stroke-width="4"/><circle cx="29.5" cy="30.5" fill="#112d51" r="5.5" stroke="#fff" stroke-width="2"/><path d="m31 58 14.3025125-24.2778577 6.9711273 9.4662913 8.9657827-14.1884336 12.7605775 18.127606v10.2085667z" fill="#112d51" stroke="#fff" stroke-width="2"/><g stroke-linecap="round" stroke-width="4"><path d="m15 8v-8" stroke="#fff"/><path d="m8 16h-8" stroke="#fff"/><path d="m8 59h-8" stroke="#fff"/><path d="m15 74v-8" stroke="#fff"/><path d="m89 59h-8" stroke="#0271bb"/><path d="m89 16h-8" stroke="#0271bb"/><path d="m74 8v-8" stroke="#0271bb"/><path d="m74 74v-8" stroke="#0271bb"/></g></g><path d="m141.754544 137c3.3136 0 4.7604 2.8768 4.7604 6.1904 0 0-1.1628 10.8088-5.366 19.064-2.9908 5.8744-4.8456 15.2868-5.4372 18.6996s1.569774 5.046-1.893923 5.046h-27.063277c-4.469469 0-2.5304-.606-3.0428-5.046s-6.7236004-11.1816-6.7236004-11.1816c-9.1032-10.6044-16.554-31.5116-16.554-31.5116-2.3272-6.0776 5.3444-8.6528 7.788-4.8044l3.3284 5.5436 6.6896992 11.415869c.8363252 1.427176 1.5143008 1.246752 1.5143008-.412401v-47.003468c0-3.3136 2.6864004-6 6.0000004-6s6 2.6864 6 6v34-6c0-3.3136 2.6864-6 6-6s6 2.6864 6 6v10-6c0-3.3136 2.6864-6 6-6s6 2.6864 6 6v8 2-2c0-3.3136 2.6864-6 6-6z" fill="#b49e89"/></g></g></svg>