<?xml version="1.0" encoding="UTF-8"?>
<svg width="170px" height="190px" viewBox="0 0 170 190" version="1.1" xmlns="http://www.w3.org/2000/svg" xmlns:xlink="http://www.w3.org/1999/xlink">
    <title>Launch</title>
    <g id="Page-1" stroke="none" stroke-width="1" fill="none" fill-rule="evenodd">
        <g id="Modified" transform="translate(-321.000000, 0.233437)">
            <g id="Launch" transform="translate(321.054694, -0.000000)">
                <circle id="Oval-Copy-3" fill="#0271BB" cx="83.9453056" cy="86.7665631" r="69"></circle>
                <g id="Launch-Copy-3">
                    <g id="Hand" transform="translate(58.945306, 75.766563)">
                        <line x1="0.293659514" y1="32.7386" x2="11.9500437" y2="32.7386" id="Shape" stroke="#FFFFFF" stroke-width="4"></line>
                        <line x1="45.2914322" y1="32.7386" x2="56.9483405" y2="32.7386" id="Shape" stroke="#FFFFFF" stroke-width="4"></line>
                        <line x1="29.1175571" y1="0.7386" x2="29.1175571" y2="14.7386" id="Shape-Copy" stroke="#FFFFFF" stroke-width="4"></line>
                        <line x1="40.6942826" y1="21.7386" x2="50.1862541" y2="11.7386" id="Shape" stroke="#FFFFFF" stroke-width="4"></line>
                        <line x1="16.5477174" y1="21.7386" x2="7.0557459" y2="11.7386" id="Shape" stroke="#FFFFFF" stroke-width="4"></line>
                        <path d="M64.7545436,65 C68.0681436,65 69.5149436,67.8768 69.5149436,71.1904 C69.5149436,71.1904 68.3521436,81.9992 64.1489436,90.2544 C61.1581436,96.1288 59.3033436,105.5412 58.7117436,108.954 C58.1201436,112.3668 60.2815178,114 56.8178212,114 L29.7545436,114 C25.2850745,114 27.2241436,113.394 26.7117436,108.954 C26.1993436,104.514 19.9881436,97.7724 19.9881436,97.7724 C10.8849436,87.168 3.43414359,66.2608 3.43414359,66.2608 C1.10694359,60.1832 8.77854359,57.608 11.2221436,61.4564 L14.5505436,67 L21.2402428,78.415869 C22.076568,79.8430451 22.7545436,79.6626208 22.7545436,78.0034676 L22.7545436,31 C22.7545436,27.6864 25.4409436,25 28.7545436,25 C32.0681436,25 34.7545436,27.6864 34.7545436,31 L34.7545436,65 L34.7545436,59 C34.7545436,55.6864 37.4409436,53 40.7545436,53 C44.0681436,53 46.7545436,55.6864 46.7545436,59 L46.7545436,69 L46.7545436,63 C46.7545436,59.6864 49.4409436,57 52.7545436,57 C56.0681436,57 58.7545436,59.6864 58.7545436,63 L58.7545436,71 L58.7545436,73 L58.7545436,71 C58.7545436,67.6864 61.4409436,65 64.7545436,65 Z" id="Shape" fill="#B49E89"></path>
                    </g>
                    <g id="Badge" transform="translate(115.522164, 31.766563)">
                        <path d="M52.3879009,9.22193962 C52.3734616,9.22615215 51.0816113,9.59217458 49.1001685,9.59217458 C44.9099806,9.59217458 38.8419868,8.04032376 33.7283833,0.644517744 C33.1340436,-0.214839248 31.7117739,-0.214839248 31.1176671,0.644517744 C24.9444063,9.57298414 16.2412426,10.510507 12.4644376,9.22404589 C11.4536875,8.9221476 10.4231417,9.68157392 10.4231417,10.7553021 L10.4231417,25.7945175 C10.4231417,46.7858099 31.7886282,52.8834532 32.0038201,52.9438329 C32.1405276,52.9812776 32.2811942,53 32.4220937,53 C32.5627603,53 32.7036597,52.9812776 32.8403672,52.9438329 C33.0576552,52.8834532 54.4231417,46.7858099 54.4231417,25.7945175 L54.4231417,10.7550681 C54.4231417,9.7145721 53.4231046,8.9261261 52.3879009,9.22193962 L52.3879009,9.22193962 Z" id="Shape" fill="#112D51"></path>
                        <path d="M40.693433,22.8476776 L34.4256333,22.7111196 L32.367998,16.406351 C32.1906027,15.8624474 31.4773623,15.8666561 31.3022126,16.406351 L29.244993,22.7111196 L22.976528,22.8476776 C22.4414314,22.8600349 22.2204566,23.5939556 22.6494321,23.9423798 L27.6405348,27.9741078 L25.8270778,34.3583039 C25.6696426,34.9099084 26.2504811,35.3633704 26.687607,35.0376909 L31.83523,31.2215006 L36.9832689,35.0376909 C37.4231392,35.3628331 38.0006511,34.9072221 37.8433822,34.3583039 L36.0288441,27.9741078 L41.0202794,23.9423798 C41.4495044,23.5945824 41.228197,22.8600349 40.693433,22.8476776 L40.693433,22.8476776 Z" id="Shape" fill="#FFFFFF"></path>
                        <g id="Group" transform="translate(0.000000, 28.568608)">
                            <circle id="Oval" fill="#FFFFFF" cx="10.4336833" cy="10.4336833" r="10.4336833"></circle>
                            <polyline id="Shape" stroke="#112D51" stroke-width="3" points="5.90745833 10.7476417 8.949325 14.5507083 15.4994583 6.361575"></polyline>
                        </g>
                    </g>
                    <g id="Lock" transform="translate(0.000000, 31.782546)">
                        <path d="M5.09311111,20.94235 C2.28521111,20.94235 -2.22784754e-14,23.1639917 -2.22784754e-14,26.0045417 L2.25343889,49.7050333 C2.25343889,52.5489667 4.53888889,54.7756833 7.34655,54.7756833 L33.4728722,54.7756833 C36.2807722,54.7756833 38.5671778,52.5032917 38.5671778,49.6593583 L40.8206167,25.9849667 C40.8206167,23.1444167 38.5342111,20.94235 35.7263111,20.94235 L5.09311111,20.94235 L5.09311111,20.94235 Z" id="Shape" fill="#112D51"></path>
                        <path d="M23.0761889,45.1090167 L17.7453833,45.1090167 L16.74205,36.7546 C16.74205,34.741275 18.38465,33.1482083 20.4070833,33.1482083 C22.4328611,33.1482083 24.0766556,34.7207333 24.0766556,36.7338167 L23.0761889,45.1090167 L23.0761889,45.1090167 Z" id="Shape" fill="#FFFFFF"></path>
                        <path d="M9.66281667,20.94235 L9.66281667,10.1558 C9.66281667,4.55614167 14.7435056,-2.14643118e-15 20.4135333,-2.14643118e-15 C26.0866667,-2.14643118e-15 31.1628167,4.55614167 31.1628167,10.1558 L31.1628167,20.94235" id="Shape" stroke="#112D51" stroke-width="3"></path>
                        <g id="Group" transform="translate(33.945306, 27.984017)">
                            <circle id="Oval" fill="#FFFFFF" cx="11.0105417" cy="11.0022917" r="10.4336833"></circle>
                            <polyline id="Shape" stroke="#112D51" stroke-width="3" points="6.48431667 11.31625 9.52618333 15.1193167 16.0763167 6.93018333"></polyline>
                        </g>
                    </g>
                    <g id="Settings" transform="translate(61.945306, 0.000000)">
                        <path d="M43.3721005,24.8058716 C43.6492328,22.8025008 43.6599366,20.8651046 43.3721005,18.7833039 L37.4692213,18.0108754 C37.0708436,16.3550877 36.4184928,14.8024462 35.5538166,13.3893439 L39.1843666,8.66544464 C37.9686043,7.0571431 36.5350674,5.62321695 34.9273497,4.40648156 L30.2048128,8.03644772 C28.7911266,7.16982541 27.2373174,6.51611233 25.5801674,6.11656695 L24.8075443,0.212714641 C22.756882,-0.071423821 20.8212374,-0.0696722825 18.7871174,0.210573871 L18.0148836,6.11209079 C16.355009,6.51046849 14.7986697,7.16398695 13.3826482,8.03080387 L8.65894357,4.40044849 C7.11681126,5.56638926 5.64493511,7.01335464 4.40212126,8.65532464 L8.03169818,13.3778616 C7.16293511,14.7946616 6.50805434,16.3519739 6.10850895,18.0132108 L0.206018952,18.7856393 C-0.0586579708,20.7006546 -0.07850874,22.7456731 0.206018952,24.8039254 L6.10850895,25.5763539 C6.50805434,27.2375908 7.16293511,28.7949031 8.03169818,30.2117031 L4.40212126,34.93424 C5.56864588,36.4755939 7.01638972,37.9472754 8.65894357,39.1891162 L13.3826482,35.5585662 C14.7988643,36.4253831 16.355009,37.0789016 18.0148836,37.4772793 L18.7871174,43.3787962 C20.8208482,43.6590423 22.7564928,43.6609885 24.8075443,43.3766554 L25.5801674,37.4728031 C27.2371228,37.0732577 28.790932,36.4195446 30.2046182,35.5529223 L34.9273497,39.1826939 C36.5350674,37.9659585 37.9686043,36.5320323 39.1843666,34.9237308 L35.5538166,30.1998316 C36.4184928,28.7869239 37.0708436,27.2340877 37.4692213,25.5783 L43.3721005,24.8058716 Z" id="Shape" fill="#112D51"></path>
                        <circle id="Oval" fill="#FFFFFF" cx="21.9963023" cy="21.7945877" r="8.07225692"></circle>
                        <g id="Check" transform="translate(11.576858, 36.335171)">
                            <circle id="Oval" fill="#FFFFFF" cx="10.4336833" cy="10.4336833" r="10.4336833"></circle>
                            <polyline id="Shape" stroke="#112D51" stroke-width="3" points="5.90745833 10.7476417 8.949325 14.5507083 15.4994583 6.361575"></polyline>
                        </g>
                    </g>
                </g>
            </g>
        </g>
    </g>
</svg>