<svg height="192" viewBox="0 0 169 192" width="169" xmlns="http://www.w3.org/2000/svg"><g fill="none" fill-rule="evenodd"><circle cx="100" cy="88" fill="#0271bb" r="69"/><g transform="translate(0 1.4204)"><g stroke="#112d51" stroke-width="4"><path d="m130.1572.813663v122.722103" stroke-linecap="round"/><path d="m10.1572 1v108.9952" stroke-linecap="round"/><path d="m99.948 1v122.535274" stroke-linecap="round"/><path d="m40.2136.813663v122.721611" stroke-linecap="round"/><path d="m70.0004 109.9956v13.6712"/><path d="m70.0004 1v91.894" stroke-linecap="round"/></g><path d="m99.948 61.894c5.609667 0 10.1572-4.5475333 10.1572-10.1572 0-3.6349484-1.909406-6.8239311-4.779939-8.618669-1.559442-.9750074-3.402543-1.538531-5.377261-1.538531-5.6096667 0-10.1572 4.5475333-10.1572 10.1572s4.5475333 10.1572 10.1572 10.1572z" fill="#fff"/><circle cx="10.1572" cy="113.7368" fill="#0271bb" r="10.1572"/><circle cx="40.2136" cy="23.7368" fill="#0271bb" r="10.1572"/><circle cx="130.1572" cy="82.7368" fill="#fff" r="10.1572"/><circle cx="70.0004" cy="99.838" fill="#fff" r="10.1572"/><path d="m105.754544 141.5796c3.3136 0 4.7604 2.8768 4.7604 6.1904 0 0-1.1628 10.8088-5.366 19.064-2.9908 5.8744-4.8456 15.2868-5.4372004 18.6996-.5916 3.4128 1.5697744 5.046-1.8939224 5.046h-27.0632776c-4.4694691 0-2.5304-.606-3.0428-5.046s-6.7236-11.1816-6.7236-11.1816c-9.1032-10.6044-16.554-31.5116-16.554-31.5116-2.3272-6.0776 5.3444-8.6528 7.788-4.8044l3.3284 5.5436 6.6896992 11.415869c.8363252 1.427176 1.5143008 1.246752 1.5143008-.412401v-47.003468c0-3.3136 2.6864-6 6-6s6 2.6864 6 6v34-6c0-3.3136 2.6864-6 6-6s6 2.6864 6 6v10-6c0-3.3136 2.6864-6 6-6s6 2.6864 6 6v8 2-2c0-3.3136 2.6864004-6 6.0000004-6z" fill="#b49e89"/></g></g></svg>