<?xml version="1.0" encoding="UTF-8"?>
<svg width="169px" height="192px" viewBox="0 0 169 192" version="1.1" xmlns="http://www.w3.org/2000/svg" xmlns:xlink="http://www.w3.org/1999/xlink">
    <title>Manage</title>
    <g id="Page-1" stroke="none" stroke-width="1" fill="none" fill-rule="evenodd">
        <g id="Modified" transform="translate(-643.000000, 1.233437)">
            <g id="Manage" transform="translate(643.000000, 0.186963)">
                <circle id="Oval-Copy-5" fill="#0271BB" cx="100" cy="86.5796" r="69"></circle>
                <g id="Group-3">
                    <g id="Settings">
                        <line x1="130.1572" y1="0.813662921" x2="130.1572" y2="123.535766" id="Shape-Copy-4" stroke="#112D51" stroke-width="4" stroke-linecap="round"></line>
                        <line x1="10.1572" y1="1" x2="10.1572" y2="109.9952" id="Shape-Copy-2" stroke="#112D51" stroke-width="4" stroke-linecap="round"></line>
                        <line x1="99.948" y1="1" x2="99.948" y2="123.535274" id="Shape" stroke="#112D51" stroke-width="4" stroke-linecap="round"></line>
                        <line x1="40.2136" y1="0.813662921" x2="40.2136" y2="123.535274" id="Shape" stroke="#112D51" stroke-width="4" stroke-linecap="round"></line>
                        <line x1="70.0004" y1="109.9956" x2="70.0004" y2="123.6668" id="Shape" stroke="#112D51" stroke-width="4"></line>
                        <line x1="70.0004" y1="1" x2="70.0004" y2="92.894" id="Shape" stroke="#112D51" stroke-width="4" stroke-linecap="round"></line>
                        <path d="M99.948,61.894 C105.557667,61.894 110.1052,57.3464667 110.1052,51.7368 C110.1052,48.1018516 108.195794,44.9128689 105.325261,43.118131 C103.765819,42.1431236 101.922718,41.5796 99.948,41.5796 C94.3383333,41.5796 89.7908,46.1271333 89.7908,51.7368 C89.7908,57.3464667 94.3383333,61.894 99.948,61.894 Z" id="Oval" fill="#FFFFFF"></path>
                        <circle id="Oval-Copy" fill="#0271BB" cx="10.1572" cy="113.7368" r="10.1572"></circle>
                        <circle id="Oval" fill="#0271BB" cx="40.2136" cy="23.7368" r="10.1572"></circle>
                        <circle id="Oval-Copy-2" fill="#FFFFFF" cx="130.1572" cy="82.7368" r="10.1572"></circle>
                        <circle id="Oval" fill="#FFFFFF" cx="70.0004" cy="99.838" r="10.1572"></circle>
                    </g>
                    <path d="M105.754544,141.5796 C109.068144,141.5796 110.514944,144.4564 110.514944,147.77 C110.514944,147.77 109.352144,158.5788 105.148944,166.834 C102.158144,172.7084 100.303344,182.1208 99.7117436,185.5336 C99.1201436,188.9464 101.281518,190.5796 97.8178212,190.5796 L70.7545436,190.5796 C66.2850745,190.5796 68.2241436,189.9736 67.7117436,185.5336 C67.1993436,181.0936 60.9881436,174.352 60.9881436,174.352 C51.8849436,163.7476 44.4341436,142.8404 44.4341436,142.8404 C42.1069436,136.7628 49.7785436,134.1876 52.2221436,138.036 L55.5505436,143.5796 L62.2402428,154.995469 C63.076568,156.422645 63.7545436,156.242221 63.7545436,154.583068 L63.7545436,107.5796 C63.7545436,104.266 66.4409436,101.5796 69.7545436,101.5796 C73.0681436,101.5796 75.7545436,104.266 75.7545436,107.5796 L75.7545436,141.5796 L75.7545436,135.5796 C75.7545436,132.266 78.4409436,129.5796 81.7545436,129.5796 C85.0681436,129.5796 87.7545436,132.266 87.7545436,135.5796 L87.7545436,145.5796 L87.7545436,139.5796 C87.7545436,136.266 90.4409436,133.5796 93.7545436,133.5796 C97.0681436,133.5796 99.7545436,136.266 99.7545436,139.5796 L99.7545436,147.5796 L99.7545436,149.5796 L99.7545436,147.5796 C99.7545436,144.266 102.440944,141.5796 105.754544,141.5796 Z" id="Shape" fill="#B49E89"></path>
                </g>
            </g>
        </g>
    </g>
</svg>