<svg width="664" height="189" viewBox="0 0 664 189" fill="none" xmlns="http://www.w3.org/2000/svg">
<path d="M100.93 137.397C102.184 137.397 104.065 136.77 104.692 136.143L124.126 116.717L143.559 97.29L177.412 63.45C191.83 49.0367 191.83 25.2233 177.412 10.81C162.993 -3.60333 139.171 -3.60333 124.752 10.81L52.0324 83.5033C50.7786 84.7567 50.1517 86.01 50.7786 87.2633L51.4055 129.25L31.3448 149.303C18.18 134.263 10.6572 114.837 10.6572 94.7833C10.6572 72.85 19.4338 52.17 35.1062 36.5033C50.1517 20.8367 70.8393 12.69 93.4076 12.69C96.5421 12.69 98.4228 10.1833 98.4228 7.67667C98.4228 5.17 95.9152 2.66333 93.4076 2.66333C68.3317 2.66333 45.1366 12.0633 27.5834 30.2367C9.40345 46.53 0 70.3433 0 94.7833C0 119.85 9.40345 143.037 27.5834 160.583C45.1366 178.13 68.3317 188.157 93.4076 188.157C118.483 188.157 141.679 178.757 159.232 160.583C176.785 143.037 186.815 119.85 186.815 94.7833C186.815 91.65 184.308 89.77 181.8 89.77C178.666 89.77 176.785 92.2767 176.785 94.7833C176.785 116.717 168.008 137.397 152.336 153.063C136.663 168.73 115.976 177.503 94.0345 177.503C73.9738 177.503 54.54 169.983 39.4945 156.823L59.5552 136.77L100.93 137.397ZM99.0497 126.743H68.9586L78.3621 117.343L107.826 117.97L99.0497 126.743ZM97.7959 97.9167L127.26 98.5433L117.857 107.943L88.3924 106.69L97.7959 97.9167ZM61.4359 89.1433L132.275 18.33C142.932 7.67667 159.232 7.67667 169.889 18.33C174.904 23.3433 177.412 30.2367 177.412 37.13C177.412 44.0233 174.904 50.9167 169.889 55.93L137.917 87.89L108.453 87.2633L133.529 62.1967C135.41 60.3167 135.41 56.5567 133.529 54.6767C131.648 52.7967 127.887 52.7967 126.006 54.6767L72.72 107.943L61.4359 119.223V89.1433Z" fill="#153D64"/>
<path d="M238.898 150V37.212H277.04C285.1 37.212 292.276 38.564 298.568 41.268C304.86 43.972 309.8 47.976 313.388 53.28C317.028 58.584 318.848 65.11 318.848 72.858C318.848 80.346 317.158 86.742 313.778 92.046C310.45 97.298 305.796 101.328 299.816 104.136C293.836 106.892 286.894 108.27 278.99 108.27H253.718V150H238.898ZM253.64 96.102H278.678C286.374 96.102 292.64 93.944 297.476 89.628C302.364 85.312 304.808 79.436 304.808 72C304.808 64.512 302.312 58.844 297.32 54.996C292.328 51.148 285.88 49.224 277.976 49.224H253.64V96.102Z" fill="#153D64"/>
<path d="M356.047 151.56C348.195 151.56 341.799 149.506 336.859 145.398C331.919 141.29 329.449 135.544 329.449 128.16C329.449 119.216 332.569 112.56 338.809 108.192C345.049 103.824 355.059 101.484 368.839 101.172L383.269 100.782V94.464C383.269 89.524 381.761 85.624 378.745 82.764C375.781 79.852 371.205 78.396 365.017 78.396C360.389 78.448 356.307 79.566 352.771 81.75C349.235 83.882 346.973 87.34 345.985 92.124H333.271C333.687 84.272 336.755 78.266 342.475 74.106C348.195 69.894 355.943 67.788 365.719 67.788C376.223 67.788 384.075 69.998 389.275 74.418C394.527 78.838 397.153 85.26 397.153 93.684V150H384.829L383.815 134.868C380.643 141.16 376.665 145.528 371.881 147.972C367.097 150.364 361.819 151.56 356.047 151.56ZM360.415 141.186C364.003 141.186 367.539 140.328 371.023 138.612C374.559 136.896 377.471 134.712 379.759 132.06C382.047 129.356 383.217 126.496 383.269 123.48V109.674L371.257 109.908C362.001 110.064 355.059 111.442 350.431 114.042C345.803 116.59 343.489 120.828 343.489 126.756C343.489 131.332 345.049 134.894 348.169 137.442C351.341 139.938 355.423 141.186 360.415 141.186Z" fill="#153D64"/>
<path d="M455.801 176.676C443.165 176.676 433.311 174.83 426.239 171.138C419.167 167.498 415.631 162.272 415.631 155.46C415.631 152.548 416.307 150.078 417.659 148.05C419.011 145.97 420.623 144.254 422.495 142.902C424.367 141.55 426.109 140.484 427.721 139.704C429.333 138.872 430.373 138.274 430.841 137.91C429.957 137.39 428.839 136.74 427.487 135.96C426.187 135.18 425.043 134.14 424.055 132.84C423.067 131.54 422.573 129.85 422.573 127.77C422.573 125.222 423.743 122.908 426.083 120.828C428.475 118.696 432.037 117.084 436.769 115.992C432.037 113.652 428.345 110.506 425.693 106.554C423.041 102.55 421.715 98.234 421.715 93.606C421.715 85.754 424.835 79.54 431.075 74.964C437.315 70.388 445.895 68.1 456.815 68.1C462.067 68.1 466.487 68.724 470.075 69.972C473.663 71.168 476.991 72.884 480.059 75.12C481.203 74.652 483.127 73.846 485.831 72.702C488.535 71.558 491.291 70.414 494.099 69.27C496.959 68.074 499.143 67.19 500.651 66.618L500.573 79.956L486.455 82.608C488.223 86.248 489.107 89.914 489.107 93.606C489.107 100.73 486.299 106.762 480.683 111.702C475.119 116.642 466.721 119.112 455.489 119.112C454.865 119.112 454.059 119.112 453.071 119.112C452.135 119.06 451.329 119.008 450.653 118.956C445.089 119.112 441.267 119.736 439.187 120.828C437.159 121.92 436.145 123.09 436.145 124.338C436.145 125.846 437.315 126.886 439.655 127.458C441.995 128.03 445.973 128.524 451.589 128.94C453.617 129.044 456.113 129.2 459.077 129.408C462.041 129.564 465.369 129.746 469.061 129.954C477.537 130.474 484.063 132.632 488.639 136.428C493.215 140.224 495.503 145.346 495.503 151.794C495.503 159.126 492.227 165.106 485.675 169.734C479.123 174.362 469.165 176.676 455.801 176.676ZM455.879 109.83C461.703 109.83 466.383 108.478 469.919 105.774C473.507 103.07 475.301 99.066 475.301 93.762C475.301 88.354 473.507 84.22 469.919 81.36C466.383 78.448 461.703 76.992 455.879 76.992C450.003 76.992 445.245 78.448 441.605 81.36C438.017 84.22 436.223 88.354 436.223 93.762C436.223 98.858 437.939 102.81 441.371 105.618C444.803 108.426 449.639 109.83 455.879 109.83ZM458.375 167.394C465.811 167.394 471.505 166.276 475.457 164.04C479.409 161.804 481.385 158.424 481.385 153.9C481.385 150.728 480.163 148.102 477.719 146.022C475.327 143.942 471.661 142.746 466.721 142.434L444.101 140.952C442.073 140.848 439.967 141.368 437.783 142.512C435.599 143.604 433.727 145.138 432.167 147.114C430.659 149.09 429.905 151.326 429.905 153.822C429.905 158.138 432.219 161.466 436.847 163.806C441.475 166.198 448.651 167.394 458.375 167.394Z" fill="#153D64"/>
<path d="M526.39 113.028C526.39 118.124 527.222 122.752 528.886 126.912C530.602 131.02 533.176 134.296 536.608 136.74C540.092 139.184 544.434 140.406 549.634 140.406C554.782 140.406 559.202 139.21 562.894 136.818C566.638 134.426 569.03 130.968 570.07 126.444H583.72C582.732 131.904 580.548 136.506 577.168 140.25C573.788 143.994 569.706 146.828 564.922 148.752C560.138 150.624 555.146 151.56 549.946 151.56C542.406 151.56 535.776 149.922 530.056 146.646C524.336 143.37 519.864 138.664 516.64 132.528C513.416 126.392 511.804 119.034 511.804 110.454C511.804 101.978 513.26 94.542 516.172 88.146C519.084 81.75 523.296 76.758 528.808 73.17C534.372 69.582 541.054 67.788 548.854 67.788C560.242 67.788 568.978 71.402 575.062 78.63C581.146 85.806 584.188 95.504 584.188 107.724V113.028H526.39ZM526.468 103.278H570.304C570.304 96.362 568.536 90.538 565 85.806C561.464 81.074 556.056 78.708 548.776 78.708C543.732 78.708 539.546 79.93 536.218 82.374C532.89 84.766 530.42 87.86 528.808 91.656C527.196 95.4 526.416 99.274 526.468 103.278Z" fill="#153D64"/>
<path d="M632.013 151.56C626.345 151.56 621.119 150.676 616.335 148.908C611.551 147.14 607.547 144.436 604.323 140.796C601.151 137.104 599.175 132.346 598.395 126.522H611.499C612.539 131.254 614.905 134.816 618.597 137.208C622.341 139.6 626.787 140.796 631.935 140.796C637.343 140.796 641.711 139.782 645.039 137.754C648.367 135.726 650.031 132.606 650.031 128.394C650.031 122.726 646.469 119.034 639.345 117.318L622.653 113.184C616.101 111.624 610.875 109.18 606.975 105.852C603.127 102.524 601.203 97.87 601.203 91.89C601.151 84.818 603.699 79.046 608.847 74.574C613.995 70.05 621.691 67.788 631.935 67.788C640.671 67.788 647.717 69.764 653.073 73.716C658.481 77.668 661.289 83.414 661.497 90.954H648.783C648.211 87.106 646.469 84.064 643.557 81.828C640.645 79.54 636.719 78.396 631.779 78.396C626.631 78.396 622.445 79.436 619.221 81.516C615.997 83.544 614.385 86.716 614.385 91.032C614.385 93.892 615.529 96.154 617.817 97.818C620.105 99.43 623.485 100.782 627.957 101.874L644.103 105.93C649.043 107.23 652.891 109.076 655.647 111.468C658.403 113.86 660.327 116.486 661.419 119.346C662.511 122.206 663.057 124.962 663.057 127.614C663.057 135.05 660.327 140.9 654.867 145.164C649.407 149.428 641.789 151.56 632.013 151.56Z" fill="#153D64"/>
</svg>
