<?xml version="1.0" encoding="utf-8"?>
<!-- Generator: Adobe Illustrator 19.2.1, SVG Export Plug-In . SVG Version: 6.00 Build 0)  -->
<svg version="1.1" id="Layer_1" xmlns="http://www.w3.org/2000/svg" xmlns:xlink="http://www.w3.org/1999/xlink" x="0px" y="0px"
	 viewBox="0 0 100 100" style="enable-background:new 0 0 100 100;" xml:space="preserve">
<style type="text/css">
	.st0{fill:#FFFFFF;}
	.st1{opacity:0.5;fill:#F69F93;enable-background:new    ;}
	.st2{opacity:0.5;fill:#446586;enable-background:new    ;}
	.st3{opacity:0.5;}
	.st4{fill:#446586;}
</style>
<g id="Layer_1_1_">
</g>
<circle class="st0" cx="387.3" cy="108.5" r="45"/>
<polygon class="st1" points="416.3,130.9 416,100.1 389.5,84.5 363.2,99.7 363.5,130.5 390,146.1 "/>
<path class="st2" d="M387.9,142.3l-28.5-16.6l-0.2-33l28.3-16.3L416,93l0.2,33L387.9,142.3z M414.3,124.9L414,94.1l-26.5-15.6
	l-26.3,15.2l0.3,30.8l26.5,15.6L414.3,124.9z"/>
<polygon class="st2" points="361.5,92 388,107.6 414.3,92.5 416.2,93.5 387.9,109.8 359.5,93.2 "/>
<g class="st3">
	<path class="st4" d="M388.9,85v8h7.7v2h-7.7v8.1h-2.2V95H379v-2h7.7v-8H388.9z"/>
</g>
<circle class="st0" cx="50.3" cy="50.5" r="45"/>
<polygon class="st1" points="79.3,72.9 79,42.1 52.5,26.5 26.2,41.7 26.5,72.5 53,88.1 "/>
<path class="st2" d="M50.9,84.3L22.5,67.6l-0.2-33l28.3-16.3L79,35l0.2,33L50.9,84.3z M77.3,66.9L77,36.1L50.5,20.5L24.2,35.7
	l0.3,30.8L51,82.1L77.3,66.9z"/>
<polygon class="st2" points="24.5,34 51,49.6 77.3,34.5 79.2,35.5 50.9,51.8 22.5,35.2 "/>
<g class="st3">
	<path class="st4" d="M51.9,27v8h7.7v2h-7.7v8h-2.2v-8H42v-2h7.7v-8H51.9z"/>
</g>
</svg>
