<?xml version="1.0" encoding="utf-8"?>
<!-- Generator: Adobe Illustrator 19.2.1, SVG Export Plug-In . SVG Version: 6.00 Build 0)  -->
<svg version="1.1" id="Layer_1" xmlns="http://www.w3.org/2000/svg" xmlns:xlink="http://www.w3.org/1999/xlink" x="0px" y="0px"
	 viewBox="0 0 40 40" style="enable-background:new 0 0 40 40;" xml:space="preserve">
<style type="text/css">
	.st0{fill:#999999;}
</style>
<title>icon-pdf-orange</title>
<path class="st0" d="M33.7,10.7c0.4,0.4,0.7,0.9,0.9,1.4c0.2,0.5,0.4,1.1,0.4,1.6v21.2c0,1-0.8,1.8-1.7,1.8c0,0,0,0,0,0H8.5
	c-1,0-1.8-0.8-1.8-1.7c0,0,0,0,0,0V5.5c0-1,0.8-1.8,1.7-1.8c0,0,0,0,0,0H25c0.6,0,1.1,0.1,1.6,0.4c0.5,0.2,1,0.5,1.4,0.9L33.7,10.7z
	 M32.6,34.3V15.5H25c-1,0-1.8-0.8-1.8-1.7c0,0,0,0,0,0V6.1H9.1v28.3C9.1,34.3,32.6,34.3,32.6,34.3z M23.2,23.4c0.5,0.4,1,0.7,1.5,1
	c0.7-0.1,1.4-0.1,2.1-0.1c1.8,0,2.9,0.3,3.3,0.9c0.2,0.3,0.2,0.7,0,1l0,0l0,0l0,0C30,26.7,29.6,27,28.8,27c-0.7,0-1.4-0.1-2.1-0.4
	c-0.8-0.3-1.6-0.6-2.4-1c-2.5,0.2-4.9,0.8-7.2,1.5c-1.9,3.2-3.4,4.8-4.5,4.8c-0.2,0-0.4,0-0.5-0.1l-0.4-0.2l-0.1-0.1
	c-0.1-0.2-0.2-0.4-0.1-0.7c0.2-0.6,0.5-1.2,1-1.7c0.7-0.7,1.5-1.3,2.4-1.8c0.1-0.1,0.3-0.1,0.4,0c0,0,0,0,0,0.1c0,0,0,0,0,0.1
	c0.7-1,1.3-2.2,2-3.6c0.8-1.5,1.4-3.2,1.9-4.8c-0.3-1-0.5-1.9-0.6-2.9c-0.1-0.8,0-1.6,0.1-2.4c0-0.4,0.4-0.7,0.8-0.7H20
	c0.2,0,0.5,0.1,0.6,0.3c0.2,0.4,0.3,0.8,0.2,1.2c0,0.1,0,0.1-0.1,0.1c0,0,0,0.1,0,0.1v0.6c0,1.2-0.1,2.3-0.2,3.5
	C20.9,20.7,21.9,22.2,23.2,23.4z M12.6,31c1.1-0.8,1.9-1.8,2.5-2.9c-0.6,0.5-1.1,1-1.6,1.5C13.1,30.1,12.8,30.5,12.6,31z M17.6,26.2
	c1.7-0.7,3.4-1.2,5.2-1.5l-0.2-0.2c-0.1-0.1-0.2-0.2-0.3-0.2c-1-0.9-1.7-2-2.3-3.2c-0.4,1.2-0.9,2.5-1.5,3.6L17.6,26.2z M19.9,14.1
	c-0.2,0.8-0.2,1.6,0,2.4c0-0.1,0.1-0.4,0.1-0.8c0,0,0-0.3,0.1-0.8c0-0.1,0-0.1,0.1-0.1l0,0c0,0,0,0,0-0.1
	C20.2,14.4,20.1,14.2,19.9,14.1L19.9,14.1L19.9,14.1L19.9,14.1z M25.6,6.2v6.9h6.9c-0.1-0.3-0.2-0.5-0.4-0.8l-5.8-5.8
	C26.1,6.4,25.8,6.3,25.6,6.2z M29.5,25.9c-0.3-0.3-1.2-0.4-2.6-0.4c0.7,0.3,1.5,0.5,2.3,0.5L29.5,25.9C29.5,26,29.5,26,29.5,25.9z"
	/>
</svg>
