<svg enable-background="new 0 0 145 30" viewBox="0 0 145 30" xmlns="http://www.w3.org/2000/svg"><g fill="#162e51"><path d="m16.1 21.9c.2 0 .5-.1.6-.2l3.1-3.1 3.1-3.1 5.4-5.4c2.3-2.3 2.3-6.1 0-8.4-2.3-2.3-6.1-2.3-8.4 0l-11.6 11.6c-.2.2-.3.4-.2.6l.1 6.7-3.2 3.2c-2.1-2.4-3.3-5.5-3.3-8.7 0-3.5 1.4-6.8 3.9-9.3 2.4-2.5 5.7-3.8 9.3-3.8.5 0 .8-.4.8-.8s-.4-.8-.8-.8c-4 0-7.7 1.5-10.5 4.4-2.9 2.6-4.4 6.4-4.4 10.3 0 4 1.5 7.7 4.4 10.5 2.8 2.8 6.5 4.4 10.5 4.4s7.7-1.5 10.5-4.4c2.8-2.8 4.4-6.5 4.4-10.5 0-.5-.4-.8-.8-.8-.5 0-.8.4-.8.8 0 3.5-1.4 6.8-3.9 9.3s-5.8 3.9-9.3 3.9c-3.2 0-6.3-1.2-8.7-3.3l3.2-3.2zm-.3-1.7h-4.8l1.5-1.5 4.7.1zm-.2-4.6 4.7.1-1.5 1.5-4.7-.2zm-5.8-1.4 11.3-11.3c1.7-1.7 4.3-1.7 6 0 .8.8 1.2 1.9 1.2 3s-.4 2.2-1.2 3l-5.1 5.1-4.7-.1 4-4c.3-.3.3-.9 0-1.2s-.9-.3-1.2 0l-8.5 8.5-1.8 1.8z"/><path d="m49.1 6.1v2h-8.7v6.3h7.4v2h-7.4v7.8h-2.5v-18.1z"/><path d="m56.1 11.2c.8 0 1.5.1 2.1.4s1.2.6 1.7 1.1.8 1.1 1.1 1.8.4 1.5.4 2.4c0 .4 0 .6-.1.7s-.2.2-.4.2h-8.5c0 .8.1 1.5.3 2.1s.5 1.1.8 1.5.8.7 1.3.9 1 .3 1.6.3 1.1-.1 1.5-.2.8-.3 1.1-.4c.3-.2.5-.3.7-.4s.4-.2.5-.2c.2 0 .3.1.4.2l.6.8c-.3.3-.6.6-1 .9-.4.2-.8.5-1.2.6-.4.2-.9.3-1.4.4s-.9.1-1.4.1c-.9 0-1.7-.1-2.4-.4s-1.4-.7-1.9-1.3-1-1.3-1.3-2.1c-.3-.9-.5-1.8-.5-2.9 0-.9.1-1.7.4-2.5s.7-1.4 1.2-2 1.1-1 1.9-1.3c.7-.5 1.5-.7 2.5-.7zm0 1.7c-1.1 0-1.9.3-2.6.9-.6.6-1 1.5-1.2 2.6h7c0-.5-.1-1-.2-1.4s-.4-.8-.6-1.1c-.3-.3-.6-.6-1-.7-.4-.3-.9-.3-1.4-.3z"/><path d="m73.2 24.2c-.3 0-.5-.2-.6-.5l-.2-1.6c-.5.7-1.2 1.2-1.9 1.6s-1.5.6-2.4.6c-.7 0-1.4-.1-2-.4s-1.1-.7-1.5-1.2-.7-1.2-1-2-.3-1.8-.3-2.8c0-.9.1-1.8.4-2.6s.6-1.5 1.1-2.1 1.1-1.1 1.7-1.4c.7-.3 1.5-.5 2.3-.5s1.5.1 2 .4c.6.3 1.1.6 1.5 1.1v-7.2h2.2v18.6zm-4.3-1.6c.7 0 1.4-.2 1.9-.5.6-.3 1.1-.8 1.5-1.4v-6.2c-.4-.6-.9-.9-1.4-1.2-.5-.2-1-.3-1.6-.3-1.2 0-2.1.4-2.8 1.3-.6.9-1 2.1-1 3.6 0 .8.1 1.5.2 2.1s.4 1.1.6 1.5c.3.4.6.7 1 .8.6.2 1.1.3 1.6.3z"/><path d="m83.4 11.2c.8 0 1.5.1 2.1.4s1.2.6 1.7 1.1.8 1.1 1.1 1.8.4 1.5.4 2.4c0 .4 0 .6-.1.7s-.2.2-.4.2h-8.5c0 .8.1 1.5.3 2.1s.5 1.1.8 1.5c.4.4.8.7 1.3.9s1 .3 1.6.3 1.1-.1 1.5-.2.8-.3 1.1-.4c.3-.2.5-.3.7-.4s.4-.2.5-.2c.2 0 .3.1.4.2l.6.8c-.3.3-.6.6-1 .9-.4.2-.8.5-1.2.6-.4.2-.9.3-1.4.4s-.9.1-1.4.1c-.9 0-1.7-.1-2.4-.4s-1.4-.7-1.9-1.3-1-1.3-1.3-2.1c-.3-.9-.5-1.8-.5-2.9 0-.9.1-1.7.4-2.5s.7-1.4 1.2-2 1.1-1 1.9-1.3c.8-.5 1.6-.7 2.5-.7zm.1 1.7c-1.1 0-1.9.3-2.6.9-.6.6-1 1.5-1.2 2.6h7c0-.5-.1-1-.2-1.4s-.4-.8-.6-1.1c-.3-.3-.6-.6-1-.7-.5-.3-.9-.3-1.4-.3z"/><path d="m91.6 24.2v-12.8h1.3c.2 0 .4 0 .5.1s.2.3.2.5l.2 2c.4-.9 1-1.6 1.6-2.1s1.4-.8 2.3-.8c.4 0 .7 0 1 .1s.6.2.8.3l-.3 1.7c-.1.2-.2.3-.4.3-.1 0-.3 0-.5-.1s-.6-.1-1-.1c-.8 0-1.4.2-2 .7-.5.5-1 1.1-1.3 2v8.2z"/><path d="m110.7 24.2h-1c-.2 0-.4 0-.5-.1s-.2-.2-.3-.4l-.3-1.2c-.3.3-.7.6-1 .8s-.7.4-1 .6c-.4.2-.7.3-1.1.4s-.8.1-1.3.1-1-.1-1.4-.2-.8-.3-1.1-.6-.6-.6-.8-1.1c-.2-.4-.3-.9-.3-1.5 0-.5.1-1 .4-1.5s.7-.9 1.3-1.2c.6-.4 1.4-.7 2.4-.9s2.2-.3 3.7-.3v-1c0-1-.2-1.8-.6-2.3s-1.1-.8-1.9-.8c-.5 0-1 .1-1.4.2s-.7.3-1 .5-.5.3-.7.5c-.2.1-.4.2-.6.2s-.3 0-.4-.1-.2-.2-.3-.3l-.4-.7c.7-.7 1.5-1.2 2.3-1.5s1.7-.5 2.7-.5c.7 0 1.4.1 1.9.4.6.2 1 .6 1.4 1s.7.9.9 1.5.3 1.3.3 2v8zm-5.8-1.4c.4 0 .8 0 1.1-.1s.6-.2.9-.3.6-.3.8-.5c.3-.2.5-.5.8-.7v-2.6c-1 0-1.9.1-2.6.2s-1.3.3-1.8.5-.8.5-1 .7c-.2.3-.3.6-.3 1 0 .3.1.6.2.9.1.2.3.4.4.6.2.2.4.3.7.3z"/><path d="m116.6 5.6v18.6h-2.2v-18.6z"/><path d="m123.6 7.4c0 .2 0 .4-.1.6s-.2.4-.4.5c-.1.1-.3.3-.5.3-.2.1-.4.2-.6.2s-.4 0-.6-.1-.4-.2-.5-.3-.3-.3-.3-.5c-.1-.2-.1-.4-.1-.6s0-.4.1-.6.2-.4.3-.5.3-.3.5-.3c.2-.1.4-.1.6-.1s.4 0 .6.1.4.2.5.3.3.3.4.5c0 .1.1.3.1.5zm-.5 4v12.8h-2.2v-12.8z"/><path d="m134.4 13.5c-.1.2-.3.3-.5.3-.1 0-.3 0-.4-.1-.2-.1-.4-.2-.6-.3s-.5-.2-.8-.3-.7-.1-1.1-.1-.7 0-1 .1-.6.2-.8.4-.4.4-.5.6-.2.5-.2.7c0 .3.1.6.3.8s.4.4.8.6c.3.2.7.3 1.1.4s.8.3 1.2.4.8.3 1.2.5.7.4 1.1.6c.3.3.6.6.8.9.2.4.3.8.3 1.3 0 .6-.1 1.1-.3 1.6s-.5.9-.9 1.3-.9.7-1.5.9-1.3.3-2.1.3c-.9 0-1.7-.1-2.4-.4s-1.3-.7-1.8-1.1l.5-.9c.1-.1.1-.2.2-.3s.2-.1.4-.1.3.1.5.2.4.2.6.4c.2.1.5.3.9.4s.8.2 1.3.2c.4 0 .8-.1 1.2-.2.3-.1.6-.3.8-.5s.4-.4.5-.7.2-.5.2-.8c0-.4-.1-.6-.3-.9-.2-.2-.4-.4-.8-.6-.3-.2-.7-.3-1.1-.4s-.8-.3-1.2-.4-.8-.3-1.2-.5-.8-.4-1.1-.7-.6-.6-.8-1-.3-.8-.3-1.4c0-.5.1-1 .3-1.4.2-.5.5-.8.9-1.2.4-.3.9-.6 1.4-.8.6-.2 1.2-.3 1.9-.3.8 0 1.6.1 2.3.4s1.2.6 1.7 1.1z"/><path d="m141.9 24.4c-1 0-1.8-.3-2.3-.8-.5-.6-.8-1.4-.8-2.4v-7.8h-1.5c-.1 0-.2 0-.3-.1s-.1-.2-.1-.4v-.9l2.1-.3.5-4c0-.1.1-.2.2-.3s.2-.1.4-.1h1.1v4.4h3.7v1.6h-3.9v7.7c0 .5.1.9.4 1.2s.6.4 1 .4c.2 0 .4 0 .6-.1s.3-.1.4-.2.2-.1.3-.2c.2-.1.3-.1.3-.1.1 0 .2.1.3.2l.7 1.1c-.4.4-.9.6-1.4.9-.6.1-1.1.2-1.7.2z"/></g></svg>