<svg height="190" viewBox="0 0 170 190" width="170" xmlns="http://www.w3.org/2000/svg"><g fill="none" fill-rule="evenodd"><circle cx="84" cy="87" fill="#2672de" r="69"/><g transform="translate(59 76)"><g stroke="#fff" stroke-width="4"><path d="m.29366 32.7386h11.656384"/><path d="m45.291432 32.7386h11.656909"/><path d="m29.117557.7386v14"/><path d="m40.694283 21.7386 9.491971-10"/><path d="m16.547717 21.7386-9.491971-10"/></g><path d="m64.7545436 65c3.3136 0 4.7604 2.8768 4.7604 6.1904 0 0-1.1628 10.8088-5.366 19.064-2.9908 5.8744-4.8456 15.2868-5.4372 18.6996s1.5697742 5.046-1.8939224 5.046h-27.0632776c-4.4694691 0-2.5304-.606-3.0428-5.046s-6.7236-11.1816-6.7236-11.1816c-9.1032-10.6044-16.55400001-31.5116-16.55400001-31.5116-2.3272-6.0776 5.3444-8.6528 7.78800001-4.8044l3.3284 5.5436 6.6896992 11.415869c.8363252 1.4271761 1.5143008 1.2467518 1.5143008-.4124014v-47.0034676c0-3.3136 2.6864-6 6-6s6 2.6864 6 6v34-6c0-3.3136 2.6864-6 6-6s6 2.6864 6 6v10-6c0-3.3136 2.6864-6 6-6s6 2.6864 6 6v8 2-2c0-3.3136 2.6864-6 6-6z" fill="#b49e89"/></g><g transform="translate(115 32)"><path d="m52.9647592 9.22193962c-.0144392.00421253-1.3062896.37023496-3.2877324.37023496-4.1901878 0-10.2581816-1.55185082-15.3717851-8.94765684-.5943397-.85935699-2.0166095-.85935699-2.6107162 0-6.1732609 8.9284664-14.8764245 9.86598926-18.6532296 8.57952815-1.01075-.30189829-2.0412959.45752803-2.0412959 1.53125621v15.0392154c0 20.9912924 21.3654865 27.0889357 21.5806785 27.1493154.1367074.0374447.277374.0561671.4182735.0561671.1406666 0 .2815661-.0187224.4182735-.0561671.217288-.0603797 21.5827745-6.158023 21.5827745-27.1493154v-15.0394494c0-1.040496-1.0000371-1.828942-2.0352408-1.53312848z" fill="#fff"/><path d="m41.2702913 22.8476776-6.2677996-.136558-2.0576354-6.3047686c-.1773952-.5439036-.8906357-.5396949-1.0657854 0l-2.0572195 6.3047686-6.268465.136558c-.5350967.0123573-.7560714.746278-.3270959 1.0947022l4.9911026 4.031728-1.8134569 6.3841961c-.1574352.5516045.4234033 1.0050665.8605292.679387l5.147623-3.8161903 5.1480388 3.8161903c.4398704.3251422 1.0173822-.1304688.8601134-.679387l-1.8145382-6.3841961 4.9914353-4.031728c.4292251-.3477974.2079176-1.0823449-.3268464-1.0947022z" fill="#112d51"/><g transform="translate(0 28)"><circle cx="11.010542" cy="11.002292" fill="#112d51" r="10.433683" stroke="#112d51" stroke-width="4"/><path d="m6.48431667 11.31625 3.04186666 3.8030667 6.55013337-8.18913337" stroke="#fff" stroke-width="3"/></g></g><g transform="translate(0 32)"><path d="m5.14780556 20.9583333c-2.8079 0-5.09311112 2.2216417-5.09311112 5.0621917l2.25343889 23.7004917c0 2.8439333 2.28545 5.07065 5.09311111 5.07065h26.12632226c2.8079 0 5.0943055-2.2723917 5.0943055-5.116325l2.2534389-23.6743917c0-2.84055-2.2864055-5.0426167-5.0943055-5.0426167z" fill="#fff"/><path d="m23.1308833 45.125h-5.3308055l-1.0033334-8.3544167c0-2.013325 1.6426-3.6063916 3.6650334-3.6063916 2.0257778 0 3.6695722 1.572525 3.6695722 3.5856083z" fill="#112d51"/><path d="m9.71751111 20.9583333v-10.78655c0-5.5996583 5.08068889-10.15579997 10.75071669-10.15579997 5.6731333 0 10.7492833 4.55614167 10.7492833 10.15579997v10.78655" stroke="#fff" stroke-width="3"/><g transform="translate(34 28)"><circle cx="11.010542" cy="11.002292" fill="#112d51" r="10.433683" stroke="#112d51" stroke-width="4"/><path d="m6.48431667 11.31625 3.04186666 3.8030667 6.55013337-8.18913337" stroke="#fff" stroke-width="3"/></g></g><g transform="translate(62)"><path d="m43.3721005 25.0393085c.2771323-2.0033708.2878361-3.940767 0-6.0225677l-5.9028792-.7724285c-.3983777-1.6557877-1.0507285-3.2084292-1.9154047-4.6215315l3.63055-4.72389926c-1.2157623-1.60830154-2.6492992-3.04222769-4.2570169-4.25896308l-4.7225369 3.62996616c-1.4136862-.86662231-2.9674954-1.52033539-4.6246454-1.91988077l-.7726231-5.90385231c-2.0506623-.28413846-3.9863069-.28238692-6.0204269-.00214077l-.7722338 5.90151692c-1.6598746.39837769-3.2162139 1.05189616-4.6322354 1.91871308l-4.72370463-3.63035539c-1.54213231 1.16594077-3.01400846 2.61290616-4.25682231 4.25487616l3.62957692 4.72253696c-.86876307 1.4168-1.52364384 2.9741123-1.92318923 4.6353492l-5.90249.7724285c-.26467692 1.9150153-.28452769 3.9600338 0 6.0182861l5.90249.7724285c.39954539 1.6612369 1.05442616 3.2185492 1.92318923 4.6353492l-3.62957692 4.7225369c1.16652462 1.5413539 2.61426846 3.0130354 4.25682231 4.2548762l4.72370463-3.63055c1.4162161.8668169 2.9723608 1.5203354 4.6322354 1.9187131l.7722338 5.9015169c2.0337308.2802461 3.9693754.2821923 6.0204269-.0021408l.7726231-5.9038523c1.6569554-.3995454 3.2107646-1.0532585 4.6244508-1.9198808l4.7227315 3.6297716c1.6077177-1.2167354 3.0412546-2.6506616 4.2570169-4.2589631l-3.63055-4.7238992c.8646762-1.4129077 1.517027-2.9657439 1.9154047-4.6215316z" fill="#fff"/><circle cx="21.996302" cy="22.028025" fill="#112d51" r="8.072257"/><g transform="translate(11 36)"><circle cx="11.010542" cy="11.002292" fill="#112d51" r="10.433683" stroke="#112d51" stroke-width="4"/><path d="m6.48431667 11.31625 3.04186666 3.8030667 6.55013337-8.18913337" stroke="#fff" stroke-width="3"/></g></g></g></svg>