<?xml version="1.0" encoding="utf-8"?>
<!-- Generator: Adobe Illustrator 28.3.0, SVG Export Plug-In . SVG Version: 6.00 Build 0)  -->
<svg version="1.1" id="logo" xmlns="http://www.w3.org/2000/svg" xmlns:xlink="http://www.w3.org/1999/xlink" x="0px" y="0px"
	 viewBox="0 0 233 47" style="enable-background:new 0 0 233 47;" xml:space="preserve">
<style type="text/css">
	.st0{fill:#FFFFFF;}
	.st1{fill:#333333;}
	.st2{fill:#046CD5;}
</style>
<g id="XMLID_00000002343645878912030540000008263751304632159660_">
	<polygon class="st0" points="27.1,18.7 21,23.5 23.6,31.2 17,26.4 10.4,31.2 12.9,23.5 6.9,18.7 14.5,18.7 17,11 19.5,18.7 	"/>
	<polygon class="st1" points="190.7,27.2 195.2,14.7 198.3,14.7 191.8,31 189.3,31 182.8,14.7 186.1,14.7 190.6,27.2 	"/>
	<path class="st1" d="M171.3,28.8c0.8,0,1.6-0.1,2.3-0.4c0.7-0.3,1.3-0.7,1.8-1.3c0.5-0.6,0.9-1.2,1.1-1.9c0.3-0.7,0.4-1.5,0.4-2.4
		c0-0.8-0.1-1.6-0.4-2.3c-0.2-0.7-0.6-1.3-1.1-1.9c-0.5-0.5-1.1-1-1.8-1.3c-0.7-0.3-1.5-0.5-2.3-0.5c-0.9,0-1.6,0.1-2.3,0.5
		c-0.7,0.3-1.3,0.7-1.8,1.3c-0.5,0.5-0.9,1.2-1.1,1.9c-0.3,0.8-0.4,1.5-0.4,2.3c0,0.9,0.1,1.7,0.4,2.4c0.3,0.7,0.7,1.4,1.2,1.9
		c0.5,0.5,1.1,1,1.8,1.3C169.7,28.7,170.4,28.8,171.3,28.8z M171.2,14.3c1.3,0,2.4,0.2,3.5,0.6c1,0.4,2,1,2.8,1.7s1.4,1.7,1.8,2.7
		c0.4,1,0.7,2.2,0.7,3.5c0,1.3-0.2,2.4-0.7,3.5c-0.4,1-1,1.9-1.8,2.7c-0.8,0.8-1.7,1.4-2.8,1.8c-1.1,0.4-2.2,0.6-3.5,0.6
		c-1.3,0-2.4-0.2-3.5-0.6c-1-0.4-2-1-2.8-1.8c-0.8-0.8-1.4-1.7-1.8-2.7c-0.4-1-0.7-2.2-0.7-3.5c0-1.3,0.2-2.5,0.7-3.5
		c0.4-1,1-1.9,1.8-2.7c0.8-0.8,1.7-1.3,2.8-1.7C168.8,14.5,170,14.3,171.2,14.3z"/>
	<path class="st1" d="M145.4,16.6c0.8-0.8,1.8-1.3,2.8-1.7c1.1-0.4,2.2-0.6,3.5-0.6c1.3,0,2.5,0.2,3.6,0.6c1.1,0.4,1.9,0.9,2.6,1.5
		l-2,2.2c-0.4-0.5-1-0.9-1.7-1.2c-0.8-0.3-1.6-0.5-2.4-0.5c-0.9,0-1.6,0.1-2.3,0.5c-0.7,0.3-1.3,0.7-1.8,1.3
		c-0.5,0.5-0.9,1.2-1.1,1.9c-0.3,0.8-0.4,1.5-0.4,2.3c0,0.9,0.1,1.7,0.4,2.4c0.3,0.7,0.6,1.4,1.1,1.9c0.5,0.5,1.1,1,1.8,1.3
		c0.7,0.3,1.5,0.4,2.4,0.4c1.2,0,2.3-0.2,3.2-0.6v-4.1h-3.4v-2.4h6.2v8.4c-0.8,0.4-1.7,0.7-2.7,0.9s-2.1,0.3-3.4,0.3
		c-1.3,0-2.5-0.2-3.6-0.6c-1.1-0.4-2-1-2.8-1.8c-0.8-0.8-1.4-1.7-1.8-2.7c-0.4-1-0.6-2.2-0.6-3.5c0-1.3,0.2-2.5,0.7-3.5
		C144,18.3,144.6,17.4,145.4,16.6z"/>
	<path class="st1" d="M139.1,30.6c-0.4,0.3-0.8,0.5-1.3,0.5c-0.2,0-0.5,0-0.7-0.1c-0.2-0.1-0.4-0.2-0.6-0.4
		c-0.2-0.1-0.3-0.3-0.4-0.5c-0.1-0.2-0.1-0.4-0.1-0.7h0c0-0.5,0.2-0.9,0.5-1.3c0.4-0.4,0.8-0.5,1.3-0.5c0.5,0,0.9,0.2,1.3,0.5
		c0.4,0.3,0.6,0.8,0.6,1.2S139.4,30.3,139.1,30.6z"/>
	<path class="st1" d="M131.8,26.5c-0.5,1-1.2,1.9-2.1,2.5s-1.9,1.2-2.9,1.5c-1,0.3-2.1,0.5-3.2,0.5h-5.8V14.7h5.8
		c1.1,0,2.1,0.1,3.2,0.4c1,0.3,2,0.7,2.9,1.4c0.9,0.6,1.6,1.5,2.1,2.5c0.5,1,0.8,2.3,0.8,3.9C132.6,24.3,132.3,25.5,131.8,26.5z
		 M127.4,27.3c0.6-0.4,1.1-1,1.5-1.7c0.4-0.7,0.6-1.6,0.6-2.7c0-1.2-0.2-2.1-0.6-2.9c-0.4-0.7-0.9-1.3-1.5-1.7
		c-0.6-0.4-1.3-0.7-2-0.9c-0.7-0.1-1.5-0.2-2.2-0.2h-2.4v11.3h2.4c0.8,0,1.5-0.1,2.2-0.3C126.1,28,126.8,27.7,127.4,27.3z"/>
	<path class="st1" d="M105.5,31.4c-0.9,0-1.8-0.1-2.6-0.4c-0.8-0.3-1.5-0.7-2.1-1.3c-0.6-0.6-1.1-1.2-1.4-2
		c-0.3-0.8-0.5-1.7-0.5-2.7V14.7h2.9v10.2c0,0.5,0.1,1,0.2,1.4c0.1,0.5,0.3,0.9,0.6,1.2c0.3,0.4,0.7,0.7,1.1,0.9
		c0.5,0.2,1,0.3,1.7,0.3s1.3-0.1,1.7-0.3c0.5-0.2,0.8-0.5,1.1-0.9c0.3-0.4,0.5-0.8,0.6-1.2c0.1-0.5,0.2-0.9,0.2-1.4V14.7h2.9V25
		c0,1-0.2,1.9-0.5,2.7c-0.3,0.8-0.8,1.4-1.4,2c-0.6,0.6-1.3,1-2.1,1.3C107.3,31.3,106.4,31.4,105.5,31.4z"/>
	<path class="st1" d="M85.2,28.8c0.8,0,1.6-0.1,2.3-0.4c0.7-0.3,1.3-0.7,1.8-1.3c0.5-0.6,0.9-1.2,1.2-1.9c0.3-0.7,0.4-1.5,0.4-2.4
		c0-0.8-0.1-1.6-0.4-2.3c-0.2-0.7-0.6-1.3-1.1-1.9c-0.5-0.5-1.1-1-1.8-1.3c-0.7-0.3-1.5-0.5-2.3-0.5c-0.8,0-1.6,0.1-2.3,0.5
		c-0.7,0.3-1.3,0.7-1.8,1.3c-0.5,0.5-0.9,1.2-1.1,1.9c-0.3,0.8-0.4,1.5-0.4,2.3c0,0.9,0.1,1.7,0.4,2.4c0.3,0.7,0.7,1.4,1.2,1.9
		c0.5,0.5,1.1,1,1.8,1.3C83.6,28.7,84.4,28.8,85.2,28.8z M85.2,14.3c1.3,0,2.4,0.2,3.5,0.6c1,0.4,2,1,2.8,1.7
		c0.8,0.8,1.4,1.7,1.8,2.7c0.4,1,0.7,2.2,0.7,3.5c0,1.3-0.2,2.4-0.7,3.5c-0.4,1-1,1.9-1.8,2.7c-0.8,0.8-1.7,1.4-2.8,1.8
		c-1.1,0.4-2.2,0.6-3.5,0.6c-1.3,0-2.4-0.2-3.5-0.6c-1-0.4-2-1-2.8-1.8c-0.8-0.8-1.4-1.7-1.8-2.7c-0.4-1-0.7-2.2-0.7-3.5
		c0-1.3,0.2-2.5,0.7-3.5c0.4-1,1-1.9,1.8-2.7c0.8-0.8,1.7-1.3,2.8-1.7C82.8,14.5,83.9,14.3,85.2,14.3z"/>
	<polygon class="st1" points="73.8,28.4 73.8,31 64,31 64,14.7 66.9,14.7 66.9,28.4 	"/>
	<path class="st1" d="M53.8,16.9c-0.8,0-1.6,0.2-2.3,0.5c-0.7,0.3-1.3,0.7-1.8,1.3c-0.5,0.5-0.9,1.2-1.1,1.9
		c-0.3,0.8-0.4,1.5-0.4,2.3c0,0.9,0.1,1.7,0.4,2.4c0.3,0.7,0.6,1.4,1.1,1.9c0.5,0.5,1.1,0.9,1.7,1.2c0.7,0.3,1.4,0.4,2.3,0.4
		c0.9,0,1.7-0.2,2.3-0.5c0.7-0.3,1.2-0.8,1.6-1.4l2.3,1.6c-0.7,0.9-1.6,1.6-2.6,2.1c-1,0.5-2.3,0.7-3.7,0.7c-1.3,0-2.5-0.2-3.5-0.6
		c-1-0.4-2-1-2.8-1.8c-0.8-0.8-1.4-1.7-1.8-2.7c-0.4-1-0.7-2.2-0.7-3.5c0-1.3,0.2-2.5,0.7-3.5c0.4-1,1.1-1.9,1.9-2.7
		c0.8-0.8,1.8-1.3,2.8-1.7c1.1-0.4,2.2-0.6,3.5-0.6c0.5,0,1.1,0.1,1.6,0.1c0.6,0.1,1.1,0.2,1.6,0.5s1,0.5,1.5,0.8
		c0.5,0.3,0.8,0.7,1.2,1.1l-2.2,1.7c-0.4-0.6-1-1-1.7-1.3C55.2,17,54.5,16.9,53.8,16.9z"/>
	<polygon class="st1" points="34,13.4 34,33 17,45.4 0,33 0,13.4 6.9,18.7 6.9,18.7 12.9,23.5 10.4,31.2 17,26.4 23.6,31.2 21,23.5 
		27.1,18.7 27.1,18.7 	"/>
	<polygon class="st2" points="34,13.4 27.1,18.7 27.1,18.7 19.5,18.7 17,11 14.5,18.7 6.9,18.7 6.9,18.7 0,13.4 17,1 	"/>
	<path class="st1" d="M27.1,18.7L27.1,18.7L27.1,18.7z"/>
	<polygon class="st1" points="6.9,18.7 6.9,18.7 6.9,18.7 0,13.4 	"/>
</g>
</svg>
