<svg width="90" height="90" viewBox="0 0 90 90" fill="none" xmlns="http://www.w3.org/2000/svg">
<path d="M45 90C69.8528 90 90 69.8528 90 45C90 20.1472 69.8528 0 45 0C20.1472 0 0 20.1472 0 45C0 69.8528 20.1472 90 45 90Z" fill="white"/>
<path opacity="0.5" d="M74 67.4L73.7 36.6L47.2 21L20.9 36.2L21.2 67L47.7 82.6L74 67.4Z" fill="#F69F93"/>
<path opacity="0.5" d="M45.6 78.8L17.2 62.1L17 29.1L45.3 12.8L73.7 29.5L73.9 62.5L45.6 78.8ZM72 61.4L71.7 30.6L45.2 15L18.9 30.2L19.2 61L45.7 76.6L72 61.4Z" fill="#446586"/>
<path opacity="0.5" d="M19.2 28.5L45.7 44.1L72 29L73.8999 30L45.6 46.3L17.2 29.7L19.2 28.5Z" fill="#446586"/>
<path opacity="0.5" d="M27.5 67V35L32 38V69.5L27.5 67Z" fill="#446586"/>
<path opacity="0.5" d="M28 35L56 19.5L59.5 21.5L32.5 37.5L28 35Z" fill="#446586"/>
<path opacity="0.5" d="M63.5 67V35L59 38V69.5L63.5 67Z" fill="#446586"/>
<path opacity="0.5" d="M63.5 35L36 19L32.5 21.5L59 37.5L63.5 35Z" fill="#446586"/>
<path opacity="0.5" fill-rule="evenodd" clip-rule="evenodd" d="M44.8113 28.8329C46.4773 29.1978 47.8063 27.4436 47.0041 25.9385L35.2386 3.86308C34.552 2.57476 32.7611 2.43235 31.8795 3.59598L19.2092 20.3195C18.3276 21.4831 18.9494 23.1686 20.3755 23.4809L44.8113 28.8329ZM37.6912 23.4385C39.3573 23.8035 40.6862 22.0493 39.884 20.5442L35.0606 11.494C34.3739 10.2057 32.5831 10.0633 31.7015 11.2269L26.5071 18.083C25.6255 19.2466 26.2473 20.9321 27.6734 21.2444L37.6912 23.4385Z" fill="#446586"/>
<path opacity="0.5" fill-rule="evenodd" clip-rule="evenodd" d="M45.5664 28.8329C43.9003 29.1978 42.5713 27.4436 43.3735 25.9385L55.139 3.86308C55.8257 2.57476 57.6165 2.43236 58.4981 3.59598L71.1684 20.3195C72.05 21.4831 71.4282 23.1686 70.0022 23.4809L45.5664 28.8329ZM52.6865 23.4385C51.0204 23.8035 49.6914 22.0493 50.4936 20.5442L55.317 11.494C56.0037 10.2057 57.7945 10.0633 58.6762 11.2269L63.8705 18.083C64.7521 19.2466 64.1303 20.9321 62.7043 21.2444L52.6865 23.4385Z" fill="#446586"/>
<g opacity="0.75">
<ellipse cx="22.5" cy="45" rx="1.5" ry="2" fill="#446586"/>
<ellipse cx="30" cy="29" rx="1.5" ry="2.5" transform="rotate(-90 30 29)" fill="#446586"/>
<ellipse cx="52" cy="25" rx="1" ry="2" transform="rotate(-90 52 25)" fill="#446586"/>
<ellipse cx="46.5" cy="36.5" rx="2.5" ry="3.5" transform="rotate(-90 46.5 36.5)" fill="#446586"/>
<ellipse cx="66.5" cy="55" rx="1.5" ry="2" fill="#446586"/>
<ellipse cx="57" cy="47.5" rx="1" ry="1.5" fill="#446586"/>
<ellipse rx="3" ry="3.5" transform="matrix(-1 0 0 1 52 66.5)" fill="#446586"/>
<ellipse rx="2.5" ry="3" transform="matrix(-1 0 0 1 37.5 56)" fill="#446586"/>
<ellipse cx="25" cy="61.5" rx="1" ry="1.5" fill="#446586"/>
</g>
</svg>
