<?xml version="1.0" encoding="utf-8"?>
<!-- Generator: Adobe Illustrator 19.2.1, SVG Export Plug-In . SVG Version: 6.00 Build 0)  -->
<svg version="1.1" xmlns="http://www.w3.org/2000/svg" xmlns:xlink="http://www.w3.org/1999/xlink" x="0px" y="0px"
	 viewBox="0 0 100 100" style="enable-background:new 0 0 100 100;" xml:space="preserve">
<style type="text/css">
	.st0{fill:#FFFFFF;}
	.st1{opacity:0.5;fill:#F69F93;}
	.st2{opacity:0.5;fill:#446586;}
</style>
<g id="Layer_1">
</g>
<g id="Layer_2">
	<circle class="st0" cx="249.3" cy="108.5" r="45"/>
	<polygon class="st1" points="278.3,130.9 278,100.1 251.5,84.5 225.2,99.7 225.5,130.5 252,146.1 	"/>
	<path class="st2" d="M249.9,142.3l-28.5-16.6l-0.2-33l28.3-16.3L278,93l0.2,33L249.9,142.3z M276.3,124.9L276,94.1l-26.5-15.6
		l-26.3,15.2l0.3,30.8l26.5,15.6L276.3,124.9z"/>
	<polygon class="st2" points="223.5,92 250,107.6 276.3,92.5 278.2,93.5 249.9,109.8 221.5,93.2 	"/>
	<circle class="st0" cx="50.3" cy="50.5" r="45"/>
	<polygon class="st1" points="79.3,72.9 79,42.1 52.5,26.5 26.2,41.7 26.5,72.5 53,88.1 	"/>
	<path class="st2" d="M50.9,84.3L22.5,67.6l-0.2-33l28.3-16.3L79,35l0.2,33L50.9,84.3z M77.3,66.9L77,36.1L50.5,20.5L24.2,35.7
		l0.3,30.8L51,82.1L77.3,66.9z"/>
	<polygon class="st2" points="24.5,34 51,49.6 77.3,34.5 79.2,35.5 50.9,51.8 22.5,35.2 	"/>
</g>
</svg>
