<svg id="Layer_1" data-name="Layer 1" xmlns="http://www.w3.org/2000/svg" viewBox="0 0 743 334"><defs><style>.cls-1{fill:#f5f5f3;}.cls-2{fill:#fff;}.cls-3{fill:none;stroke:#29527e;stroke-miterlimit:10;stroke-width:2px;}.cls-4{fill:#879fb9;}.cls-5{fill:#f9f8f4;}.cls-6,.cls-8{fill:#446586;}.cls-7{fill:#f69f93;}.cls-8{font-size:11px;font-family:Roboto Mono;}</style></defs><title>fec-case-study-illo</title><g id="Layer_1-2" data-name="Layer 1"><path class="cls-1" d="M259.4,9.1c13.8-2.8,103.3-9.2,189.1,7.5,63.1,12.3,200.1,61.5,208.3,115.7,10.4,68.6-114,71.3-142.2,94.9-21.9,18.3,17.7,51,1.2,79.8-37.2,65-222.5-33.3-276.5-90.4C180.3,154.3,92,43.2,259.4,9.1Z"/><path class="cls-2" d="M448,262.8a5.16,5.16,0,0,1-5.2,5.2H127.2a5.16,5.16,0,0,1-5.2-5.2V91.2a5.16,5.16,0,0,1,5.2-5.2H442.8a5.16,5.16,0,0,1,5.2,5.2V262.8Z"/><path class="cls-3" d="M467,273.2a5.8,5.8,0,0,1-5.8,5.8H110.8a5.8,5.8,0,0,1-5.8-5.8V81.8a5.8,5.8,0,0,1,5.8-5.8H461.2a5.8,5.8,0,0,1,5.8,5.8V273.2Z"/><circle class="cls-4" cx="187.2" cy="159.5" r="53.3"/><circle class="cls-2" cx="187.2" cy="159.5" r="51.64"/><rect class="cls-5" x="265" y="130" width="24" height="67"/><rect class="cls-5" x="296" y="146" width="23" height="51"/><rect class="cls-6" x="241.7" y="204.8" width="92.8" height="2.9"/><path class="cls-6" d="M285.2,199V120.7H259.1V199h26.1ZM262,123.6h20.3v72.5H262V123.6Z"/><path class="cls-6" d="M317.1,199V138.1H291V199h26.1Zm-23.2-58h20.3v55.1H293.9V141Z"/><path class="cls-6" d="M387.1,115.2a46.4,46.4,0,1,0,0,92.8h0A46.4,46.4,0,1,0,387.1,115.2Zm0,90.2v-0.2h0a43.53,43.53,0,0,1-43.7-43.5,42.86,42.86,0,0,1,12.8-30.8A43.67,43.67,0,1,1,387.1,205.4Z"/><path class="cls-6" d="M387.1,128.4a33.46,33.46,0,0,0-33.4,33.4h2.9a30.4,30.4,0,1,1,60.8,0h2.9a33.22,33.22,0,0,0-9.8-23.6A32.42,32.42,0,0,0,387.1,128.4Z"/><path class="cls-6" d="M385.3,162.2l-8.7-10.1-2.2,1.9,8.8,10.2a4.14,4.14,0,0,0-.5,1.9,4.38,4.38,0,0,0,7.5,3.1,4.29,4.29,0,0,0,0-6.1A4.47,4.47,0,0,0,385.3,162.2Zm2.8,4.9a1.42,1.42,0,0,1-2,0,1.28,1.28,0,0,1-.4-1,1.16,1.16,0,0,1,.4-1,1.28,1.28,0,0,1,1-.4,1.78,1.78,0,0,1,1,.4A1.34,1.34,0,0,1,388.1,167.1Z"/><path class="cls-4" d="M185.93,108.57c-0.1,0-.2,0-0.2.1s-0.2.1-.3,0.1-0.3.1-.4,0.2a2.76,2.76,0,0,0-1.5,2.8c0,0.2.1,0.4,0.1,0.6a2.75,2.75,0,0,0,3.4,2.1,2.88,2.88,0,0,0,2.5-3.3,3.25,3.25,0,0,0-.7-1.7c-0.1-.1-0.3-0.2-0.4-0.3a3.33,3.33,0,0,0-1.5-.5h-0.4l-0.6-.1h0Zm-4,.5c-0.1,0-.1,0-0.1.1h-0.3a0.1,0.1,0,0,1-.1.1h-0.3c-0.1,0-.3,0-0.3.1s0.1,0.8.1,1,0.1,0.4.1,0.6l0.2,1.3a1.27,1.27,0,0,0,.1.6,2,2,0,0,0,.1.7,1.7,1.7,0,0,0,.1.7v0.5a0.2,0.2,0,0,0,.2.1c0.1,0,.3-0.1.4-0.1a1.27,1.27,0,0,0,.6-0.1h0.2a3.75,3.75,0,0,0-.1-1,4.87,4.87,0,0,1-.1-1.2,0.37,0.37,0,0,1-.1-0.3,2.49,2.49,0,0,1-.1-0.8v-0.5a5.28,5.28,0,0,1-.1-1.3,0.6,0.6,0,0,0-.1-0.4,1.58,1.58,0,0,0-.4-0.1h0Zm4.1,0.1h0.2a2,2,0,0,1,.8.1c1.1,0.6,1.3,3,.6,4a1.7,1.7,0,0,1-.6.6c-0.1,0-.1.1-0.2,0.1a0.1,0.1,0,0,0-.1.1h-0.2c-0.1,0-.2,0-0.2.1a1.08,1.08,0,0,1-.7-0.3,2.43,2.43,0,0,1-.9-1.8,3,3,0,0,1,.3-1.9,1.56,1.56,0,0,1,.8-0.8,0.28,0.28,0,0,1,.2-0.2h0Zm4.7,0a0.6,0.6,0,0,0-.1.4c0,0.3-.1.5-0.1,0.8a21.66,21.66,0,0,1-.4,2.5c0,0.2-.1.3-0.1,0.5s-0.1.5-.2,0.7-0.1.3-.1,0.4l0.1,0.1a0.37,0.37,0,0,1,.3.1h0.4a0.6,0.6,0,0,0,.1-0.4V114a3.4,3.4,0,0,0,.1-1,2.49,2.49,0,0,0,.1-0.8c0-.2.1-0.4,0.1-0.6a0.37,0.37,0,0,1,.1-0.3l0.1-.1a7,7,0,0,1,.6.9l0.3,0.6a5.55,5.55,0,0,0,.6.8c0.2,0.3.4,0.7,0.7,1.1a0.53,0.53,0,0,1,.2.3,0.53,0.53,0,0,0,.2.3,1.7,1.7,0,0,0,.7.1,0.1,0.1,0,0,0,.1-0.1c0-.4.1-0.7,0.1-1.1s0.1-.8.2-1.3a0.37,0.37,0,0,0,.1-0.3,2.49,2.49,0,0,0,.1-0.8l0.2-.8a1.48,1.48,0,0,0,.1-0.7c0-.1.1-0.2,0.1-0.3v-0.1c-0.1,0-.6-0.1-0.6-0.1h-0.1a0.37,0.37,0,0,0-.1.3,0.76,0.76,0,0,0-.1.4v0.1a0.31,0.31,0,0,0-.1.2c0,0.2-.1.4-0.1,0.6a2.49,2.49,0,0,0-.1.8c0,0.2-.1.4-0.1,0.6a0.76,0.76,0,0,0-.1.4c-0.1,0-.1-0.1-0.2-0.1s-0.1-.2-0.2-0.3a4.35,4.35,0,0,1-.4-0.7c-0.5-.7-1-1.5-1.5-2.2a0.76,0.76,0,0,1-.2-0.4,0.38,0.38,0,0,0-.2-0.2c-0.1,0-.2-0.1-0.3-0.1a0.37,0.37,0,0,1-.3.1h0Zm-11.3.1c-0.2.1-.4,0.1-0.6,0.2a0.37,0.37,0,0,0-.3.1h0c-0.1,0-.2,0-0.2.1h-0.2c-0.1,0-.2,0-0.2.1h-0.1c-0.1,0-.2,0-0.2.1a0.37,0.37,0,0,0-.3.1h-0.2a0.2,0.2,0,0,0-.2.1h-0.3a0.2,0.2,0,0,0-.2.1h-0.2c-0.1,0-.1,0-0.1.1s-0.1-.1-0.2,0h-0.1a0.2,0.2,0,0,0-.2.1h-0.1a0.2,0.2,0,0,0-.2.1c-0.1,0-.1,0-0.1.1s0.1,0.3.1,0.3v0.2a0.1,0.1,0,0,0,.1.1,0.33,0.33,0,0,0,.4-0.1l0.7-.2a0.32,0.32,0,0,1,.3,0,0.1,0.1,0,0,1,.1.1,0.6,0.6,0,0,1,.1.4c0,0.2.1,0.3,0.1,0.6,0.1,0.6.2,1.3,0.3,2,0,0.2.1,0.4,0.1,0.6s0.1,0.4.1,0.7c0.1,0.1,0,.3.1,0.4h0.1c0.2,0,.3-0.1.5-0.1a0.37,0.37,0,0,1,.3-0.1,0.6,0.6,0,0,0,.4-0.1l0.1-.1a0.35,0.35,0,0,0-.1-0.2c-0.1-.3-0.1-0.6-0.2-0.9-0.1-.6-0.2-1.1-0.3-1.7-0.1-.3-0.1-0.5-0.2-0.8a2.49,2.49,0,0,1-.1-0.8v-0.1a0.2,0.2,0,0,1,.1-0.2c0.2-.1,1.3-0.1,1.3-0.2s-0.1-.2-0.1-0.3a0.1,0.1,0,0,0-.1-0.1c0.1-.5.1-0.6,0-0.7h0Zm-5.6,1-0.1.1h-0.2c-0.1,0-.3.1-0.4,0.1s-0.2.1-.3,0.1c-0.3.1-.5,0.2-0.8,0.3a2.8,2.8,0,0,0-1.5,1.7,0.37,0.37,0,0,0-.1.3,2.46,2.46,0,0,0,.1,1.2,3.6,3.6,0,0,0,1.2,1.8,2.6,2.6,0,0,0,1.5.4h0.3a0.48,0.48,0,0,0,.4-0.1l0.5-.2a6.37,6.37,0,0,1,.7-0.2,2.41,2.41,0,0,0,.8-0.6c0-.1-0.1-0.2-0.1-0.3v-0.2a0.37,0.37,0,0,0-.1-0.3,0.2,0.2,0,0,0-.2-0.1,0.77,0.77,0,0,1-.2.3l-0.4.4-0.6.3c-0.1,0-.2.1-0.3,0.1h-0.4a1.78,1.78,0,0,1-1-.4,4.35,4.35,0,0,1-.6-0.7,0.37,0.37,0,0,1-.1-0.3,2.87,2.87,0,0,1,0-2.4,1.69,1.69,0,0,1,1-.7,1.48,1.48,0,0,1,.7-0.1l0.5,0.2a0.38,0.38,0,0,1,.2.2,0.1,0.1,0,0,0,.1.1l0.1-.1c0-.1-0.1-0.3-0.1-0.4a0.48,0.48,0,0,0-.1-0.4,0.1,0.1,0,0,0-.1-0.1,0.37,0.37,0,0,0-.3-0.1l-0.1-.1v0.2h0Zm27.5,1.2a0.2,0.2,0,0,0-.2.1H201a0.2,0.2,0,0,0-.2.1,2.39,2.39,0,0,0-.7.3c-0.1.1-.2,0.1-0.3,0.2a1.38,1.38,0,0,0-.3.4,1.33,1.33,0,0,0-.3.5,3.3,3.3,0,0,0-.2,2.2c0,0.1.1,0.2,0.1,0.3l0.3,0.6a3.07,3.07,0,0,0,1.5,1,3.19,3.19,0,0,0,1.4.3,0.9,0.9,0,0,0,.5-0.1c0.1-.1.2-0.3,0.3-0.4a0.35,0.35,0,0,1,.1-0.2v-0.1c-0.1-.2-0.3,0-0.3.1s-0.1,0-.1.1a0.37,0.37,0,0,0-.3.1h-0.3a3.55,3.55,0,0,1-1-.2,2.2,2.2,0,0,1-.7-2.9,3.17,3.17,0,0,1,.8-1.2,2,2,0,0,1,2-.2,4.35,4.35,0,0,1,.6.7c0.1,0.1.1,0.2,0.2,0.3s0.1,0,.2-0.1a0.35,0.35,0,0,1,.1-0.2,0.76,0.76,0,0,0,.2-0.4,0.45,0.45,0,0,0-.3-0.3l-0.3-.2a1.47,1.47,0,0,0-.4-0.2,5.41,5.41,0,0,0-1.5-.4h-0.3l-0.5-.2h0Zm-32.5.6-0.6.3-1.5.7a1.49,1.49,0,0,0-.7.3,2.11,2.11,0,0,0,.4,1l0.3,0.7c0.1,0.3.2,0.6,0.3,1s0.4,0.8.6,1.3a1.45,1.45,0,0,1,.2.7,0.49,0.49,0,0,1,.1.3l0.1,0.1a0.76,0.76,0,0,0,.4-0.2c0.1-.1.2-0.1,0.3-0.2a6.89,6.89,0,0,0,.8-0.3,4.87,4.87,0,0,0,.7-0.3,0.31,0.31,0,0,1,.2-0.1c0.1,0,.3-0.1.4-0.1v-0.1c0-.1-0.1-0.2-0.1-0.3a0.77,0.77,0,0,0-.2-0.3c-0.1-.1-0.2.1-0.3,0.1a3.55,3.55,0,0,1-.9.4,0.37,0.37,0,0,1-.3.1c-0.1,0-.1,0-0.1-0.1a1.47,1.47,0,0,1-.2-0.4c-0.1-.2-0.2-0.5-0.3-0.7a0.37,0.37,0,0,1-.1-0.3,0.2,0.2,0,0,1-.1-0.2c0-.1,0-0.1.1-0.1a1.47,1.47,0,0,1,.4-0.2c0.2-.1.5-0.2,0.7-0.3a0.37,0.37,0,0,1,.3-0.1,0.1,0.1,0,0,0,.1-0.1c0-.1-0.1-0.2-0.1-0.3a0.77,0.77,0,0,0-.2-0.3,0.76,0.76,0,0,0-.4.2,11.73,11.73,0,0,1-1.1.5,0.2,0.2,0,0,1-.2-0.1c0-.1-0.1-0.1-0.1-0.2s-0.1-.3-0.2-0.4a2.61,2.61,0,0,1-.3-0.8c0.1-.1,1.1-0.4,1.3-0.5a0.77,0.77,0,0,0,.3-0.2c0.1,0,0-.1,0-0.1a0.37,0.37,0,0,1-.1-0.3c0.2,0.1.2,0,.1-0.1h0Zm38.3,1.4c-0.1.1-.3,0-0.4,0.1h-0.1a1.42,1.42,0,0,0-.6.2,2.51,2.51,0,0,0-.7.4,3.38,3.38,0,0,0-1,2.9,3.1,3.1,0,0,0,.6,1.3,0.38,0.38,0,0,0,.2.2c0.1,0.1.2,0.1,0.3,0.2a3.92,3.92,0,0,0,2.7.7,2.83,2.83,0,0,0,2.1-3.9,3.83,3.83,0,0,0-3.1-2.1h0Zm0.5,0.7a1.75,1.75,0,0,1,1.4.7,2,2,0,0,1,.1,1.3,4.07,4.07,0,0,1-1.3,2.2,1.06,1.06,0,0,1-.5.2,0.35,0.35,0,0,0-.2.1h-0.3a1.56,1.56,0,0,1-1.2-2.1,3.62,3.62,0,0,1,1.5-2.3c0.1-.1.3-0.1,0.4-0.2-0.1.2,0,.1,0.1,0.1h0Zm-44.3.5a1.38,1.38,0,0,0-.4.3,1.47,1.47,0,0,0-.4.2,0.35,0.35,0,0,0-.2.1v0.1a0.86,0.86,0,0,0,.3.6c0.2,0.4.4,0.9,0.7,1.4a0.1,0.1,0,0,1,.1.1c0.1,0,.1.1,0,0.1s0.3,0.5.3,0.6a10.09,10.09,0,0,1,.7,1.5l0.2,0.3c0,0.1.1,0.2,0.1,0.3h0.1c0.1,0,.1-0.1.2-0.1l0.3-.2a5.9,5.9,0,0,1,.8-0.4,1.06,1.06,0,0,1,.5-0.2l0.6-.3c0.1,0,.1-0.1.2-0.1s0.1-.1,0-0.1l-0.2-.3a0.2,0.2,0,0,0-.1-0.2l-0.1-.1c-0.1.1-.3,0.2-0.4,0.3l-0.6.3a0.76,0.76,0,0,1-.4.2,0.2,0.2,0,0,1-.2-0.1,1.47,1.47,0,0,1-.2-0.4,2.51,2.51,0,0,1-.4-0.7,3,3,0,0,1-.4-0.8l-0.6-1.2-0.3-.7a0.77,0.77,0,0,0-.2-0.3c0.1-.2,0-0.2,0-0.2h0Zm21.8,0.7h-0.5a0.37,0.37,0,0,0-.3.1c-0.1,0-.2-0.1-0.2,0a0.32,0.32,0,0,0-.3,0h-0.5c-0.1,0-.2,0-0.2.1h-0.5a0.2,0.2,0,0,0-.2.1H182a0.2,0.2,0,0,0-.2.1h-0.3c-0.1,0-.1,0-0.1.1H181a0.1,0.1,0,0,0-.1.1h-0.3a0.2,0.2,0,0,0-.2.1h-0.3a0.2,0.2,0,0,0-.2.1h-0.2c-0.1,0-.2,0-0.2.1h0c-0.1,0-.2,0-0.2.1H179a0.1,0.1,0,0,1-.1.1h-0.2c-0.1,0-.1.1-0.2,0.1s-0.2,0-.2.1h-0.2a0.1,0.1,0,0,0-.1.1c-0.1,0-.2,0-0.2.1h-0.2c-0.1,0-.2,0-0.2.1a2.27,2.27,0,0,0-.4.1c-0.1,0-.1.1-0.2,0.1s-0.3.1-.4,0.1a0.31,0.31,0,0,1-.2.1c-0.1,0-.2.1-0.3,0.1a1.49,1.49,0,0,1-.6.1c-0.9.2-1.8,0.6-2.7,0.9a23.07,23.07,0,0,0-2.8,1c-0.4.2-.7,0.3-1.1,0.5a11.73,11.73,0,0,1-1.1.5c-0.1.1-.3,0.1-0.4,0.2-0.5.3-1,.5-1.4,0.7l-0.9.5c-0.1.1-.3,0.1-0.4,0.2a10.54,10.54,0,0,1-1.1.7c-0.4.3-.9,0.5-1.3,0.8s-1,.7-1.5,1c-1.1.8-2.2,1.7-3.3,2.6a12,12,0,0,0-1.2,1.1l-0.9.9a1.38,1.38,0,0,0-.3.4,3.74,3.74,0,0,0-.6.7c-0.7.7-1.4,1.5-2.1,2.3l-1.5,2.1-0.6.9c-0.7,1-1.2,1.9-1.8,2.9l-0.3.6c-0.3.6-.7,1.4-1,2.1l-0.2.3a22,22,0,0,0-.9,2.1c-0.1.2-.2,0.5-0.3,0.7s-0.1.1-.1,0.2c-0.2.5-.3,0.9-0.5,1.4-0.1.3-.2,0.6-0.3,1l-0.2.5c0,0.1-.1.2-0.1,0.3s-0.1.1-.1,0.2-0.1.4-.2,0.6c-0.1.4-.2,0.8-0.3,1.1s-0.1.7-.2,1a1.27,1.27,0,0,0-.1.6,5,5,0,0,0-.2,1.2,11,11,0,0,0-.2,1.8,0.31,0.31,0,0,0-.1.2c0,0.2-.1.3-0.1,0.5l-0.2,1.7a19.27,19.27,0,0,0-.1,2.4c0,1.4.1,2.7,0.2,4.1,0,0.5.1,0.9,0.1,1.4s0.1,1,.2,1.4a0.9,0.9,0,0,1,.1.5l0.3,1.5c0,0.2.1,0.5,0.1,0.7a1.7,1.7,0,0,1,.1.7c0.1,0.3.2,0.7,0.3,1.1,0.1,0.2.1,0.5,0.2,0.7,0.2,0.6.3,1.2,0.5,1.8,0.1,0.2.1,0.4,0.2,0.6s0.2,0.5.3,0.7,0.1,0.4.2,0.6,0.1,0.2.1,0.3c0.2,0.6.4,1.1,0.6,1.7,0.3,0.9.7,1.7,1.1,2.6a9.14,9.14,0,0,1,.7,1.4l0.3,0.6c0.2,0.4.4,0.7,0.6,1.1s0.4,0.7.6,1c0.4,0.6.9,1.3,1.3,1.9,0.2,0.3.5,0.6,0.7,0.9a14.7,14.7,0,0,0,1,1.3,3.17,3.17,0,0,1,.5.6c0.2,0.3.5,0.5,0.7,0.8,0.1,0.1.2,0.3,0.3,0.4a28.34,28.34,0,0,0,2.5,2.4l0.9,0.9a14.7,14.7,0,0,0,1.3,1l1.2,0.9,1.3,1,0.5,0.3c0.2,0.2.5,0.3,0.7,0.5l1.5,0.9,1.5,0.9a25.91,25.91,0,0,0,2.9,1.4,11.73,11.73,0,0,0,1.1.5c1,0.4,2.1.8,3.1,1.1a23.35,23.35,0,0,0,2.5.7c0.3,0.1.5,0.1,0.8,0.2l2.8,0.6c0.3,0.1.6,0.1,0.9,0.2,0.5,0.1,1.1.1,1.6,0.2a38.37,38.37,0,0,0,6.8.2h0.6c0.7-.1,1.4-0.1,2.2-0.2a2,2,0,0,1,.8-0.1,0.37,0.37,0,0,0,.3-0.1c0.5-.1,1-0.1,1.5-0.2a18.43,18.43,0,0,0,2.5-.5c0.3-.1.6-0.1,0.9-0.2a3.55,3.55,0,0,1,1-.2l0.5-.2a0.9,0.9,0,0,1,.5-0.1,3.54,3.54,0,0,1,1.1-.3c0.2-.1.5-0.2,0.7-0.3l0.9-.3,1.5-.6c0.6-.3,1.3-0.6,1.9-0.9,1-.5,1.9-1,2.9-1.5a19.92,19.92,0,0,0,1.9-1.2c0.2-.1.3-0.2,0.5-0.3s0.2-.1.3-0.2c0.4-.3.9-0.6,1.3-0.9a0.2,0.2,0,0,1,.2-0.1,0.1,0.1,0,0,1,.1-0.1c0.1-.1.2-0.1,0.3-0.2,0.9-.7,1.8-1.4,2.7-2.2a12,12,0,0,0,1.2-1.1l0.1-.1,0.9-.9,0.5-.5,1-1c0.1-.1.1-0.2,0.2-0.3s0.4-.5.6-0.7,0.2-.3.3-0.5l0.9-1c0.8-1.1,1.6-2.2,2.3-3.3a15.92,15.92,0,0,0,1.3-2.2l0.3-.6c0.1-.1.1-0.2,0.2-0.3l0.7-1.4,0.3-.6c0.4-.9.8-1.9,1.1-2.8l0.3-.9a4.87,4.87,0,0,1,.3-0.7l0.2-.5,0.2-.7,0.1-.1a0.31,0.31,0,0,0,.1-0.2c0.2-.8.5-1.7,0.7-2.5l0.6-3c0.1-.3.1-0.7,0.2-1s0.1-.5.1-0.8l0.2-1.2c0-.4.1-0.8,0.1-1.2a24.37,24.37,0,0,0,.1-2.7v-0.3c0-.9-0.1-1.7-0.1-2.6-0.1-.7-0.1-1.4-0.2-2.1,0-.2-0.1-0.4-0.1-0.6s-0.1-.3-0.1-0.5l-0.3-1.5a10.62,10.62,0,0,0-.4-1.9c-0.2-1-.5-1.9-0.7-2.8-0.1-.4-0.2-0.7-0.3-1.1s-0.3-1-.5-1.5l-0.3-.9-0.6-1.5c-0.6-1.3-1.3-2.7-2-3.9a5.3,5.3,0,0,0-.6-1c-0.2-.3-0.3-0.6-0.6-1l-0.2-.2c0-.1,0-0.1-0.1-0.1a0.35,0.35,0,0,0-.1-0.2c-0.3-.5-0.7-0.9-1-1.4-0.2-.2-0.4-0.5-0.6-0.7a10.63,10.63,0,0,0-.9-1.1c-0.3-.4-0.7-0.9-1-1.3-0.6-.7-1.2-1.4-1.8-2a11.41,11.41,0,0,0-1.1-1.1l-2.5-2.2c-0.2-.1-0.3-0.3-0.5-0.4a17.09,17.09,0,0,1-1.4-1.1c-1-.7-1.9-1.4-2.9-2-1.7-1-3.5-1.9-5.4-2.8l-1.5-.6c-0.9-.3-1.8-0.7-2.6-1a7.49,7.49,0,0,1-1.6-.5c-0.3-.1-0.6-0.1-0.8-0.2s-0.3-.1-0.5-0.1c-0.8-.2-1.6-0.4-2.5-0.6-0.3-.1-0.7-0.1-1.1-0.2-0.2,0-.3-0.1-0.5-0.1a9.85,9.85,0,0,0-1.7-.2c-0.4,0-.7-0.1-1.1-0.1a2.77,2.77,0,0,1-.9-0.1h-0.2c-0.5,0-.9-0.1-1.4-0.1a12.05,12.05,0,0,0-1.9,0c0-.6-0.2-0.6-0.3-0.6h0Zm-24.3.6-0.9.6c-0.1,0-.1.1-0.2,0.1s-0.4.3-.6,0.4a0.2,0.2,0,0,1-.2.1,4.35,4.35,0,0,0-.7.4,3.74,3.74,0,0,0,.6,1,14.8,14.8,0,0,1,1.3,2.1l0.3,0.6c0.1,0.2.2,0.3,0.3,0.5a1.42,1.42,0,0,1,.2.4l0.1,0.1h0.1a1.76,1.76,0,0,1,.5-0.4l0.5-.3c0.3-.2.6-0.3,1-0.6l0.3-.2a0.2,0.2,0,0,1,.2-0.1c0.1,0,.1-0.1,0-0.1a0.53,0.53,0,0,0-.2-0.3,0.2,0.2,0,0,1-.1-0.2c0-.1,0-0.1-0.1-0.1h-0.1a1.38,1.38,0,0,0-.4.3,3,3,0,0,1-.7.5,0.37,0.37,0,0,1-.3.1c-0.1,0-.1-0.1-0.2-0.1a0.77,0.77,0,0,1-.2-0.3,3.33,3.33,0,0,1-.3-0.6,0.53,0.53,0,0,1-.2-0.3,0.2,0.2,0,0,1-.1-0.2v-0.2c0.1-.1.2-0.1,0.3-0.2s0.2-.1.3-0.2l0.6-.3a0.34,0.34,0,0,0,.3-0.2l-0.1-.1c0-.1-0.1-0.1-0.1-0.2s-0.1-.2-0.2-0.3-0.2.2-.3,0.2a4.23,4.23,0,0,0-.7.5c-0.1.1-.3,0.2-0.4,0.3h0.1a0.53,0.53,0,0,1-.2-0.3,0.38,0.38,0,0,0-.2-0.2,1.69,1.69,0,0,1-.3-0.6,0.2,0.2,0,0,1-.1-0.2,0.1,0.1,0,0,1,.1-0.1c0.1-.1.2-0.1,0.3-0.2a1.61,1.61,0,0,1,.7-0.4,0.34,0.34,0,0,0,.3-0.2,0.1,0.1,0,0,1,.1-0.1c-0.1-.1-0.1-0.2-0.2-0.3a0.2,0.2,0,0,1-.1-0.2c0-.1,0,0.1-0.1.1h0Zm51.8,0.5-0.3.3c-0.2.2-.3,0.4-0.5,0.6-0.3.4-.7,0.7-1,1.1a12,12,0,0,1-1.1,1.2,1.76,1.76,0,0,1-.5.4,4,4,0,0,0-.3.4c-0.1,0-.1.1,0,0.1a0.34,0.34,0,0,0,.3.2l0.2,0.2h0.1a0.53,0.53,0,0,0,.2-0.3,1.38,1.38,0,0,0,.3-0.4c0.2-.3.4-0.5,0.6-0.8l0.1-.1a1.38,1.38,0,0,1,.3-0.4,3.39,3.39,0,0,1,.6-0.6,0.1,0.1,0,0,0,.1.1c0,0.1-.1.2-0.1,0.3s-0.1.4-.1,0.6l-0.3,1.8c0,0.2-.1.4-0.1,0.7a0.32,0.32,0,0,0,0,.3,0.22,0.22,0,0,0,.2.2,0.1,0.1,0,0,0,.1.1,0.35,0.35,0,0,0,.2-0.1c0.2-.1.3-0.2,0.5-0.3a1.38,1.38,0,0,0,.4-0.3,10.93,10.93,0,0,1,1.5-.8,2.12,2.12,0,0,1,.7-0.3l0.1,0.1c-0.1.1-.1,0.2-0.2,0.3a1.06,1.06,0,0,0-.2.5,8.26,8.26,0,0,0-.7,1.3,0.53,0.53,0,0,0-.2.3c-0.1.1-.2,0.3-0.3,0.4v0.1a1.33,1.33,0,0,0,.5.3,2.09,2.09,0,0,0,.6.4,9.29,9.29,0,0,0,.5-1c0.2-.4.4-0.7,0.6-1.1,0.3-.6.6-1.2,0.9-1.9l0.3-.7a0.53,0.53,0,0,0,.2-0.3v-0.1a1.33,1.33,0,0,0-.5-0.3c-0.1,0-.2.1-0.3,0.1a1.38,1.38,0,0,0-.4.3c-0.6.3-1.2,0.7-1.9,1.1-0.1.1-.9,0.6-1,0.4a3.4,3.4,0,0,1,.1-1c0.1-.7.2-1.5,0.3-2.2,0-.2.1-0.3,0.1-0.5s0.1-.2.1-0.3a5.74,5.74,0,0,0-.7-0.4h0Zm-27.9,1h0.4v0.1a0.1,0.1,0,0,0-.1.1c-0.1.1-.2,0.2-0.3,0.1a0.1,0.1,0,0,1-.1-0.1Zm8.8,0.6c0.1,0.1.4,0.1,0.5,0.2l-0.1.1c-0.1.1-.2,0-0.3-0.1s-0.1-.1-0.1-0.2h0Zm26.1,3.6a7.63,7.63,0,0,1-1.1.8,14.7,14.7,0,0,1-1.3,1,42.73,42.73,0,0,1-1.6,1.1c-0.1.1-.2,0.1-0.3,0.2l-0.2.2v0.1a9951491475838.41,9951491475838.41,0,0,0,.4.4h0.1a1,1,0,0,0,.4-0.3l0.1-.1a4.35,4.35,0,0,1,.7-0.6l0.2-.2,0.5-.5a1.38,1.38,0,0,0,.4-0.3l0.2-.2c0.1-.1.1-0.1,0.1,0a2.35,2.35,0,0,1-.2.8l-0.7,2c-0.1.1-.1,0.3-0.2,0.4a0.37,0.37,0,0,0-.1.3,0.22,0.22,0,0,0,.2.2l0.1,0.1c0.1,0,.2-0.1.3-0.1s0.2-.1.3-0.1l0.5-.2a1.45,1.45,0,0,1,.7-0.2l1-.3a1.34,1.34,0,0,1,.8-0.2v0.1a0.31,0.31,0,0,0-.1.2l-0.4.4c-0.2.2-.3,0.4-0.5,0.6s-0.4.5-.6,0.7l-0.3.3-0.2.2v0.1a0.78,0.78,0,0,0,.4.4,1.51,1.51,0,0,0,.4.4,0.1,0.1,0,0,0,.1-0.1l0.3-.3a1.38,1.38,0,0,1,.3-0.4c0.4-.7,1-1.3,1.5-2l0.5-.7c0.1-.1.2-0.3,0.3-0.4a1.38,1.38,0,0,1,.3-0.4l0.1-.1-0.4-.4a0.1,0.1,0,0,0-.1-0.1,4.87,4.87,0,0,0-.7.3,10.41,10.41,0,0,0-1.6.6c-0.5.1-1,.3-1.5,0.4-0.1,0-.1,0-0.1-0.1a0.6,0.6,0,0,1,.1-0.4,1.45,1.45,0,0,0,.2-0.7,0.37,0.37,0,0,0,.1-0.3c0.2-.6.4-1.2,0.6-1.7,0.1-.2.1-0.3,0.2-0.5a0.35,0.35,0,0,1,.1-0.2l-0.1-.1c-0.1,0-.1-0.1-0.2-0.1,0.2,0.1.1,0,0,0h0Zm-66.9.5c-0.2.1-.3,0.3-0.5,0.4s-0.3.2-.4,0.3a0.1,0.1,0,0,1-.1.1l0.2,0.2c0.1,0.1.1,0.2,0.2,0.3l0.3,0.3a1.51,1.51,0,0,0,.4.4l0.2,0.2a12.88,12.88,0,0,0,1.6,1.7c0.2,0.2.3,0.4,0.5,0.6s0.1,0.2.2,0.3l0.1,0.1h0.1l0.2-.2a1.51,1.51,0,0,0,.4-0.4,13.07,13.07,0,0,1,1.2-1.1,0.53,0.53,0,0,1,.3-0.2,0.38,0.38,0,0,0,.2-0.2v-0.1l-0.2-.2-0.2-.2h-0.1a0.22,0.22,0,0,0-.2.2l-0.6.6-0.4.4a0.1,0.1,0,0,1-.1-0.1l-0.3-.3a1.51,1.51,0,0,1-.4-0.4,3.92,3.92,0,0,1-.8-1,1.76,1.76,0,0,0-.4-0.5,1.38,1.38,0,0,1-.3-0.4,0.1,0.1,0,0,1-.1-0.1c-0.1-.2-0.3-0.3-0.4-0.5a1.27,1.27,0,0,1-.6-0.2h0Zm-3.5,3.2c-0.1.1-.2,0.3-0.3,0.4l-0.3.3v0.1c-0.1.1,0.1,0.2,0.1,0.3s0.1,0.2.2,0.3l0.3,0.6,0.3,0.6c0.4,0.7.7,1.3,1.1,2a3.55,3.55,0,0,1,.4.9,1.42,1.42,0,0,1,.2.4,0.35,0.35,0,0,0,.1.2h0.1l0.3-.3,0.2-.2a3.33,3.33,0,0,1-.3-0.6l-0.3-.6a0.53,0.53,0,0,1-.2-0.3,0.77,0.77,0,0,1,.2-0.3,1.76,1.76,0,0,0,.4-0.5,2.36,2.36,0,0,1,.5-0.5,0.6,0.6,0,0,1,.4.1,5.9,5.9,0,0,0,.8.4c0.1,0,.2.1,0.3,0.1a0.53,0.53,0,0,0,.2-0.3l0.3-.3,0.4-.4c0-.1,0-0.1-0.1-0.1s-0.3-.1-0.4-0.2a6.89,6.89,0,0,1-.8-0.3c-0.5-.2-1.1-0.4-1.6-0.6l-1.3-.5a0.2,0.2,0,0,0-.2-0.1c-0.2-.1-0.5-0.2-0.7-0.3a0.27,0.27,0,0,0-.3-0.3h0Zm0.7,1.6c0.4,0.1.7,0.3,1.1,0.4a1.06,1.06,0,0,0,.5.2,0.2,0.2,0,0,1,0,.4,4.62,4.62,0,0,1-.7.7c-0.1,0-.1,0-0.1-0.1a0.76,0.76,0,0,1-.2-0.4,1.49,1.49,0,0,1-.3-0.7,0.2,0.2,0,0,1-.1-0.2c-0.1-.1-0.1-0.2-0.2-0.3h0Zm74.8,0.1a20,20,0,0,1-1.6,1.4c-0.4.4-.9,0.7-1.3,1.1-0.1.1-.2,0.1-0.3,0.2s-0.8.6-.8,0.6,0,0.1.1,0.1c0.1,0.2.3,0.3,0.4,0.5a0.53,0.53,0,0,1,.2.3l0.1,0.1c0,0.1.1,0.1,0.1,0a0.53,0.53,0,0,1,.3-0.2,4.35,4.35,0,0,1,.7-0.6c0.2-.2.5-0.4,0.7-0.6l0.2-.2a0.53,0.53,0,0,1,.3-0.2c0.2-.2.5-0.4,0.7-0.6l0.3-.3,0.7-.5c0.1-.1.2-0.1,0.3-0.2v-0.1l-0.4-.4c-0.1-.1-0.2-0.3-0.3-0.4h-0.4Zm1.3,2.6a0.37,0.37,0,0,1-.3.1,1.75,1.75,0,0,0-1.2,1.3,2.13,2.13,0,0,0,0,.8,1.39,1.39,0,0,1-.1,1.4,0.53,0.53,0,0,1-.3.2c-0.1,0-.1.1-0.2,0.1a0.48,0.48,0,0,1-.4-0.1,1.22,1.22,0,0,1-.6-1.2,0.37,0.37,0,0,1,.1-0.3c0.1-.1.2-0.2,0.1-0.3a0.1,0.1,0,0,0-.1-0.1c-0.1,0-.2.1-0.3,0.1a1.07,1.07,0,0,1-.6.2,0.1,0.1,0,0,1-.1.1,2.28,2.28,0,0,0,.3,1.1,1.88,1.88,0,0,0,2.3,1.2c0.1,0,.2-0.1.3-0.1a1.65,1.65,0,0,0,.9-1.2,2.2,2.2,0,0,0-.1-0.8,1.6,1.6,0,0,1,.1-1.5,0.69,0.69,0,0,1,1.2.3,0.85,0.85,0,0,1,0,.7c0,0.1-.1.3-0.1,0.4a0.1,0.1,0,0,0,.1.1,2.61,2.61,0,0,0,.8-0.3,1.48,1.48,0,0,0-.1-0.9,2.24,2.24,0,0,0-1.4-1.3H226Zm-79.7.2a1.47,1.47,0,0,0-.4.2,3.23,3.23,0,0,0-1.2,1.4l-0.2.3c-0.1.1-.2,0.3-0.3,0.4a0.53,0.53,0,0,0-.2.3v0.1a0.76,0.76,0,0,0,.4.2c0.1,0,.3.2,0.4,0.2a1.42,1.42,0,0,0,.4.2,1.38,1.38,0,0,1,.4.3,6.73,6.73,0,0,1,1.1.7c0.4,0.3.9,0.6,1.3,0.9a1.33,1.33,0,0,0,.5.3c0.1,0,.2-0.3.3-0.3a0.31,0.31,0,0,0,.1-0.2,1.33,1.33,0,0,0,.3-0.5,0.1,0.1,0,0,0-.1-0.1c-0.1-.1-0.2-0.1-0.3-0.2-0.3-.2-0.7-0.4-1-0.6a2.09,2.09,0,0,1-.6-0.4c-0.1,0-.1,0-0.1-0.1a1.65,1.65,0,0,1,.7,0c0.5,0,1,.1,1.6.1a1.27,1.27,0,0,0,.6.1h0.1v-0.1a0.38,0.38,0,0,1,.2-0.2l0.2-.3,0.3-.3a0.35,0.35,0,0,1,.1-0.2V132c0-.1-0.1-0.1-0.2-0.1h-0.9a0.32,0.32,0,0,0-.3,0h-0.4a0.55,0.55,0,0,0-.4,0h-0.6c-0.1,0-.3.1-0.3,0a1.2,1.2,0,0,1,0-.6V131a0.37,0.37,0,0,0-.1-0.3,1.48,1.48,0,0,0-1.1-.8h-0.3Zm-0.4,1.2a1.39,1.39,0,0,1,1.2,1c0,0.1-.1.3-0.1,0.4a0.34,0.34,0,0,1-.2.3,3,3,0,0,1-.8-0.4c-0.2-.1-0.4-0.3-0.6-0.4a0.38,0.38,0,0,1-.2-0.2,0.82,0.82,0,0,1,.4-0.6c0.1,0,.2-0.1.3-0.1h0Zm82.4,2.6c-0.1,0-.2.1-0.3,0.1a1.67,1.67,0,0,0-1.1,1.2,3.08,3.08,0,0,0-.1,1,1.28,1.28,0,0,1-.2,1.2,0.53,0.53,0,0,1-.3.2,0.1,0.1,0,0,0-.1.1,2.27,2.27,0,0,1-.4-0.1,1.14,1.14,0,0,1-.6-1.2,0.52,0.52,0,0,1,.2-0.4c0-.1.1-0.1,0.1-0.2a0.2,0.2,0,0,0-.1-0.2c-0.1,0-.2.1-0.3,0.1a0.35,0.35,0,0,0-.2.1c-0.1,0-.1.1-0.2,0.1a0.31,0.31,0,0,1-.2.1l-0.1.1a1.49,1.49,0,0,0,.1.6,2.59,2.59,0,0,0,1.6,1.9,1.68,1.68,0,0,0,2.1-1.1,0.37,0.37,0,0,0,.1-0.3v-0.7a1.2,1.2,0,0,1,.4-1.5,0.47,0.47,0,0,1,.6.1,1,1,0,0,1,.3,1.2,0.33,0.33,0,0,0-.1.4,0.1,0.1,0,0,0,.1.1c0.1,0,.1-0.1.2-0.1s0.2-.1.3-0.1a0.37,0.37,0,0,0,.3-0.1,0.77,0.77,0,0,0,0-.8c0-.1-0.1-0.2-0.1-0.3a0.2,0.2,0,0,1-.1-0.2,0.1,0.1,0,0,1-.1-0.1,0.35,0.35,0,0,1-.1-0.2,0.38,0.38,0,0,1-.2-0.2,0.2,0.2,0,0,1-.1-0.2,1.54,1.54,0,0,0-1.4-.6h0Zm-85,.1a0.71,0.71,0,0,0-.3.6c-0.2.5-.5,1-0.7,1.5a0.76,0.76,0,0,0-.2.4,0.2,0.2,0,0,0-.1.2v0.1a0.2,0.2,0,0,0,.2.1,1.38,1.38,0,0,1,.4.3,18.65,18.65,0,0,1,2,1,10.91,10.91,0,0,0,1.1.6,9.29,9.29,0,0,0,1,.5,0.2,0.2,0,0,0,.2.1,0.31,0.31,0,0,0,.1-0.2,0.76,0.76,0,0,0,.2-0.4l0.3-.7c0.1-.1.1-0.2,0.2-0.3a1.47,1.47,0,0,1,.2-0.4,0.37,0.37,0,0,0,.1-0.3,0.53,0.53,0,0,0,.2-0.3,0.1,0.1,0,0,0-.1-0.1,0.37,0.37,0,0,0-.3-0.1c-0.1-.1-0.2-0.2-0.3-0.1l-0.1.1a1.47,1.47,0,0,1-.2.4,4.87,4.87,0,0,0-.3.7c-0.1.1-.1,0.2-0.2,0.3s-0.1.1-.2,0l-0.3-.2c-0.1,0-.2-0.1-0.3-0.1a0.2,0.2,0,0,0-.2-0.1l-0.3-.2-0.3-.2a0.2,0.2,0,0,1-.1-0.2l0.2-.4a2.51,2.51,0,0,0,.4-0.7c0.1-.1.2-0.2,0.1-0.3a0.77,0.77,0,0,1-.3-0.2c0-.1-0.1-0.1-0.2-0.1s-0.1.1-.2,0.1a4.18,4.18,0,0,0-.4,1,0.77,0.77,0,0,1-.2.3c-0.1,0-.1.1-0.2,0.1a0.2,0.2,0,0,0-.2-0.1c-0.2-.1-0.3-0.2-0.5-0.3s-0.3-.2-0.5-0.3l-0.1-.1c-0.1-.1.1-0.2,0.1-0.3a5.74,5.74,0,0,1,.4-0.7l0.2-.3a0.2,0.2,0,0,0,.1-0.2v-0.1a0.37,0.37,0,0,0-.3-0.1c0.1-.2,0-0.3-0.1-0.3h0Zm87.8,3.5c-0.1.1-.3,0.1-0.4,0.2l-0.3.2c-0.1,0-.1.1-0.2,0.1s-0.2.1-.3,0.2-0.2.1-.3,0.1a11.11,11.11,0,0,0-1.6.7,1.47,1.47,0,0,0-.4.2,1.42,1.42,0,0,1-.6.2c-0.1.1-.7,0.3-0.8,0.4s-0.1.1,0,.1a1.47,1.47,0,0,0,.2.4c0.1,0.1.1,0.3,0.2,0.4a0.31,0.31,0,0,1,.1.2,0.1,0.1,0,0,0,.1.1,0.53,0.53,0,0,0,.3-0.2,0.37,0.37,0,0,1,.3-0.1,1.42,1.42,0,0,1,.4-0.2c0.8-.3,1.7-0.8,2.5-1.1,0.3-.1.6-0.3,0.9-0.4a0.6,0.6,0,0,1,.4-0.1v-0.1a1.42,1.42,0,0,1-.2-0.4,1.47,1.47,0,0,0-.2-0.4,0.35,0.35,0,0,0-.1-0.2c0.1-.3.1-0.3,0-0.3h0Zm-88.7.9c-0.1,0-.2.1-0.3,0.1a1.47,1.47,0,0,1-.4.2,1.34,1.34,0,0,0-.7.6,5.58,5.58,0,0,0-.5.8c-0.2.4-.3,1-0.5,1.4a4.87,4.87,0,0,1-.3.7,0.37,0.37,0,0,0-.1.3,0.1,0.1,0,0,0-.1.1,2.93,2.93,0,0,0,1,.3c1,0.4,2,.8,2.9,1.1a7.59,7.59,0,0,0,1.1.4,0.1,0.1,0,0,0,.1-0.1V144a1.47,1.47,0,0,1,.2-0.4,6.89,6.89,0,0,1,.3-0.8,5,5,0,0,0,.4-1.3,0.2,0.2,0,0,1,.1-0.2,2.85,2.85,0,0,0-1.2-2.6l-0.3-.2a0.37,0.37,0,0,0-.3-0.1,2.35,2.35,0,0,0-.8-0.2h-0.6Zm-0.5,1.3h0.2a2,2,0,0,1,.7.1c1.1,0.2,2.5,1.1,2.1,2.5,0,0.1-.1.3-0.1,0.4s-0.1.3-.2,0.4a0.35,0.35,0,0,1-.2-0.1c-0.2-.1-0.4-0.1-0.6-0.2s-0.2-.1-0.3-0.1a10.37,10.37,0,0,0-1-.4,10.38,10.38,0,0,1-1-.4,10.38,10.38,0,0,1-1-.4,0.9,0.9,0,0,1,.1-0.5,1.55,1.55,0,0,1,1-1.2,0.37,0.37,0,0,0,.3-0.1h0Zm88.8,0.5-0.1.1h-0.1c-0.1,0-.2.1-0.3,0.1l-0.9.3a2.77,2.77,0,0,0-1.4,1.6,3.75,3.75,0,0,0-.1,1.1,3.43,3.43,0,0,0,2.1,2.8,1.06,1.06,0,0,0,.8.1,3.05,3.05,0,0,0,2.8-1.7,0.76,0.76,0,0,0,.1-0.4c0-.1.1-0.1,0.1-0.2a2.46,2.46,0,0,0-.1-1.2,3.14,3.14,0,0,0-1.7-2.3,2.13,2.13,0,0,0-1.2-.3h0Zm0.4,1.2h0.2a3,3,0,0,1,1,.2,2.24,2.24,0,0,1,.8,1.5,2,2,0,0,1-.4.8l-0.3.3c-0.1.1-.2,0.1-0.3,0.2a4.18,4.18,0,0,1-1,.4c-0.1.1-.2,0-0.3,0.1h-0.3a0.1,0.1,0,0,1-.1.1h-0.1a2.13,2.13,0,0,1-1.2-.3,1.35,1.35,0,0,1-.3-2,3.45,3.45,0,0,1,1.2-.9l0.8-.3a0.37,0.37,0,0,0,.3-0.1h0Zm-92,2.3a0.37,0.37,0,0,0-.1.3,2.27,2.27,0,0,0-.1.4v0.2c0,0.1-.1.1-0.1,0.2a2.35,2.35,0,0,0-.2.8,0.6,0.6,0,0,0-.1.4,1.85,1.85,0,0,0-.2.7c0.1,0.1.3,0.1,0.4,0.2h0.1l2.2,0.6,1.8,0.6c0.1,0,.2.1,0.3,0.1a0.37,0.37,0,0,0,.3.1h0.1a1.85,1.85,0,0,0,.2-0.7l0.2-.5v-0.2a3.54,3.54,0,0,0,.3-1.1,1.06,1.06,0,0,0,.2-0.5c0-.1,0-0.1-0.1-0.1s-0.2-.1-0.3-0.1-0.1-.1-0.2-0.1a0.1,0.1,0,0,0-.1.1,3,3,0,0,0-.2,1c0,0.1-.1.1-0.1,0.2a0.6,0.6,0,0,0-.1.4,0.1,0.1,0,0,1-.1.1,0.31,0.31,0,0,1-.2-0.1c-0.1,0-.2-0.1-0.3-0.1a0.76,0.76,0,0,0-.4-0.1l-0.5-.2a0.35,0.35,0,0,1-.2-0.1l-0.1-.1a0.9,0.9,0,0,1,.1-0.5,1.45,1.45,0,0,0,.2-0.7,0.37,0.37,0,0,0,.1-0.3s0.1-.1,0-0.1a1,1,0,0,1-.3-0.1,0.2,0.2,0,0,0-.2-0.1c-0.1-.1-0.1,0-0.2.1a1.27,1.27,0,0,0-.1.6c-0.1.2-.1,0.4-0.2,0.6a1,1,0,0,1-.1.3,0.1,0.1,0,0,1-.1.1c-0.2,0-.4-0.1-0.6-0.1l-0.5-.2a0.37,0.37,0,0,0-.3-0.1,0.1,0.1,0,0,1-.1-0.1v-0.1a1.42,1.42,0,0,0,.2-0.6,2.54,2.54,0,0,0,.2-0.7c0-.1.1-0.1,0.1-0.2v-0.1a0.37,0.37,0,0,0-.3-0.1,0.32,0.32,0,0,1-.3,0h0Zm95.3,2.7a0.6,0.6,0,0,1-.4.1c-0.1,0-.2.1-0.3,0.1a0.76,0.76,0,0,1-.4.1,0.37,0.37,0,0,0-.3.1,2.27,2.27,0,0,0-.4.1c-0.1,0-.2.1-0.3,0.1a2.27,2.27,0,0,0-.4.1c-0.1,0-.3,0-0.3.1s-0.2.1-.3,0.1a0.35,0.35,0,0,0-.2.1h-0.2c-0.1,0-.2.1-0.3,0.1s-0.1.1-.2,0.1h-0.1c-0.1,0-.2.1-0.3,0.1a0.1,0.1,0,0,1-.1.1h-0.3c-0.1,0-.2.1-0.3,0.1a1.27,1.27,0,0,0,.1.6l0.1,0.1a0.35,0.35,0,0,1,.2-0.1c0.2-.1.4-0.1,0.6-0.2,0.6-.1,1.2-0.3,1.9-0.4a0.9,0.9,0,0,1,.5-0.1c0.1,0,.2-0.1.2,0s0.1,0,.1.1a1.27,1.27,0,0,1-.4.7,0.38,0.38,0,0,1-.2.2c-0.3.4-.6,0.8-0.8,1.1l-0.5.7c-0.1.2-.3,0.4-0.4,0.6a1.38,1.38,0,0,1-.3.4,0.53,0.53,0,0,0-.2.3c0,0.1.1,0.2,0.1,0.3a0.37,0.37,0,0,0,.1.3,2.2,2.2,0,0,0,.8-0.1,0.76,0.76,0,0,1,.4-0.1l1.2-.3c0.5-.1,1-0.2,1.6-0.3l0.8-.2a0.37,0.37,0,0,0,.3-0.1,0.2,0.2,0,0,0,.1-0.2,0.52,0.52,0,0,0-.2-0.4c0-.1-0.1-0.1-0.2-0.1s-0.2.1-.3,0.1-0.3.1-.4,0.1a0.2,0.2,0,0,1-.2.1,2.27,2.27,0,0,0-.4.1,0.76,0.76,0,0,1-.4.1c-0.1,0-.3.1-0.4,0.1s-0.2.1-.3,0.1a0.2,0.2,0,0,1-.2.1,0.2,0.2,0,0,0-.2.1h-0.2c-0.1,0-.1,0-0.1-0.1a1.77,1.77,0,0,1,.5-0.8,1.38,1.38,0,0,1,.3-0.4c0.6-.8,1.2-1.6,1.7-2.4a0.2,0.2,0,0,0,.1-0.2,1.85,1.85,0,0,0-.2-0.7l-0.1-.6h0Zm-96.4,1.5h0a1.27,1.27,0,0,0-.1.6,1.48,1.48,0,0,0-.1.7,1.08,1.08,0,0,0-.1.6,1.27,1.27,0,0,0-.1.6,0.61,0.61,0,0,0-.1.6,2.35,2.35,0,0,0,.8.2,6.38,6.38,0,0,1,.7.2l1.7,0.3a5.16,5.16,0,0,0,1.1.2c0.3,0.1.6,0.1,0.8,0.2a0.2,0.2,0,0,0,.2-0.1,1.08,1.08,0,0,0,.1-0.6,1.7,1.7,0,0,0,.1-0.7,4.3,4.3,0,0,0-1.2-.2c-0.2-.1-0.5-0.1-0.7-0.2a0.75,0.75,0,0,1-.5-0.1,0.1,0.1,0,0,1-.1-0.1,0.48,0.48,0,0,1,.1-0.5,1.27,1.27,0,0,0,.1-0.6,0.6,0.6,0,0,0,.1-0.4v-0.1c-0.1,0-.3,0-0.3-0.1s-0.2-.1-0.3-0.1l-0.1.1c-0.1.1,0,.3-0.1,0.4a2.49,2.49,0,0,0-.1.8,0.6,0.6,0,0,1-.1.4h-0.2c-0.1,0-.3-0.1-0.4-0.1s-0.1-.1-0.2-0.1l-0.7-.2a0.1,0.1,0,0,1-.1-0.1c0-.1,0-0.2.1-0.2a2.27,2.27,0,0,0,.1-0.4c0.1-.2.1-0.4,0.2-0.6s0.1-.2.1-0.3,0-.1-0.1-0.1a0.49,0.49,0,0,0-.3-0.1c-0.2.2-.2,0.1-0.3,0.1h0Zm1.6,15.5a0.32,0.32,0,0,0,0,.3v0.2c0,0.1.1,0.1,0.1,0.2v0.2c0,0.1.1,0.3,0.1,0.4a0.71,0.71,0,0,1-.6.3l-0.5.3a0.1,0.1,0,0,0,.1.1,1.27,1.27,0,0,0,.6.1,1.47,1.47,0,0,1,.4.2c0.1,0.1.1,0.5,0.2,0.6s0.1,0.2.1,0.3a0.37,0.37,0,0,0,.1.3l0.1-.1a0.52,0.52,0,0,0,.2-0.4,0.1,0.1,0,0,0,.1-0.1c0.1-.1.1-0.2,0.2-0.3a0.22,0.22,0,0,1,.2-0.2,0.14,0.14,0,0,1,.2,0c0.2,0,.4.1,0.7,0.1a0.35,0.35,0,0,1,.2.1,0.1,0.1,0,0,0,.1-0.1c0.1-.1-0.7-0.7-0.8-1a0.52,0.52,0,0,1,.2-0.4,1.47,1.47,0,0,1,.2-0.4,0.53,0.53,0,0,0,.2-0.3h-0.1a0.35,0.35,0,0,0-.2.1,0.37,0.37,0,0,1-.3.1,2.12,2.12,0,0,1-.7.3,0.22,0.22,0,0,1-.2-0.2,1.76,1.76,0,0,0-.5-0.4,4,4,0,0,0-.4-0.3h0Zm93.5,0.3-0.2.2a0.2,0.2,0,0,1-.2.1,0.76,0.76,0,0,1-.4.4,4.17,4.17,0,0,0-.6-0.2,0.35,0.35,0,0,1-.2-0.1,0.37,0.37,0,0,0-.3-0.1v0.1c0,0.1.1,0.1,0.1,0.2s0.1,0.3.2,0.4a0.48,0.48,0,0,1,.2.5,0.45,0.45,0,0,1-.3.3c-0.1.1-.1,0.2-0.2,0.3a0.38,0.38,0,0,1-.2.2v0.1a0.19,0.19,0,0,0,.3,0c0.2,0,.3-0.1.5-0.1a0.6,0.6,0,0,1,.4-0.1,0.55,0.55,0,0,1,.3.5,0.38,0.38,0,0,0,.2.2,0.35,0.35,0,0,0,.1.2s0.1,0.1.1,0a0.48,0.48,0,0,0,.1-0.4c0-.1,0-0.2.1-0.2a0.48,0.48,0,0,1,.1-0.4c0.1-.1.3-0.1,0.4-0.2a1.85,1.85,0,0,0,.7-0.2,0.85,0.85,0,0,0-.5-0.3,0.38,0.38,0,0,1-.2-0.2,0.35,0.35,0,0,1-.2-0.1,0.55,0.55,0,0,1,0-.4V164a0.32,0.32,0,0,0,0-.3v-0.1h-0.3v-0.1ZM145.73,177a2.51,2.51,0,0,0-.7.4c-0.1.1-.3,0.2-0.4,0.3l-1,.5c-0.3.2-.8,0.4-1.1,0.6a1.77,1.77,0,0,0-.9,1.7,5.27,5.27,0,0,0,.3,1.2,1.89,1.89,0,0,0,.8,1,1.69,1.69,0,0,0,1,.3,3.46,3.46,0,0,0,2-.7l0.7-.3,0.3-.2a3.55,3.55,0,0,1,.9-0.4c0.1-.1.2-0.1,0.3-0.2a0.1,0.1,0,0,0,.1-0.1,0.77,0.77,0,0,0-.2-0.3,0.37,0.37,0,0,1-.1-0.3l-0.1-.1a0.53,0.53,0,0,0-.3.2,5.9,5.9,0,0,1-.8.4,7.14,7.14,0,0,1-1.5.8l-0.3.2c-0.1.1-.3,0.1-0.4,0.2s-0.1.1-.2,0.1H144a0.1,0.1,0,0,0-.1.1,1.88,1.88,0,0,1-.8-0.2,1.56,1.56,0,0,1-.7-1.3,4.87,4.87,0,0,0,.3-0.7,0.1,0.1,0,0,0,.1-0.1,1.79,1.79,0,0,1,.7-0.5c0.3-.2.7-0.4,1-0.6a1117965.86,1117965.86,0,0,1,.4-0.2,1.06,1.06,0,0,1,.5-0.2,0.76,0.76,0,0,1,.4-0.2,0.76,0.76,0,0,0,.4-0.2v-0.1c0-.1-0.1-0.2-0.1-0.3a0.53,0.53,0,0,1-.2-0.3,1.47,1.47,0,0,0-.2-0.4V177h0Zm79.8,2.3a0.1,0.1,0,0,1-.1.1,0.31,0.31,0,0,0-.1.2,0.64,0.64,0,0,0-.2.6,0.85,0.85,0,0,0,.3.3l0.3,0.3,0.3,0.3c0.7,0.7,1.3,1.5,2,2.2a5.72,5.72,0,0,0,.7.8,0.53,0.53,0,0,1,.2.3c0.1,0,.1.1,0.2,0s0.1-.2.1-0.3a0.53,0.53,0,0,0,.2-0.3,0.32,0.32,0,0,0-.3-0.3l-0.6-.6a0.53,0.53,0,0,1-.2-0.3,1.33,1.33,0,0,1,.3-0.8c0.1-.1.1-0.2,0.2-0.3a0.92,0.92,0,0,1,.4-0.6,0.37,0.37,0,0,1,.3.1c0.3,0,.6.1,0.9,0.1,0.1,0,.3.1,0.4,0.1a1.61,1.61,0,0,0,.4-0.7,1.06,1.06,0,0,0,.2-0.5c0-.1,0-0.1-0.1-0.1a1.27,1.27,0,0,0-.6-0.1,2.2,2.2,0,0,1-.8-0.1c-0.4-.1-1-0.1-1.4-0.2s-0.7-.1-1.1-0.2h-0.3l-0.8-.2a0.83,0.83,0,0,1-.8.2h0Zm1,1.5a2,2,0,0,1,.7.1c0.1,0,.2.1,0.3,0.1s0.4,0.1.6,0.1h0.2l0.1,0.1a3.45,3.45,0,0,1-.5,1.1l-0.1.1a0.1,0.1,0,0,1-.1-0.1,0.53,0.53,0,0,0-.3-0.2c-0.2-.2-0.4-0.5-0.6-0.7a0.85,0.85,0,0,1-.3-0.3v-0.3h0Zm-78.2,1.2c-1.2.8-2.3,1.6-3.5,2.3a4.35,4.35,0,0,1-.7.4,0.77,0.77,0,0,0-.3.2,0.1,0.1,0,0,0-.1.1,0.38,0.38,0,0,0,.2.2c0.1,0.1.1,0.2,0.2,0.3a0.1,0.1,0,0,1,.1.1h0.1l0.1-.1a0.38,0.38,0,0,0,.2-0.2l0.9-.6c0.2-.2.5-0.3,0.8-0.6a1.38,1.38,0,0,0,.4-0.3,0.53,0.53,0,0,1,.3-0.2h0.1a5.16,5.16,0,0,1-.2,1.1,2.92,2.92,0,0,0-.2.9,9.36,9.36,0,0,0-.4,1.6c-0.1.2-.1,0.5-0.2,0.7s-0.1.2-.1,0.3a1.27,1.27,0,0,0,.4.6c0.1,0.1.1,0,.1,0a2.41,2.41,0,0,0,.8-0.6,9.91,9.91,0,0,0,1.7-1.1c0.3-.2.6-0.4,1-0.7l0.6-.3a0.77,0.77,0,0,0,.3-0.2v-0.1a0.38,0.38,0,0,0-.2-0.2c-0.1-.1-0.1-0.2-0.2-0.3h0c-0.1,0-.2.1-0.3,0.1a1.38,1.38,0,0,1-.4.3c-0.2.2-.5,0.4-0.7,0.6a2.09,2.09,0,0,0-.6.4l-0.5.3c-0.1.1-.2,0.1-0.3,0.2h-0.1a4.25,4.25,0,0,1,.2-1.1c0.1-.2.1-0.4,0.2-0.6,0.2-.7.4-1.5,0.6-2.2a0.6,0.6,0,0,0,.1-0.4,0.2,0.2,0,0,0,.1-0.2v-0.1a0.38,0.38,0,0,0-.2-0.2l-0.2-.3-0.1-.1h0Zm75.8,0.4c-0.2.2-.5,0.4-0.7,0.6a1.38,1.38,0,0,1-.3.4,3.31,3.31,0,0,0-.7,2.9,4.13,4.13,0,0,0,.7,1.1,4.25,4.25,0,0,0,1.7,1,2.13,2.13,0,0,0,.8,0,6.38,6.38,0,0,0,.7-0.2,3.14,3.14,0,0,0,1.5-1.7,3,3,0,0,0,.4-1v-0.2a1.44,1.44,0,0,1-.2-0.3l-0.3-.3c-0.1-.1-0.2-0.1-0.2.1a0.6,0.6,0,0,0,.1.4,3,3,0,0,1-.2,1,1.76,1.76,0,0,1-.9.8,0.2,0.2,0,0,1-.2.1,0.2,0.2,0,0,0-.2.1c-0.1,0-.1-0.1-0.2,0a4.25,4.25,0,0,1-1.1-.2,0.2,0.2,0,0,0-.2-0.1,3.11,3.11,0,0,1-.9-0.7,2.27,2.27,0,0,1-.6-1.6,6.37,6.37,0,0,0,.2-0.7,1.59,1.59,0,0,1,1-.8,0.2,0.2,0,0,0,.2-0.1c0.1,0,.2.1,0.2,0v-0.1l-0.2-.2-0.3-.3c0,0.1,0,0-.1,0h0Zm-72.8,4.2c-0.7.6-1.5,1.2-2.2,1.9-0.1.1-.2,0.1-0.3,0.2s-0.2.1-.3,0.2a0.53,0.53,0,0,1-.3.2l-0.3.3a0.2,0.2,0,0,1-.2.1c-0.1.1-.2,0.1-0.3,0.2a0.85,0.85,0,0,0-.3.3v0.1a0.38,0.38,0,0,1,.2.2,0.53,0.53,0,0,1,.2.3c0,0.1.2,0.2,0.2,0.3s0.1,0.1.1,0.2h0.1l0.3-.3c0.2-.2.5-0.4,0.7-0.6a10.62,10.62,0,0,1,1.1-.9,10.59,10.59,0,0,0,1.2-1,0.31,0.31,0,0,1,.2-0.1,0.53,0.53,0,0,1,.3-0.2,0.85,0.85,0,0,0,.3-0.3c0.1,0,.1-0.1,0-0.1-0.1-.2-0.3-0.3-0.4-0.5a0.53,0.53,0,0,1-.2-0.3,0.2,0.2,0,0,1-.1-0.2C151.43,186.57,151.33,186.57,151.33,186.57Zm69.5,0a0.2,0.2,0,0,0-.1.2c-0.1.1-.1,0.2-0.2,0.3l-0.3.3c0,0.1-.1.1-0.1,0.2a0.1,0.1,0,0,0,0,.2,0.38,0.38,0,0,1,.2.2,1.38,1.38,0,0,1,.4.3c0.7,0.6,1.4,1.1,2.1,1.7l0.4,0.4c0.1,0.1.3,0.2,0.4,0.3a1.51,1.51,0,0,0,.4.4c0.1,0,.1.1,0.1,0a0.38,0.38,0,0,0,.2-0.2c0.1-.1.1-0.2,0.2-0.3a1.51,1.51,0,0,0,.4-0.4v-0.1a0.62,0.62,0,0,0-.4-0.3,3.11,3.11,0,0,0-.6-0.4c-0.4-.4-1-0.8-1.5-1.2a0.53,0.53,0,0,0-.3-0.2l-0.6-.6-0.2-.2a0.53,0.53,0,0,0-.3-0.2,0.25,0.25,0,0,0-.2-0.4h0Zm-68.1,1.5-0.1.1-0.2.2-0.1.1a0.1,0.1,0,0,0-.1.1l0.3,0.3,0.5,0.5a0.38,0.38,0,0,1,.2.2v0.1l-0.3.3a2.36,2.36,0,0,0-.5.5,5,5,0,0,0-.8.7,5,5,0,0,1-.8.7l-0.2.2-0.4.4-0.2.2a0.38,0.38,0,0,0-.2.2c-0.1,0-.1.1,0,0.1a1.51,1.51,0,0,0,.4.4,0.53,0.53,0,0,1,.2.3l0.2,0.2h0.2c0.1-.1.1-0.2,0.2-0.3a1.76,1.76,0,0,0,.4-0.5l0.3-.3c0.3-.3.7-0.6,1-0.9a1.51,1.51,0,0,1,.4-0.4,1.38,1.38,0,0,0,.4-0.3,1.47,1.47,0,0,1,.6-0.5,0.1,0.1,0,0,1,.1-0.1,0.38,0.38,0,0,1,.2.2l0.4,0.4a0.53,0.53,0,0,1,.2.3l0.1,0.1a0.53,0.53,0,0,0,.3-0.2,0.38,0.38,0,0,0,.2-0.2v-0.1a0.38,0.38,0,0,0-.2-0.2,1.76,1.76,0,0,0-.5-0.4,6,6,0,0,0-.8-0.8,0.38,0.38,0,0,0-.2-0.2,4.35,4.35,0,0,1-.6-0.7c-0.1-.1-0.2-0.3-0.3-0.4a0.85,0.85,0,0,1-.3-0.3h0Zm66.8,0.8a0.1,0.1,0,0,1-.1.1c-0.1,0-.2.1-0.3,0.1a7.52,7.52,0,0,0-1.6,1.5l-0.3.3a0.38,0.38,0,0,0-.2.2v0.1a0.85,0.85,0,0,0,.3.3,1.38,1.38,0,0,0,.4.3,1.76,1.76,0,0,0,.5.4,15.38,15.38,0,0,1,1.2,1.3l1.3,1.3a0.1,0.1,0,0,0,.1.1l0.4-.4c0.1-.1.4-0.3,0.5-0.4s0-.1-0.1-0.1l-0.3-.3-0.8-.8a2.36,2.36,0,0,1-.5-0.5,0.1,0.1,0,0,1,.1-0.1,2.27,2.27,0,0,0,.4.1c0.2,0.1.5,0.1,0.7,0.2s0.7,0.2,1,.3a1.07,1.07,0,0,0,.6.2,0.53,0.53,0,0,1,.3-0.2l0.3-.3c0-.1.1-0.1,0.1-0.2a0.85,0.85,0,0,0,.3-0.3c0.1-.1,0-0.1,0-0.1a0.37,0.37,0,0,0-.3-0.1c-0.1,0-.2-0.1-0.3-0.1-0.6-.1-1.2-0.3-1.9-0.4a0.6,0.6,0,0,0-.4-0.1l-0.1-.1a0.31,0.31,0,0,0,.1-0.2,1.48,1.48,0,0,0,.1-0.7,1.29,1.29,0,0,0-1-1.2,0.65,0.65,0,0,0-.5-0.2h0Zm-0.6,1.1a1.39,1.39,0,0,1,1,.5,0.1,0.1,0,0,0,.1.1,1.06,1.06,0,0,1,.2.5,1.23,1.23,0,0,1-.4.8,1.34,1.34,0,0,1-.7-0.6c-0.2-.1-0.3-0.3-0.5-0.4l-0.2-.2a0.1,0.1,0,0,0-.1-0.1,0.54,0.54,0,0,1,.4-0.4,0.16,0.16,0,0,1,.2-0.2h0Zm-2.5,1.6a6.47,6.47,0,0,1-.9.8c-0.3.3-.6,0.5-0.8,0.7a0.53,0.53,0,0,1-.3.2,0.38,0.38,0,0,0-.2.2,0.1,0.1,0,0,1-.1.1,5,5,0,0,0,.7.8c0.2,0.2.3,0.4,0.6,0.7a10.62,10.62,0,0,1,.9,1.1,4.35,4.35,0,0,1,.6.7l0.3,0.3c0.1,0.1.1,0.2,0.2,0.3s0.1,0.2.2,0.3h0.1a0.22,0.22,0,0,0,.2-0.2,0.53,0.53,0,0,1,.3-0.2,4.35,4.35,0,0,0,.7-0.6,2.09,2.09,0,0,1,.6-0.4l0.3-.3a0.2,0.2,0,0,1,.2-0.1v-0.1a1.51,1.51,0,0,0-.4-0.4h-0.1l-0.2.2-0.6.6a1,1,0,0,1-.4.3c-0.1,0-.1,0-0.1-0.1l-0.3-.3a1.38,1.38,0,0,0-.3-0.4,1.76,1.76,0,0,1-.4-0.5c-0.1,0-.1-0.1,0-0.1l0.3-.3a4.35,4.35,0,0,0,.7-0.6,0.34,0.34,0,0,0,.3-0.2c0-.1-0.2-0.2-0.2-0.3a0.2,0.2,0,0,1-.1-0.2,0.2,0.2,0,0,0-.2-0.1,0.38,0.38,0,0,1-.2.2,4.35,4.35,0,0,1-.7.6,0.53,0.53,0,0,1-.3.2,0.2,0.2,0,0,1-.2-0.1l-0.3-.3-0.4-.4a0.53,0.53,0,0,1-.2-0.3v-0.2c0.1-.1.2-0.1,0.3-0.2l0.7-.5c0.1-.1.3-0.1,0.4-0.2v-0.1a0.22,0.22,0,0,0-.2-0.2,0.38,0.38,0,0,0-.2-0.2l-0.3-.2h0Zm-60.3.1-0.3.3c-0.1.1-.1,0.2-0.2,0.3a1.38,1.38,0,0,0-.3.4c-0.2.2-.3,0.4-0.5,0.6-0.3.4-.7,0.8-1,1.2l-0.2.2a0.2,0.2,0,0,1-.2.1,4.35,4.35,0,0,0-.6.7l-0.2.2v0.1l0.1,0.1,0.3,0.3a8.06,8.06,0,0,1,1.4,1.2l0.4,0.4c0.1,0,.1,0,0.1-0.1a0.38,0.38,0,0,0,.2-0.2,0.38,0.38,0,0,1,.2-0.2,0.1,0.1,0,0,0,.1-0.1,0.53,0.53,0,0,0-.3-0.2c-0.3-.2-0.5-0.4-0.8-0.6-0.1-.1-0.2-0.1-0.3-0.2s0-.1.1-0.1,0.1-.2.2-0.3a1.76,1.76,0,0,0,.4-0.5,0.2,0.2,0,0,0,.1-0.2l0.3-.3h0.1a0.53,0.53,0,0,0,.3.2l0.4,0.4,0.3,0.3,0.2,0.2h0.1a0.38,0.38,0,0,1,.2-0.2,0.53,0.53,0,0,0,.2-0.3l-0.1-.1a1.38,1.38,0,0,1-.4-0.3,2.09,2.09,0,0,0-.6-0.4,0.85,0.85,0,0,1-.3-0.3v-0.1a0.85,0.85,0,0,1,.3-0.3c0.2-.2.3-0.4,0.5-0.6a0.53,0.53,0,0,1,.3-0.2c0.1,0,.2.2,0.3,0.2l0.6,0.6,0.3,0.3,0.1,0.1c0.1,0,.2-0.2.3-0.2s0.1-.1.1-0.2a0.1,0.1,0,0,0,.1-0.1l-0.2-.2a0.38,0.38,0,0,1-.2-0.2,10.59,10.59,0,0,1-1.2-1l-0.6-.6-0.1-.1h0Zm3,2.5a0.53,0.53,0,0,0-.2.3l-0.3.6a4.44,4.44,0,0,0-.8,1.1c-0.1.1-.2,0.3-0.3,0.4a5.55,5.55,0,0,1-.6.8l-0.5.7a1,1,0,0,0-.3.4c0,0.1,0,.1.1,0.1s0.2,0.1.3,0.2a1.38,1.38,0,0,1,.4.3,0.53,0.53,0,0,0,.3.2,4.44,4.44,0,0,0,1.1.8,0.76,0.76,0,0,0,.4.2,2.92,2.92,0,0,0,.9.2h0.3a4.71,4.71,0,0,0,1.5-.6,1.27,1.27,0,0,0,.4-0.6,2.61,2.61,0,0,0,.6-1.8,1.42,1.42,0,0,0-.2-0.6,3.45,3.45,0,0,0-.9-1.2c-0.5-.4-1-0.7-1.5-1.1l-0.2-.2c-0.1-.1-0.2-0.1-0.3-0.2h-0.2Zm54.1,0a0.2,0.2,0,0,1-.2.1,0.85,0.85,0,0,0-.3.3,0.14,0.14,0,0,0,0,.2,1.27,1.27,0,0,1,.1.6,5,5,0,0,0,.2,1.2c0,0.3.1,0.6,0.1,1,0,0.2.1,0.4,0.1,0.7a0.32,0.32,0,0,1,0,.3v0.1a0.53,0.53,0,0,1-.3-0.2l-0.6-.3a12.81,12.81,0,0,0-2-1.1c-0.1-.1-0.3-0.2-0.4-0.3a1.44,1.44,0,0,0-.3-0.2,0.53,0.53,0,0,0-.3.2c-0.1.1-.2,0.1-0.3,0.2v0.1a5.94,5.94,0,0,0,.4.8c0.4,1,.9,2,1.3,3l0.3,0.6c0.1,0.1.1,0.3,0.2,0.4a0.1,0.1,0,0,0,.1.1c0.1-.1.2-0.1,0.3-0.2s0.2-.1.3-0.2v-0.1c-0.1-.1-0.1-0.2-0.2-0.3a0.52,0.52,0,0,1-.2-0.4c-0.2-.4-0.6-1-0.8-1.5-0.1-.1-0.1-0.3-0.2-0.4l-0.2-.3v-0.1a1.52,1.52,0,0,1,.8.4,1.38,1.38,0,0,1,.4.3,8.64,8.64,0,0,1,1.6,1l0.3,0.2a0.2,0.2,0,0,0,.2.1c0.1,0,.1-0.1.2-0.1l0.1-.1v-0.1c-0.1-.3-0.1-0.6-0.2-0.9s-0.1-.7-0.1-1a2.77,2.77,0,0,1-.1-0.9c0-.3-0.1-0.6-0.1-0.8v-0.1c0.1-.1.1,0,0.1,0s0.1,0.1.1,0.2l0.3,0.3c0.4,0.6.9,1.1,1.3,1.6l0.2,0.2a0.38,0.38,0,0,0,.2.2h0.1a4686964,4686964,0,0,1,.6-0.4,1.47,1.47,0,0,1,.4-0.2v-0.1a1.76,1.76,0,0,0-.4-0.5,0.1,0.1,0,0,0-.1-0.1l-0.3-.3a1.51,1.51,0,0,1-.4-0.4,6.47,6.47,0,0,1-.8-0.9,7,7,0,0,1-.8-1c-0.1-.2-0.3-0.4-0.4-0.6a0.85,0.85,0,0,0-.3-0.3h0Zm-53.3,1.3a0.52,0.52,0,0,1,.4.2,1.6,1.6,0,0,1,.8,2,3.31,3.31,0,0,1-1.4,1.9c-0.1.1-.3,0.1-0.4,0.2s-0.2,0-.2.1h-0.3c-0.2,0-.4-0.1-0.6-0.1a6.07,6.07,0,0,1-1-.7c0-.1.2-0.2,0.2-0.3l0.3-.5,1.5-2.1a1.38,1.38,0,0,1,.3-0.4c0.3-.3.3-0.3,0.4-0.3h0Zm46.2,3.1c-0.2.1-.3,0.2-0.5,0.3a0.2,0.2,0,0,1-.2.1,0.1,0.1,0,0,0-.1.1,0.37,0.37,0,0,0,.1.3c0,0.3.1,0.6,0.1,0.8a3.4,3.4,0,0,1,.1,1,12.31,12.31,0,0,1,.2,2,4.87,4.87,0,0,1,.1,1.2,0.6,0.6,0,0,1,.1.4c0,0.1,0,.1.1,0.1a0.53,0.53,0,0,0,.3-0.2,0.34,0.34,0,0,0,.3-0.2,0.33,0.33,0,0,0-.1-0.4c0-.2-0.1-0.5-0.1-0.7s-0.1-.3-0.1-0.5a0.1,0.1,0,0,1,.1-0.1c0.1-.1.3-0.2,0.4-0.3a5.9,5.9,0,0,1,.8-0.4c0.1,0,.1-0.1.2-0.1a0.32,0.32,0,0,1,.3.3c0.2,0.2.4,0.3,0.6,0.5l0.3,0.3h0.1a0.53,0.53,0,0,0,.3-0.2,1.47,1.47,0,0,1,.4-0.2,1.42,1.42,0,0,1,.4-0.2,0.1,0.1,0,0,0-.1-0.1,3.92,3.92,0,0,0-1-.8l-0.3-.3a0.1,0.1,0,0,1-.1-0.1,0.53,0.53,0,0,0-.3-0.2c-0.6-.6-1.1-1-1.7-1.6a1.51,1.51,0,0,1-.4-0.4c0.1-.1-0.1-0.4-0.3-0.4h0Zm-39.4.6c-0.1,0-.3.1-0.4,0.1s-0.3.2-.5,0.3-0.1.2-.2,0.3a0.76,0.76,0,0,0-.2.4,1.42,1.42,0,0,0,.1,1.1,5.58,5.58,0,0,0,.5.8,3.33,3.33,0,0,1,.6,1,0.61,0.61,0,0,1-.3.7,0.2,0.2,0,0,0-.2.1H166a1.19,1.19,0,0,1-1.2-1,0.6,0.6,0,0,0-.1-0.4h-0.1a4.7,4.7,0,0,0-.6.9,2.34,2.34,0,0,0,.7.7,2.12,2.12,0,0,0,2.7.1,2.62,2.62,0,0,0,.5-0.9c0.3-.9-0.4-1.5-0.9-2.1a1.21,1.21,0,0,1-.3-1c0.1-.6.8-0.6,1.2-0.2a0.53,0.53,0,0,1,.2.3c0,0.1.1,0.2,0.1,0.3s0,0.2.1,0.3,0.1,0.1.1,0a0.1,0.1,0,0,0,.1-0.1l0.3-.3,0.2-.2c0.1-.1-0.1-0.2-0.1-0.3l-0.2-.2a2.94,2.94,0,0,0-1.9-.7h-0.1Zm39.4,1.1a1.41,1.41,0,0,1,.7.6l0.4,0.4a0.38,0.38,0,0,1,.2.2c0,0.1.1,0.1,0,.1a0.38,0.38,0,0,1-.2.2l-0.6.3c-0.1,0-.1.1-0.2,0.1a0.2,0.2,0,0,1-.2-0.1,0.6,0.6,0,0,1-.1-0.4v-0.4a2.77,2.77,0,0,1-.1-0.9,0.1,0.1,0,0,0,.1-0.1h0Zm-36.2.1a0.37,0.37,0,0,0-.1.3,1,1,0,0,1-.1.3,1.07,1.07,0,0,0,.6.2l0.5,0.2c0.1,0,.2.1,0.3,0.1a0.1,0.1,0,0,1,.1.1c0,0.1-.1.2-0.1,0.3s-0.1.4-.2,0.6c-0.2.6-.4,1.1-0.6,1.7-0.1.2-.1,0.4-0.2,0.6s-0.1.3-.2,0.4-0.2.5-.3,0.7-0.1.1-.1,0.2,0,0.1.1,0.1,0.3,0.1.4,0.2,0.2,0.1.3,0.1a0.6,0.6,0,0,0,.4.1,0.1,0.1,0,0,0,.1-0.1,0.2,0.2,0,0,0,.1-0.2,0.37,0.37,0,0,0,.1-0.3c0.1-.2.1-0.4,0.2-0.6,0.1-.4.2-0.8,0.3-1.1a4.88,4.88,0,0,1,.4-1.1c0-.1.1-0.1,0.1-0.2a1.42,1.42,0,0,0,.2-0.6,0.37,0.37,0,0,0,.1-0.3,0.15,0.15,0,0,1,.3,0c0.1,0,.2.1,0.3,0.1a4.12,4.12,0,0,0,.8.3v-0.1a1.06,1.06,0,0,0,.2-0.5c0-.1-0.1-0.1-0.1-0.2a0.6,0.6,0,0,0-.4-0.1l-0.5-.2a1.88,1.88,0,0,0-.8-0.2c-0.4-.2-0.9-0.3-1.4-0.5a1.07,1.07,0,0,0-.6-0.2c0-.1-0.1-0.1-0.2-0.1h0Zm31.6,0.3h0a0.77,0.77,0,0,0-.3.2c-0.1,0-.3.1-0.4,0.1a0.52,0.52,0,0,0-.4.2c-0.1,0-.2.1-0.3,0.1a0.2,0.2,0,0,1-.2.1,0.76,0.76,0,0,0-.4.2c-0.1,0-.3.1-0.4,0.1h-0.2l-0.1.1a0.6,0.6,0,0,0,.1.4l0.2,0.5c0,0.1.1,0.2,0.1,0.3s0.1,0.4.2,0.6c0.1,0.4.2,0.7,0.3,1.1a6.89,6.89,0,0,0,.3.8,1.85,1.85,0,0,0,.2.7c0.1,0.3.1,0.6,0.2,0.8l0.1,0.1c0.1,0.1.2-.1,0.3-0.1a0.31,0.31,0,0,1,.2-0.1,1.85,1.85,0,0,0,.7-0.2v-0.1l-0.2-.5-0.3-.9a3.09,3.09,0,0,1-.2-0.8v-0.1a1.44,1.44,0,0,1,.3-0.2,6.38,6.38,0,0,0,.7-0.2,0.48,0.48,0,0,0,.4-0.1c0.1,0,.1,0,0.1-0.1s-0.1-.2-0.1-0.3v-0.5a0.1,0.1,0,0,1-.1-0.1h-0.1a4.18,4.18,0,0,0-1,.4c-0.1,0-.2.1-0.3,0.1h-0.1a0.2,0.2,0,0,1-.2-0.1,8.33,8.33,0,0,1-.4-1.5,2,2,0,0,1,1.1-.3,0.9,0.9,0,0,1,.5-0.1,0.1,0.1,0,0,0,.1-0.1c0-.1-0.1-0.2-0.1-0.3a0.37,0.37,0,0,0-.1-0.3c-0.2.2-.2,0.1-0.2,0.1h0ZM175,202c-0.1.1-.1,0.2-0.2,0.3a4.35,4.35,0,0,0-.4.7l-0.3.5c-0.3.5-.7,1-1,1.5a4.17,4.17,0,0,1-.6.8,1.38,1.38,0,0,1-.3.4c-0.1.1-.2,0.3-0.3,0.4a0.31,0.31,0,0,0-.1.2c-0.1,0-.1.1,0,0.1a3162229.62,3162229.62,0,0,0,.6.2l0.1-.1c0.1-.1.1-0.3,0.2-0.4a4.35,4.35,0,0,1,.4-0.7c0.1-.1.1-0.2,0.2-0.3a2,2,0,0,1,.7.1c0.3,0.1.6,0.1,1,.2,0.1,0,.1.1,0.2,0.1v0.3a2.77,2.77,0,0,1,.1.9v0.3c0,0.1,0,.1.1,0.1a0.37,0.37,0,0,0,.3.1,2.27,2.27,0,0,1,.4.1c0.1,0,.1.1,0.2,0.1a2.27,2.27,0,0,0,.4.1,0.1,0.1,0,0,0,.1-0.1c0-.2-0.1-0.3-0.1-0.5l-0.2-1.2a12.25,12.25,0,0,1-.2-1.9,2.49,2.49,0,0,1-.1-0.8,0.9,0.9,0,0,0-.1-0.5v-0.5a0.37,0.37,0,0,0-.1-0.3,0.1,0.1,0,0,0-.1-0.1,0.76,0.76,0,0,0-.4-0.1H175Zm20.9,0.3c-0.1.1-.2,0-0.3,0.1h-0.2c-0.1,0-.2,0-0.2.1h-0.1c-0.1,0-.1,0-0.1.1a0.37,0.37,0,0,0-.3.1c-0.1,0-.2.1-0.3,0.1a0.37,0.37,0,0,1-.3.1,2.57,2.57,0,0,0-1.3,3,2.77,2.77,0,0,0,1.7,2.3,3.59,3.59,0,0,0,1.1.2,3.17,3.17,0,0,0,3.1-2,2.35,2.35,0,0,0,.2-0.8v-0.3a2,2,0,0,0-.3-1.1c0-.1-0.1-0.2-0.1-0.3s-0.2-.3-0.3-0.5l-0.3-.3a3.23,3.23,0,0,0-2-.8h0Zm-18.7.2a0.48,0.48,0,0,0-.1.4,0.5,0.5,0,0,0,.5.5,0.76,0.76,0,0,0,.4.1,0.31,0.31,0,0,0,.2.1l0.1,0.1a0.55,0.55,0,0,1,0,.4c-0.1.3-.1,0.6-0.2,0.9a35352882.11,35352882.11,0,0,1-.2,1.4l-0.2.8c-0.1.3-.1,0.6-0.2,0.9,0,0.1-.1.2-0.1,0.3l0.1,0.1a0.75,0.75,0,0,0,.5.1c0.1,0,.2.1,0.3,0.1a0.6,0.6,0,0,0,.4.1l0.1-.1c0.1-.1,0-0.2.1-0.3s0.1-.5.1-0.8c0.1-.8.3-1.7,0.4-2.5,0-.2.1-0.4,0.1-0.7a0.37,0.37,0,0,1,.1-0.3l0.1-.1a0.31,0.31,0,0,1,.2.1c0.2,0,.3.1,0.5,0.1a0.35,0.35,0,0,1,.2.1,1,1,0,0,1,.3.1c0.1,0,.1,0,0.1-0.1s0-.2.1-0.3a0.35,0.35,0,0,1,.1-0.2l-0.1-.1a0.37,0.37,0,0,0-.3-0.1,1.48,1.48,0,0,0-.7-0.1c-0.2,0-.3-0.1-0.5-0.1-0.6-.1-1.2-0.2-1.9-0.3a0.51,0.51,0,0,0-.5-0.6h0Zm18.4,0.3a2.54,2.54,0,0,1,.7.2c0.8,0.5,1.2,2.1,1.1,3.1a6.89,6.89,0,0,1-.3.8,1.27,1.27,0,0,1-.6.4c-0.1,0-.1.1-0.2,0.1s-0.1,0-.1.1h-0.7a1.87,1.87,0,0,1-1.1-1.2,1.47,1.47,0,0,0-.2-0.4,3.3,3.3,0,0,1,.1-2.4,1.45,1.45,0,0,1,1-.7,0.3,0.3,0,0,0,.3,0h0Zm-7.6.5a0.37,0.37,0,0,0-.3.1,1.45,1.45,0,0,0-.7.2,1.53,1.53,0,0,0-.7,2.1,3.09,3.09,0,0,0,1.6,1.1,1.38,1.38,0,0,1,.4.3,0.38,0.38,0,0,1,.2.2,0.59,0.59,0,0,1-.1.8,0.53,0.53,0,0,1-.3.2l-0.1.1h-0.2a1.28,1.28,0,0,1-1-.4,0.38,0.38,0,0,0-.2-0.2,0.35,0.35,0,0,1-.2-0.1,0.6,0.6,0,0,0-.1.4,0.6,0.6,0,0,0-.1.4c0,0.1,0,.2.1,0.2a1.07,1.07,0,0,0,.6.2,2.85,2.85,0,0,0,2.4-.6l0.2-.2a4.87,4.87,0,0,0,.3-0.7,1.73,1.73,0,0,0-.1-1,2,2,0,0,0-.9-0.9c-0.4-.2-1.4-0.4-1.5-1a0.55,0.55,0,0,1,0-.4,0.91,0.91,0,0,1,1.1-.3,1.47,1.47,0,0,1,.6.5c0.1,0.1.2,0.2,0.2,0.1a0.9,0.9,0,0,0,.1-0.5,0.49,0.49,0,0,0,.1-0.3,0.22,0.22,0,0,0-.2-0.2,4.87,4.87,0,0,0-1.2-.1h0Zm-5.7,0a2.48,2.48,0,0,0-.1.9v0.4c0,0.4-.1.8-0.1,1.2a10.28,10.28,0,0,0-.1,1.7,2,2,0,0,0-.1.8c0,0.1-.1.2-0.1,0.3s0,0.1.1,0.1h1a7.57,7.57,0,0,0,1.5.1,1.27,1.27,0,0,0,.6.1h0.1a0.1,0.1,0,0,1,.1-0.1v-0.6a0.31,0.31,0,0,0-.2-0.1,0.1,0.1,0,0,0-.1.1h-0.5c-0.1,0-.3-0.1-0.3,0s-0.5-.1-0.6-0.1a0.1,0.1,0,0,1-.1-0.1v-0.4c0.1-.3,0-0.7.1-1.1,0.1-.1,0-0.2.1-0.3a3.93,3.93,0,0,1,1.5.1c0.1,0,.2.1,0.2,0s0.1,0,.1-0.1v-0.3a0.31,0.31,0,0,0,.1-0.2v-0.1a0.2,0.2,0,0,0-.2-0.1h-0.2a0.32,0.32,0,0,0-.3,0h-0.3a1.48,1.48,0,0,1-.7-0.1,0.1,0.1,0,0,0-.1-0.1,2.27,2.27,0,0,1,.1-0.4,3.75,3.75,0,0,1,.1-1.1,0.32,0.32,0,0,1,.3,0,1.27,1.27,0,0,1,.6.1H185c0.2,0,.4.1,0.6,0.1h0.1a0.32,0.32,0,0,0,0-.3,0.37,0.37,0,0,0,.1-0.3c0-.1,0-0.1-0.1-0.1a0.55,0.55,0,0,0-.4,0c-0.2,0-.4-0.1-0.7-0.1h-1.1c-0.2,0-.4-0.1-0.7-0.1-0.1.3-.3,0.2-0.5,0.2h0Zm-7.5.3c0.1,0,.1,0,0.1.1a4.33,4.33,0,0,1,.1.5c0,0.3.1,0.7,0.1,1v0.2c0,0.1,0,.1-0.1.1s-0.2-.1-0.3-0.1-0.5-.1-0.7-0.2-0.1,0-.1-0.1V205a0.53,0.53,0,0,0,.2-0.3,2.41,2.41,0,0,1,.6-0.8c-0.1-.1-0.1-0.3.1-0.3h0Z"/><path class="cls-2" d="M185.53,116.47a10.82,10.82,0,0,1,1.8,0c0.4,0,.9.1,1.3,0.1h0.2a2.77,2.77,0,0,0,.9.1,4.1,4.1,0,0,0,1.1.1,10,10,0,0,0,1.6.2c0.1,0,.3.1,0.4,0.1,0.3,0.1.7,0.1,1.1,0.2a21,21,0,0,1,2.4.6,2.27,2.27,0,0,1,.4.1,1.88,1.88,0,0,0,.8.2,7.49,7.49,0,0,0,1.6.4c0.8,0.3,1.7.6,2.6,0.9l1.5,0.6a42.48,42.48,0,0,1,5.2,2.7,24.27,24.27,0,0,1,2.8,2c0.4,0.3.9,0.7,1.4,1.1,0.2,0.1.3,0.3,0.5,0.4,0.8,0.7,1.6,1.4,2.4,2.2a11.41,11.41,0,0,1,1.1,1.1c0.6,0.6,1.2,1.3,1.8,2,0.3,0.4.7,0.8,1,1.2a4.44,4.44,0,0,1,.8,1.1c0.2,0.2.4,0.5,0.6,0.7,0.3,0.5.6,0.9,0.9,1.4a0.35,0.35,0,0,0,.1.2c0.1,0,.1,0,0.1.1l0.2,0.2a7,7,0,0,0,.6.9c0.2,0.3.4,0.7,0.6,1,0.7,1.2,1.3,2.6,2,3.8a8.43,8.43,0,0,0,.6,1.4l0.3,0.8c0.2,0.5.3,0.9,0.5,1.4,0.1,0.3.2,0.7,0.3,1.1a13.43,13.43,0,0,1,.7,2.7,10.62,10.62,0,0,1,.4,1.9l0.3,1.5c0,0.2.1,0.3,0.1,0.5s0.1,0.4.1,0.6a13.55,13.55,0,0,1,.2,2,20.08,20.08,0,0,1,.1,2.5v0.3c0,0.9-.1,1.8-0.1,2.6,0,0.4-.1.8-0.1,1.2l-0.2,1.2c0,0.3-.1.5-0.1,0.8s-0.1.6-.2,0.9c-0.2,1-.3,2-0.6,3a23.35,23.35,0,0,1-.7,2.5c0,0.1,0,.2-0.1.2s0,0.1-.1.1l-0.2.7-0.2.5a4.87,4.87,0,0,0-.3.7l-0.3.9c-0.3.9-.7,1.8-1.1,2.7a3.33,3.33,0,0,0-.3.6l-0.7,1.3c-0.1.1-.1,0.2-0.2,0.3l-0.3.6-1.2,2.1c-0.7,1.1-1.4,2.1-2.2,3.2l-0.8,1a1.38,1.38,0,0,1-.3.4,4.35,4.35,0,0,0-.6.7c-0.1.1-.1,0.2-0.2,0.3l-1,1c-0.1.2-.3,0.3-0.4,0.5a6.47,6.47,0,0,1-.9.8,0.1,0.1,0,0,1-.1.1c-0.4.4-.8,0.7-1.2,1.1a26.5,26.5,0,0,1-2.6,2.1c-0.1.1-.2,0.1-0.3,0.2a0.1,0.1,0,0,1-.1.1,0.2,0.2,0,0,1-.2.1,8.34,8.34,0,0,1-1.2.8c-0.1.1-.2,0.1-0.3,0.2s-0.3.2-.4,0.3l-1.8,1.2a24.87,24.87,0,0,1-2.8,1.5c-0.6.3-1.3,0.6-1.9,0.9a8.43,8.43,0,0,0-1.4.6,6.89,6.89,0,0,0-.8.3,4.87,4.87,0,0,1-.7.3l-1.1.3a2.27,2.27,0,0,0-.4.1l-0.5.2a3.55,3.55,0,0,1-1,.2,2.92,2.92,0,0,1-.9.2,18.43,18.43,0,0,1-2.5.5,7.72,7.72,0,0,1-1.5.2,0.37,0.37,0,0,1-.3.1,2.49,2.49,0,0,1-.8.1c-0.7.1-1.4,0.1-2.1,0.2H188a36.15,36.15,0,0,1-6.6-.2c-0.5-.1-1.1-0.1-1.6-0.2-0.3-.1-0.6-0.1-0.9-0.2a26.14,26.14,0,0,1-2.7-.6,2.35,2.35,0,0,0-.8-0.2,23.35,23.35,0,0,1-2.5-.7,28.26,28.26,0,0,1-3.1-1.1c-0.4-.2-0.7-0.3-1.1-0.5a18.28,18.28,0,0,1-2.8-1.4c-0.5-.3-1-0.5-1.4-0.8s-0.9-.6-1.4-0.9a4.35,4.35,0,0,0-.7-0.4l-0.5-.3c-0.4-.3-0.9-0.6-1.3-0.9l-1.2-.9c-0.4-.3-0.8-0.7-1.2-1l-0.8-.8c-0.8-.7-1.6-1.6-2.4-2.3-0.1-.1-0.2-0.3-0.3-0.4-0.2-.3-0.5-0.5-0.7-0.8s-0.3-.4-0.5-0.6a6,6,0,0,1-.9-1.3c-0.2-.3-0.5-0.6-0.7-0.9l-1.2-1.8-0.6-.9c-0.2-.4-0.4-0.7-0.6-1.1l-0.3-.6a8.27,8.27,0,0,0-.7-1.3,27.18,27.18,0,0,1-1.1-2.5c-0.2-.6-0.4-1.1-0.6-1.7a0.37,0.37,0,0,1-.1-0.3,1.42,1.42,0,0,1-.2-0.6,4.87,4.87,0,0,0-.3-0.7c-0.1-.2-0.1-0.4-0.2-0.6-0.2-.6-0.3-1.2-0.5-1.7-0.1-.2-0.1-0.5-0.2-0.7s-0.2-.7-0.3-1.1c0-.2-0.1-0.4-0.1-0.7a1.48,1.48,0,0,1-.1-0.7l-0.3-1.5a0.48,0.48,0,0,0-.1-0.4c-0.1-.4-0.1-0.9-0.2-1.4a5.7,5.7,0,0,1-.1-1.3c-0.1-1.3-.2-2.7-0.2-4,0-.8.1-1.6,0.1-2.3l0.2-1.7a2.27,2.27,0,0,1,.1-0.4,0.2,0.2,0,0,1,.1-0.2,9.85,9.85,0,0,1,.2-1.7c0.1-.4.1-0.8,0.2-1.2,0-.2.1-0.3,0.1-0.6s0.1-.6.2-0.9,0.2-.7.3-1.1c0.1-.2.1-0.4,0.2-0.6s0.1-.1.1-0.2,0.1-.2.1-0.3l0.2-.5c0.1-.4.2-0.7,0.3-1,0.2-.5.3-0.9,0.5-1.4,0-.1.1-0.1,0.1-0.2a4.87,4.87,0,0,0,.3-0.7c0.2-.7.6-1.4,0.8-2l0.2-.3c0.3-.7.7-1.4,1-2l0.3-.6c0.6-.9,1.1-1.9,1.7-2.8a5.55,5.55,0,0,1,.6-0.8l1.5-2a22,22,0,0,1,2-2.3c0.2-.2.4-0.5,0.6-0.7a1.38,1.38,0,0,1,.3-0.4l0.8-.8a12,12,0,0,0,1.2-1.1c1.1-.9,2.1-1.8,3.2-2.6a17,17,0,0,0,1.4-1c0.4-.3.8-0.5,1.2-0.8s0.7-.4,1.1-0.7c0.1-.1.3-0.1,0.4-0.2l0.8-.5c0.4-.2.9-0.4,1.4-0.7,0.1-.1.3-0.1,0.4-0.2,0.4-.2.7-0.3,1.1-0.5a3.58,3.58,0,0,1,1.1-.4c0.9-.4,1.8-0.7,2.7-1a27.59,27.59,0,0,1,2.7-.8,1.27,1.27,0,0,1,.6-0.1,0.37,0.37,0,0,1,.3-0.1c0.1,0,.2,0,0.2-0.1s0.3-.1.4-0.1,0.1-.1.2-0.1a2.27,2.27,0,0,1,.4-0.1,0.31,0.31,0,0,1,.2-0.1h0.2a0.31,0.31,0,0,1,.2-0.1l0.1-.1h0.2a0.31,0.31,0,0,1,.2-0.1,0.35,0.35,0,0,1,.2-0.1h0.2a0.1,0.1,0,0,0,.1-0.1h0.3a0.31,0.31,0,0,1,.2-0.1H180a0.31,0.31,0,0,1,.2-0.1h0.2a0.2,0.2,0,0,1,.2-0.1h0.3a0.2,0.2,0,0,1,.2-0.1h0.3l0.1-.1h0.4a0.1,0.1,0,0,1,.1-0.1h0.3a0.2,0.2,0,0,1,.2-0.1h0.4a0.2,0.2,0,0,1,.2-0.1h0.4a0.31,0.31,0,0,1,.2-0.1h0.4a0.32,0.32,0,0,1,.3,0,0.14,0.14,0,0,1,.2,0,0.37,0.37,0,0,1,.3-0.1h0.4c-0.2.3,0.1,0.3,0.2,0.3h0Z"/><path class="cls-4" d="M187.13,117.47h0c-0.1.1-.1,0.2-0.2,0.3a0.37,0.37,0,0,0-.1.3c-0.1.1-.1,0.3-0.2,0.4a1.42,1.42,0,0,0-.2.6,0.62,0.62,0,0,0,.3.4,0.53,0.53,0,0,0,.3.2l0.3,0.3a0.53,0.53,0,0,0,.3.2,7.27,7.27,0,0,1,.9.8l0.1,0.1-0.1.1h-0.2a0.48,0.48,0,0,1-.4-0.1,1.27,1.27,0,0,1-.6-0.1,2.77,2.77,0,0,1-.9-0.1h-0.6a2.09,2.09,0,0,0-.4.6,1.47,1.47,0,0,1-.2.4,0.2,0.2,0,0,1-.1.2,0.37,0.37,0,0,0-.1.3,0.2,0.2,0,0,0-.1.2,0.37,0.37,0,0,0-.1.3,0.53,0.53,0,0,1-.2.3,0.1,0.1,0,0,1-.1.1c-0.2.1-.3-0.5-0.3-0.6a4.17,4.17,0,0,1-.2-0.6v-0.2a0.2,0.2,0,0,1-.1-0.2,0.37,0.37,0,0,1-.1-0.3,1.91,1.91,0,0,0-.3-0.8,2,2,0,0,0-.8-0.1,4.87,4.87,0,0,0-1.2-.1,3.1,3.1,0,0,1-.7-0.2c0-.1,0-0.1.1-0.1l0.3-.3a1.47,1.47,0,0,0,.4-0.2,4.13,4.13,0,0,0,1.1-.7,0.68,0.68,0,0,0,.4-0.3c0-.1-0.1-0.5-0.1-0.6a2.57,2.57,0,0,0-.2-0.5,0.1,0.1,0,0,0-.1-0.1,0.37,0.37,0,0,0-.3.1,1.27,1.27,0,0,0-.6.1l-2.5.3a3751105.56,3751105.56,0,0,0-1.2.2,0.76,0.76,0,0,1-.4.1,0.1,0.1,0,0,0-.1.1l0.3,0.3a1.76,1.76,0,0,0,.5.4,4.35,4.35,0,0,0,.7.6c0.2,0.2.4,0.3,0.7,0.6,0,0.1.1,0.1,0.1,0.2s-0.6.1-.7,0.1a1.27,1.27,0,0,1-.6-0.1H178a1.48,1.48,0,0,0-.7-0.1,0.45,0.45,0,0,0-.5,0,0.76,0.76,0,0,0-.2.4,2,2,0,0,1-.4.8c0,0.1-.1.2-0.1,0.3s-0.1.1-.1,0.2a0.37,0.37,0,0,0-.1.3,1.42,1.42,0,0,0-.2.4,0.35,0.35,0,0,1-.1.2l-0.1.1a1.85,1.85,0,0,1-.2-0.7,0.6,0.6,0,0,1-.1-0.4c-0.1-.3-0.1-0.7-0.2-1l-0.2-.7a0.2,0.2,0,0,0-.2-0.1,1.27,1.27,0,0,0-.6-0.1c-0.3,0-.7-0.1-1-0.1s-0.3-.1-0.5-0.1h-0.3a0.37,0.37,0,0,1-.3.1c-0.4.2-.9,0.4-1.3,0.6-1,.4-1.9.8-2.9,1.3-0.4.2-.7,0.4-1.1,0.6-0.1.1-.3,0.2-0.4,0.3-0.4.2-.8,0.4-1.3,0.7-0.1.1-.3,0.2-0.4,0.3-0.4.3-.9,0.6-1.3,0.9a1.42,1.42,0,0,1-.4.2,0.22,0.22,0,0,0-.2.2c-0.1.1,0,.1,0.1,0.2a3.39,3.39,0,0,0,.6.6,1.51,1.51,0,0,1,.4.4l0.2,0.2a0.85,0.85,0,0,1,.3.3c0.1,0,.1.1,0,0.1a0.37,0.37,0,0,1-.3.1c-0.2,0-.4-0.1-0.7-0.1a5.28,5.28,0,0,0-1.3-.1,1.22,1.22,0,0,0-.6,0c-0.1.1-.1,0.2-0.2,0.3a0.1,0.1,0,0,1-.1.1c0,0.1-.1.1-0.1,0.2a1.47,1.47,0,0,1-.2.4,1.42,1.42,0,0,0-.2.6c-0.1.1-.1,0.3-0.2,0.4s-0.1.1-.1,0.2a0.37,0.37,0,0,0-.1.3,0.2,0.2,0,0,0-.1.2,0.1,0.1,0,0,1-.1.1l-0.1-.1c-0.1-.2-0.1-0.4-0.2-0.6s-0.1-.2-0.1-0.3a6.37,6.37,0,0,1-.2-0.7s-0.1-.2-0.1-0.1-0.2.1-.3,0.2l-0.3.3a15.94,15.94,0,0,0-1.3,1.3l-0.8.8-0.3.3-0.2.3a0.35,0.35,0,0,1-.1.2,0.31,0.31,0,0,0-.1.2,5.94,5.94,0,0,1-.4.8,0.76,0.76,0,0,0-.1.4,1.51,1.51,0,0,0,.4.4,12.7,12.7,0,0,0,1.2,1,0.82,0.82,0,0,1,.4.6,1.65,1.65,0,0,1-.7,0,1.49,1.49,0,0,1-.6-0.1,4.48,4.48,0,0,1-1.1-.1,0.83,0.83,0,0,0-.5,0,1.33,1.33,0,0,0-.3.5c-0.1.3-.2,0.5-0.3,0.8l-0.1.1a0.35,0.35,0,0,1-.1.2l-0.2.3a0.31,0.31,0,0,0-.1.2,0.62,0.62,0,0,1-.3.4c-0.1,0-.1-0.1-0.1-0.2l-0.3-1.3c-0.1-.2-0.1-0.4-0.2-0.6,0,0,0-.1-0.1,0a0.53,0.53,0,0,0-.2.3c-0.1.1-.2,0.3-0.3,0.4a9.91,9.91,0,0,1-1.1,1.7c-0.1.1-.1,0.2-0.2,0.3a1.42,1.42,0,0,0-.2.4c-0.2.3-.3,0.6-0.5,0.9l-0.5,1a0.53,0.53,0,0,0-.2.3,0.78,0.78,0,0,0,.4.4l0.6,0.6c0.2,0.2.4,0.3,0.6,0.5l0.2,0.2a0.31,0.31,0,0,1-.2.1,1.7,1.7,0,0,1-.7-0.1,3.4,3.4,0,0,1-1-.1h-0.4c-0.1,0-.2-0.1-0.2,0a2.47,2.47,0,0,0-.4.9c0,0.2-.2.3-0.2,0.5-0.4,1-.7,2-1.1,3a12.44,12.44,0,0,0-.4,1.6,10.62,10.62,0,0,0-.4,1.9c-0.1,0-.1.2-0.1,0.2a1.38,1.38,0,0,0,.4-0.3,7.46,7.46,0,0,0,1.2-.7,0.35,0.35,0,0,0,.2-0.1c0.2-.1.4-0.3,0.6-0.4a0.2,0.2,0,0,0,.1-0.2c0-.2-0.1-0.3-0.1-0.5l-0.3-1.5a1.7,1.7,0,0,1-.1-0.7,0.82,0.82,0,0,1,.6.4,0.31,0.31,0,0,0,.2.1,1.51,1.51,0,0,0,.4.4,0.38,0.38,0,0,1,.2.2,1.76,1.76,0,0,0,.5.4l0.2,0.2a0.76,0.76,0,0,0,.5-0.2c0.1,0,.2-0.1.3-0.1l0.2-.2,0.5-.3a1.42,1.42,0,0,1,.4-0.2,1117965.86,1117965.86,0,0,0,.4-0.2,0.53,0.53,0,0,1,.2.3c0.1,0.1-.1.2-0.1,0.3a6.9,6.9,0,0,1-.4,1,6.89,6.89,0,0,0-.3.8,0.2,0.2,0,0,0-.1.2l0.3,0.3a5.55,5.55,0,0,0,.8.6l0.3,0.3a0.2,0.2,0,0,0,.2.1c0.2,0.2.4,0.3,0.6,0.5a0.2,0.2,0,0,1,.1.2c0,0.2-.6.1-0.7,0.1h-0.4a3.75,3.75,0,0,0-1.1-.1H151c-0.1,0-.2-0.1-0.2,0a0.85,0.85,0,0,0-.3.5c-0.2.4-.3,0.7-0.5,1.1l-0.2.5a0.37,0.37,0,0,0-.1.3,0.53,0.53,0,0,1-.3.2,0.85,0.85,0,0,0-.3-0.3v-0.3a2.27,2.27,0,0,0-.1-0.4l-0.2-.8a6.37,6.37,0,0,1-.2-0.7,0.1,0.1,0,0,0-.1-0.1,0.2,0.2,0,0,1-.2-0.1,2,2,0,0,1-.7-0.1c-0.3,0-.7-0.1-1.1-0.1h-0.4a1.27,1.27,0,0,0-.6-0.1,1.85,1.85,0,0,0-.2.7c-0.1.3-.1,0.7-0.2,1.1s-0.1.8-.2,1.3c0,0.1-.1.9-0.1,1h0.1c0.1-.1.2-0.1,0.3-0.2s0.3-.1.4-0.2l0.3-.2a0.2,0.2,0,0,1,.2.1c0,0.2-.2.3-0.2,0.5a4.87,4.87,0,0,0-.3.7,0.31,0.31,0,0,0-.1.2,0.35,0.35,0,0,1-.1.2,4.87,4.87,0,0,1-.3.7c-0.1.1-.1,0.2,0,0.2l0.2,0.2a3.92,3.92,0,0,0,1,.8,0.78,0.78,0,0,1,.4.4,0.53,0.53,0,0,0,.3.2,0.38,0.38,0,0,1,.2.2V158a0.22,0.22,0,0,1-.2.2c-0.3,0-.5-0.1-0.7-0.1a3.4,3.4,0,0,0-1-.1,0.76,0.76,0,0,0-.4-0.1c-0.1,0-.2-0.1-0.2.1a0.37,0.37,0,0,0-.1.3v0.5a0.37,0.37,0,0,1,.1.3v1a1.27,1.27,0,0,1,.1.6,0.9,0.9,0,0,0,.1.5c0,0.3.1,0.6,0.1,0.9a0.37,0.37,0,0,0,.1.3,1.7,1.7,0,0,0,.6.6,0.1,0.1,0,0,0,.1.1,0.31,0.31,0,0,1,.2-0.1c0.2-.1.4-0.3,0.6-0.4a0.76,0.76,0,0,1,.4-0.2,0.52,0.52,0,0,1,.4-0.2,0.38,0.38,0,0,0,.2-0.2c0.1-.1.5-0.4,0.6-0.2,0.1,0,.1.1,0,0.2a1.42,1.42,0,0,0-.2.6,1.06,1.06,0,0,0-.2.5c-0.1.1-.1,0.2-0.2,0.3l-0.2.5a1.06,1.06,0,0,0-.2.5,0.85,0.85,0,0,0,.3.3,3.17,3.17,0,0,0,.6.5,4.35,4.35,0,0,0,.7.6,0.1,0.1,0,0,1,.1.1,0.2,0.2,0,0,1,.1.2,0.38,0.38,0,0,1,.2.2v0.1a1.08,1.08,0,0,1-.6.1,5.28,5.28,0,0,0-1.3-.1,1.27,1.27,0,0,1-.6-0.1h-0.2a0.71,0.71,0,0,0-.3.6,0.31,0.31,0,0,0-.1.2,1.47,1.47,0,0,1-.2.4,0.45,0.45,0,0,0,0,.5c0.1,0.2.1,0.4,0.2,0.6s0.1,0.4.2,0.6,0.2,0.7.3,1.1a2.57,2.57,0,0,0,.2.5L147,171l0.5,0.5a1.33,1.33,0,0,0,.5.3,0.37,0.37,0,0,1,.3-0.1c0.1-.1.3-0.2,0.4-0.3s0.2-.1.3-0.2a4.05,4.05,0,0,1,.9-0.5l0.3-.2a0.2,0.2,0,0,1,.2-0.1c0.1-.1.1,0,0.2,0a1.14,1.14,0,0,1-.3.8,0.35,0.35,0,0,1-.1.2l-0.2.3c0,0.1-.1.1-0.1,0.2l-0.2.3c0,0.1-.1.1-0.1,0.2a1,1,0,0,0-.2.7,0.22,0.22,0,0,0,.2.2,0.38,0.38,0,0,0,.2.2c0.1,0.1.3,0.2,0.4,0.3a0.38,0.38,0,0,1,.2.2c0.2,0.2.4,0.3,0.6,0.5a0.53,0.53,0,0,1,.2.3,0.2,0.2,0,0,1,.1.2,0.61,0.61,0,0,1-.6.1h-0.1a0.9,0.9,0,0,0-.5-0.1,4.1,4.1,0,0,0-1.1-.1h-0.6a0.38,0.38,0,0,0-.2.2c0,0.1-.1.1,0,0.2s0.1,0.2.1,0.3a1.07,1.07,0,0,1,.2.6,11.73,11.73,0,0,1,.5,1.1c0.1,0.1.1,0.2,0.2,0.3a3.11,3.11,0,0,0,.4.6l0.3-.3a0.53,0.53,0,0,0,.2-0.3l0.2-.2c0.3-.3.5-0.7,0.8-1a1.76,1.76,0,0,0,.4-0.5,0.2,0.2,0,0,0,.1-0.2c0.1-.1.2-0.3,0.3-0.4l0.2-.2,0.1-.1,0.3-.3,0.4-.4,1.2-1.5,0.3-.3a4.35,4.35,0,0,0,.6-0.7l0.3-.3a0.1,0.1,0,0,1,.1-0.1l0.3-.3c0-.1,0-0.1.1-0.1a0.1,0.1,0,0,1,.1-0.1l0.1-.1,0.1-.1a1.38,1.38,0,0,0,.3-0.4,0.1,0.1,0,0,1,.1-0.1c0.8-.8,1.5-1.7,2.2-2.5a3.11,3.11,0,0,0,.4-0.6,0.38,0.38,0,0,1,.2-0.2,8.75,8.75,0,0,0,.8-1c0.2-.2.4-0.5,0.6-0.7a1.76,1.76,0,0,0,.4-0.5,1.51,1.51,0,0,0,.4-0.4,1.38,1.38,0,0,1,.3-0.4c0.4-.4.8-1,1.2-1.4,0.2-.2.3-0.4,0.5-0.6l0.2-.2c0.1-.1.2-0.3,0.3-0.4l0.2-.2a2.09,2.09,0,0,0,.4-0.6l0.2-.2,0.1-.1a0.38,0.38,0,0,0,.2-0.2,1.51,1.51,0,0,1,.4-0.4c0.2-.3.5-0.6,0.8-1l0.1-.1a10.62,10.62,0,0,0,.9-1.1,0.1,0.1,0,0,0,.1-0.1,0.53,0.53,0,0,0,.2-0.3,1.38,1.38,0,0,0,.3-0.4,0.1,0.1,0,0,1,.1-0.1,5,5,0,0,1,.7-0.8,1.38,1.38,0,0,1,.3-0.4l1.3-1.6a0.2,0.2,0,0,0,.1-0.2,1.76,1.76,0,0,0,.4-0.5l0.3-.3c0.2-.2.3-0.4,0.5-0.6s0.5-.6.7-0.9a1.51,1.51,0,0,1,.4-0.4,0.2,0.2,0,0,0,.1-0.2,0.1,0.1,0,0,0,.1-0.1,0.1,0.1,0,0,1,.1-0.1l0.2-.2c0-.1.1-0.1,0.1-0.2a0.78,0.78,0,0,1,.4-0.4,0.37,0.37,0,0,0,.1-0.3,0.38,0.38,0,0,0,.2-0.2,1.76,1.76,0,0,0,.4-0.5l0.2-.2a0.2,0.2,0,0,0,.1-0.2,0.2,0.2,0,0,1,.2-0.1,2.65,2.65,0,0,1,.5-0.6c0.2-.3.4-0.5,0.6-0.8l0.3-.3a0.1,0.1,0,0,1,.1-0.1,0.38,0.38,0,0,1,.2-0.2,0.2,0.2,0,0,0,.1-0.2l0.2-.2c0.1-.1.1-0.2,0.2-0.3a0.2,0.2,0,0,0,.1-0.2c0.2-.2.3-0.4,0.5-0.6l0.2-.2a1.76,1.76,0,0,1,.4-0.5c0.7-.8,1.4-1.7,2.1-2.5a0.1,0.1,0,0,0,.1-0.1l0.2-.2,0.1-.1a0.2,0.2,0,0,1,.2-0.1c0.1,0,.1-0.2.2-0.2a0.38,0.38,0,0,1,.2-0.2l0.2-.2a0.53,0.53,0,0,0,.2-0.3l0.1-.1c0.3-.3.6-0.7,0.9-1l0.1-.1a0.38,0.38,0,0,1,.2-0.2c0.2-.2.3-0.4,0.5-0.6l0.2-.2,0.1-.1,0.3-.3a1.76,1.76,0,0,0,.4-0.5,2.34,2.34,0,0,1,.7-0.7,2.7,2.7,0,0,1,.7-0.8,0.2,0.2,0,0,0,.1-0.2l0.3-.3a1.51,1.51,0,0,1,.4-0.4c0.3-.4.6-0.7,0.9-1.1l0.4-.4,0.1-.1a0.1,0.1,0,0,0,.1-0.1,0.2,0.2,0,0,0,.1-0.2,14.62,14.62,0,0,0,1.6-1.9,0.53,0.53,0,0,0,.2-0.3c0.1-.1.1-0.2,0.2-0.3a0.53,0.53,0,0,0,.2-0.3,0.2,0.2,0,0,1,.2-0.1,0.53,0.53,0,0,0,.2-0.3,0.1,0.1,0,0,0,.1-0.1l0.2-.2c0.2-.3.4-0.4,0.6-0.7a0.1,0.1,0,0,1,.1-0.1,282844.78,282844.78,0,0,1,.2-0.2l0.1-.1a0.38,0.38,0,0,1,.2-0.2,1.76,1.76,0,0,0,.4-0.5,0.2,0.2,0,0,1,.2-0.1,1.38,1.38,0,0,1,.3-0.4,0.2,0.2,0,0,1,.2-0.1,0.31,0.31,0,0,0,.1-0.2,1.51,1.51,0,0,1,.4-0.4,1.38,1.38,0,0,1,.3-0.4l0.2-.2,0.3-.3c0.1-.1.2-0.3,0.3-0.4a1.51,1.51,0,0,0,.4-0.4,5.24,5.24,0,0,1,1-1.1,19,19,0,0,1,1.9-2.1c0.1-.1.1-0.2,0.2-0.3l0.3-.3a0.2,0.2,0,0,0,.1-0.2,4.35,4.35,0,0,0,.6-0.7,0.85,0.85,0,0,0,.3-0.3,0.31,0.31,0,0,0-.2-0.1c-0.2,0-.3-0.1-0.5-0.1a0.37,0.37,0,0,0-.3-0.1,8.33,8.33,0,0,0-1.5-.4l-0.8-.2a0.31,0.31,0,0,0-.2-0.1c-0.2,0-.3-0.1-0.5-0.1a0.32,0.32,0,0,0-.3,0c-0.1,0-.1,0-0.1.1s-0.1.3-.2,0.4a0.52,0.52,0,0,0-.2.4c-0.1.1-.1,0.2,0,0.2a0.22,0.22,0,0,0,.2.2l0.3,0.3c0.2,0.2.4,0.3,0.6,0.5l0.4,0.4a4975745737810.67,4975745737810.67,0,0,1,.4.4,0.1,0.1,0,0,1,.1.1,2,2,0,0,1-.8.1,3.4,3.4,0,0,0-1-.1h0.1a1.27,1.27,0,0,0-.6-0.1,0.37,0.37,0,0,0-.3.1,1.14,1.14,0,0,0-.3.6c0,0.1-.1.1-0.1,0.2s-0.1.3-.2,0.5-0.1.1-.1,0.2a0.37,0.37,0,0,0-.1.3,0.31,0.31,0,0,0-.1.2c0,0.1-.1.1-0.1,0.2a1.38,1.38,0,0,1-.3.4c-0.2,0-.2-0.5-0.2-0.6a3.09,3.09,0,0,1-.2-0.8,0.37,0.37,0,0,1-.1-0.3l-0.2-.7a0.37,0.37,0,0,1-.1-0.3,1.08,1.08,0,0,0-.6-0.1c-0.3,0-.6-0.1-0.9-0.1a4.87,4.87,0,0,0-1.2-.1l-0.1-.1a0.7,0.7,0,0,1,.5-0.4,6.73,6.73,0,0,0,1.1-.7,2.19,2.19,0,0,0,.5-0.3,0.2,0.2,0,0,0,.1-0.2,1.27,1.27,0,0,0-.1-0.6,6.38,6.38,0,0,0-.2-0.7c0-.1-0.1-0.2-0.1-0.3h-0.2a1.27,1.27,0,0,0-.6-0.1h-0.4c-1.1.1-2.1,0-3.2,0h0Z"/><path class="cls-2" d="M166.73,123.27a0.2,0.2,0,0,0-.1.2c0.1,0.2.1,0.4,0.2,0.6l0.3,1.2a1.45,1.45,0,0,1,.2.7c-0.1.1-.3,0.2-0.4,0.3a9.13,9.13,0,0,1-1.3.8,0.53,0.53,0,0,1-.3.2,0.2,0.2,0,0,1-.2.1c-0.1,0-.1.1,0,0.1a0.6,0.6,0,0,0,.4.1c0.1,0,.2.1,0.3,0.1a2,2,0,0,1,.7.1,0.37,0.37,0,0,1,.3.1h0.6a2.27,2.27,0,0,1,.4.1c0.1,0.1.1,0.3,0.2,0.4l0.2,0.7c0.1,0.3.1,0.6,0.2,0.8s0.1,0.6.3,0.5a0.1,0.1,0,0,0,.1-0.1,1.06,1.06,0,0,0,.2-0.5l0.3-.9a4.88,4.88,0,0,0,.3-0.7c0-.1.1-0.1,0.1-0.2a4,4,0,0,1,1.1,0h0.4a1.48,1.48,0,0,0,.7.1,0.82,0.82,0,0,0,.7,0v-0.2l-0.2-.2-0.2-.2a10.59,10.59,0,0,1-1.2-1,0.76,0.76,0,0,1-.4-0.4,6.37,6.37,0,0,0,.2-0.7,3.58,3.58,0,0,0,.4-1.1,0.2,0.2,0,0,0,.1-0.2c0-.1.2-0.3,0.2-0.4s0.1-.1,0-0.2-0.5.1-.6,0.2a12.13,12.13,0,0,0-1.4,1l-0.3.2-0.1.1a0.31,0.31,0,0,1-.2-0.1,0.2,0.2,0,0,0-.2-0.1l-0.3-.3a937449.9,937449.9,0,0,1-.6-0.4,1.76,1.76,0,0,0-.5-0.4,1.06,1.06,0,0,0-.6-0.4h0Zm9.1,0.8c-0.2,0-.1.5,0,0.6,0.1,0.4.2,1,.3,1.4a0.6,0.6,0,0,1,.1.4,0.37,0.37,0,0,1,.1.3,1.51,1.51,0,0,1-.4.4c-0.2.2-1.7,1-1.8,1.2s0.5,0.2.7,0.2,0.6,0.1.8,0.1a1.7,1.7,0,0,0,.7.1c0.2,0,.3-0.1.4,0.1a1.47,1.47,0,0,0,.2.4,0.37,0.37,0,0,0,.1.3l0.2,0.8,0.1,0.2a1.27,1.27,0,0,1,.1.6,0.38,0.38,0,0,0,.2.2,0.6,0.6,0,0,0,.3-0.6c0.1-.4.3-0.8,0.4-1.2l0.2-.3a0.34,0.34,0,0,1,.2-0.3,2.15,2.15,0,0,1,.8,0h0.2c0.1,0,.2.1,0.3,0.1h0.4a1.27,1.27,0,0,0,.6.1c0.1,0,.2.1,0.3,0.1a0.35,0.35,0,0,0,.2-0.1,1.76,1.76,0,0,0-.4-0.5c-0.2-.2-0.4-0.3-0.6-0.5l-0.2-.2a0.53,0.53,0,0,0-.3-0.2,2.36,2.36,0,0,1-.5-0.5,4.17,4.17,0,0,0,.2-0.6,0.31,0.31,0,0,0,.1-0.2,0.37,0.37,0,0,0,.1-0.3,3353899.11,3353899.11,0,0,0,.3-0.6c0-.1.1-0.1,0.1-0.2s0.1-.2.1-0.3,0.1-.2.1-0.3,0.1-.1,0-0.2-0.5.1-.6,0.2l-0.6.3a5.55,5.55,0,0,0-.8.6,0.31,0.31,0,0,1-.2.1,0.35,0.35,0,0,1-.2.1,0.62,0.62,0,0,1-.4-0.3c-0.2-.2-0.4-0.3-0.6-0.5s-0.3-.2-0.4-0.3a1.51,1.51,0,0,1-.4-0.4,1.46,1.46,0,0,0-.5-0.3h0Zm9.1,0.5a0.2,0.2,0,0,0-.1.2c0,0.2.1,0.4,0.1,0.6s0.1,0.3.1,0.5a0.37,0.37,0,0,1,.1.3,1.27,1.27,0,0,1,.1.6,0.88,0.88,0,0,1,.1.7,3.11,3.11,0,0,1-.6.4,6.38,6.38,0,0,1-1.4.8c-0.1.1-.6,0.3-0.4,0.4a0.6,0.6,0,0,0,.4.1,0.6,0.6,0,0,0,.4.1,0.2,0.2,0,0,1,.2.1h0.3a1.27,1.27,0,0,1,.6.1,1752289.8,1752289.8,0,0,1,.8.2c0.1,0.1.1,0.3,0.2,0.4,0.1,0.4.2,0.9,0.3,1.3,0,0.1.1,0.3,0.1,0.4a0.4,0.4,0,1,0,.6.1l0.2-.3a1.42,1.42,0,0,0,.2-0.6c0-.1.1-0.1,0.1-0.2a0.2,0.2,0,0,1,.1-0.2,0.37,0.37,0,0,0,.1-0.3l0.2-.3c0-.1.1-0.1,0.1-0.2l0.1-.1h0.2c0.3,0,.6.1,1,0.1h0.4c0.2,0,.4.1,0.7,0.1a0.88,0.88,0,0,0,.7-0.1,6.12,6.12,0,0,0-.4-0.6,5.55,5.55,0,0,1-.8-0.6,0.53,0.53,0,0,0-.3-0.2,0.2,0.2,0,0,1-.1-0.2,1.38,1.38,0,0,1-.4-0.3l-0.2-.2a0.76,0.76,0,0,1,.2-0.5l0.3-.6c0.1-.2.2-0.5,0.3-0.7a0.31,0.31,0,0,0,.1-0.2c0-.1.1-0.1,0.1-0.2a0.31,0.31,0,0,0,.1-0.2c-0.1-.2-0.5.1-0.6,0.2a5.9,5.9,0,0,1-.8.4,2.51,2.51,0,0,1-.7.4,0.31,0.31,0,0,1-.2.1,2.1,2.1,0,0,1-.8-0.6l-0.3-.3c-0.2-.2-0.5-0.4-0.7-0.6a1,1,0,0,1-.8-0.3h0Zm-24.3,6a0.2,0.2,0,0,0-.1.2,3.55,3.55,0,0,1,.2,1,5,5,0,0,1,.2,1.2,0.6,0.6,0,0,1,.1.4,0.53,0.53,0,0,1-.3.2c-0.1.1-.3,0.2-0.4,0.3s-0.5.3-.7,0.4a1.42,1.42,0,0,1-.4.2c-0.1.1-.6,0.3-0.5,0.5s1.2,0.1,1.4.2a3.08,3.08,0,0,0,1,.1,1.49,1.49,0,0,1,.6.1,4.17,4.17,0,0,1,.2.6c0.1,0.6.2,1.1,0.3,1.6a0.91,0.91,0,0,0,.3.7,0.52,0.52,0,0,0,.2-0.4,0.31,0.31,0,0,0,.1-0.2,6.89,6.89,0,0,1,.3-0.8,3162229.57,3162229.57,0,0,1,.2-0.6,0.38,0.38,0,0,1,.2-0.2,0.85,0.85,0,0,1,.3-0.5,0.55,0.55,0,0,1,.4,0c0.3,0,.6.1,1,0.1h0.4c0.1,0,.3.1,0.4,0.1a1.2,1.2,0,0,0,.6,0,0.1,0.1,0,0,0,.1-0.1,1.52,1.52,0,0,0-.4-0.6c-0.4-.4-0.9-0.7-1.3-1.1l-0.4-.4a4.17,4.17,0,0,1,.2-0.6c0-.1.1-0.2,0.1-0.3a1.42,1.42,0,0,1,.2-0.4,0.2,0.2,0,0,0,.1-0.2l0.2-.2c0-.1.1-0.2,0.1-0.3l0.2-.3c0-.1.1-0.2,0.1-0.3s-0.6.2-.7,0.2c-0.3.2-.6,0.3-1,0.6a4.35,4.35,0,0,1-.7.4,0.53,0.53,0,0,1-.3.2,2.18,2.18,0,0,1-.5-0.4,5.5,5.5,0,0,0-.9-0.7l-0.3-.3c-0.2-.1-0.2-0.2-0.4-0.3a1,1,0,0,0-.4-0.1h0Zm8.8,1.2a0.2,0.2,0,0,0-.1.2c0,0.1.1,0.2,0.1,0.3a0.37,0.37,0,0,1,.1.3l0.3,1.2a1.85,1.85,0,0,1,.2.7l-0.2.2c-0.1.1-.3,0.2-0.4,0.3a0.76,0.76,0,0,1-.4.2,4.35,4.35,0,0,1-.7.4,0.38,0.38,0,0,0-.2.2,0.35,0.35,0,0,0-.2.1c0,0.1-.1.1,0,0.1a0.1,0.1,0,0,0,.1.1,2,2,0,0,0,.8.1c0.1,0,.3.1,0.4,0.1s0.5,0.1.7,0.1a1.48,1.48,0,0,1,.7.1,4.17,4.17,0,0,1,.2.6c0,0.1.1,0.3,0.1,0.4s0.1,0.4.2,0.6a2.27,2.27,0,0,1,.1.4,0.71,0.71,0,0,0,.3.6,0.1,0.1,0,0,0,.1-0.1c0-.1.1-0.1,0.1-0.2a3162227.95,3162227.95,0,0,1,.2-0.6c0.1-.3.2-0.5,0.3-0.8a2.47,2.47,0,0,1,.4-0.9,0.93,0.93,0,0,1,.7.1,2,2,0,0,1,.8.1h0.3c0.3,0,.6.1,0.8,0.1s0.1-.1.2-0.1c0.1-.2-0.3-0.4-0.4-0.5-0.4-.4-0.9-0.7-1.3-1.1a0.85,0.85,0,0,1-.3-0.3,0.9,0.9,0,0,1,.1-0.5c0.1-.2.2-0.5,0.3-0.7s0.1-.1.1-0.2l0.2-.3a4.87,4.87,0,0,0,.3-0.7,0.2,0.2,0,0,0,.1-0.2c-0.1-.3-0.6.1-0.7,0.2-0.3.2-.7,0.4-1.1,0.7a1.38,1.38,0,0,0-.4.3,1117966.49,1117966.49,0,0,1-.4.2,0.85,0.85,0,0,1-.5-0.3c-0.2-.1-0.3-0.3-0.5-0.4l-0.3-.3a0.53,0.53,0,0,0-.3-0.2,0.62,0.62,0,0,0-.4-0.3,1.32,1.32,0,0,0-.5-0.3h0Zm8.4,0.9a0.2,0.2,0,0,0-.1.2,1.45,1.45,0,0,0,.2.7c0.1,0.4.2,0.7,0.3,1.1a0.93,0.93,0,0,1,.1.7,1.27,1.27,0,0,1-.6.4l-0.5.3a2.09,2.09,0,0,0-.6.4l-0.3.2-0.2.2c-0.1,0-.1.1,0,0.1l0.1,0.1a0.37,0.37,0,0,1,.3.1h0.3a4.87,4.87,0,0,0,1.2.1,0.48,0.48,0,0,0,.4.1,0.6,0.6,0,0,1,.4.1,6.37,6.37,0,0,1,.2.7c0.1,0.2.1,0.5,0.2,0.8,0,0.1.1,0.3,0.1,0.4a0.85,0.85,0,0,0,.3.6,0.1,0.1,0,0,0,.1-0.1,1.06,1.06,0,0,0,.2-0.5,1.42,1.42,0,0,0,.2-0.6,0.37,0.37,0,0,0,.1-0.3,4.87,4.87,0,0,0,.3-0.7,0.38,0.38,0,0,1,.2-0.2,0.75,0.75,0,0,1,.5-0.1,0.48,0.48,0,0,1,.4.1c0.2,0,.4.1,0.7,0.1h0.5a0.6,0.6,0,0,0,.4.1h0.2l0.1-.1c0.1-.2-0.2-0.3-0.3-0.4l-0.2-.2-1.2-1a1.51,1.51,0,0,1-.4-0.4,2.27,2.27,0,0,1,.1-0.4,0.76,0.76,0,0,1,.2-0.4,4.87,4.87,0,0,1,.3-0.7,1.42,1.42,0,0,0,.2-0.6,1.47,1.47,0,0,0,.2-0.4v-0.1c-0.1-.2-0.5.1-0.6,0.2s-0.2.1-.3,0.2a4.23,4.23,0,0,1-.7.5c-0.1.1-.2,0.1-0.3,0.2s-0.2.1-.3,0.2a0.37,0.37,0,0,1-.3.1h-0.2a0.38,0.38,0,0,1-.2-0.2l-0.2-.2c-0.4-.3-0.7-0.6-1.1-0.9a0.4,0.4,0,0,0-.4-0.5h0Zm-23.3,5.6a0.2,0.2,0,0,0-.1.2c0.1,0.2.1,0.4,0.2,0.6a5,5,0,0,1,.2,1.2,0.31,0.31,0,0,1,.1.2,0.88,0.88,0,0,1,.1.7,0.53,0.53,0,0,1-.3.2c-0.3.2-.7,0.4-1,0.6a2.09,2.09,0,0,1-.6.4,0.53,0.53,0,0,1-.3.2,0.31,0.31,0,0,1-.2.1v0.2l0.1,0.1H153a0.9,0.9,0,0,0,.5.1,3.4,3.4,0,0,0,1,.1,1.27,1.27,0,0,1,.6.1c0.2,0,.4-0.1.5,0.1a1.47,1.47,0,0,0,.2.4l0.2,0.8a0.6,0.6,0,0,1,.1.4,0.2,0.2,0,0,0,.1.2,0.37,0.37,0,0,0,.1.3,0.78,0.78,0,0,0,.3.7,1.49,1.49,0,0,0,.3-0.7l0.2-.3c0-.1.1-0.1,0.1-0.2a0.31,0.31,0,0,0,.1-0.2,0.37,0.37,0,0,0,.1-0.3,0.31,0.31,0,0,0,.1-0.2,0.2,0.2,0,0,0,.1-0.2c0.1-.1.1-0.2,0.2-0.3s0.1-.2.1-0.3a0.37,0.37,0,0,1,.3-0.1,0.35,0.35,0,0,1,.2.1h0.3c0.3,0.1.5,0,.8,0.1a1.48,1.48,0,0,0,.7.1,0.88,0.88,0,0,0,.7-0.1,0.62,0.62,0,0,0-.3-0.4c-0.1,0-.1-0.1-0.2-0.1-0.4-.4-1-0.8-1.4-1.2a0.85,0.85,0,0,1-.3-0.3,0.73,0.73,0,0,1,.2-0.6c0-.1.1-0.1,0.1-0.2a1117966.51,1117966.51,0,0,0,.2-0.4,0.37,0.37,0,0,0,.1-0.3l0.2-.3a0.6,0.6,0,0,0,.1-0.4c0.1-.1.1-0.2,0.2-0.3v-0.2c-0.1-.2-0.6.2-0.7,0.2-0.3.2-.5,0.3-0.8,0.5a4.35,4.35,0,0,0-.7.4,0.52,0.52,0,0,1-.4.2,1.38,1.38,0,0,1-.4-0.3,1.38,1.38,0,0,0-.4-0.3,1.76,1.76,0,0,1-.5-0.4l-0.4-.4a3.61,3.61,0,0,0-1-.5h0Zm8.5,1a0.2,0.2,0,0,0-.1.2,2.27,2.27,0,0,0,.1.4,0.76,0.76,0,0,1,.1.4,0.37,0.37,0,0,1,.1.3c0.1,0.2.1,0.4,0.2,0.6a0.2,0.2,0,0,1,.1.2,0.37,0.37,0,0,1,.1.3c0,0.1.1,0.3,0.1,0.4a0.62,0.62,0,0,1-.4.3l-0.8.5-0.5.3a0.38,0.38,0,0,0-.2.2c-0.1,0-.2.1-0.3,0.1v0.2a0.31,0.31,0,0,0,.2.1,2.77,2.77,0,0,0,.9.1,0.9,0.9,0,0,1,.5.1h0.3a0.2,0.2,0,0,1,.2.1,1.48,1.48,0,0,1,.7.1,0.48,0.48,0,0,1,.2.5,3.55,3.55,0,0,1,.2,1,1.47,1.47,0,0,0,.2.4,1.14,1.14,0,0,0,.3.6l0.1-.1a0.37,0.37,0,0,0,.1-0.3l0.6-1.5c0.1-.1.1-0.3,0.2-0.4a0.85,0.85,0,0,1,.7,0h0.4c0.2,0,.4.1,0.6,0.1h0.5a0.85,0.85,0,0,0,.7,0,1.06,1.06,0,0,0-.4-0.6c-0.4-.3-0.8-0.7-1.2-1l-0.4-.4a1.49,1.49,0,0,1,.3-0.7,4.18,4.18,0,0,0,.4-1c0-.1.1-0.1,0.1-0.2a0.76,0.76,0,0,1,.2-0.4V140c-0.1-.2-0.5.2-0.6,0.2s-0.2.2-.3,0.2c-0.3.2-.7,0.4-1.1,0.7-0.1.1-.3,0.1-0.4,0.2a1.47,1.47,0,0,1-.4-0.2,5.72,5.72,0,0,1-.8-0.7,1.38,1.38,0,0,0-.4-0.3,3.26,3.26,0,0,0-1.1-.8h0Zm8.6,0.8a0.1,0.1,0,0,0-.1.1,2.2,2.2,0,0,0,.1.8,5.27,5.27,0,0,1,.3,1.2,1.85,1.85,0,0,1,.2.7,1.76,1.76,0,0,1-.5.4,0.76,0.76,0,0,1-.4.2l-0.8.5-0.3.2-0.2.2c-0.1,0-.1.1,0,0.1l0.1,0.1a1.7,1.7,0,0,0,.7.1H171a0.37,0.37,0,0,0,.3.1,0.48,0.48,0,0,1,.4.1,2,2,0,0,1,.8.1,0.37,0.37,0,0,1,.1.3,2.27,2.27,0,0,0,.1.4l0.3,1.2a1.14,1.14,0,0,0,.3.6l0.1-.1c0.1-.2.2-0.5,0.3-0.7l0.3-.8a1.47,1.47,0,0,1,.2-0.4c0.1-.1.1-0.2,0.2-0.3a0.2,0.2,0,0,1,.2-0.1,0.55,0.55,0,0,1,.4,0,2.49,2.49,0,0,0,.8.1,0.37,0.37,0,0,0,.3.1h0.4c0.1,0,.7.1,0.7-0.1a0.85,0.85,0,0,0-.3-0.3l-0.2-.2-0.2-.2a4.35,4.35,0,0,0-.7-0.6l-0.2-.2a0.54,0.54,0,0,1-.4-0.4,0.75,0.75,0,0,1,.1-0.5l0.5-1.2a4.87,4.87,0,0,0,.3-0.7v-0.2c-0.1-.2-0.6.2-0.7,0.2a5.55,5.55,0,0,0-.8.6l-0.3.2a0.53,0.53,0,0,1-.3.2,0.37,0.37,0,0,1-.3.1,0.85,0.85,0,0,1-.5-0.3l-0.5-.4a0.53,0.53,0,0,0-.3-0.2l-0.3-.3a0.38,0.38,0,0,1-.2-0.2c0-.4-0.1-0.5-0.3-0.5h0Zm-14.9,6.9a0.2,0.2,0,0,0-.1.2c0,0.1.1,0.2,0.1,0.3a0.37,0.37,0,0,1,.1.3c0.1,0.2.1,0.4,0.2,0.6a0.9,0.9,0,0,1,.1.5,2.27,2.27,0,0,0,.1.4,0.37,0.37,0,0,1,.1.3,0.85,0.85,0,0,1-.3.3,0.2,0.2,0,0,1-.2.1c-0.2.1-.3,0.2-0.5,0.3l-0.5.3a0.37,0.37,0,0,1-.3.1c-0.1.1-.6,0.3-0.4,0.5a3.08,3.08,0,0,0,1,.1,0.37,0.37,0,0,0,.3.1h0.2c0.2,0,.5.1,0.8,0.1a0.33,0.33,0,0,1,.4.1,0.6,0.6,0,0,1,.1.4c0.2,0.5.2,1.1,0.4,1.5a0.85,0.85,0,0,0,.3.6,0.1,0.1,0,0,0,.1-0.1c0.1-.2.2-0.5,0.3-0.7s0.3-.7.4-1a3.29,3.29,0,0,1,.3-0.6,1.58,1.58,0,0,1,.7,0,0.6,0.6,0,0,1,.4.1,4.1,4.1,0,0,1,1.1.1,0.82,0.82,0,0,0,.7-0.1,1.06,1.06,0,0,0-.4-0.6c-0.2-.1-0.3-0.3-0.5-0.4l-0.3-.3a3.39,3.39,0,0,1-.6-0.6,0.38,0.38,0,0,1-.2-0.2,0.73,0.73,0,0,1,.2-0.6,0.49,0.49,0,0,0,.1-0.3,4.18,4.18,0,0,0,.4-1,3.33,3.33,0,0,0,.3-0.6c0-.1,0-0.1-0.1-0.1-0.1-.2-0.4.1-0.6,0.2l-0.6.3c-0.3.2-.6,0.4-1,0.7-0.1,0-.1.1-0.2,0.1a0.1,0.1,0,0,0-.1.1,1.61,1.61,0,0,1-.7-0.4l-0.3-.3a0.2,0.2,0,0,0-.2-0.1,0.1,0.1,0,0,1-.1-0.1c-0.2-.2-0.4-0.3-0.6-0.5a0.53,0.53,0,0,0-.3-0.2l-0.1.1h0Zm8.6,0.6a0.2,0.2,0,0,0-.1.2,0.37,0.37,0,0,0,.1.3c0,0.1.1,0.3,0.1,0.4l0.3,1.2a0.37,0.37,0,0,1,.1.3c0,0.1.1,0.2,0.1,0.3a0.85,0.85,0,0,1-.3.3,5.55,5.55,0,0,0-.8.6,0.35,0.35,0,0,0-.2.1,1.38,1.38,0,0,1-.4.3,3.11,3.11,0,0,0-.6.4,0.6,0.6,0,0,0,.4.1,0.35,0.35,0,0,1,.2.1c0.5,0.1,1.1.1,1.6,0.2a0.75,0.75,0,0,1,.5.1c0.1,0.1.1,0.4,0.2,0.5a6.58,6.58,0,0,0,.4,1.5,2.27,2.27,0,0,0,.1.4,0.1,0.1,0,0,0,.1.1c0.2,0.1.3-.4,0.4-0.5,0.1-.3.2-0.5,0.3-0.8s0.1-.4.2-0.6a0.85,0.85,0,0,1,.3-0.5,0.3,0.3,0,0,1,.4,0c0.4,0,.8.1,1.3,0.1a2.49,2.49,0,0,0,.8.1c0.1,0,.2,0,0.2-0.1,0.2-.2-0.3-0.5-0.4-0.6l-0.3-.3a5,5,0,0,1-.8-0.7,1.51,1.51,0,0,1-.4-0.4,0.76,0.76,0,0,1,.2-0.4,7.6,7.6,0,0,1,.4-1.1,1.49,1.49,0,0,0,.3-0.7,0.31,0.31,0,0,0,.1-0.2,0.1,0.1,0,0,0-.1-0.1l-0.2.1c-0.1.1-.2,0.1-0.3,0.2-0.3.2-.6,0.3-1,0.6a0.31,0.31,0,0,1-.2.1,3.63,3.63,0,0,1-.7.3,0.34,0.34,0,0,1-.3-0.2l-0.2-.2a8.75,8.75,0,0,0-1-.8,4.37,4.37,0,0,0-.8-0.7h0Zm-14.8,6.9a0.2,0.2,0,0,0-.1.2,0.37,0.37,0,0,0,.1.3l0.2,0.7c0.1,0.2.1,0.4,0.2,0.6l0.2,0.5a0.48,0.48,0,0,1,.1.4,1.51,1.51,0,0,1-.4.4,1.38,1.38,0,0,0-.4.3l-0.6.3-0.2.2a1.27,1.27,0,0,0-.6.4,0.1,0.1,0,0,0,.1.1h0.3a0.31,0.31,0,0,0,.2.1,0.9,0.9,0,0,0,.5.1,3.75,3.75,0,0,0,1.1.1,1.27,1.27,0,0,1,.6.1,0.48,0.48,0,0,1,.1.4,3162227.54,3162227.54,0,0,1,.2.6c0.1,0.2.1,0.5,0.2,0.7s0.1,0.4.2,0.6,0.1,0.1.1,0.2c0.2,0.1.3-.4,0.3-0.6a6.89,6.89,0,0,1,.3-0.8,4.87,4.87,0,0,1,.3-0.7,0.76,0.76,0,0,1,.2-0.4H154a1.27,1.27,0,0,1,.6.1,2.77,2.77,0,0,1,.9.1c0.3,0,.6.1,0.9,0.1a0.2,0.2,0,0,0,.2-0.1,1.06,1.06,0,0,0-.4-0.6l-0.7-.5a3.17,3.17,0,0,0-.6-0.5l-0.4-.4c0-.2.2-0.4,0.2-0.6s0.3-.7.4-1.1a0.37,0.37,0,0,0,.1-0.3,0.1,0.1,0,0,0,.1-0.1,0.9,0.9,0,0,0,.1-0.5c-0.1-.2-0.6.2-0.6,0.2a8.8,8.8,0,0,1-1,.6l-0.5.3a0.76,0.76,0,0,1-.4.2,0.62,0.62,0,0,1-.4-0.3c-0.2-.1-0.3-0.3-0.5-0.4s-0.4-.3-0.6-0.5a4.38,4.38,0,0,0-.9-0.5h0Zm8.4,0.6c0,0.1-.1.1-0.1,0.2v0.2a0.76,0.76,0,0,1,.1.4,6.38,6.38,0,0,0,.2.7,0.31,0.31,0,0,1,.1.2c0.1,0.2.1,0.4,0.2,0.6a0.48,0.48,0,0,1,.1.5,2.09,2.09,0,0,1-.6.4c-0.3.2-.6,0.3-0.9,0.5l-0.3.2c-0.1.1-.2,0.1-0.3,0.2a0.38,0.38,0,0,0-.2.2c-0.1.1-.1,0.1,0,0.1a0.1,0.1,0,0,0,.1.1,1.27,1.27,0,0,0,.6.1c0.5,0.1,1.1.1,1.6,0.2,0.2,0,.3-0.1.4,0.1l0.2,0.4c0,0.2.1,0.3,0.1,0.5,0.1,0.4.2,0.7,0.3,1.1,0,0.1.1,0.6,0.3,0.5a0.1,0.1,0,0,0,.1-0.1,6.89,6.89,0,0,0,.3-0.8c0.1-.2.2-0.5,0.3-0.7s0-.2.1-0.2a0.37,0.37,0,0,0,.1-0.3c0.1-.1.1-0.2,0.2-0.3s0.1-.1.2-0.1c0.3,0,.6.1,0.9,0.1h0.2c0.1,0,.2.1,0.3,0.1a0.9,0.9,0,0,1,.5.1h0.3c0.1,0,.4.1,0.4-0.1a1.06,1.06,0,0,0-.4-0.6c-0.2-.1-0.4-0.3-0.6-0.4l-0.3-.3-0.3-.3a1.51,1.51,0,0,1-.4-0.4,0.6,0.6,0,0,1,.1-0.4c0.1-.3.3-0.6,0.4-0.9s0.1-.3.2-0.5a1.42,1.42,0,0,0,.2-0.6v-0.2c-0.1-.2-0.4,0-0.4.1s-0.1.1-.2,0.1l-1.5.9c-0.1.1-.2,0.1-0.3,0.2l-0.1.1a2.51,2.51,0,0,1-.7-0.4l-0.4-.4-0.2-.2a1.38,1.38,0,0,1-.4-0.3c-0.1-.4-0.2-0.6-0.5-0.6h0Zm-6.3,7.6a0.2,0.2,0,0,0-.1.2v0.2a4.17,4.17,0,0,1,.2.6l0.2,0.7c0.1,0.2.1,0.4,0.2,0.6s0.1,0.4.1,0.6a1.27,1.27,0,0,1-.6.4,4.7,4.7,0,0,0-.9.6l-0.3.2a0.53,0.53,0,0,1-.3.2c0,0.1-.1.1-0.1,0.2a0.48,0.48,0,0,0,.4.1c0.1,0,.2,0,0.2.1H152a1.08,1.08,0,0,0,.6.1H153a0.37,0.37,0,0,0,.3.1,0.6,0.6,0,0,1,.4.1,1.42,1.42,0,0,1,.2.6c0.1,0.4.2,0.7,0.3,1.1a1.91,1.91,0,0,0,.3.8c0.2,0.1.3-.4,0.4-0.5,0.1-.3.3-0.7,0.4-1a2.47,2.47,0,0,1,.4-0.9,0.55,0.55,0,0,1,.4,0,0.48,0.48,0,0,1,.4.1,0.9,0.9,0,0,1,.5.1h0.5c0.2,0,.4.1,0.6,0.1a0.37,0.37,0,0,0,.3-0.1,0.89,0.89,0,0,0-.4-0.5,12,12,0,0,1-1.2-1.1,0.85,0.85,0,0,1-.3-0.3,1.45,1.45,0,0,1,.2-0.7l0.6-1.2a1.47,1.47,0,0,1,.2-0.4v-0.2c-0.1-.2-0.6.1-0.7,0.2l-0.8.5a1.38,1.38,0,0,0-.4.3,1.07,1.07,0,0,1-.6.2,1.47,1.47,0,0,0-.4-0.2,3.39,3.39,0,0,0-.6-0.6c-0.1-.1-0.2-0.1-0.3-0.2a0.53,0.53,0,0,0-.3-0.2,1.17,1.17,0,0,0-.8-0.9h0Z"/><path class="cls-7" d="M201.13,120.37a5.72,5.72,0,0,1-.7.8c-0.2.2-.4,0.5-0.6,0.7l-0.3.3a7,7,0,0,0-.8,1,1990525703133.8,1990525703133.8,0,0,0-.2.2l-0.2.2a1.38,1.38,0,0,0-.3.4,6,6,0,0,1-.8.8,0.53,0.53,0,0,0-.2.3l-0.6.6a10.63,10.63,0,0,0-.9,1.1,4.35,4.35,0,0,0-.6.7c-0.2.2-.4,0.5-0.7,0.8-0.7.9-1.4,1.9-2.1,2.9l-0.2.3a5.94,5.94,0,0,1-.4.8c-0.1.3-.3,0.7-0.4,1-0.2.6-.4,1.1-0.6,1.7a0.35,0.35,0,0,1-.1.2c-0.1.4-.2,1-0.3,1.4a1.27,1.27,0,0,0-.1.6c0,0.3-.1.6-0.1,0.9a0.9,0.9,0,0,0-.1.5c0,0.6-.1,1.1-0.1,1.7,0.1,0.4,0,.8.1,1.2a4.87,4.87,0,0,1,.1,1.2,34,34,0,0,0,.7,3.4c0.1,0.4.3,0.8,0.4,1.2,0.2,0.7.4,1.3,0.6,2,0,0.1.1,0.2,0.1,0.3a6.47,6.47,0,0,1,.4,1.3,2.54,2.54,0,0,1,.2.7c0.1,0.3.2,0.6,0.3,1a1.42,1.42,0,0,1,.2.6c0.1,0.4.3,0.9,0.4,1.3a2.92,2.92,0,0,1,.2.9l0.2,0.7c0.1,0.3.2,0.7,0.3,1.1,0.2,0.8.3,1.6,0.5,2.4a11.13,11.13,0,0,1,.2,1.7,0.37,0.37,0,0,1,.1.3,1.27,1.27,0,0,0,.1.6v2a2,2,0,0,1-.1.7,0.37,0.37,0,0,1-.1.3,23.36,23.36,0,0,1-.4,2.6c-0.1.3-.1,0.6-0.2,0.9a0.35,0.35,0,0,1-.1.2l-0.3.8-0.2.3c0,0.1,0,.2-0.1.2a3.33,3.33,0,0,0-.3.6,2.51,2.51,0,0,1-.4.7v0.1h0.1l0.3-.3a1.76,1.76,0,0,0,.4-0.5l1-1.2,0.7-.8a4.62,4.62,0,0,1,.7-0.7,5.72,5.72,0,0,1,.7-0.8c0.2-.2.3-0.4,0.6-0.7a1.51,1.51,0,0,1,.4-0.4,4.44,4.44,0,0,0,.8-1.1,3.92,3.92,0,0,0,.8-1l0.4-.4c0.1-.1.1-0.2,0.2-0.3s0.3-.4.4-0.6,0.1-.2.2-0.3,0.1-.1.1-0.2a0.2,0.2,0,0,1,.1-0.2c0.1-.1.1-0.2,0.2-0.3a13,13,0,0,0,.8-1.7,1.42,1.42,0,0,0,.2-0.6c0.1-.6.3-1.1,0.4-1.6s0.1-.8.2-1.1a1.27,1.27,0,0,0,.1-0.6,7.08,7.08,0,0,0,.1-1.5V154a0.6,0.6,0,0,0-.1-0.4v-0.4c0-.4-0.1-0.7-0.1-1.1-0.1-.6-0.2-1.2-0.3-1.9s-0.2-1.3-.4-2l-0.6-2.7-0.6-1.8c-0.4-1.1-.7-2.2-1.1-3.3-0.2-.6-0.4-1.3-0.6-1.9-0.1-.3-0.2-0.7-0.3-1.1a0.37,0.37,0,0,1-.1-0.3,3.59,3.59,0,0,1-.2-1.1,15.52,15.52,0,0,1-.4-2.1c0-.3-0.1-0.7-0.1-1.1,0-.7-0.1-1.4-0.1-2.1a2.27,2.27,0,0,1,.1-0.4v-0.7a2.2,2.2,0,0,0,.1-0.8,2.77,2.77,0,0,0,.1-0.9c0.2-.9.4-1.7,0.6-2.5,0-.1.1-0.1,0.1-0.2v-0.1a1.47,1.47,0,0,0,.2-0.4,0.31,0.31,0,0,0,.1-0.2l0.1-.1a0.2,0.2,0,0,0,.1-0.2,1.42,1.42,0,0,0,.2-0.4,1.47,1.47,0,0,1,.2-0.4c0.1-.1.1-0.2,0.2-0.3a3,3,0,0,1,.4-0.8,8.34,8.34,0,0,1,.8-1.2c0.1-.1.2-0.3,0.3-0.4s0.1-.1.1-0.2v-0.1h-0.1Zm4.6,2a1.1,1.1,0,0,0,0,.8v1.1a0.76,0.76,0,0,1,.1.4,7.84,7.84,0,0,1,.2,1.4,5.16,5.16,0,0,1,.2,1.1l0.3,1.3c0.3,1.2.7,2.4,1,3.6,0.4,1.4.9,2.9,1.3,4.3a10.62,10.62,0,0,1,.4,1.9,0.76,0.76,0,0,1,.1.4l0.3,1.5,0.2,0.8c0.1,0.3.1,0.6,0.2,1a10.9,10.9,0,0,1,.3,2.6,5.65,5.65,0,0,1,0,1.3c0,0.5-.1,1-0.1,1.5a0.76,0.76,0,0,0-.1.4c0,0.1-.1.4-0.1,0.6a0.48,0.48,0,0,1-.1.4,2.27,2.27,0,0,1-.1.4c-0.1.3-.1,0.5-0.2,0.8s-0.1.6-.2,0.8a1.45,1.45,0,0,0-.2.7l-0.3.7a0.1,0.1,0,0,1-.1.1c0,0.1-.1.1-0.1,0.2s-0.1.2-.1,0.3a0.76,0.76,0,0,0-.2.4,0.53,0.53,0,0,1-.2.3,0.2,0.2,0,0,0-.1.2c-0.1.1-.1,0.1,0,0.1s0.2-.3.3-0.4a5,5,0,0,0,.7-0.8,12.67,12.67,0,0,1,1.1-1.3l0.1-.1c0-.1,0-0.1.1-0.1a0.1,0.1,0,0,0,.1-0.1l0.4-.4,0.7-.8,1.2-1.3,0.6-.6c0.2-.2.3-0.4,0.5-0.6s0.5-.6.8-0.9l0.3-.3a0.2,0.2,0,0,0,.1-0.2l0.5-.8a0.53,0.53,0,0,0,.2-0.3,5.9,5.9,0,0,0,.4-0.8l0.6-1.2a14.62,14.62,0,0,0,.9-3.6,3.75,3.75,0,0,0,.1-1.1v-2.2a25.35,25.35,0,0,0-.4-2.9c0-.2-0.1-0.4-0.1-0.6a0.37,0.37,0,0,1-.1-0.3,1,1,0,0,0-.3-0.4,19.2,19.2,0,0,0-1.4-1.5,19,19,0,0,0-2.1-1.9,3.92,3.92,0,0,0-1-.8l-0.3-.3-0.7-.5c-0.2-.2-0.4-0.3-0.6-0.5a12.13,12.13,0,0,0-1.4-1c-0.6-.3-1.1-0.7-1.6-1a2.51,2.51,0,0,0-.7-0.4c-0.3-.2-0.6-0.3-0.9-0.5-0.1-.7-0.3-0.9-0.5-0.9h0Zm16.7,16.4-0.3.3c-0.3.3-.5,0.6-0.8,0.9l-1.3,1.6a5,5,0,0,1-.7.8,5.58,5.58,0,0,0-.5.8,5.55,5.55,0,0,1-.6.8l-0.6,1.2a14.72,14.72,0,0,0-1,2.2,12.76,12.76,0,0,0-.7,2.8c0,0.2-.1.3-0.1,0.6s-0.1.3-.1,0.6a0.37,0.37,0,0,1-.1.3v0.4a19.92,19.92,0,0,0,.5,6.1,25,25,0,0,0,.7,2.6,1.47,1.47,0,0,1,.2.4c0,0.1.1,0.1,0.1,0.2s0.1,0.1.1,0.2,0.1,0.1.1,0.2a0.37,0.37,0,0,0,.1.3,0.31,0.31,0,0,1,.1.2,0.2,0.2,0,0,1,.1.2c0,0.1.1,0.1,0.1,0.2s0.1,0.1.1,0.2v0.2a0.31,0.31,0,0,1,.1.2c0.3,1.1.7,2.1,1,3.3,0.2,0.4.3,1,.5,1.5,0.4,1.3.7,2.7,1,4a15.52,15.52,0,0,1,.4,2.1,10,10,0,0,1,.2,1.6v0.4a4.87,4.87,0,0,1,.1,1.2v0.5c-0.1.8-.1,1.6-0.2,2.4a1.27,1.27,0,0,0-.1.6,3.55,3.55,0,0,0-.2,1c-0.1.4-.3,0.8-0.4,1.2l-0.3.6v0.1a0.53,0.53,0,0,0,.2-0.3,1.38,1.38,0,0,1,.3-0.4c0.4-.6.8-1.2,1.1-1.7s0.5-.8.7-1.2a46.63,46.63,0,0,0,2.5-5c0.1-.2.2-0.5,0.3-0.7a7.6,7.6,0,0,1,.4-1.1,6.89,6.89,0,0,1,.3-0.8l0.3-1.2c0.2-.6.4-1.3,0.6-1.9a6.37,6.37,0,0,0,.2-0.7c0-.1.1-0.1,0.1-0.2l-0.1-.1a1.42,1.42,0,0,0,.2-0.6c0.1-.2.1-0.4,0.2-0.6l0.2-1c0.1-.7.2-1.3,0.3-2.1,0.1-1,.2-2,0.2-3v-0.6a0.6,0.6,0,0,0,.1-0.4,1.88,1.88,0,0,1-.2-0.8,0.2,0.2,0,0,1-.1-0.2V159c0-.1-0.1-0.1-0.1-0.2a0.31,0.31,0,0,1-.1-0.2c0-.1-0.1-0.2-0.1-0.3v-0.4a0.76,0.76,0,0,1-.1-0.4c-0.1-.3-0.2-0.6-0.3-1-0.3-.8-0.5-1.5-0.8-2.3s-0.5-1.6-.8-2.5c-0.2-.7-0.4-1.5-0.6-2.2-0.1-.2-0.1-0.4-0.2-0.6-0.1-.6-0.3-1.2-0.4-1.9a0.6,0.6,0,0,1-.1-0.4c0-.4-0.1-0.8-0.1-1.2a20.08,20.08,0,0,1-.1-2.5v-0.3a1.27,1.27,0,0,1,.1-0.6,1.27,1.27,0,0,1,.1-0.6v-0.2l-0.2-.3a1.61,1.61,0,0,0-.4-0.7l-0.2-.3a5.74,5.74,0,0,1-.4-0.7,0.71,0.71,0,0,1-.5-0.4h0Zm-37.5.5c-0.1.2-.3,0.3-0.4,0.5a4.35,4.35,0,0,0-.6.7l-0.1.1a6.47,6.47,0,0,0-.8.9,4.35,4.35,0,0,0-.6.7,2.7,2.7,0,0,1-.7.8c-0.4.4-.8,1-1.2,1.4l-1.5,1.8c-0.2.3-.5,0.6-0.7,0.9a25.64,25.64,0,0,0-2.2,3.5,18.16,18.16,0,0,0-1.1,3,10.46,10.46,0,0,0-.4,1.7c0,0.3-.1.6-0.1,1a2,2,0,0,0-.1.8v0.3a18.21,18.21,0,0,0,.1,3.3,1.7,1.7,0,0,1,.1.7c0.1,0.7.3,1.3,0.4,1.9s0.3,1,.4,1.5a2.27,2.27,0,0,1,.1.4,0.6,0.6,0,0,1,.1.4l0.3,1.2,0.3,1,0.6,2.1a1.85,1.85,0,0,1,.2.7,5.64,5.64,0,0,1,.4,1.2,0.76,0.76,0,0,1,.1.4c0.1,0.4.2,0.7,0.3,1.1,0.1,0.2.1,0.4,0.2,0.6s0.1,0.4.2,0.6,0.1,0.4.1,0.7,0.1,0.6.2,0.9,0.1,0.5.1,0.7,0.1,0.2.1,0.3,0,0.1.1,0.1v0.1c0.1,0.3.1,0.6,0.2,0.9a4.87,4.87,0,0,1,.1,1.2,2.49,2.49,0,0,1,.1.8,3.75,3.75,0,0,1,.1,1.1v0.2c0,0.6-.1,1.2-0.1,1.9a2,2,0,0,1-.1.8,0.35,0.35,0,0,1-.1.2l-0.2,1-0.2.7a10.41,10.41,0,0,1-.6,1.6c-0.1.3-.3,0.7-0.4,1a5.94,5.94,0,0,1-.4.8,0.37,0.37,0,0,0-.1.3,1.51,1.51,0,0,1,.4-0.4c0.5-.7,1.1-1.3,1.6-2,0.2-.2.3-0.4,0.5-0.6a3.92,3.92,0,0,0,.8-1,10.62,10.62,0,0,0,.9-1.1l0.7-.7a17.38,17.38,0,0,1,1.3-1.5c0.3-.4.7-0.7,1-1.1a10.91,10.91,0,0,0,.6-1.1c0.2-.4.4-0.7,0.6-1.1a11.92,11.92,0,0,0,.8-2,16.31,16.31,0,0,0,.6-4.5v-0.8c-0.1-1.2-.2-2.3-0.4-3.4-0.1-.3-0.1-0.5-0.2-0.8l-0.3-1.2c-0.2-.8-0.4-1.7-0.6-2.5-0.1-.4-0.3-0.8-0.4-1.2a18.66,18.66,0,0,0-.7-2.2,1.47,1.47,0,0,1-.2-0.4c-0.1-.5-0.3-1-0.4-1.5s-0.2-.8-0.3-1.1a30.44,30.44,0,0,1-1.3-5.4,11.08,11.08,0,0,1-.2-1.9,2,2,0,0,1-.1-0.8v-0.3c0-.6.1-1.1,0.1-1.6a1.49,1.49,0,0,1,.1-0.6,18.46,18.46,0,0,1,.4-2.3l0.3-1.2,0.3-.9a25.57,25.57,0,0,1,1.1-2.4l0.3-.6c0.4,0,.5-0.2.5-0.3h0Zm26.8,11.9c-0.1.1-.2,0.3-0.3,0.4-0.4.4-.7,0.8-1.1,1.2a5.55,5.55,0,0,1-.6.8c-0.2.2-.3,0.4-0.5,0.6-0.6.7-1.2,1.5-1.8,2.1s-1,1.1-1.5,1.7l-0.8,1a0.2,0.2,0,0,0-.1.2c0,0.1-.1.1-0.1,0.2l-0.2.2a0.38,0.38,0,0,1-.2.2c-0.1.2-.3,0.4-0.4,0.6a21.59,21.59,0,0,0-2.2,3.9c-0.2.5-.3,1.1-0.5,1.6a6.37,6.37,0,0,0-.2.7,3.59,3.59,0,0,0-.2,1.1c0,0.4-.1.8-0.1,1.3a3.75,3.75,0,0,0-.1,1.1,23.21,23.21,0,0,0,.3,4.6c0.1,0.6.3,1.2,0.4,1.7a9.36,9.36,0,0,0,.4,1.6l1.2,3.7c0.1,0.3.2,0.6,0.3,1s0.2,0.7.3,1a6.37,6.37,0,0,1,.2.7c0.1,0.5.3,1,.4,1.4l0.6,2.4c0.1,0.5.3,1.1,0.4,1.6,0.1,0.3.1,0.7,0.2,1.1a9.85,9.85,0,0,1,.2,1.7,3.4,3.4,0,0,1,.1,1,4.48,4.48,0,0,1,.1,1.2v0.7H206c0.1,0,.1-0.1.2-0.1a1.38,1.38,0,0,0,.4-0.3c0.3-.2.6-0.3,0.9-0.5a1.38,1.38,0,0,0,.4-0.3,5.58,5.58,0,0,1,.8-0.5c0.4-.3.9-0.6,1.3-0.9s0.8-.6,1.1-0.8a1.38,1.38,0,0,0,.4-0.3l0.8-.7c0.1-.1.3-0.2,0.4-0.3s0.1-.4.2-0.6a0.9,0.9,0,0,0,.1-0.5c0-.2.1-0.3,0.1-0.5a12.41,12.41,0,0,0,.3-2.7V186a8.53,8.53,0,0,0,0-1.6,1.27,1.27,0,0,0-.1-0.6c0-.3-0.1-0.6-0.1-0.9s-0.1-.6-0.2-1-0.1-.8-0.2-1.2c0-.1-0.1-0.2-0.1-0.3s0-.1-0.1-0.1v-0.2a6.37,6.37,0,0,1-.2-0.7c-0.1-.3-0.2-0.7-0.3-1.1a16.55,16.55,0,0,0-.6-2.1c-0.3-.9-0.6-1.8-0.9-2.6l-0.7-2.2c-0.4-1.2-.8-2.5-1.2-3.8a32.51,32.51,0,0,1-.8-4.5,24.3,24.3,0,0,1,0-2.7,1.27,1.27,0,0,0,.1-0.6c0-.3.1-0.7,0.1-1,0.1-.5.2-1,0.3-1.4a0.76,0.76,0,0,0,.1-0.4c0.1-.5.3-1,0.4-1.5a1.45,1.45,0,0,0,.2-0.7l0.8-1.7a5.9,5.9,0,0,0,.4-0.8,5.74,5.74,0,0,0,.4-0.7c0.9-.2,1-0.3,1-0.4h0Zm-41.8,5.9-0.3.3c-0.2.2-.3,0.4-0.5,0.6l-0.7.8a7,7,0,0,0-.8,1,4.35,4.35,0,0,1-.6.7,4.35,4.35,0,0,0-.6.7,0.53,0.53,0,0,0-.2.3l-0.6.6c-0.1.2-.3,0.3-0.4,0.5l-0.3.3a5.55,5.55,0,0,1-.6.8c-0.3.4-.7,0.7-1,1.1l-0.2.2a1.38,1.38,0,0,0-.3.4l-0.3.5a10.54,10.54,0,0,0-.7,1.1c-0.1.2-.3,0.4-0.4,0.6a16,16,0,0,0-1.8,6.2,1.08,1.08,0,0,0-.1.6,4.87,4.87,0,0,1-.1,1.2c0,1.1.1,2.2,0.2,3.3l0.3,1.8a0.9,0.9,0,0,1,.1.5c0.2,0.7.4,1.5,0.6,2.2a1.45,1.45,0,0,1,.2.7c0.1,0.3.2,0.7,0.3,1a0.76,0.76,0,0,1,.1.4,6.47,6.47,0,0,1,.4,1.3c0.1,0.4.2,0.7,0.3,1.1a2.35,2.35,0,0,1,.2.8,4.17,4.17,0,0,1,.2.6,8.33,8.33,0,0,1,.4,1.5c0.1,0.4.2,0.8,0.3,1.3a1.27,1.27,0,0,1,.1.6,0.76,0.76,0,0,1,.1.4,0.37,0.37,0,0,0,.1.3l0.3,0.3c0.4,0.2.8,0.5,1.2,0.7,1.3,0.7,2.5,1.5,3.9,2.1,0.4,0.2.7,0.3,1.1,0.5,0.1,0,.3.1,0.4,0.1,0.1-.2.2-0.3,0.3-0.5l0.3-1a14.05,14.05,0,0,0,.7-4.7,8.6,8.6,0,0,0-.1-1.6c-0.1-.6-0.1-1.2-0.2-1.7v-0.2a1.27,1.27,0,0,1-.1-0.6,5.85,5.85,0,0,1-.2-1.3c-0.1-.2-0.1-0.5-0.2-0.7-0.2-.7-0.3-1.4-0.5-2.1a0.37,0.37,0,0,1-.1-0.3l-0.3-1.2c-0.1-.4-0.3-0.8-0.4-1.3s-0.3-.8-0.4-1.2c-0.2-.6-0.4-1.3-0.6-1.9l-0.2-.7c-0.1-.3-0.2-0.7-0.3-1.1-0.2-.7-0.4-1.3-0.6-2l-0.6-2.7v-0.1c-0.1-.5-0.1-1-0.2-1.5a5.63,5.63,0,0,1,0-1.3c0-.1-0.1-0.2-0.1-0.3s0.1-.4.1-0.6a2.77,2.77,0,0,1,.1-0.9c0-.3.1-0.5,0.1-0.8s0.1-.8.2-1.1a2.27,2.27,0,0,1,.1-0.4c0-.1.1-0.2,0.1-0.3s0.1-.2.1-0.3a0.37,0.37,0,0,0,.1-0.3l0.3-1.2a6.94,6.94,0,0,1,.5-1.3h0l0.1-.1c0-.1.1-0.1,0.1-0.2a1.06,1.06,0,0,0,.2-0.5c0.1-.1.1-0.2,0.2-0.3s0.1-.1.1-0.2a0.1,0.1,0,0,0,.1-0.1,0.2,0.2,0,0,0,.1-0.2l0.2-.3a3.11,3.11,0,0,0,.4-0.6c0-.1.1-0.1,0.1-0.2a0.35,0.35,0,0,0,.2-0.1h0Zm27.1,11.4-0.4.4-1.2,1.5a10.62,10.62,0,0,0-.9,1.1c-0.6.7-1.2,1.3-1.8,2-0.3.3-.5,0.7-0.8,1a4.62,4.62,0,0,1-.7.7,4.35,4.35,0,0,1-.6.7c-0.2.3-.5,0.6-0.7,0.9a1.76,1.76,0,0,0-.4.5,23.81,23.81,0,0,0-1.8,3c-0.2.4-.4,1-0.6,1.4l-0.3,1.2c-0.1.4-.2,1-0.3,1.5a9.85,9.85,0,0,0-.2,1.7c0,0.2-.1.4-0.1,0.6v2.1a5.7,5.7,0,0,1,.1,1.3c0,0.2.1,0.5,0.1,0.7a11.63,11.63,0,0,0,.4,1.8c0.1,0.4.2,0.8,0.3,1.3a0.37,0.37,0,0,1,.1.3c0.1,0.2.1,0.4,0.2,0.6,0.1,0.4.3,0.9,0.4,1.3a22.5,22.5,0,0,1,.8,2.4c0.1,0.4.3,0.8,0.4,1.3,0.1,0.1.1,0.3,0.2,0.4a0.37,0.37,0,0,0,.3.1,0.2,0.2,0,0,1,.2-0.1h0.4a0.1,0.1,0,0,1,.1-0.1h0.4a0.2,0.2,0,0,1,.2-0.1h0.4l0.1-.1h0.3a0.1,0.1,0,0,1,.1-0.1H192a0.1,0.1,0,0,0,.1-0.1h0.3a0.1,0.1,0,0,0,.1-0.1h0.2a0.2,0.2,0,0,1,.2-0.1h0.2l0.1-.1h0.2l0.1-.1h0.2a0.2,0.2,0,0,1,.2-0.1,0.35,0.35,0,0,0,.2-0.1h0.1c0.1,0,.2-0.1.3-0.1a0.37,0.37,0,0,1,.3-0.1h0.1a0.31,0.31,0,0,1,.2-0.1,0.37,0.37,0,0,1,.3-0.1,0.31,0.31,0,0,1,.2-0.1c0.2,0,.4-0.1.6-0.1,0.6-.1,1.1-0.3,1.7-0.4a1.91,1.91,0,0,0,.8-0.3c0-.1-0.1-0.3-0.1-0.4-0.1-.3-0.1-0.7-0.2-1-0.3-1.1-.5-2.1-0.8-3.2-0.1-.2-0.1-0.5-0.2-0.8a1.45,1.45,0,0,1-.2-0.7l-0.9-2.7a5.64,5.64,0,0,1-.4-1.2c-0.2-.6-0.3-1.1-0.5-1.6-0.2-.7-0.4-1.5-0.6-2.2a10.62,10.62,0,0,1-.4-1.9,18.4,18.4,0,0,1-.4-4.1v-0.7c0-.3.1-0.6,0.1-1a2,2,0,0,1,.1-0.8,22.12,22.12,0,0,1,.5-2.5,15.07,15.07,0,0,1,1.3-3.3,8.34,8.34,0,0,1,.8-1.2c0.1-.2.2-0.3,0.3-0.5a1.07,1.07,0,1,0-.1.5h0Zm-41.5,5.4a1.51,1.51,0,0,1-.4.4,5.49,5.49,0,0,1-.7.9,6.47,6.47,0,0,0-.8.9l-0.3.3a7,7,0,0,0-.8,1,4.35,4.35,0,0,0-.6.7,6.89,6.89,0,0,0-1.1,1.3,0.38,0.38,0,0,1-.2.2c0,0.1-.1.1-0.1,0.2s0.1,0.2.1,0.3a4.35,4.35,0,0,1,.4.7,6.73,6.73,0,0,0,.7,1.1,3.11,3.11,0,0,0,.4.6,1.08,1.08,0,0,0,.1-0.6c0-.2.1-0.3,0.1-0.5,0.1-.4.2-0.8,0.3-1.1a17.26,17.26,0,0,1,1.1-3.2l0.7-1.4c0.2-.4.5-0.7,0.7-1.1a1.72,1.72,0,0,0,.4-0.7h0Zm25.3,13.7c-0.3.4-.7,0.8-1.1,1.3a10.59,10.59,0,0,1-1,1.2c-0.3.3-.6,0.7-1,1.1s-0.6.7-1,1.1-0.6.7-.9,1.1c-0.6.7-1.2,1.3-1.8,2.1l-1.5,1.9-0.2.2a0.85,0.85,0,0,0-.3.3V198a0.37,0.37,0,0,0,.3.1,1.45,1.45,0,0,0,.7.2,5.64,5.64,0,0,0,1.2.4c0.1,0.1.3,0.1,0.4,0.2s0.4,0.1.6,0.2l1.1,0.3c0.2,0,.4.1,0.6,0.1a1.48,1.48,0,0,0,.7.1c0,0.1.1,0.1,0.1,0v-0.5c0-.2-0.1-0.4-0.1-0.6a10.87,10.87,0,0,1,.1-1.8c0.1-.8.1-1.6,0.2-2.3,0.1-.3.1-0.6,0.2-1,0-.2.1-0.4,0.1-0.6a6.47,6.47,0,0,1,.4-1.3l0.3-.9c0.2-.4.4-1,0.6-1.4a5.3,5.3,0,0,1,.6-1,1.41,1.41,0,0,0,.7-0.6h0Z"/></g><text class="cls-8" transform="translate(136.67 249.33)">&gt; cf scale -i 8 -m 1024M fec-gov-app </text></svg>