<?xml version="1.0" encoding="utf-8"?>
<!-- Generator: Adobe Illustrator 19.2.1, SVG Export Plug-In . SVG Version: 6.00 Build 0)  -->
<svg version="1.1" id="Layer_1" xmlns="http://www.w3.org/2000/svg" xmlns:xlink="http://www.w3.org/1999/xlink" x="0px" y="0px"
	 viewBox="0 0 743 334" style="enable-background:new 0 0 743 334;" xml:space="preserve">
<style type="text/css">
	.st0{fill:#F5F5F3;}
	.st1{fill:#FFFFFF;}
	.st2{fill:none;stroke:#29527E;stroke-width:2;stroke-miterlimit:10;}
	.st3{fill:#F9F8F4;}
	.st4{fill:#446586;}
	.st5{font-family:'RobotoMono-Regular';}
	.st6{font-size:11px;}
	.st7{fill:#879FB9;}
	.st8{fill:#F69F93;}
</style>
<title>fec-case-study-illo</title>
<path class="st0" d="M259.4,9.1c13.8-2.8,103.3-9.2,189.1,7.5c63.1,12.3,200.1,61.5,208.3,115.7c10.4,68.6-114,71.3-142.2,94.9
	c-21.9,18.3,17.7,51,1.2,79.8c-37.2,65-222.5-33.3-276.5-90.4C180.3,154.3,92,43.2,259.4,9.1z"/>
<path class="st1" d="M448,262.8c0,2.8-2.3,5.2-5.1,5.2c0,0-0.1,0-0.1,0H127.2c-2.8,0-5.2-2.3-5.2-5.1c0,0,0-0.1,0-0.1V91.2
	c0-2.8,2.3-5.2,5.1-5.2c0,0,0.1,0,0.1,0h315.6c2.8,0,5.2,2.3,5.2,5.1c0,0,0,0.1,0,0.1V262.8z"/>
<path class="st2" d="M467,273.2c0,3.2-2.6,5.8-5.8,5.8H110.8c-3.2,0-5.8-2.6-5.8-5.8V81.8c0-3.2,2.6-5.8,5.8-5.8c0,0,0,0,0,0h350.4
	c3.2,0,5.8,2.6,5.8,5.8V273.2z"/>
<rect x="265" y="130" class="st3" width="24" height="67"/>
<rect x="296" y="146" class="st3" width="23" height="51"/>
<rect x="241.7" y="204.8" class="st4" width="92.8" height="2.9"/>
<path class="st4" d="M285.2,199v-78.3h-26.1V199H285.2z M262,123.6h20.3v72.5H262V123.6z"/>
<path class="st4" d="M317.1,199v-60.9H291V199H317.1z M293.9,141h20.3v55.1h-20.3V141z"/>
<path class="st4" d="M387.1,115.2c-25.6,0-46.4,20.8-46.4,46.4s20.8,46.4,46.4,46.4c0,0,0,0,0,0l0,0c25.6,0,46.4-20.8,46.4-46.4
	S412.7,115.2,387.1,115.2C387.1,115.2,387.1,115.2,387.1,115.2z M387.1,205.4v-0.2l0,0c-24,0.1-43.6-19.3-43.7-43.4c0,0,0-0.1,0-0.1
	c-0.1-11.6,4.5-22.7,12.8-30.8c17-17.1,44.7-17.1,61.8-0.1c17.1,17,17.1,44.7,0.1,61.8C409.9,200.8,398.7,205.4,387.1,205.4z"/>
<path class="st4" d="M387.1,128.4c-18.4,0-33.4,15-33.4,33.4h2.9c0-16.8,13.6-30.4,30.4-30.4c16.8,0,30.4,13.6,30.4,30.4
	c0,0,0,0,0,0h2.9c0-8.9-3.5-17.4-9.8-23.6C404.4,131.9,395.9,128.4,387.1,128.4z"/>
<path class="st4" d="M385.3,162.2l-8.7-10.1l-2.2,1.9l8.8,10.2c-0.3,0.6-0.5,1.2-0.5,1.9c0,2.4,1.9,4.4,4.4,4.4
	c1.2,0,2.3-0.5,3.1-1.3c1.7-1.7,1.7-4.4,0-6.1c0,0,0,0,0,0C388.9,161.8,387,161.5,385.3,162.2z M388.1,167.1c-0.6,0.5-1.4,0.5-2,0
	c-0.3-0.3-0.4-0.6-0.4-1c0-0.4,0.1-0.8,0.4-1c0.3-0.3,0.6-0.4,1-0.4c0.4,0,0.7,0.2,1,0.4c0.6,0.5,0.6,1.3,0.1,1.9
	C388.2,167,388.1,167.1,388.1,167.1L388.1,167.1z"/>
<text transform="matrix(1 0 0 1 136.67 249.33)" class="st4 st5 st6">&gt; cf scale -i 8 -m 1024M fec-gov-app</text>
<g>
	<path class="st7" d="M122.8,154.5c0-31.1,25.2-56.4,56.4-56.4c31.1,0,56.4,25.2,56.4,56.4s-25.2,56.4-56.4,56.4l0,0
		C148,210.9,122.8,185.6,122.8,154.5z M179.2,209.8c30.5,0,55.2-24.8,55.2-55.3c0-30.5-24.8-55.2-55.3-55.2
		c-30.5,0-55.2,24.7-55.2,55.3C123.9,185,148.6,209.8,179.2,209.8C179.2,209.8,179.2,209.8,179.2,209.8L179.2,209.8z"/>
	<path class="st7" d="M132.4,154.5c0-25.8,20.9-46.8,46.8-46.8s46.8,20.9,46.8,46.8s-20.9,46.8-46.8,46.8S132.4,180.3,132.4,154.5
		L132.4,154.5z M179.2,200.4c25.3,0,45.9-20.5,45.9-45.9c0-25.3-20.5-45.9-45.9-45.9c-25.3,0-45.9,20.5-45.9,45.9
		S153.8,200.4,179.2,200.4L179.2,200.4z"/>
	<path class="st7" d="M178.9,100.3c-0.1,0-0.2,0-0.2,0.1c-0.1,0-0.2,0.1-0.4,0.1l-0.4,0.2c-1.1,0.6-1.8,1.8-1.6,3
		c0,0.2,0.1,0.4,0.1,0.7c0.5,1.7,2.3,2.7,4,2.2c1.6-0.4,2.5-2,2.3-3.6c0-0.7-0.3-1.3-0.8-1.8c-0.1-0.1-0.3-0.2-0.4-0.3
		c-0.5-0.3-1-0.5-1.6-0.5L178.9,100.3L178.9,100.3z M174.6,100.8c0,0-0.1,0-0.1,0.1h-0.3c0,0.1-0.1,0.1-0.1,0.1h-0.4
		c-0.1,0-0.2,0-0.4,0.1c0,0.3,0,0.7,0.1,1c0,0.2,0.1,0.4,0.1,0.6l0.2,1.4c0,0.2,0,0.4,0.1,0.7c0,0.2,0,0.5,0.1,0.7
		c0,0.3,0,0.5,0.1,0.8v0.5c0,0,0.1,0.1,0.2,0.1c0.1,0,0.3-0.1,0.4-0.1c0.2,0,0.4,0,0.6-0.1h0.2c0-0.3,0-0.7-0.1-1
		c-0.1-0.4-0.1-0.8-0.1-1.3c0-0.1-0.1-0.2-0.1-0.4c-0.1-0.3-0.1-0.6-0.1-0.9v-0.4c-0.1-0.5-0.1-0.9-0.1-1.4c0-0.2,0-0.3-0.1-0.5
		C174.7,100.8,174.6,100.8,174.6,100.8L174.6,100.8L174.6,100.8z M179.1,100.9h0.2c0.3,0,0.6,0,0.8,0.1c1.2,0.7,1.4,3.2,0.6,4.3
		c-0.1,0.3-0.3,0.5-0.6,0.6c-0.1,0-0.1,0.1-0.2,0.1c0,0-0.1,0-0.1,0.1h-0.2c-0.1,0-0.2,0-0.2,0.1c-0.3,0-0.5-0.1-0.7-0.3
		c-0.6-0.5-0.9-1.2-1-1.9c-0.1-0.7,0-1.4,0.3-2.1c0.2-0.4,0.5-0.7,0.9-0.8C178.9,101,179,100.9,179.1,100.9L179.1,100.9z
		 M184.1,100.9c-0.1,0.1-0.1,0.3-0.1,0.5c-0.1,0.2-0.1,0.5-0.1,0.8c-0.1,0.9-0.2,1.8-0.4,2.7c0,0.2-0.1,0.4-0.1,0.5
		s-0.1,0.5-0.2,0.8c-0.1,0.2-0.1,0.3-0.1,0.5l0.1,0.1c0.1,0,0.2,0,0.4,0.1h0.4c0-0.1,0.1-0.3,0.1-0.4v-0.3c0.1-0.4,0.1-0.7,0.1-1.1
		c0.1-0.3,0.1-0.6,0.1-0.9c0-0.2,0-0.5,0.1-0.7c0-0.1,0-0.2,0.1-0.4c0,0,0.1-0.1,0.1-0.1c0.2,0.3,0.5,0.6,0.7,1
		c0.1,0.2,0.2,0.4,0.4,0.6c0.2,0.3,0.4,0.6,0.6,0.9c0.2,0.4,0.5,0.7,0.7,1.2c0.1,0.1,0.2,0.2,0.2,0.4c0,0.1,0.1,0.2,0.2,0.3
		c0.2,0.1,0.5,0.1,0.7,0.1c0.1,0,0.1-0.1,0.1-0.1c0-0.4,0.1-0.8,0.1-1.2c0.1-0.4,0.1-0.9,0.2-1.4c0-0.1,0.1-0.2,0.1-0.3
		c0.1-0.3,0.1-0.6,0.1-0.8l0.2-0.9c0.1-0.2,0.1-0.5,0.1-0.7c0.1-0.2,0.1-0.2,0.1-0.3v-0.1c-0.2,0-0.4-0.1-0.7-0.1h-0.1
		c0,0.1-0.1,0.2-0.1,0.4c0,0.2-0.1,0.3-0.1,0.5v0.1c0,0.1-0.1,0.2-0.1,0.2c0,0.2-0.1,0.4-0.1,0.7s-0.1,0.6-0.1,0.8
		c-0.1,0.2-0.1,0.4-0.1,0.6c0,0.1-0.1,0.3-0.1,0.4c-0.1,0-0.1-0.1-0.2-0.1c-0.1-0.1-0.1-0.3-0.2-0.4c-0.1-0.3-0.3-0.5-0.5-0.7
		c-0.5-0.8-1-1.6-1.6-2.4c-0.1-0.1-0.2-0.3-0.2-0.4c0-0.1-0.1-0.2-0.2-0.2c-0.1,0-0.2-0.1-0.4-0.1C184.3,101,184.2,101,184.1,100.9
		L184.1,100.9L184.1,100.9z M171.9,101.1l-0.6,0.2c-0.1,0-0.2,0-0.3,0.1H171c-0.1,0-0.2,0-0.2,0.1h-0.2c-0.1,0-0.2,0-0.2,0.1h-0.1
		c-0.1,0-0.2,0-0.2,0.1c-0.1,0-0.2,0-0.3,0.1h-0.2c-0.1,0-0.1,0-0.2,0.1H169c-0.1,0-0.1,0-0.2,0.1h-0.2c0,0-0.1,0-0.1,0.1
		c-0.1,0-0.1,0-0.2,0h-0.1c-0.1,0-0.1,0-0.2,0.1h-0.1c-0.1,0-0.1,0-0.2,0.1c-0.1,0-0.1,0-0.1,0.1c0,0.1,0,0.2,0.1,0.4v0.2
		c0.1,0,0.3,0,0.4-0.1l0.7-0.2c0.1,0,0.2,0,0.4,0c0.1,0.1,0.1,0.3,0.1,0.5c0,0.2,0.1,0.4,0.1,0.6c0.1,0.7,0.2,1.4,0.4,2.1
		c0,0.2,0.1,0.5,0.1,0.7c0,0.2,0.1,0.5,0.1,0.7s0,0.3,0.1,0.4h0.1c0.2,0,0.4-0.1,0.5-0.1c0.1,0,0.2-0.1,0.3-0.1c0.1,0,0.3,0,0.4-0.1
		c0,0,0.1-0.1,0.1-0.1c0-0.1,0-0.2-0.1-0.2c-0.1-0.3-0.1-0.7-0.2-1c-0.1-0.6-0.2-1.2-0.3-1.8c-0.1-0.3-0.1-0.5-0.2-0.8
		c-0.1-0.3-0.1-0.6-0.1-0.9v-0.1c0-0.1,0-0.1,0.1-0.2c0.2-0.1,1.4-0.1,1.5-0.2s-0.1-0.2-0.1-0.4c0,0,0-0.1-0.1-0.1
		c0-0.1,0-0.2-0.1-0.3l0,0L171.9,101.1z M165.8,102.1c0,0-0.1,0.1-0.1,0.1h-0.1c-0.2,0-0.3,0.1-0.5,0.1c-0.1,0-0.2,0.1-0.3,0.1
		c-0.3,0.1-0.6,0.2-0.8,0.4c-0.8,0.3-1.4,1-1.6,1.9c0,0.1-0.1,0.2-0.1,0.3c0,0.4,0,0.9,0.1,1.3c0.2,0.8,0.6,1.5,1.3,1.9
		c0.5,0.3,1,0.5,1.6,0.5h0.4c0.2,0,0.3,0,0.5-0.1l0.5-0.2c0.3-0.1,0.5-0.1,0.7-0.2c0.3-0.1,0.6-0.3,0.8-0.6c0-0.1-0.1-0.2-0.1-0.3
		V107c0-0.1,0-0.3-0.1-0.4c0,0-0.1-0.1-0.2-0.1c0,0.1-0.1,0.2-0.2,0.4l-0.5,0.5c-0.2,0.1-0.4,0.2-0.6,0.3c-0.1,0-0.2,0.1-0.3,0.1
		h-0.5c-0.4,0-0.7-0.2-1-0.4c-0.3-0.2-0.5-0.5-0.6-0.8c-0.1-0.1-0.1-0.2-0.1-0.3c-0.4-0.8-0.4-1.8,0-2.6c0.2-0.4,0.6-0.7,1.1-0.8
		c0.2-0.1,0.5-0.1,0.7-0.1l0.5,0.2c0.1,0,0.2,0.1,0.2,0.2c0,0,0.1,0.1,0.1,0.1c0,0,0.1-0.1,0.1-0.1c0-0.1-0.1-0.3-0.1-0.4
		c0-0.1,0-0.3-0.1-0.4c-0.1-0.1-0.2-0.1-0.4-0.1c0,0-0.1-0.1-0.1-0.1h-0.3L165.8,102.1z M195.6,103.4c-0.1,0-0.1,0-0.2,0.1h-0.1
		c-0.1,0-0.1,0-0.2,0.1c-0.3,0-0.6,0.2-0.8,0.4c-0.1,0.1-0.2,0.1-0.3,0.2c-0.1,0.1-0.3,0.3-0.4,0.4c-0.1,0.2-0.3,0.4-0.4,0.5
		c-0.3,0.7-0.4,1.6-0.2,2.4c0,0.1,0,0.2,0.1,0.3c0.1,0.2,0.2,0.4,0.3,0.6c0.4,0.5,1,0.9,1.6,1.1c0.5,0.2,1,0.3,1.5,0.3
		c0.2,0,0.4,0,0.5-0.1c0.1-0.1,0.2-0.3,0.3-0.4c0-0.1,0.1-0.2,0.1-0.2v-0.1c-0.1-0.2-0.3,0-0.4,0.1c-0.1,0.1-0.1,0-0.1,0.1
		c-0.1,0-0.2,0-0.4,0.1h-0.3c-0.3,0-0.7-0.1-1-0.2c-1-0.7-1.4-2.1-0.8-3.1c0.2-0.5,0.5-0.9,0.9-1.3c0.6-0.5,1.4-0.5,2.1-0.2
		c0.3,0.2,0.5,0.4,0.6,0.7c0.1,0.1,0.1,0.2,0.2,0.3s0.1,0,0.2-0.1c0-0.1,0.1-0.2,0.1-0.2c0.1-0.1,0.2-0.3,0.2-0.5
		c-0.1-0.1-0.2-0.3-0.3-0.4l-0.4-0.2c-0.1-0.1-0.3-0.2-0.4-0.2c-0.5-0.2-1-0.4-1.6-0.4L195.6,103.4L195.6,103.4z M160.6,104
		c-0.2,0.1-0.4,0.2-0.6,0.3l-1.6,0.7c-0.3,0-0.5,0.1-0.7,0.3c0.1,0.4,0.2,0.7,0.4,1.1l0.4,0.7c0.1,0.4,0.2,0.7,0.4,1
		c0.2,0.4,0.4,0.9,0.6,1.4c0.1,0.2,0.2,0.5,0.2,0.7c0,0.1,0.1,0.2,0.1,0.4l0.1,0.1c0.1,0,0.3-0.1,0.4-0.2c0.1,0,0.2-0.1,0.3-0.2
		c0.3-0.1,0.6-0.2,0.8-0.3c0.3-0.1,0.5-0.2,0.8-0.3c0.1-0.1,0.2-0.1,0.2-0.1c0.1,0,0.3-0.1,0.4-0.1v-0.1c0-0.1-0.1-0.2-0.1-0.3
		c0-0.1-0.1-0.2-0.2-0.3c-0.1,0-0.2,0-0.3,0.1c-0.3,0.2-0.7,0.3-1,0.5c-0.1,0.1-0.2,0.1-0.4,0.1c-0.1,0-0.1,0-0.1-0.1
		c-0.1-0.1-0.2-0.3-0.2-0.4c-0.1-0.2-0.2-0.5-0.4-0.8c-0.1-0.2-0.1-0.2-0.1-0.4c0,0-0.1-0.1-0.1-0.2c0-0.1,0-0.1,0.1-0.1
		c0.1-0.1,0.3-0.2,0.4-0.2c0.2-0.1,0.5-0.2,0.8-0.3s0.2-0.1,0.4-0.1c0-0.1,0-0.2-0.1-0.3c0-0.1-0.1-0.3-0.2-0.4
		c-0.1,0-0.3,0.1-0.4,0.2l-1.2,0.5c-0.1,0-0.1,0-0.2-0.1c0-0.1-0.1-0.1-0.1-0.2c-0.1-0.2-0.1-0.3-0.2-0.5c-0.1-0.3-0.2-0.6-0.3-0.9
		c0.4-0.2,0.9-0.4,1.4-0.5c0.1,0,0.3-0.1,0.4-0.2c0.1,0,0-0.1,0-0.1s-0.1-0.2-0.1-0.3c-0.1-0.1-0.1-0.2-0.1-0.2
		c-0.1-0.1,0-0.1-0.1-0.1l0,0L160.6,104z M201.7,105.6c-0.1,0.1-0.3,0-0.4,0.1h-0.1c-0.2,0-0.4,0.1-0.6,0.2
		c-0.3,0.1-0.6,0.3-0.8,0.5c-0.8,0.8-1.2,1.9-1.1,3.1c0.1,0.5,0.3,1,0.7,1.4c0.1,0.1,0.1,0.2,0.2,0.2c0.1,0.1,0.2,0.1,0.3,0.2
		c0.8,0.6,1.9,0.9,2.9,0.7c0.5-0.1,1-0.3,1.4-0.7c0.9-0.9,1.3-2.3,0.9-3.5C204.4,106.5,203.2,105.7,201.7,105.6L201.7,105.6
		L201.7,105.6z M202.3,106.3c0.6,0,1.2,0.3,1.5,0.8c0.2,0.5,0.2,1,0.1,1.5c-0.2,0.9-0.7,1.8-1.5,2.4c-0.2,0.1-0.4,0.2-0.5,0.2
		c-0.1,0-0.2,0.1-0.2,0.1h-0.4c-0.9-0.1-1.5-1-1.4-1.9c0-0.1,0-0.2,0.1-0.4c0.2-1,0.8-1.9,1.6-2.5l0.4-0.2
		C202.1,106.3,202.2,106.3,202.3,106.3L202.3,106.3L202.3,106.3z M154.6,106.8l-0.5,0.3c-0.1,0-0.3,0.1-0.4,0.2
		c-0.1,0-0.1,0-0.2,0.1v0.1c0,0.2,0.1,0.5,0.3,0.7c0.2,0.5,0.5,1,0.7,1.5c0.1,0,0.1,0.1,0.1,0.1c0.1,0,0.1,0.1,0,0.1
		c-0.1,0,0.3,0.5,0.3,0.6c0.3,0.5,0.5,1.1,0.8,1.6l0.2,0.4c0,0.1,0.1,0.2,0.1,0.3h0c0.1,0,0.2-0.1,0.2-0.1l0.4-0.2
		c0.3-0.2,0.6-0.3,0.9-0.5c0.3-0.2,0.4-0.2,0.5-0.2l0.7-0.3c0.1,0,0.1-0.1,0.2-0.1c0,0,0-0.1,0-0.1c0,0,0,0,0,0l-0.2-0.4
		c0-0.1,0-0.1-0.1-0.2c0,0-0.1-0.1-0.1-0.1c-0.1,0.1-0.3,0.2-0.4,0.3l-0.7,0.4c-0.2,0.1-0.3,0.2-0.5,0.2c-0.1,0-0.1,0-0.2-0.1
		c-0.1-0.1-0.1-0.3-0.2-0.4c-0.2-0.2-0.3-0.5-0.4-0.8c-0.2-0.3-0.3-0.6-0.4-0.8c-0.2-0.4-0.5-0.9-0.7-1.3l-0.4-0.7
		C154.8,107.1,154.7,107,154.6,106.8C154.6,106.8,154.5,106.8,154.6,106.8L154.6,106.8L154.6,106.8z M151.9,108.3
		c-0.3,0.2-0.6,0.4-1,0.7c-0.1,0-0.1,0.1-0.2,0.1c-0.2,0.1-0.4,0.3-0.7,0.4c-0.1,0.1-0.1,0.1-0.2,0.1c-0.3,0.1-0.5,0.3-0.7,0.4
		c0.2,0.4,0.4,0.7,0.6,1c0.5,0.7,1,1.5,1.5,2.2c0.1,0.2,0.2,0.4,0.4,0.6c0.1,0.2,0.2,0.4,0.3,0.5c0.1,0.2,0.2,0.3,0.2,0.5l0.1,0.1
		h0.1c0.2-0.2,0.4-0.3,0.5-0.4l0.5-0.4c0.4-0.2,0.7-0.4,1-0.6l0.4-0.2c0.1-0.1,0.1-0.1,0.2-0.1s0.1-0.1,0-0.1c0-0.1-0.1-0.2-0.2-0.3
		c-0.1-0.1-0.1-0.1-0.1-0.2c-0.1-0.1,0-0.1-0.1-0.1h-0.1c-0.2,0.1-0.3,0.2-0.4,0.3c-0.2,0.2-0.5,0.4-0.8,0.5
		c-0.1,0.1-0.2,0.1-0.3,0.1c-0.1,0-0.1-0.1-0.2-0.1c-0.1-0.1-0.1-0.2-0.2-0.3c-0.1-0.2-0.3-0.4-0.4-0.6c-0.1-0.1-0.2-0.2-0.2-0.4
		s-0.1-0.1-0.1-0.2V112c0.1-0.1,0.2-0.1,0.3-0.2c0.1,0,0.2-0.1,0.3-0.2c0.2-0.1,0.4-0.2,0.6-0.3c0.1,0,0.3-0.1,0.4-0.2l-0.1-0.1
		c0-0.1-0.1-0.2-0.1-0.2c-0.1-0.1-0.2-0.2-0.2-0.3c-0.1,0-0.2,0.1-0.3,0.2c-0.3,0.2-0.5,0.4-0.8,0.5c-0.1,0.1-0.3,0.2-0.4,0.3h-0.1
		c-0.1-0.1-0.2-0.2-0.2-0.4c-0.1-0.1-0.1-0.2-0.2-0.2c-0.1-0.2-0.3-0.4-0.4-0.7c-0.1,0-0.1-0.1-0.1-0.2c0-0.1,0.1-0.1,0.1-0.1
		c0.1-0.1,0.2-0.1,0.4-0.2c0.2-0.2,0.5-0.4,0.8-0.5c0.1,0,0.3-0.1,0.4-0.2c0,0,0.1-0.1,0.1-0.1c-0.1-0.1-0.1-0.2-0.2-0.3
		c-0.1-0.1-0.1-0.1-0.1-0.2C152,108.4,152,108.4,151.9,108.3L151.9,108.3L151.9,108.3z M207.7,108.8l-0.3,0.3
		c-0.2,0.2-0.4,0.4-0.5,0.6c-0.4,0.4-0.7,0.8-1.1,1.2c-0.4,0.4-0.8,0.8-1.2,1.3c-0.2,0.2-0.4,0.3-0.5,0.5c-0.1,0.1-0.3,0.3-0.4,0.5
		c-0.1,0-0.1,0.1,0,0.1c0.1,0.1,0.2,0.2,0.3,0.2l0.2,0.2h0.1c0.1-0.1,0.2-0.2,0.2-0.3c0.1-0.1,0.3-0.3,0.4-0.4
		c0.2-0.3,0.4-0.6,0.7-0.8c0-0.1,0.1-0.1,0.1-0.1c0.1-0.2,0.2-0.3,0.4-0.5c0.2-0.2,0.4-0.4,0.7-0.6c0,0,0,0.1,0.1,0.1
		c0,0.1,0,0.2-0.1,0.3c0,0.2-0.1,0.4-0.1,0.6c-0.1,0.6-0.2,1.3-0.3,1.9c0,0.2,0,0.5-0.1,0.7c0,0.1,0,0.2,0,0.4c0,0.1,0,0.2,0.1,0.2
		c0,0,0,0,0.1,0c0,0.1,0.1,0.1,0.1,0.1c0.1,0,0.2,0,0.2-0.1c0.2-0.1,0.4-0.2,0.5-0.3c0.2-0.1,0.3-0.2,0.5-0.3l1.6-0.9
		c0.2-0.1,0.5-0.3,0.7-0.4c0,0,0.1,0.1,0.1,0.1c0,0.1-0.1,0.2-0.2,0.3c-0.1,0.2-0.2,0.4-0.2,0.5c-0.3,0.5-0.5,1-0.8,1.5
		c-0.1,0.1-0.2,0.2-0.2,0.4c-0.1,0.1-0.2,0.3-0.3,0.5v0.1c0.1,0.1,0.5,0.3,0.5,0.4c0.1,0.1,0.5,0.4,0.6,0.4c0.2-0.3,0.4-0.7,0.5-1
		c0.2-0.4,0.4-0.8,0.6-1.2c0.3-0.7,0.7-1.3,1-2l0.4-0.7c0.1-0.1,0.2-0.2,0.2-0.4v-0.1c-0.2-0.1-0.4-0.2-0.5-0.3
		c-0.1,0-0.2,0-0.3,0.1l-0.5,0.3c-0.7,0.4-1.3,0.8-2.1,1.2c-0.3,0.2-0.7,0.4-1.1,0.5c0-0.4,0-0.7,0.1-1.1c0.1-0.8,0.2-1.6,0.4-2.4
		c0-0.2,0.1-0.4,0.1-0.5c0-0.1,0-0.2,0.1-0.3c-0.2-0.2-0.4-0.3-0.6-0.4l0,0L207.7,108.8z M177.7,109.9h0.5v0.1c0,0-0.1,0-0.1,0.1
		c-0.1,0.1-0.2,0.2-0.4,0.1c-0.1,0-0.1-0.1-0.1-0.1C177.5,109.9,177.7,109.9,177.7,109.9L177.7,109.9z M187.1,110.5
		c0.2,0,0.4,0.1,0.5,0.2l-0.1,0.1c-0.1,0-0.3,0-0.4-0.1C187.1,110.7,187.1,110.6,187.1,110.5L187.1,110.5L187.1,110.5z M215.2,114.4
		c-0.4,0.3-0.8,0.6-1.2,0.9c-0.4,0.3-0.9,0.7-1.4,1.1c-0.5,0.4-0.7,0.5-1,0.7c-0.3,0.2-0.4,0.2-0.6,0.4c-0.1,0.1-0.2,0.1-0.3,0.2
		l-0.2,0.2v0.1c0.1,0.1,0.2,0.1,0.2,0.2c0.1,0.1,0.2,0.1,0.2,0.2h0.1c0.2-0.1,0.3-0.2,0.4-0.3c0-0.1,0.1-0.1,0.1-0.1
		c0.2-0.2,0.5-0.4,0.7-0.6c0.1-0.1,0.1-0.1,0.2-0.2l0.5-0.5c0.2-0.1,0.3-0.2,0.5-0.3c0.1-0.1,0.1-0.1,0.2-0.2c0.1-0.1,0.1-0.1,0.1,0
		c0,0.3-0.1,0.6-0.2,0.9l-0.7,2.2c-0.1,0.1-0.1,0.3-0.2,0.4c-0.1,0.1-0.1,0.2-0.1,0.4c0,0.1,0.1,0.2,0.2,0.2c0,0,0.1,0.1,0.1,0.1
		c0.2-0.1,0.4-0.2,0.6-0.2l0.5-0.2c0.2-0.1,0.5-0.2,0.7-0.2l1.1-0.4c0.3-0.1,0.6-0.2,0.9-0.2v0.1c-0.1,0.1-0.1,0.2-0.1,0.2
		c-0.2,0.2-0.3,0.4-0.4,0.5s-0.4,0.4-0.5,0.7c-0.2,0.3-0.4,0.5-0.7,0.8c-0.1,0.1-0.2,0.3-0.3,0.4c-0.1,0.1-0.1,0.1-0.2,0.2v0.1
		c0.3,0.3,0.6,0.6,1,1c0.1-0.1,0.2-0.2,0.3-0.4c0.1-0.2,0.2-0.3,0.4-0.4c0.5-0.7,1-1.5,1.6-2.1l0.5-0.7c0.1-0.1,0.2-0.3,0.4-0.4
		c0.1-0.1,0.2-0.3,0.3-0.5c0,0,0.1-0.1,0.1-0.1c-0.1-0.2-0.3-0.3-0.5-0.4c-0.3,0.1-0.5,0.2-0.8,0.3c-0.5,0.2-1.2,0.4-1.7,0.6
		c-0.5,0.1-1.1,0.3-1.6,0.5c-0.1,0-0.1,0-0.1-0.1c0-0.1,0-0.3,0.1-0.4c0.1-0.2,0.2-0.5,0.2-0.7s0.1-0.2,0.1-0.4
		c0.2-0.6,0.4-1.3,0.6-1.9c0.1-0.2,0.1-0.4,0.2-0.5c0-0.1,0-0.2,0.1-0.2c0-0.1-0.1-0.1-0.1-0.1c-0.1,0-0.1-0.1-0.2-0.1
		c-0.1-0.1-0.2-0.2-0.3-0.3l0,0L215.2,114.4z M143.2,114.9c-0.2,0.1-0.4,0.3-0.5,0.5c-0.1,0.1-0.3,0.2-0.4,0.3
		c-0.1,0.1-0.1,0.1-0.1,0.1l0.2,0.2c0.1,0.1,0.1,0.2,0.2,0.3l0.4,0.4c0.1,0.2,0.3,0.3,0.4,0.5l0.2,0.2c0.5,0.6,1.1,1.3,1.7,1.9
		c0.2,0.2,0.4,0.5,0.5,0.7c0.1,0.1,0.1,0.2,0.2,0.3l0.1,0.1h0.1l0.2-0.2c0.2-0.1,0.3-0.3,0.5-0.4c0.4-0.4,0.8-0.8,1.3-1.2
		c0.1-0.1,0.2-0.1,0.3-0.2c0.1-0.1,0.2-0.1,0.2-0.2v-0.1l-0.2-0.2c-0.1-0.1-0.1-0.1-0.2-0.2H148c-0.1,0-0.2,0.1-0.2,0.2
		c-0.2,0.2-0.4,0.5-0.7,0.7c-0.1,0.2-0.3,0.3-0.5,0.4c0,0-0.1,0-0.1-0.1c-0.1-0.1-0.2-0.2-0.3-0.4c-0.2-0.1-0.3-0.3-0.5-0.4
		c-0.3-0.4-0.6-0.7-0.9-1c-0.1-0.2-0.3-0.4-0.4-0.5c-0.1-0.1-0.3-0.3-0.4-0.4c-0.1,0-0.1-0.1-0.1-0.1c-0.1-0.2-0.3-0.4-0.4-0.5
		C143.4,115.1,143.3,115,143.2,114.9L143.2,114.9L143.2,114.9z M139.4,118.4c-0.1,0.1-0.2,0.3-0.3,0.4l-0.3,0.3v0.1
		c0,0.1,0,0.2,0.1,0.3c0.1,0.1,0.1,0.2,0.2,0.3c0.1,0.1,0.2,0.4,0.3,0.6s0.2,0.4,0.3,0.6c0.4,0.7,0.8,1.5,1.2,2.2
		c0.2,0.4,0.3,0.7,0.5,1c0.2,0.3,0.2,0.3,0.2,0.5c0,0.1,0.1,0.2,0.1,0.2h0c0.1-0.1,0.2-0.2,0.3-0.3l0.2-0.2
		c-0.1-0.2-0.2-0.4-0.4-0.6c-0.1-0.2-0.2-0.5-0.4-0.7c-0.1-0.1-0.1-0.2-0.2-0.4c0-0.1,0.1-0.3,0.2-0.4c0.2-0.2,0.3-0.4,0.5-0.5
		c0.2-0.2,0.3-0.4,0.5-0.5c0.2,0,0.3,0.1,0.5,0.1c0.3,0.2,0.6,0.3,0.9,0.4c0.1,0,0.2,0.1,0.3,0.1c0.1-0.1,0.2-0.2,0.2-0.3
		c0.1-0.1,0.2-0.2,0.3-0.4l0.4-0.4c0-0.1,0-0.1-0.1-0.1l-0.4-0.2c-0.3-0.1-0.6-0.2-0.9-0.3c-0.5-0.2-1.2-0.4-1.7-0.7l-1.5-0.5
		c-0.1-0.1-0.1-0.1-0.2-0.1c-0.2-0.1-0.5-0.2-0.8-0.3C139.7,118.5,139.6,118.4,139.4,118.4L139.4,118.4L139.4,118.4z M140,120.2
		c0.4,0.1,0.8,0.3,1.2,0.4c0.2,0.1,0.4,0.2,0.5,0.2c0.1,0,0.2,0.1,0.2,0.2c-0.1,0.1-0.1,0.2-0.2,0.2c-0.2,0.3-0.5,0.5-0.7,0.8
		c-0.1,0-0.1,0-0.1-0.1c-0.1-0.1-0.2-0.3-0.2-0.4c-0.1-0.2-0.3-0.5-0.4-0.7c-0.1,0-0.1-0.1-0.1-0.2c-0.1-0.1-0.1-0.2-0.2-0.3V120.2
		L140,120.2L140,120.2z M220.6,120.2c-0.6,0.5-1.1,1-1.8,1.5c-0.5,0.4-1,0.8-1.5,1.2c-0.1,0.1-0.3,0.1-0.4,0.2
		c-0.3,0.2-0.6,0.4-0.9,0.7c0,0,0,0.1,0.1,0.1c0.1,0.2,0.3,0.4,0.4,0.5c0.1,0.1,0.2,0.2,0.2,0.3c0,0.1,0.1,0.1,0.1,0.1
		c0,0.1,0.1,0.1,0.1,0c0.1-0.1,0.2-0.2,0.3-0.2c0.2-0.2,0.5-0.4,0.7-0.7l0.8-0.6l0.2-0.2c0.1-0.1,0.2-0.2,0.3-0.2
		c0.2-0.2,0.5-0.4,0.8-0.6c0.1-0.1,0.2-0.2,0.3-0.3l0.7-0.5c0.1,0,0.2-0.1,0.3-0.2v-0.1c-0.2-0.1-0.3-0.3-0.4-0.5
		C221,120.6,220.8,120.4,220.6,120.2C220.6,120.1,220.7,120.2,220.6,120.2L220.6,120.2L220.6,120.2z M222,123
		c-0.1,0-0.2,0.1-0.4,0.1c-0.7,0.2-1.2,0.8-1.3,1.5c0,0.3,0,0.6,0,0.9c0.2,0.5,0.2,1-0.1,1.5c-0.1,0.1-0.2,0.2-0.3,0.2
		c-0.1,0-0.1,0.1-0.2,0.1c-0.1,0-0.3,0-0.4-0.1c-0.5-0.3-0.7-0.8-0.6-1.3c0-0.1,0-0.2,0.1-0.3c0.1-0.1,0.1-0.2,0.1-0.4
		c0-0.1-0.1-0.1-0.1-0.1c-0.1,0-0.2,0.1-0.4,0.1c-0.2,0.1-0.4,0.2-0.6,0.2c0,0.1-0.1,0.1-0.1,0.1c0,0.4,0.1,0.8,0.4,1.2
		c0.4,1,1.4,1.6,2.5,1.3c0.1,0,0.2-0.1,0.4-0.1c0.5-0.2,0.9-0.7,1-1.3c0-0.3,0-0.6-0.1-0.8c-0.2-0.5-0.2-1.1,0.1-1.6
		c0.3-0.3,0.8-0.4,1.1-0.1c0.1,0.1,0.2,0.2,0.2,0.4c0.1,0.2,0.1,0.5,0,0.7c0,0.1-0.1,0.4-0.1,0.4c0,0.1,0.1,0.1,0.1,0.1
		c0.3-0.1,0.6-0.2,0.8-0.3c0.1-0.3,0-0.7-0.1-1c-0.3-0.7-0.8-1.2-1.5-1.5C222.4,123,222.2,123,222,123L222,123L222,123z
		 M136.2,123.2c-0.2,0-0.3,0.1-0.5,0.2c-0.6,0.4-1,0.9-1.3,1.5l-0.2,0.4c-0.1,0.2-0.2,0.3-0.3,0.5c-0.1,0.1-0.2,0.2-0.2,0.3v0.1
		c0.1,0.1,0.3,0.2,0.4,0.2l0.5,0.3c0.1,0.1,0.3,0.2,0.4,0.2c0.2,0.1,0.3,0.2,0.5,0.4c0.4,0.2,0.8,0.5,1.2,0.7c0.4,0.2,1,0.7,1.5,1
		c0.2,0.2,0.3,0.3,0.5,0.4c0.1-0.1,0.2-0.2,0.3-0.4c0-0.1,0.1-0.2,0.1-0.2c0.1-0.2,0.2-0.3,0.3-0.5c0-0.1-0.1-0.1-0.1-0.1
		c-0.1-0.1-0.2-0.1-0.3-0.2c-0.4-0.2-0.7-0.4-1.1-0.7c-0.2-0.1-0.4-0.2-0.6-0.4c-0.1,0-0.1,0-0.1-0.1c0.2,0,0.5,0,0.7,0
		c0.5,0,1.1,0.1,1.7,0.1c0.2,0.1,0.4,0.1,0.7,0.1h0.1v-0.1c0.1-0.1,0.1-0.2,0.2-0.2l0.2-0.4c0.1-0.1,0.2-0.2,0.3-0.4
		c0.1-0.1,0.1-0.2,0.1-0.2v-0.1c0-0.1-0.1-0.1-0.2-0.1h-1c-0.1,0-0.2,0-0.3,0h-0.5c-0.1,0-0.3,0-0.4,0h-0.6c-0.1,0-0.2,0-0.4,0
		c-0.1-0.2-0.1-0.4,0-0.6v-0.3c0-0.1,0-0.3-0.1-0.4c-0.2-0.5-0.7-0.8-1.2-0.9C136.4,123.2,136.3,123.2,136.2,123.2L136.2,123.2
		L136.2,123.2z M135.8,124.5c0.6,0,1.1,0.5,1.3,1.1c0,0.1-0.1,0.3-0.1,0.4c0,0.1-0.1,0.3-0.2,0.4c-0.3-0.1-0.6-0.3-0.9-0.5
		c-0.2-0.2-0.4-0.3-0.7-0.4c-0.1-0.1-0.2-0.1-0.2-0.2c0-0.3,0.2-0.5,0.4-0.7C135.5,124.5,135.7,124.6,135.8,124.5L135.8,124.5
		L135.8,124.5z M224.6,127.3c-0.1,0-0.2,0.1-0.4,0.1c-0.6,0.2-1,0.7-1.2,1.3c-0.1,0.3-0.1,0.7-0.1,1c0.1,0.5,0.1,0.9-0.2,1.3
		c-0.1,0.1-0.2,0.2-0.3,0.2c0,0-0.1,0-0.1,0.1c-0.2,0-0.3-0.1-0.4-0.1c-0.5-0.3-0.7-0.8-0.7-1.3c0-0.2,0.1-0.3,0.2-0.5
		c0.1-0.1,0.1-0.2,0.1-0.2c0-0.1,0-0.1,0-0.2c-0.1,0-0.3,0.1-0.4,0.1c-0.1,0-0.2,0.1-0.2,0.1c-0.1,0-0.1,0.1-0.2,0.1
		c-0.1,0-0.2,0.1-0.2,0.1l-0.1,0.1c0,0.2,0,0.4,0.1,0.6c0.2,0.9,0.8,1.7,1.7,2.1c0.9,0.3,1.9-0.2,2.2-1.1c0,0,0,0,0-0.1
		c0.1-0.1,0.1-0.2,0.1-0.3v-0.8c-0.2-0.6,0-1.2,0.5-1.6c0.2-0.1,0.4-0.1,0.6,0.1c0.4,0.3,0.5,0.9,0.4,1.3c-0.1,0.1-0.1,0.3-0.1,0.4
		c0.1,0,0.1-0.1,0.2-0.1c0.1,0,0.2-0.1,0.4-0.1c0.1,0,0.2,0,0.3-0.1c0.1-0.3,0.1-0.6,0-0.8c0-0.1-0.1-0.2-0.1-0.3
		c-0.1-0.1-0.1-0.2-0.1-0.2c-0.1,0-0.1-0.1-0.1-0.1c0-0.1,0-0.2-0.1-0.2c-0.1-0.1-0.2-0.1-0.2-0.2c-0.1-0.1-0.1-0.1-0.1-0.2
		C225.6,127.4,225,127.2,224.6,127.3L224.6,127.3L224.6,127.3z M133,127.4c-0.2,0.2-0.3,0.4-0.4,0.7c-0.2,0.5-0.5,1.1-0.8,1.6
		c-0.1,0.1-0.2,0.3-0.2,0.4c-0.1,0-0.1,0.1-0.1,0.2v0.1c0,0,0.1,0.1,0.2,0.1l0.5,0.3c0.7,0.3,1.5,0.7,2.2,1c0.4,0.2,0.7,0.4,1.2,0.7
		l1,0.5c0,0,0.1,0.1,0.2,0.1c0.1-0.1,0.1-0.1,0.1-0.2c0.1-0.1,0.2-0.3,0.2-0.5l0.4-0.7c0.1-0.1,0.1-0.3,0.2-0.4
		c0-0.2,0.1-0.3,0.2-0.5c0.1-0.1,0.1-0.2,0.1-0.3c0.1-0.1,0.1-0.1,0.1-0.2c0-0.1-0.1-0.1-0.1-0.1c0-0.1-0.2-0.1-0.3-0.1
		c-0.1-0.1-0.2-0.1-0.3-0.1l-0.1,0.1c-0.1,0.2-0.1,0.3-0.2,0.5c-0.1,0.2-0.2,0.5-0.4,0.8c-0.1,0.1-0.1,0.2-0.2,0.3
		c0,0-0.1,0.1-0.2,0c0,0,0,0,0,0l-0.4-0.2c-0.1,0-0.2-0.1-0.3-0.1c-0.1-0.1-0.1-0.1-0.2-0.1l-0.4-0.2l-0.4-0.2
		c-0.1,0-0.1-0.1-0.1-0.2l0.2-0.5c0.2-0.2,0.3-0.5,0.5-0.8c0.1-0.1,0.1-0.2,0.1-0.3c-0.1-0.1-0.2-0.1-0.4-0.2c0-0.1-0.1-0.1-0.2-0.1
		c-0.1-0.1-0.1,0.1-0.2,0.1c-0.2,0.4-0.3,0.7-0.5,1.1c0,0.1-0.1,0.2-0.2,0.4c0,0-0.1,0.1-0.2,0.1c-0.1-0.1-0.1-0.1-0.2-0.1
		c-0.2-0.1-0.4-0.2-0.5-0.3c-0.2-0.1-0.4-0.2-0.5-0.3c0,0-0.1-0.1-0.1-0.1c0-0.1,0-0.2,0.1-0.3c0.1-0.3,0.3-0.5,0.4-0.7l0.2-0.4
		c0.1-0.1,0.1-0.1,0.1-0.2v-0.1c-0.1-0.1-0.2-0.1-0.3-0.1C133.2,127.6,133.2,127.6,133,127.4L133,127.4L133,127.4z M227.6,131.2
		c-0.2,0.1-0.3,0.1-0.4,0.2l-0.4,0.2c-0.1,0-0.1,0.1-0.2,0.1s-0.2,0.1-0.3,0.2c-0.1,0-0.2,0.1-0.3,0.1l-1.7,0.7
		c-0.2,0-0.3,0.1-0.5,0.2c-0.2,0.1-0.4,0.2-0.6,0.2c-0.3,0.1-0.6,0.3-0.8,0.4c-0.1,0-0.1,0.1,0,0.1c0.1,0.2,0.1,0.3,0.2,0.5
		c0.1,0.2,0.1,0.3,0.2,0.4c0,0.1,0.1,0.2,0.1,0.2c0,0.1,0.1,0.1,0.1,0.1c0.1,0,0.3-0.1,0.4-0.2c0.1,0,0.2-0.1,0.3-0.1
		c0.2-0.1,0.3-0.2,0.5-0.2c0.9-0.4,1.8-0.8,2.7-1.2l1-0.4c0.1-0.1,0.3-0.1,0.4-0.1v-0.1c-0.1-0.1-0.1-0.3-0.2-0.4
		c-0.1-0.2-0.1-0.3-0.2-0.5c0-0.1-0.1-0.2-0.1-0.2C227.7,131.2,227.7,131.2,227.6,131.2L227.6,131.2L227.6,131.2z M132,132.2
		c-0.1,0-0.2,0.1-0.3,0.1c-0.1,0.1-0.3,0.1-0.4,0.2c-0.3,0.1-0.6,0.3-0.8,0.6c-0.2,0.3-0.4,0.5-0.5,0.8c-0.2,0.5-0.4,1-0.5,1.5
		c-0.1,0.3-0.2,0.5-0.3,0.8c-0.1,0.1-0.1,0.2-0.1,0.4c-0.1,0-0.1,0.1-0.1,0.1c0.3,0.2,0.7,0.3,1.1,0.4c1.1,0.4,2.1,0.8,3.1,1.2
		c0.4,0.2,0.8,0.3,1.2,0.4v-0.1c0-0.1,0.1-0.3,0.2-0.4c0.1-0.3,0.2-0.6,0.3-0.8c0.2-0.5,0.4-0.9,0.5-1.5c0-0.1,0-0.2,0.1-0.2
		c0-1.1-0.5-2.1-1.3-2.8l-0.4-0.2c-0.1-0.1-0.2-0.1-0.3-0.1c-0.3-0.1-0.6-0.2-0.8-0.2L132,132.2L132,132.2z M131.5,133.6h0.2
		c0.2,0,0.5,0,0.7,0.1c1.2,0.2,2.7,1.2,2.3,2.7c0,0.2-0.1,0.3-0.1,0.5c-0.1,0.2-0.1,0.3-0.2,0.4c-0.1,0-0.2-0.1-0.2-0.1
		c-0.2-0.1-0.4-0.1-0.6-0.2c-0.1,0-0.2-0.1-0.4-0.1c-0.3-0.1-0.7-0.3-1-0.4s-0.7-0.3-1.1-0.4c-0.4-0.1-0.7-0.3-1-0.5
		c0-0.2,0-0.4,0.1-0.5c0.1-0.6,0.5-1.1,1.1-1.3C131.3,133.7,131.4,133.6,131.5,133.6L131.5,133.6L131.5,133.6z M227.2,134.1
		c0,0-0.1,0.1-0.1,0.1h-0.2c-0.1,0-0.2,0.1-0.3,0.1c-0.3,0.1-0.7,0.2-1,0.4c-0.7,0.3-1.3,1-1.5,1.8c-0.1,0.4-0.1,0.8-0.1,1.2
		c0.1,1.4,1,2.5,2.3,3c0.3,0.1,0.6,0.1,0.8,0.1c1.3,0,2.5-0.7,3-1.9c0.1-0.1,0.1-0.3,0.1-0.4c0-0.1,0.1-0.1,0.1-0.2
		c0-0.4,0-0.9-0.1-1.3c-0.2-1.1-0.9-2-1.8-2.5C228.1,134.3,227.7,134.2,227.2,134.1L227.2,134.1L227.2,134.1z M227.6,135.4h0.2
		c0.4,0,0.7,0.1,1.1,0.2c0.5,0.4,0.9,1,0.8,1.6c-0.1,0.3-0.2,0.6-0.4,0.8c-0.1,0.1-0.2,0.3-0.4,0.4c-0.1,0-0.2,0.1-0.3,0.2
		c-0.4,0.2-0.7,0.3-1.1,0.5c-0.1,0-0.3,0.1-0.4,0.1h-0.4c0,0.1-0.1,0.1-0.1,0.1h-0.1c-0.5,0-0.9-0.1-1.3-0.4
		c-0.7-0.5-0.9-1.5-0.4-2.2c0,0,0,0,0,0c0.3-0.4,0.8-0.8,1.3-1l0.9-0.4C227.4,135.5,227.5,135.5,227.6,135.4L227.6,135.4
		L227.6,135.4z M128.5,137.9c-0.1,0.1-0.1,0.2-0.1,0.4c0,0.1-0.1,0.3-0.1,0.4v0.2c0,0.1-0.1,0.1-0.1,0.2c-0.1,0.3-0.2,0.5-0.2,0.8
		c-0.1,0.1-0.1,0.3-0.1,0.4c-0.1,0.2-0.2,0.5-0.2,0.7c0.1,0.1,0.3,0.2,0.4,0.2h0.1c0.8,0.2,1.6,0.4,2.4,0.7c0.8,0.2,1.3,0.4,1.9,0.7
		c0.1,0,0.2,0,0.3,0.1c0.1,0.1,0.2,0.1,0.4,0.1h0.1c0.1-0.2,0.2-0.4,0.2-0.7l0.2-0.5v-0.2c0.2-0.4,0.3-0.8,0.4-1.2
		c0.1-0.2,0.2-0.4,0.2-0.5c0,0,0-0.1-0.1-0.1c-0.1,0-0.2-0.1-0.4-0.1c-0.1,0-0.2,0-0.2-0.1c-0.1,0-0.1,0.1-0.1,0.1
		c-0.1,0.3-0.2,0.7-0.2,1c0,0.1-0.1,0.1-0.1,0.2c0,0.1-0.1,0.3-0.1,0.4c0,0-0.1,0.1-0.1,0.1c-0.1,0-0.2,0-0.2-0.1
		c-0.1,0-0.2-0.1-0.3-0.1c-0.1-0.1-0.3-0.1-0.4-0.1l-0.5-0.2c-0.1,0-0.2-0.1-0.2-0.1c-0.1,0-0.1-0.1-0.1-0.1c0-0.2,0-0.4,0.1-0.5
		c0.1-0.2,0.2-0.5,0.2-0.7c0.1-0.2,0.1-0.2,0.1-0.4c0,0,0-0.1,0-0.1c0,0,0,0,0,0c-0.1-0.1-0.2-0.1-0.4-0.1c0,0-0.1-0.1-0.2-0.1
		c-0.1-0.1-0.1,0-0.2,0.1c-0.1,0.1-0.1,0.4-0.1,0.7c-0.1,0.2-0.1,0.4-0.2,0.6c0,0.1,0,0.3-0.1,0.4c0,0.1-0.1,0.1-0.1,0.1
		c-0.1,0-0.4-0.1-0.6-0.1l-0.5-0.2c-0.1,0-0.2-0.1-0.3-0.1c-0.1,0-0.1-0.1-0.1-0.1v-0.1c0.1-0.2,0.2-0.5,0.2-0.7
		c0.1-0.2,0.2-0.5,0.2-0.8c0-0.1,0.1-0.1,0.1-0.2v-0.1c-0.1-0.1-0.2-0.1-0.4-0.1C128.8,138,128.7,137.9,128.5,137.9L128.5,137.9
		L128.5,137.9z M231.1,140.8c-0.1,0.1-0.4,0.1-0.5,0.1c-0.1,0-0.2,0-0.3,0.1c-0.2,0.1-0.3,0.1-0.5,0.1c-0.1,0-0.2,0-0.3,0.1
		c-0.2,0-0.3,0-0.5,0.1c-0.1,0-0.2,0.1-0.3,0.1c-0.1,0-0.3,0-0.4,0.1c-0.1,0-0.2,0-0.4,0.1c-0.1,0-0.2,0-0.3,0.1
		c-0.1,0-0.2,0-0.2,0.1h-0.2c-0.1,0-0.2,0.1-0.3,0.1c-0.1,0-0.1,0.1-0.2,0.1h-0.1c-0.1,0-0.2,0.1-0.4,0.1H226
		c-0.1,0-0.2,0.1-0.3,0.1c0,0.2,0,0.5,0.1,0.7c0,0,0.1,0.1,0.1,0.1c0.1,0,0.1-0.1,0.2-0.1l0.6-0.2c0.7-0.1,1.3-0.3,2-0.5
		c0.2-0.1,0.4-0.1,0.5-0.1c0.1,0,0.2,0,0.2,0c0.1,0,0.1,0,0.1,0.1c-0.1,0.3-0.2,0.5-0.4,0.7c-0.1,0.1-0.1,0.2-0.2,0.2
		c-0.3,0.4-0.6,0.8-0.8,1.2l-0.5,0.7c-0.1,0.2-0.3,0.4-0.4,0.6c-0.1,0.2-0.2,0.3-0.3,0.4c-0.1,0.1-0.2,0.2-0.2,0.3
		c0,0.1,0.1,0.2,0.1,0.4c0,0.1,0,0.2,0.1,0.3c0.3,0,0.6,0,0.8-0.1c0.2-0.1,0.4-0.1,0.5-0.1c0.4-0.1,0.9-0.2,1.3-0.3l1.7-0.4l0.9-0.2
		c0.1,0,0.2,0,0.4-0.1c0,0,0.1-0.1,0.1-0.2c0-0.2-0.1-0.3-0.2-0.5c0-0.1-0.1-0.1-0.2-0.1c-0.1,0-0.2,0.1-0.4,0.1
		c-0.1,0-0.3,0.1-0.4,0.1c0,0-0.1,0.1-0.2,0.1c-0.1,0-0.3,0-0.4,0.1c-0.2,0.1-0.3,0.1-0.5,0.1c-0.2,0.1-0.4,0.1-0.5,0.1
		c-0.1,0.1-0.2,0.1-0.4,0.1c0,0-0.1,0.1-0.2,0.1c-0.1,0-0.1,0-0.2,0.1h-0.2c-0.1,0-0.1,0-0.1-0.1c0.1-0.3,0.3-0.6,0.5-0.9
		c0.1-0.2,0.2-0.3,0.3-0.5c0.7-0.9,1.3-1.8,1.9-2.6c0.1-0.1,0.1-0.1,0.1-0.2c0-0.2-0.1-0.5-0.2-0.7h-0.2L231.1,140.8z M127.3,142.4
		c0,0.2-0.1,0.4-0.1,0.6c-0.1,0.3-0.1,0.5-0.1,0.8c-0.1,0.2-0.1,0.4-0.1,0.6c-0.1,0.2-0.1,0.4-0.1,0.6c-0.1,0.2-0.1,0.4-0.1,0.6
		c0.3,0.1,0.6,0.2,0.9,0.2l0.8,0.2l1.8,0.4c0.4,0.1,0.8,0.2,1.2,0.2c0.3,0,0.6,0.1,0.8,0.2c0.1,0,0.1,0,0.2-0.1
		c0.1-0.1,0.1-0.5,0.1-0.6c0.1-0.3,0.1-0.5,0.1-0.8c-0.4-0.1-0.8-0.2-1.3-0.2l-0.8-0.2c-0.2,0-0.4,0-0.5-0.1c0,0-0.1,0-0.1-0.1l0,0
		c0-0.2,0-0.4,0.1-0.5c0.1-0.2,0.1-0.4,0.1-0.7c0.1-0.2,0.1-0.3,0.1-0.5V143c-0.1,0-0.2,0-0.4-0.1c-0.1,0-0.2-0.1-0.3-0.1
		c0,0-0.1,0.1-0.1,0.1c-0.1,0.1,0,0.3-0.1,0.4c-0.1,0.3-0.1,0.6-0.1,0.8c0,0.2,0,0.3-0.1,0.4h-0.2c-0.1,0-0.3-0.1-0.5-0.1
		c-0.2,0-0.1-0.1-0.2-0.1l-0.7-0.2c-0.1,0-0.1-0.1-0.1-0.1c0-0.1,0-0.2,0.1-0.2c0-0.1,0.1-0.2,0.1-0.4c0-0.2,0.1-0.5,0.2-0.7
		c0-0.1,0.1-0.2,0.1-0.4c0-0.1,0-0.1-0.1-0.1c-0.1-0.1-0.2-0.1-0.4-0.1C127.5,142.5,127.4,142.4,127.3,142.4L127.3,142.4
		L127.3,142.4z M129,159.1c0,0.1,0,0.2,0,0.4v0.2c0,0.1,0.1,0.1,0.1,0.2v0.2c0,0.1,0.1,0.3,0.1,0.4c-0.1,0.2-0.4,0.3-0.6,0.4
		l-0.5,0.4c0,0.1,0.1,0.1,0.1,0.1c0.2,0.1,0.4,0.1,0.7,0.1c0.2,0,0.3,0.1,0.5,0.2c0.1,0.2,0.1,0.4,0.2,0.7c0,0.1,0.1,0.2,0.1,0.4
		c0,0.1,0,0.2,0.1,0.3l0.1-0.1c0.1-0.1,0.2-0.3,0.2-0.4c0.1,0,0.1-0.1,0.1-0.1c0.1-0.1,0.1-0.2,0.2-0.3c0-0.1,0.1-0.2,0.2-0.2
		c0.1,0,0.2,0,0.2,0c0.2,0,0.5,0.1,0.7,0.1c0.1,0,0.2,0.1,0.2,0.1c0.1,0,0.1,0,0.1-0.1c0-0.1-0.8-0.8-0.8-1c0-0.2,0.1-0.4,0.2-0.5
		c0-0.1,0.1-0.3,0.2-0.4c0.1-0.1,0.1-0.2,0.2-0.4h-0.1c-0.1,0-0.2,0-0.2,0.1c-0.1,0.1-0.2,0.1-0.3,0.1c-0.2,0.1-0.5,0.3-0.7,0.3
		c-0.1,0-0.2-0.1-0.2-0.2c-0.2-0.2-0.4-0.3-0.5-0.5C129.2,159.3,129.1,159.2,129,159.1L129,159.1L129,159.1z M229.7,159.4l-0.2,0.2
		c0,0.1-0.1,0.1-0.2,0.1c-0.1,0.2-0.3,0.4-0.5,0.4c-0.2-0.1-0.4-0.1-0.6-0.2c-0.1,0-0.2-0.1-0.2-0.1c-0.1-0.1-0.2-0.1-0.4-0.1v0.1
		c0,0.1,0.1,0.1,0.1,0.2c0,0.1,0.1,0.3,0.2,0.4c0.2,0.1,0.3,0.3,0.2,0.5c0,0.2-0.2,0.3-0.3,0.4c-0.1,0.1-0.1,0.2-0.2,0.3
		c-0.1,0.1-0.1,0.2-0.2,0.2v0.1c0.1,0.1,0.2,0.1,0.3,0c0.2,0,0.4-0.1,0.5-0.1c0.1-0.1,0.3-0.1,0.5-0.1c0.2,0.1,0.3,0.3,0.4,0.5
		c0.1,0.1,0.1,0.2,0.2,0.2c0,0.1,0.1,0.2,0.1,0.2c0,0,0.1,0,0.1,0c0,0,0,0,0,0c0.1-0.2,0.1-0.3,0.1-0.5c0-0.1,0-0.2,0.1-0.2
		c0-0.2,0-0.3,0.1-0.5c0.1-0.1,0.3-0.2,0.4-0.2c0.3,0,0.5-0.1,0.7-0.2c-0.1-0.2-0.3-0.3-0.5-0.3c-0.1-0.1-0.2-0.1-0.2-0.2
		c-0.1,0-0.2-0.1-0.2-0.1c0-0.2,0-0.3,0-0.5v-0.2c0-0.1,0-0.2,0-0.4v-0.1H229.7L229.7,159.4z M135.5,174c-0.3,0.1-0.5,0.3-0.8,0.4
		c-0.2,0.1-0.3,0.2-0.4,0.3l-1.1,0.5c-0.4,0.2-0.8,0.4-1.2,0.7c-0.6,0.4-1,1.1-1,1.9c0,0.5,0.1,0.9,0.4,1.3c0.2,0.4,0.5,0.8,0.9,1.1
		c0.3,0.2,0.7,0.3,1,0.4c0.8,0,1.5-0.3,2.2-0.7l0.7-0.4l0.4-0.2c0.3-0.2,0.6-0.3,1-0.5c0.1,0,0.2-0.1,0.3-0.2c0.1,0,0.1-0.1,0.1-0.1
		c0-0.1-0.1-0.3-0.2-0.4c-0.1-0.1-0.1-0.2-0.1-0.3l-0.1-0.1c-0.1,0-0.2,0.1-0.3,0.2c-0.3,0.2-0.6,0.3-0.8,0.5
		c-0.5,0.3-1,0.6-1.6,0.8l-0.4,0.2l-0.4,0.2c-0.1,0-0.2,0-0.2,0.1h-0.1c-0.1,0-0.1,0.1-0.1,0.1c-0.3,0-0.6,0-0.8-0.2
		c-0.5-0.3-0.7-0.8-0.7-1.4c0.1-0.3,0.2-0.5,0.3-0.7c0.1,0,0.1-0.1,0.1-0.1c0.2-0.2,0.5-0.4,0.8-0.5c0.4-0.2,0.7-0.4,1.1-0.7
		c0.2-0.1,0.3-0.2,0.5-0.2c0.2-0.1,0.4-0.2,0.5-0.2l0.4-0.2c0.1-0.1,0.4-0.1,0.5-0.2v-0.1c0-0.1-0.1-0.2-0.1-0.3
		c-0.1-0.1-0.2-0.2-0.2-0.4c-0.1-0.2-0.1-0.3-0.2-0.5C135.7,174,135.6,174,135.5,174L135.5,174L135.5,174z M221.5,176.5
		c0,0.1-0.1,0.1-0.1,0.1c0,0.1-0.1,0.2-0.1,0.2c-0.1,0.2-0.2,0.4-0.2,0.6c0.1,0.1,0.2,0.3,0.3,0.4l0.4,0.4c0.1,0.1,0.2,0.3,0.3,0.4
		c0.7,0.8,1.4,1.6,2.1,2.4c0.2,0.3,0.5,0.6,0.8,0.9c0.1,0.1,0.2,0.2,0.2,0.4c0.1,0,0.1,0,0.2,0c0.1-0.1,0.1-0.2,0.1-0.3
		c0.1-0.1,0.1-0.2,0.2-0.3c0-0.2-0.2-0.3-0.3-0.4l-0.7-0.7c-0.1-0.1-0.2-0.2-0.2-0.3c0-0.3,0.1-0.6,0.3-0.8c0-0.1,0.1-0.2,0.2-0.3
		c0.1-0.3,0.2-0.5,0.4-0.7c0.1,0,0.2,0,0.3,0.1c0.3,0,0.6,0.1,1,0.1c0.1,0,0.3,0.1,0.4,0.1c0.2-0.2,0.3-0.5,0.4-0.7
		c0.1-0.2,0.2-0.4,0.2-0.5c0-0.1,0-0.1-0.1-0.1c-0.1,0-0.4-0.1-0.6-0.1c-0.3,0-0.6,0-0.8-0.1l-1.5-0.2c-0.4,0-0.8-0.1-1.2-0.2h-0.3
		l-0.9-0.2C222.1,176.6,221.8,176.5,221.5,176.5L221.5,176.5L221.5,176.5z M222.6,178c0.2,0,0.5,0,0.7,0.1c0.1,0,0.2,0.1,0.4,0.1
		c0.2,0,0.5,0.1,0.7,0.1h0.2l0.1,0.1c-0.1,0.4-0.3,0.8-0.5,1.2c0,0-0.1,0.1-0.1,0.1c0,0-0.1,0-0.1-0.1c-0.1-0.1-0.2-0.2-0.3-0.2
		c-0.2-0.2-0.4-0.5-0.7-0.8c-0.1-0.1-0.2-0.2-0.3-0.4L222.6,178L222.6,178L222.6,178z M138.4,179.3c-1.3,0.8-2.5,1.7-3.8,2.5
		c-0.2,0.1-0.5,0.3-0.7,0.4c-0.1,0-0.3,0.1-0.4,0.2c-0.1,0-0.1,0.1-0.1,0.1c0,0.1,0.1,0.2,0.2,0.2c0.1,0.1,0.1,0.2,0.2,0.3h0.1
		c0-0.1,0.1-0.1,0.1-0.1c0.1-0.1,0.2-0.1,0.2-0.2c0.3-0.2,0.7-0.4,1-0.7c0.2-0.2,0.5-0.4,0.8-0.6c0.2-0.1,0.3-0.2,0.5-0.3
		c0.1-0.1,0.2-0.2,0.4-0.2h0.1c0,0.4-0.1,0.8-0.2,1.2c-0.1,0.3-0.2,0.6-0.2,1c-0.2,0.5-0.3,1.2-0.5,1.7c-0.1,0.3-0.1,0.5-0.2,0.8
		c0,0.1-0.1,0.2-0.1,0.4c0.1,0.3,0.2,0.5,0.4,0.7c0,0,0.1,0,0.1,0c0,0,0,0,0,0c0.3-0.2,0.6-0.4,0.8-0.6c0.7-0.4,1.3-0.8,1.9-1.2
		c0.4-0.2,0.7-0.5,1.1-0.7l0.7-0.4c0.1,0,0.3-0.1,0.4-0.2v-0.1c-0.1-0.1-0.1-0.2-0.2-0.2s-0.1-0.2-0.2-0.3h-0.1
		c-0.1,0-0.2,0.1-0.3,0.1c-0.1,0.1-0.3,0.2-0.4,0.3l-0.8,0.6c-0.2,0.1-0.5,0.3-0.7,0.4l-0.5,0.4c-0.1,0.1-0.2,0.1-0.3,0.2h-0.1
		c0-0.4,0.1-0.8,0.2-1.2c0.1-0.2,0.1-0.4,0.2-0.7c0.2-0.8,0.4-1.6,0.7-2.4c0.1-0.1,0.1-0.3,0.1-0.4c0.1-0.1,0.1-0.2,0.1-0.2v-0.1
		c-0.1-0.1-0.1-0.2-0.2-0.2L138.4,179.3C138.4,179.3,138.3,179.3,138.4,179.3L138.4,179.3L138.4,179.3z M220,179.8
		c-0.2,0.2-0.5,0.4-0.8,0.7l-0.3,0.5c-0.7,0.9-1,2-0.7,3.1c0.1,0.5,0.4,0.9,0.8,1.2c0.5,0.5,1.2,0.9,1.9,1c0.3,0,0.6,0,0.8,0
		c0.3,0,0.5-0.1,0.8-0.2c0.7-0.4,1.3-1.1,1.6-1.8c0.2-0.3,0.3-0.7,0.4-1V183c0-0.1-0.1-0.2-0.2-0.3c-0.1-0.1-0.2-0.2-0.3-0.3
		c-0.1-0.1-0.2-0.1-0.2,0.1c0,0.1,0,0.3,0.1,0.4c0,0.4-0.1,0.8-0.2,1.1c-0.2,0.4-0.5,0.7-1,0.9c-0.1,0.1-0.2,0.1-0.2,0.1
		c-0.1,0-0.2,0-0.2,0.1c-0.1,0-0.1,0-0.2,0c-0.4,0-0.8-0.1-1.2-0.2c-0.1-0.1-0.1-0.1-0.2-0.1c-0.4-0.2-0.7-0.4-1-0.7
		c-0.4-0.5-0.7-1.1-0.7-1.7c0.1-0.3,0.1-0.5,0.2-0.7c0.2-0.4,0.6-0.7,1.1-0.8c0.1,0,0.2,0,0.2-0.1c0.1,0,0.2,0,0.2,0v-0.1
		c-0.1-0.1-0.1-0.2-0.2-0.2l-0.4-0.4C220.1,179.9,220.1,179.9,220,179.8L220,179.8L220,179.8z M141.6,184.3c-0.8,0.7-1.6,1.3-2.4,2
		c-0.1,0.1-0.2,0.1-0.3,0.2l-0.3,0.2c-0.1,0.1-0.2,0.2-0.3,0.2c-0.1,0.1-0.2,0.2-0.4,0.3c-0.1,0.1-0.1,0.1-0.2,0.1l-0.3,0.2
		c-0.1,0.1-0.3,0.2-0.4,0.3v0.1c0.1,0.1,0.2,0.1,0.2,0.2c0.1,0.1,0.2,0.2,0.2,0.4c0.1,0.1,0.1,0.2,0.2,0.3c0.1,0.1,0.1,0.1,0.1,0.2
		h0.1c0.1-0.1,0.2-0.2,0.3-0.3l0.8-0.6c0.4-0.3,0.7-0.7,1.2-1c0.5-0.3,0.9-0.7,1.3-1c0.1-0.1,0.2-0.1,0.2-0.1
		c0.1-0.1,0.2-0.2,0.3-0.2c0.2,0,0.3-0.2,0.4-0.3c0.1,0,0.1-0.1,0-0.1c-0.1-0.1-0.3-0.4-0.4-0.5c-0.1-0.1-0.2-0.2-0.2-0.3
		c-0.1-0.1-0.1-0.1-0.1-0.2L141.6,184.3L141.6,184.3z M216.5,184.3c-0.1,0.1-0.1,0.1-0.1,0.2c-0.1,0.1-0.1,0.2-0.2,0.3l-0.4,0.4
		c0,0.1-0.1,0.1-0.1,0.2c0,0.1,0.1,0.1,0.1,0.1c0,0.1,0.2,0.1,0.2,0.2c0.1,0.1,0.3,0.2,0.5,0.4c0.7,0.6,1.5,1.2,2.2,1.8
		c0.2,0.2,0.4,0.3,0.5,0.4c0.1,0.1,0.3,0.2,0.4,0.4c0.1,0.2,0.3,0.3,0.5,0.5c0.1,0,0.1,0.1,0.1,0c0.1,0,0.1-0.1,0.2-0.2
		c0.1-0.1,0.1-0.2,0.2-0.3c0.2-0.1,0.3-0.3,0.5-0.5V188c-0.1-0.2-0.2-0.3-0.4-0.4c-0.2-0.1-0.4-0.3-0.6-0.5c-0.5-0.4-1-0.8-1.6-1.3
		c-0.1-0.1-0.2-0.2-0.3-0.2c-0.2-0.2-0.4-0.4-0.7-0.6l-0.2-0.2c-0.1-0.1-0.2-0.2-0.3-0.2C216.9,184.4,216.7,184.3,216.5,184.3
		L216.5,184.3L216.5,184.3z M143.1,185.9c0,0.1-0.1,0.1-0.1,0.1l-0.2,0.2c-0.1,0-0.1,0.1-0.1,0.1c0.1,0.1,0.2,0.2,0.3,0.3l0.5,0.5
		c0.1,0.1,0.2,0.1,0.2,0.2v0.1c-0.1,0.1-0.2,0.2-0.3,0.3c-0.2,0.2-0.4,0.4-0.5,0.5c-0.3,0.2-0.5,0.5-0.8,0.7
		c-0.3,0.3-0.5,0.5-0.8,0.8c-0.1,0.1-0.1,0.2-0.2,0.2c-0.2,0.2-0.4,0.3-0.5,0.4l-0.2,0.2c-0.1,0-0.2,0.1-0.2,0.2
		c-0.1,0-0.1,0.1,0,0.1c0.1,0.2,0.3,0.3,0.4,0.5c0.1,0.1,0.2,0.2,0.2,0.4l0.2,0.2h0.2c0.1-0.1,0.1-0.2,0.2-0.3
		c0.2-0.2,0.3-0.4,0.5-0.5c0.1-0.1,0.2-0.2,0.3-0.3c0.4-0.3,0.7-0.7,1.1-1c0.1-0.2,0.3-0.3,0.4-0.5c0.2-0.1,0.3-0.2,0.4-0.3
		c0.2-0.2,0.4-0.4,0.6-0.5c0-0.1,0.1-0.1,0.1-0.1c0.1,0,0.2,0.1,0.2,0.2c0.2,0.2,0.3,0.4,0.4,0.5c0.1,0.1,0.2,0.2,0.2,0.4
		c0,0,0.1,0.1,0.1,0.1c0.1,0,0.2-0.1,0.3-0.2c0.1-0.1,0.2-0.1,0.2-0.2v-0.1c-0.1-0.1-0.1-0.2-0.2-0.2c-0.1-0.1-0.4-0.3-0.5-0.5
		c-0.2-0.2-0.5-0.6-0.8-0.9c0-0.1-0.1-0.2-0.2-0.2c-0.2-0.2-0.4-0.5-0.7-0.7c-0.2-0.2-0.2-0.3-0.4-0.4
		C143.3,186.1,143.2,186,143.1,185.9L143.1,185.9L143.1,185.9z M215,186.7c0,0.1-0.1,0.1-0.1,0.1s-0.2,0.1-0.3,0.1
		c-0.7,0.4-1.2,0.9-1.7,1.6l-0.4,0.4c-0.1,0.1-0.2,0.1-0.2,0.2v0.1c0.1,0.1,0.2,0.2,0.3,0.3c0.1,0.1,0.3,0.3,0.4,0.4
		c0.2,0.2,0.4,0.3,0.5,0.5c0.4,0.5,0.8,0.9,1.3,1.4l1.5,1.5c0,0.1,0.1,0.1,0.1,0.1c0.2-0.1,0.3-0.3,0.4-0.4c0.2-0.1,0.4-0.3,0.5-0.5
		c0,0,0-0.1-0.1-0.1c-0.1-0.1-0.2-0.2-0.4-0.3l-0.9-0.9c-0.2-0.2-0.4-0.4-0.5-0.5c0-0.1,0.1-0.1,0.1-0.1c0.1,0,0.3,0.1,0.4,0.1
		l0.8,0.2c0.4,0.1,0.7,0.2,1.1,0.3c0.2,0.1,0.4,0.2,0.6,0.2c0.1-0.1,0.2-0.2,0.3-0.2c0.1-0.1,0.2-0.2,0.3-0.3c0-0.1,0.1-0.1,0.1-0.2
		c0.1-0.1,0.3-0.2,0.4-0.3c0,0,0-0.1,0-0.1c0,0,0,0,0,0c-0.1-0.1-0.2-0.1-0.4-0.1c-0.1-0.1-0.2-0.1-0.4-0.1c-0.7-0.1-1.3-0.3-2-0.4
		c-0.1-0.1-0.3-0.1-0.5-0.1c0,0-0.1-0.1-0.1-0.1c0.1-0.1,0.1-0.1,0.1-0.2c0.1-0.3,0.1-0.5,0.1-0.8c-0.1-0.6-0.5-1.1-1.1-1.3
		C215.4,186.8,215.2,186.7,215,186.7L215,186.7L215,186.7z M214.4,187.9c0.4,0,0.8,0.2,1,0.5c0,0.1,0.1,0.1,0.1,0.1
		c0.1,0.2,0.2,0.4,0.2,0.5c0,0.3-0.2,0.6-0.4,0.8c-0.3-0.2-0.5-0.4-0.7-0.7c-0.2-0.1-0.4-0.3-0.5-0.5c-0.1-0.1-0.1-0.2-0.2-0.2
		c0,0,0-0.1-0.1-0.1c0.1-0.2,0.3-0.4,0.5-0.5C214.2,187.9,214.3,187.9,214.4,187.9L214.4,187.9L214.4,187.9z M211.7,189.6
		c-0.3,0.3-0.6,0.6-1,0.8c-0.3,0.3-0.6,0.5-0.9,0.8c-0.1,0.1-0.2,0.2-0.4,0.2c-0.1,0.1-0.2,0.1-0.2,0.2c0.2,0.3,0.5,0.6,0.8,0.9
		c0.2,0.3,0.4,0.5,0.6,0.7c0.3,0.4,0.7,0.8,1,1.2c0.2,0.2,0.4,0.5,0.6,0.7c0.1,0.1,0.2,0.3,0.3,0.4c0,0.1,0.1,0.2,0.2,0.3
		c0.1,0.1,0.1,0.2,0.2,0.3h0.1c0.1,0,0.2-0.1,0.2-0.2c0.1-0.1,0.2-0.2,0.3-0.2c0.3-0.2,0.5-0.5,0.8-0.7l0.7-0.5
		c0.1-0.1,0.2-0.2,0.4-0.3c0.1-0.1,0.1-0.1,0.2-0.1v-0.1c-0.1-0.2-0.3-0.3-0.4-0.5h-0.1c-0.1,0.1-0.1,0.2-0.2,0.2
		c-0.2,0.2-0.4,0.4-0.7,0.6c-0.1,0.2-0.3,0.3-0.4,0.3c-0.1,0-0.1,0-0.1-0.1l-0.4-0.4c-0.1-0.2-0.2-0.3-0.4-0.5
		c-0.2-0.2-0.3-0.4-0.4-0.5c-0.1,0-0.1-0.1,0-0.1c0.1-0.1,0.2-0.2,0.3-0.3l0.8-0.6c0.1,0,0.2-0.1,0.3-0.2c-0.1-0.1-0.1-0.2-0.2-0.3
		c-0.1,0-0.1-0.1-0.1-0.2c0,0-0.1-0.1-0.2-0.1c-0.1,0.1-0.1,0.2-0.2,0.2c-0.2,0.2-0.5,0.5-0.7,0.7c-0.1,0.1-0.2,0.2-0.3,0.2
		c-0.1,0-0.1,0-0.2-0.1c-0.1-0.1-0.2-0.2-0.3-0.4c-0.2-0.1-0.3-0.3-0.4-0.5c-0.1-0.1-0.2-0.2-0.2-0.3v-0.2c0.1-0.1,0.2-0.1,0.3-0.2
		l0.7-0.5c0.2-0.1,0.3-0.1,0.4-0.2v-0.1c0-0.1-0.1-0.2-0.2-0.2c-0.1-0.1-0.1-0.2-0.2-0.2C211.8,189.5,211.8,189.5,211.7,189.6
		L211.7,189.6L211.7,189.6z M146.8,189.7l-0.4,0.4c-0.1,0.1-0.1,0.3-0.2,0.4c-0.1,0.1-0.3,0.3-0.4,0.4c-0.2,0.2-0.4,0.4-0.5,0.6
		c-0.3,0.4-0.7,0.8-1.1,1.3c-0.1,0.1-0.1,0.1-0.2,0.2c-0.1,0.1-0.1,0.1-0.2,0.1c-0.2,0.2-0.4,0.5-0.6,0.7c-0.1,0.1-0.2,0.1-0.2,0.2
		v0.1c0.1,0,0.1,0.1,0.1,0.1c0.1,0.1,0.2,0.2,0.4,0.3c0.5,0.4,1,0.9,1.5,1.3c0.1,0.2,0.3,0.3,0.4,0.4c0,0,0.1,0,0.1-0.1
		c0.1,0,0.1-0.1,0.2-0.2c0-0.1,0.1-0.2,0.2-0.2c0,0,0.1-0.1,0.1-0.1c-0.1-0.1-0.2-0.2-0.3-0.2c-0.3-0.2-0.6-0.4-0.8-0.7
		c-0.1-0.1-0.2-0.1-0.3-0.2c0,0,0-0.1,0.1-0.1c0.1-0.1,0.1-0.3,0.2-0.4c0.2-0.2,0.3-0.4,0.5-0.5c0.2-0.2,0.1-0.1,0.1-0.2
		c0.1-0.1,0.2-0.3,0.4-0.4h0.1c0.1,0.1,0.2,0.2,0.3,0.2l0.5,0.5l0.3,0.3l0.2,0.2h0.1c0.1-0.1,0.1-0.2,0.2-0.2
		c0.1-0.1,0.2-0.2,0.2-0.3c0,0-0.1-0.1-0.1-0.1c-0.2-0.1-0.3-0.2-0.4-0.3c-0.2-0.2-0.4-0.3-0.6-0.5c-0.1-0.1-0.2-0.2-0.3-0.3v-0.1
		c0.1-0.1,0.2-0.3,0.3-0.4c0.2-0.2,0.4-0.4,0.5-0.6c0.1-0.1,0.2-0.2,0.3-0.2c0.1,0.1,0.2,0.1,0.3,0.2c0.2,0.2,0.4,0.4,0.7,0.6
		c0.1,0.1,0.2,0.2,0.3,0.3c0,0,0.1,0.1,0.1,0.1c0.1,0,0.2-0.1,0.3-0.2c0.1,0,0.1-0.1,0.1-0.2c0.1,0,0.1-0.1,0.1-0.1
		c-0.1-0.1-0.1-0.2-0.2-0.2c-0.1,0-0.2-0.1-0.2-0.2c-0.4-0.4-0.8-0.7-1.3-1C147.3,190.3,147.1,190.1,146.8,189.7
		C146.8,189.8,146.8,189.8,146.8,189.7L146.8,189.7L146.8,189.7z M150,192.4c-0.1,0.1-0.2,0.2-0.2,0.3c-0.1,0.2-0.2,0.4-0.4,0.7
		c-0.3,0.4-0.6,0.8-0.9,1.2c-0.1,0.1-0.2,0.3-0.3,0.4c-0.2,0.3-0.4,0.6-0.7,0.9l-0.5,0.7c-0.2,0.1-0.3,0.3-0.4,0.5
		c0,0,0,0.1,0.1,0.1c0.1,0.1,0.2,0.1,0.3,0.2c0.2,0.1,0.3,0.2,0.5,0.4c0.1,0.1,0.2,0.2,0.4,0.2c0.4,0.4,0.8,0.7,1.2,0.9
		c0.1,0.1,0.3,0.1,0.4,0.2c0.3,0.1,0.6,0.2,1,0.2h0.4c0.6-0.1,1.1-0.3,1.6-0.7c0.2-0.2,0.4-0.4,0.5-0.6c0.5-0.5,0.7-1.2,0.7-1.9
		c0-0.2-0.1-0.5-0.2-0.7c-0.2-0.5-0.5-0.9-1-1.3c-0.5-0.4-1.1-0.8-1.6-1.2c-0.1-0.1-0.1-0.1-0.2-0.2c-0.1-0.1-0.2-0.1-0.3-0.2
		L150,192.4L150,192.4L150,192.4z M208.4,192.4c-0.1,0.1-0.1,0.1-0.2,0.1c-0.1,0.1-0.3,0.2-0.4,0.3c0,0.1,0,0.2,0,0.2
		c0.1,0.2,0.1,0.4,0.1,0.6c0,0.4,0.1,0.9,0.2,1.3c0,0.3,0,0.7,0.1,1c0,0.2,0.1,0.5,0.1,0.8c0,0.1,0,0.2,0,0.4v0.1
		c-0.1,0-0.2-0.1-0.3-0.2c-0.2-0.1-0.4-0.3-0.7-0.4c-0.7-0.4-1.4-0.8-2.1-1.2c-0.1-0.1-0.3-0.2-0.4-0.3c-0.1-0.1-0.2-0.1-0.4-0.2
		c-0.1,0-0.2,0.1-0.3,0.2c-0.1,0-0.2,0.1-0.3,0.2v0.2c0.1,0.3,0.3,0.6,0.5,0.9c0.5,1.1,1,2.1,1.5,3.2c0.1,0.2,0.2,0.4,0.3,0.7
		c0.1,0.2,0.1,0.3,0.2,0.4c0,0,0,0.1,0.1,0.1l0,0c0.1-0.1,0.2-0.1,0.3-0.2c0.1-0.1,0.2-0.1,0.3-0.2v-0.1c-0.1-0.1-0.1-0.2-0.2-0.3
		c-0.1-0.1-0.2-0.3-0.2-0.4c-0.2-0.5-0.6-1-0.8-1.6c-0.1-0.2-0.1-0.3-0.2-0.5l-0.2-0.4v-0.1c0.3,0.1,0.6,0.2,0.8,0.4l0.5,0.3
		c0.6,0.3,1.2,0.6,1.8,1l0.4,0.2c0.1,0.1,0.1,0.1,0.2,0.1c0.1,0,0.1-0.1,0.2-0.1c0,0,0.1-0.1,0.1-0.1V199c-0.1-0.3-0.1-0.7-0.2-1
		c0-0.4,0-0.7-0.1-1.1c-0.1-0.4-0.1-0.7-0.1-1c-0.1-0.3-0.1-0.6-0.1-0.9V195c0.1-0.1,0.1,0,0.1,0c0.1,0,0.1,0.1,0.1,0.2l0.4,0.4
		c0.5,0.6,1,1.2,1.4,1.8c0.1,0.1,0.1,0.1,0.2,0.2c0.1,0.1,0.1,0.2,0.2,0.2h0.1c0.1-0.1,0.2-0.2,0.4-0.2c0.1-0.1,0.2-0.2,0.3-0.2
		c0.1-0.1,0.3-0.1,0.4-0.2v-0.2c-0.1-0.2-0.3-0.4-0.5-0.5c0-0.1-0.1-0.1-0.1-0.1c0-0.1-0.2-0.2-0.3-0.4c-0.2-0.1-0.3-0.3-0.4-0.5
		c-0.3-0.3-0.6-0.6-0.8-1c-0.3-0.4-0.6-0.7-0.9-1c-0.1-0.2-0.3-0.4-0.5-0.6c-0.1-0.1-0.2-0.3-0.3-0.4L208.4,192.4L208.4,192.4z
		 M150.9,193.8c0.2,0,0.4,0.1,0.5,0.2c0.8,0.4,1.1,1.3,0.8,2.1c-0.2,0.8-0.8,1.5-1.5,2l-0.4,0.2c-0.1,0-0.2,0-0.2,0.1h-0.3
		c-0.2,0-0.4-0.1-0.6-0.1c-0.4-0.2-0.7-0.4-1-0.7c0.1-0.1,0.1-0.3,0.2-0.4l0.4-0.5c0.5-0.8,1.1-1.5,1.6-2.2c0.1-0.2,0.2-0.3,0.4-0.5
		C150.8,193.9,150.8,193.8,150.9,193.8L150.9,193.8L150.9,193.8z M200.7,197.2c-0.2,0.1-0.4,0.2-0.5,0.3c-0.1,0.1-0.1,0.1-0.2,0.1
		c0,0-0.1,0-0.1,0.1c0,0.1,0,0.2,0.1,0.4c0,0.3,0,0.6,0.1,0.9c0.1,0.4,0.1,0.7,0.1,1.1c0.1,0.7,0.2,1.4,0.2,2.1
		c0.1,0.4,0.1,0.9,0.1,1.3c0,0.1,0.1,0.3,0.1,0.4c0,0.1,0,0.1,0.1,0.1c0.1,0,0.3-0.1,0.4-0.2c0.1,0,0.2-0.1,0.3-0.2
		c0-0.1,0-0.3-0.1-0.4c0-0.3-0.1-0.5-0.1-0.8c0-0.2-0.1-0.4-0.1-0.5c0-0.1,0.1-0.1,0.1-0.1c0.2-0.1,0.3-0.2,0.5-0.3
		c0.3-0.2,0.6-0.3,0.9-0.5c0.1,0,0.1-0.1,0.2-0.1c0.2,0,0.3,0.1,0.4,0.3c0.2,0.2,0.4,0.4,0.6,0.5l0.4,0.4h0.1c0.1,0,0.3-0.1,0.4-0.2
		c0.1-0.1,0.3-0.2,0.4-0.3c0.1-0.1,0.4-0.2,0.5-0.2c0.1-0.1,0-0.1-0.1-0.1c-0.3-0.3-0.7-0.6-1-0.9c-0.1-0.1-0.2-0.2-0.3-0.3
		c-0.1,0-0.1-0.1-0.1-0.1c-0.1-0.1-0.2-0.2-0.4-0.2c-0.6-0.6-1.2-1.1-1.8-1.7c-0.2-0.1-0.3-0.3-0.4-0.4
		C201.1,197.4,200.9,197.3,200.7,197.2L200.7,197.2L200.7,197.2z M158.3,197.9c-0.1,0-0.3,0.1-0.4,0.1c-0.2,0.1-0.4,0.2-0.5,0.4
		c-0.1,0.1-0.1,0.2-0.2,0.3c-0.1,0.1-0.2,0.3-0.2,0.4c-0.1,0.4-0.1,0.8,0.1,1.2c0.1,0.3,0.3,0.6,0.5,0.8c0.3,0.3,0.5,0.7,0.7,1.1
		c0.1,0.3-0.1,0.6-0.4,0.8c-0.1,0-0.1,0-0.2,0.1h-0.1c-0.6,0-1.2-0.4-1.3-1c0-0.2,0-0.3-0.1-0.5H156c-0.3,0.3-0.5,0.6-0.7,1
		c0.2,0.3,0.4,0.5,0.7,0.7c0.8,0.7,2.1,0.7,3,0.1c0.3-0.3,0.5-0.6,0.5-1c0.3-1-0.4-1.6-1-2.2c-0.3-0.3-0.4-0.7-0.3-1
		c0.1-0.4,0.6-0.6,1-0.4c0.1,0.1,0.3,0.1,0.4,0.3c0.1,0.1,0.2,0.2,0.2,0.4c0,0.1,0.1,0.2,0.1,0.3c0,0.1,0,0.2,0.1,0.3
		c0.1,0.1,0.1,0.1,0.1,0c0.1,0,0.1-0.1,0.1-0.1l0.4-0.4l0.2-0.1c0-0.1,0-0.2-0.1-0.3l-0.2-0.2c-0.5-0.5-1.3-0.8-2-0.8L158.3,197.9
		L158.3,197.9z M200.7,199.1c0.3,0.1,0.6,0.3,0.8,0.6l0.5,0.5c0.1,0.1,0.2,0.1,0.2,0.2c0.1,0.1,0.1,0.1,0,0.1c0,0.1-0.1,0.2-0.2,0.2
		l-0.7,0.4c-0.1,0-0.1,0.1-0.2,0.1c-0.1,0-0.1,0-0.2-0.1c-0.1-0.1-0.1-0.3-0.1-0.4v-0.5c-0.1-0.3-0.1-0.6-0.1-1
		C200.6,199.2,200.6,199.1,200.7,199.1C200.7,199.1,200.7,199.1,200.7,199.1L200.7,199.1L200.7,199.1z M161.6,199.1
		c-0.1,0.1-0.1,0.2-0.1,0.4c0,0.1-0.1,0.2-0.1,0.4c0.2,0.1,0.4,0.2,0.6,0.2l0.5,0.2c0.1,0,0.2,0.1,0.3,0.1c0,0.1,0,0.2-0.1,0.3
		c-0.1,0.2-0.1,0.4-0.2,0.6c-0.2,0.6-0.4,1.2-0.7,1.8c-0.1,0.2-0.1,0.4-0.2,0.7c-0.1,0.3-0.1,0.3-0.2,0.4c-0.1,0.1-0.2,0.5-0.3,0.8
		c0,0.1-0.1,0.1-0.1,0.2s0,0.1,0.1,0.1c0.2,0.1,0.3,0.1,0.5,0.2c0.1,0,0.2,0,0.3,0.1c0.2,0.1,0.3,0.1,0.5,0.1c0,0,0.1-0.1,0.1-0.2
		c0.1-0.1,0.1-0.2,0.1-0.4c0.1-0.1,0.1-0.4,0.2-0.6c0.1-0.4,0.2-0.8,0.4-1.2c0.1-0.4,0.2-0.8,0.4-1.2c0-0.1,0-0.2,0.1-0.2
		c0.1-0.2,0.2-0.4,0.2-0.7c0-0.1,0.1-0.2,0.1-0.3c0.1-0.1,0.2-0.1,0.3,0c0,0,0,0,0,0c0.1,0,0.2,0,0.3,0.1c0.3,0.1,0.5,0.2,0.8,0.3
		v-0.1c0.1-0.2,0.2-0.4,0.2-0.5c0-0.1-0.1-0.1-0.1-0.2c0-0.1-0.2,0-0.2,0l-0.5-0.2c-0.2-0.1-0.5-0.2-0.8-0.2c-0.5-0.2-1-0.4-1.5-0.5
		c-0.2-0.1-0.4-0.2-0.7-0.2C161.9,199.2,161.8,199.2,161.6,199.1L161.6,199.1L161.6,199.1z M195.6,199.5L195.6,199.5
		c-0.1,0.1-0.3,0.1-0.4,0.2c-0.2,0-0.3,0.1-0.5,0.1c-0.2,0-0.3,0.1-0.5,0.2c-0.1,0-0.2,0.1-0.4,0.1c0,0-0.1,0.1-0.2,0.1
		c-0.2,0-0.3,0.1-0.5,0.2c-0.2,0-0.3,0.1-0.5,0.1h-0.2l-0.1,0.1c0,0.2,0,0.3,0.1,0.5l0.2,0.5c0,0.1,0,0.2,0.1,0.3
		c0.1,0.2,0.1,0.4,0.2,0.6c0.1,0.4,0.2,0.8,0.3,1.2c0.1,0.4,0.2,0.6,0.3,0.8c0,0.2,0.1,0.5,0.2,0.7c0.1,0.3,0.1,0.6,0.2,0.8
		c0,0,0.1,0.1,0.1,0.1c0.1,0,0.2,0,0.4-0.1c0.1-0.1,0.2-0.1,0.2-0.1c0.2,0,0.5-0.1,0.7-0.2v-0.1l-0.2-0.5c-0.1-0.3-0.2-0.7-0.4-1
		c-0.1-0.3-0.2-0.6-0.2-0.9v-0.1c0.1-0.1,0.2-0.2,0.4-0.2c0.3,0,0.5-0.1,0.8-0.2c0.2,0,0.3,0,0.5-0.1c0.1,0,0.1,0,0.1-0.1
		c0-0.1-0.1-0.2-0.1-0.4v-0.2c-0.1,0-0.1-0.1-0.1-0.1h-0.1c-0.4,0.1-0.7,0.3-1.1,0.4c-0.1,0-0.2,0.1-0.4,0.1h-0.1
		c-0.1,0-0.1,0-0.2-0.1c-0.2-0.5-0.3-1-0.4-1.6c0.4-0.2,0.8-0.3,1.2-0.4c0.1-0.1,0.5-0.1,0.5-0.1c0,0,0.1-0.1,0.1-0.1
		c0-0.1-0.1-0.2-0.1-0.3c0-0.1,0-0.2-0.1-0.3C195.7,199.6,195.7,199.5,195.6,199.5L195.6,199.5L195.6,199.5z M167.2,200.9
		c-0.1,0.1-0.1,0.2-0.2,0.4c-0.1,0.3-0.3,0.5-0.5,0.7l-0.4,0.5c-0.3,0.5-0.7,1.1-1.1,1.6c-0.2,0.3-0.4,0.6-0.6,0.8
		c-0.1,0.2-0.2,0.3-0.3,0.5c-0.1,0.2-0.2,0.3-0.4,0.4c-0.1,0.1-0.1,0.2-0.1,0.2c-0.1,0-0.1,0.1,0,0.1c0.1,0,0.2,0.1,0.4,0.1
		c0.1,0.1,0.2,0.1,0.4,0.1c0,0,0.1-0.1,0.1-0.1c0.1-0.2,0.1-0.3,0.2-0.4c0.1-0.3,0.3-0.5,0.4-0.8c0-0.1,0.1-0.2,0.2-0.3
		c0.2,0,0.5,0,0.7,0.1c0.3,0.1,0.7,0.1,1,0.2c0.1,0,0.1,0.1,0.2,0.1v0.4c0.1,0.4,0.1,0.7,0.1,1v0.4c0,0.1,0,0.1,0.1,0.1
		c0.1,0,0.2,0.1,0.3,0.1c0.2,0,0.3,0.1,0.5,0.1c0.2,0,0.1,0.1,0.2,0.1c0.1,0,0.3,0.1,0.4,0.1c0.1,0,0.1-0.1,0.1-0.1
		c0-0.1-0.1-0.4-0.1-0.5l-0.2-1.3c-0.1-0.7-0.2-1.4-0.2-2.1c-0.1-0.3-0.1-0.6-0.1-0.9c0-0.2,0-0.4-0.1-0.5v-0.5c0-0.1,0-0.2-0.1-0.3
		c-0.1,0-0.3-0.1-0.4-0.1L167.2,200.9L167.2,200.9L167.2,200.9z M189.7,201.2c-0.1,0.1-0.2,0-0.4,0.1h-0.2c-0.1,0-0.2,0-0.2,0.1
		h-0.1c-0.1,0-0.1,0-0.1,0.1c-0.1,0-0.2,0-0.3,0.1c-0.1,0-0.3,0.1-0.4,0.1c-0.1,0-0.2,0.1-0.3,0.1c-1.2,0.6-1.8,1.9-1.5,3.2
		c0.1,1.1,0.8,2.1,1.8,2.5c0.4,0.2,0.8,0.2,1.2,0.2c1.5,0.1,2.8-0.8,3.3-2.1c0.1-0.3,0.2-0.6,0.2-0.8v-0.4c0-0.4-0.1-0.8-0.3-1.2
		c0-0.1-0.1-0.3-0.1-0.4c-0.1-0.2-0.2-0.4-0.4-0.5l-0.4-0.4C191,201.3,190.4,201.1,189.7,201.2L189.7,201.2L189.7,201.2z
		 M169.5,201.5c-0.1,0.1-0.1,0.3-0.1,0.4c-0.1,0.1-0.1,0.2-0.1,0.3c0.1,0.1,0.2,0.1,0.4,0.1c0.1,0,0.2,0.1,0.4,0.1
		c0.2,0,0.3,0.1,0.5,0.1c0.1,0,0.2,0.1,0.2,0.1c0,0,0.1,0.1,0.1,0.1c0,0.1,0,0.3,0,0.4c-0.1,0.3-0.1,0.7-0.2,1
		c-0.1,0.3-0.1,0.5-0.1,0.7c-0.1,0.2-0.1,0.5-0.1,0.7l-0.2,0.9c-0.1,0.3-0.1,0.7-0.2,1c0,0.1,0,0.2-0.1,0.3l0.1,0.1
		c0.2,0.1,0.4,0.1,0.5,0.1c0.1,0,0.2,0.1,0.4,0.1c0.1,0.1,0.3,0.1,0.4,0.1l0.1-0.1c0.1-0.1,0-0.2,0.1-0.4c0-0.3,0.1-0.6,0.1-0.8
		c0.1-0.9,0.3-1.8,0.5-2.7c0-0.2,0.1-0.5,0.1-0.7c0-0.1,0-0.2,0.1-0.4c0-0.1,0.1-0.1,0.1-0.1c0.1,0,0.2,0,0.2,0.1
		c0.2,0,0.4,0.1,0.5,0.1c0.1,0,0.2,0.1,0.2,0.1c0.1,0,0.2,0.1,0.4,0.1c0.1,0,0.1,0,0.1-0.1c0-0.1,0-0.2,0.1-0.3
		c0-0.1,0.1-0.2,0.1-0.2c0,0,0-0.1-0.1-0.1c-0.1,0-0.2-0.1-0.3-0.1c-0.2-0.1-0.5-0.1-0.7-0.1c-0.2,0-0.4-0.1-0.5-0.1l-2-0.4
		C170.1,201.6,169.8,201.5,169.5,201.5L169.5,201.5L169.5,201.5z M189.3,201.8c0.3,0,0.5,0.1,0.7,0.2c1,0.8,1.4,2.1,1.2,3.4
		c0,0.3-0.2,0.6-0.4,0.9c-0.2,0.2-0.4,0.4-0.6,0.5c-0.1,0-0.1,0.1-0.2,0.1s-0.1,0-0.1,0.1h-0.7c-0.6-0.2-1-0.7-1.2-1.3
		c-0.1-0.2-0.1-0.3-0.2-0.5c-0.3-0.8-0.3-1.8,0.1-2.6c0.2-0.4,0.6-0.7,1.1-0.7C189.1,201.8,189.2,201.8,189.3,201.8L189.3,201.8
		L189.3,201.8z M181.1,202.3c-0.1,0-0.2,0-0.4,0.1c-0.3,0-0.5,0.1-0.8,0.2c-0.8,0.4-1.2,1.4-0.7,2.3c0,0,0,0,0,0
		c0.4,0.6,1,1,1.7,1.2c0.2,0.1,0.3,0.2,0.5,0.3c0.1,0.1,0.2,0.1,0.2,0.2c0.2,0.3,0.1,0.7-0.1,0.9c-0.1,0.1-0.2,0.2-0.4,0.2
		c0,0-0.1,0.1-0.1,0.1h-0.2c-0.4,0-0.8-0.2-1-0.5c-0.1-0.1-0.1-0.2-0.2-0.2c-0.1-0.1-0.2-0.1-0.2-0.1c-0.1,0.2-0.1,0.3-0.1,0.5
		c-0.1,0.2-0.1,0.3-0.1,0.5c0,0.1,0,0.2,0.1,0.2c0.2,0.1,0.4,0.2,0.6,0.2c0.9,0.2,1.8,0,2.5-0.6c0.1-0.1,0.2-0.1,0.2-0.2
		c0.1-0.2,0.2-0.5,0.3-0.7c0-0.3,0-0.7-0.1-1c-0.2-0.4-0.5-0.8-1-1c-0.5-0.2-1.5-0.4-1.6-1.1c0-0.1,0-0.3,0-0.4
		c0.2-0.4,0.8-0.6,1.2-0.4c0.3,0.1,0.5,0.3,0.7,0.5c0.1,0.1,0.2,0.2,0.2,0.1c0.1-0.2,0.1-0.4,0.1-0.5c0.1-0.1,0.1-0.2,0.1-0.4
		c0-0.1-0.1-0.2-0.2-0.2C182,202.3,181.6,202.2,181.1,202.3L181.1,202.3L181.1,202.3z M175,202.3c-0.1,0.3-0.1,0.6-0.1,1v0.4
		c0,0.4-0.1,0.9-0.1,1.3c-0.1,0.6-0.1,1.3-0.1,1.9c-0.1,0.3-0.1,0.6-0.1,0.8c0,0.1-0.1,0.2-0.1,0.4c0,0,0,0.1,0.1,0.1h1
		c0.5,0.1,1,0.1,1.6,0.1c0.2,0.1,0.4,0.1,0.6,0.1h0.1c0,0,0-0.1,0.1-0.1l0,0v-0.7c-0.1,0-0.2-0.1-0.2-0.1c0,0-0.1,0-0.1,0.1h-0.5
		c-0.1,0-0.2,0-0.4,0c-0.2,0-0.4,0-0.6-0.1c-0.1,0-0.1-0.1-0.1-0.1V207c0.1-0.4,0-0.8,0.1-1.2c0-0.1,0-0.2,0.1-0.3
		c0.5-0.1,1.1,0,1.6,0.1c0.1,0,0.2,0,0.2,0c0.1,0,0.1,0,0.1-0.1v-0.3c0-0.1,0.1-0.2,0.1-0.2v-0.1c-0.1-0.1-0.2-0.1-0.2-0.1h-0.2
		c-0.1,0-0.2,0-0.3,0h-0.4c-0.3,0-0.5,0-0.8-0.1c0-0.1-0.1-0.1-0.1-0.1c0-0.1,0.1-0.3,0.1-0.4c0-0.4,0-0.8,0.1-1.2
		c0.1,0,0.2,0,0.3,0c0.2,0,0.4,0,0.7,0.1h0.2c0.2,0,0.4,0.1,0.6,0.1h0.1c0-0.1,0-0.2,0-0.3c0-0.1,0.1-0.2,0.1-0.3c0,0,0-0.1-0.1-0.1
		c-0.1,0-0.3,0-0.4,0c-0.2,0-0.5-0.1-0.7-0.1h-0.9c-0.2,0-0.5-0.1-0.7-0.1S175.2,202.3,175,202.3L175,202.3L175,202.3z M166.9,202.6
		c0,0,0.1,0,0.1,0.1c0,0.1,0.1,0.4,0.1,0.5c0,0.4,0.1,0.7,0.1,1.1v0.2c0,0.1,0,0.1-0.1,0.1c0,0,0,0-0.1,0c-0.1,0-0.2-0.1-0.4-0.1
		c-0.3-0.1-0.5-0.1-0.8-0.2c-0.1,0-0.1,0-0.1-0.1v-0.1c0.1-0.1,0.2-0.2,0.2-0.3c0.2-0.3,0.4-0.6,0.6-0.9
		C166.7,202.8,166.8,202.7,166.9,202.6L166.9,202.6L166.9,202.6z"/>
	<path class="st7" d="M180.2,109.9L180.2,109.9c-0.1,0.2-0.2,0.3-0.2,0.4c-0.1,0.1-0.1,0.2-0.1,0.3c-0.1,0.1-0.1,0.3-0.2,0.4
		c-0.1,0.2-0.2,0.4-0.2,0.6c0.1,0.2,0.2,0.3,0.3,0.4c0.1,0.1,0.2,0.2,0.4,0.2c0.1,0.1,0.2,0.2,0.3,0.3c0.1,0.1,0.2,0.1,0.3,0.2
		c0.3,0.3,0.7,0.6,1,0.9l0.1,0.1c0,0.1-0.1,0.1-0.1,0.1h-0.2c-0.2,0-0.3,0-0.5-0.1c-0.2,0-0.4,0-0.7-0.1c-0.3,0-0.6,0-1-0.1h-0.6
		c-0.2,0.2-0.3,0.4-0.4,0.7c0,0.2-0.1,0.3-0.2,0.5c0,0.1,0,0.1-0.1,0.2c-0.1,0.1-0.1,0.2-0.1,0.4c-0.1,0.1-0.1,0.1-0.1,0.2
		c-0.1,0.1-0.1,0.2-0.1,0.4c0,0.1-0.1,0.2-0.2,0.3c0,0.1-0.1,0.1-0.1,0.1c-0.2,0.1-0.3-0.5-0.3-0.7s-0.1-0.4-0.2-0.6v-0.2
		c0,0-0.1-0.1-0.1-0.2c-0.1-0.1-0.1-0.2-0.1-0.4c0-0.3-0.1-0.6-0.3-0.9c-0.3-0.1-0.6-0.1-0.9-0.1c-0.4-0.1-0.9-0.1-1.3-0.1
		c-0.3,0-0.5-0.1-0.8-0.2c0-0.1,0-0.1,0.1-0.1c0.1-0.1,0.2-0.2,0.4-0.3c0.2,0,0.3-0.1,0.4-0.2c0.4-0.2,0.8-0.5,1.2-0.7
		c0.2-0.1,0.4-0.2,0.5-0.4c0-0.1-0.1-0.5-0.1-0.7c0-0.2-0.1-0.4-0.2-0.5c0-0.1-0.1-0.1-0.1-0.1c-0.1,0-0.2,0-0.4,0.1
		c-0.2,0-0.4,0-0.6,0.1c-0.9,0.1-1.8,0.2-2.7,0.4c-0.2,0.1-0.4,0.1-0.7,0.1c-0.2,0.1-0.4,0.1-0.7,0.1c-0.2,0.1-0.3,0.1-0.5,0.1
		c0.1,0.1,0.2,0.2,0.3,0.3c0.2,0.2,0.4,0.3,0.5,0.5c0.2,0.2,0.5,0.4,0.7,0.6c0.3,0.2,0.5,0.4,0.7,0.6c0,0.1,0.1,0.1,0.1,0.2
		c-0.2,0.1-0.5,0.2-0.8,0.1c-0.2,0-0.4,0-0.7-0.1h-0.6c-0.2,0-0.5-0.1-0.7-0.1c-0.2-0.1-0.4-0.1-0.5,0c-0.1,0.1-0.2,0.3-0.2,0.5
		c-0.1,0.3-0.3,0.6-0.4,0.9c0,0.1-0.1,0.2-0.1,0.3c0,0.1-0.1,0.1-0.1,0.2c-0.1,0.1-0.1,0.2-0.1,0.3c-0.1,0.2-0.2,0.3-0.2,0.5
		c0,0.1-0.1,0.2-0.1,0.2c0,0-0.1,0.1-0.1,0.1c-0.1-0.2-0.2-0.5-0.2-0.8c-0.1-0.1-0.1-0.3-0.1-0.5c-0.1-0.4-0.1-0.7-0.2-1l-0.2-0.7
		c0-0.1-0.1-0.1-0.2-0.1c-0.2-0.1-0.4-0.1-0.6-0.1c-0.4,0-0.7-0.1-1.1-0.1c-0.2,0-0.4-0.1-0.5-0.1h-0.3c-0.1,0.1-0.2,0.1-0.4,0.1
		c-0.5,0.2-1,0.4-1.4,0.6c-1.1,0.4-2,0.9-3.1,1.4c-0.4,0.2-0.8,0.4-1.2,0.6c-0.1,0.1-0.3,0.2-0.4,0.3c-0.5,0.2-0.9,0.5-1.4,0.8
		c-0.2,0.1-0.3,0.2-0.5,0.3c-0.5,0.3-1,0.6-1.4,1c-0.1,0.1-0.3,0.1-0.4,0.2c-0.1,0-0.2,0.1-0.2,0.2c-0.1,0.1,0,0.1,0.1,0.2
		c0.2,0.2,0.4,0.4,0.6,0.6c0.2,0.1,0.3,0.3,0.5,0.4c0.1,0.1,0.1,0.2,0.2,0.2c0.1,0.1,0.3,0.2,0.4,0.4c0.1,0,0.1,0.1,0,0.1
		c-0.1,0.1-0.2,0.1-0.3,0.1c-0.2,0-0.5-0.1-0.7-0.1c-0.5-0.1-0.9-0.1-1.4-0.1c-0.2,0-0.4,0-0.7,0c-0.1,0.1-0.2,0.2-0.2,0.3
		c0,0,0,0.1-0.1,0.1c0,0.1-0.1,0.1-0.1,0.2c0,0.1-0.1,0.3-0.2,0.4c-0.1,0.2-0.1,0.4-0.2,0.6c-0.1,0.1-0.1,0.3-0.2,0.4
		c-0.1,0.1-0.1,0.1-0.1,0.2c-0.1,0.1-0.1,0.2-0.1,0.3c-0.1,0.1-0.1,0.1-0.1,0.2c-0.1,0.1-0.1,0.1-0.1,0.1c-0.1,0-0.1-0.1-0.1-0.1
		c-0.1-0.2-0.2-0.4-0.2-0.7c0-0.1-0.1-0.2-0.1-0.3s-0.1-0.5-0.2-0.8c0,0-0.1-0.2-0.1-0.1c-0.1,0.1-0.2,0.1-0.3,0.2
		c-0.1,0.1-0.3,0.2-0.4,0.3c-0.5,0.4-1,0.9-1.5,1.4c-0.3,0.3-0.7,0.6-0.9,0.9l-0.3,0.3l-0.2,0.4c0,0.1-0.1,0.2-0.1,0.2
		c-0.1,0.1-0.1,0.1-0.1,0.2c-0.1,0.3-0.3,0.6-0.4,0.9c-0.1,0.2-0.1,0.3-0.1,0.5c0.1,0.2,0.3,0.4,0.5,0.5c0.4,0.4,0.8,0.8,1.3,1.1
		c0.2,0.2,0.4,0.4,0.4,0.6c-0.2,0.1-0.5,0.1-0.7,0c-0.2,0-0.4,0-0.6-0.1c-0.4,0-0.8,0-1.2-0.1c-0.2,0-0.4,0-0.5,0
		c-0.1,0.2-0.2,0.3-0.3,0.5c-0.1,0.3-0.2,0.5-0.4,0.8c0,0-0.1,0.1-0.1,0.1c0,0.1,0,0.2-0.1,0.2l-0.2,0.4c0,0.1-0.1,0.2-0.1,0.2
		c-0.1,0.1-0.1,0.5-0.3,0.4c-0.1,0-0.1-0.1-0.1-0.2l-0.4-1.5c0-0.2-0.1-0.5-0.2-0.7c0,0,0-0.1-0.1,0c-0.1,0.1-0.2,0.2-0.2,0.4
		c-0.1,0.1-0.2,0.3-0.4,0.4c-0.4,0.6-0.8,1.3-1.2,1.9c0,0.1-0.1,0.2-0.2,0.3c-0.1,0.1-0.1,0.3-0.2,0.4c-0.2,0.4-0.4,0.7-0.5,1
		L140,134c-0.1,0.1-0.1,0.2-0.2,0.4c0.1,0.2,0.3,0.4,0.5,0.5c0.2,0.2,0.5,0.4,0.7,0.6c0.2,0.2,0.4,0.4,0.6,0.5
		c0.1,0.1,0.1,0.1,0.2,0.2c-0.1,0-0.2,0.1-0.2,0.1c-0.3,0-0.5,0-0.8-0.1c-0.4,0-0.7,0-1.1-0.1h-0.4c-0.1,0-0.2-0.1-0.2,0
		c-0.2,0.3-0.4,0.6-0.5,1c-0.1,0.2-0.2,0.4-0.2,0.5c-0.4,1.1-0.8,2.2-1.2,3.3c-0.2,0.6-0.3,1.2-0.5,1.8c-0.2,0.6-0.3,1.3-0.4,2
		c0,0.1-0.1,0.2-0.1,0.2c0.2-0.1,0.3-0.2,0.5-0.3c0.4-0.2,0.9-0.5,1.3-0.8c0.1,0,0.2,0,0.2-0.1l0.6-0.4c0,0,0.1-0.1,0.1-0.2
		c0-0.2-0.1-0.4-0.1-0.5l-0.4-1.6c-0.1-0.2-0.1-0.5-0.1-0.7c0.3,0,0.5,0.2,0.7,0.4c0.1,0.1,0.2,0.1,0.2,0.1c0.1,0.2,0.3,0.3,0.5,0.4
		c0.1,0.1,0.2,0.1,0.2,0.2c0.2,0.2,0.4,0.3,0.5,0.5c0.1,0.1,0.1,0.1,0.2,0.2c0.2,0,0.4-0.1,0.5-0.2c0.1-0.1,0.2-0.1,0.3-0.1
		c0.1-0.1,0.1-0.1,0.2-0.2l0.5-0.4c0.2-0.1,0.3-0.2,0.5-0.2c0-0.1,0.1-0.1,0.2-0.1c0,0,0.1-0.1,0.2-0.1c0.1,0.1,0.2,0.2,0.2,0.3
		c0,0.1,0,0.3-0.1,0.4c-0.1,0.4-0.3,0.7-0.4,1c-0.1,0.2-0.2,0.5-0.3,0.8c-0.1,0.1-0.1,0.2-0.1,0.2c0.1,0.1,0.2,0.2,0.3,0.3
		c0.3,0.2,0.6,0.5,0.8,0.7l0.3,0.3c0.1,0.1,0.1,0.1,0.2,0.1c0.2,0.2,0.4,0.3,0.6,0.5c0.1,0.1,0.1,0.1,0.1,0.2c0,0.2-0.6,0.1-0.7,0.1
		h-0.4c-0.4-0.1-0.8-0.1-1.2-0.1h-0.7c-0.1,0-0.2,0-0.2,0c-0.2,0.1-0.3,0.3-0.3,0.5c-0.2,0.4-0.4,0.8-0.5,1.2l-0.2,0.5
		c0,0.1-0.1,0.2-0.1,0.3c-0.1,0.1-0.2,0.2-0.3,0.2c-0.1-0.1-0.2-0.3-0.3-0.4v-0.4c0-0.2,0-0.3-0.1-0.5l-0.2-0.9
		c0-0.2-0.1-0.5-0.2-0.7c0-0.1-0.1-0.1-0.1-0.1c-0.1,0-0.1,0-0.2-0.1c-0.2,0-0.5,0-0.7-0.1c-0.4,0-0.7-0.1-1.2-0.1h-0.5
		c-0.2-0.1-0.4-0.1-0.6-0.1c-0.1,0.2-0.2,0.5-0.2,0.8c-0.1,0.4-0.1,0.8-0.2,1.2c-0.1,0.4-0.1,0.9-0.2,1.4c0,0.3-0.1,0.7-0.1,1h0.1
		c0.1-0.1,0.2-0.1,0.3-0.2c0.2-0.1,0.3-0.1,0.4-0.2l0.4-0.2c0.1,0,0.2,0,0.2,0.1c-0.1,0.2-0.1,0.4-0.2,0.5c-0.1,0.2-0.2,0.5-0.3,0.7
		c-0.1,0.1-0.1,0.2-0.1,0.2c0,0.1-0.1,0.2-0.1,0.2c-0.1,0.3-0.2,0.5-0.3,0.8c-0.1,0.1-0.1,0.2,0,0.2c0.1,0.1,0.1,0.2,0.2,0.2
		c0.4,0.3,0.7,0.6,1,0.9c0.2,0.1,0.3,0.3,0.5,0.4c0.1,0.1,0.2,0.2,0.3,0.2c0.1,0.1,0.2,0.1,0.2,0.2v0.1c0,0.1-0.1,0.2-0.2,0.2
		c-0.3,0-0.5-0.1-0.8-0.1c-0.4,0-0.7-0.1-1.1-0.1c-0.2,0-0.3-0.1-0.5-0.1c-0.1,0-0.2-0.1-0.2,0.1c-0.1,0.1-0.1,0.2-0.1,0.3v0.5
		c0,0.1,0.1,0.2,0.1,0.4v1.1c0,0.2,0.1,0.4,0.1,0.7c0,0.2,0,0.4,0.1,0.5c0,0.3,0.1,0.7,0.1,1c0,0.1,0,0.2,0.1,0.3
		c0.2,0.3,0.4,0.5,0.7,0.6c0,0.1,0.1,0.1,0.1,0.1c0.1,0,0.2-0.1,0.2-0.1c0.2-0.1,0.4-0.3,0.7-0.4l0.4-0.2c0.1-0.1,0.3-0.2,0.4-0.2
		c0.1-0.1,0.2-0.1,0.2-0.2c0.1-0.1,0.5-0.4,0.7-0.2c0.1,0,0.1,0.1,0,0.2c-0.1,0.2-0.2,0.4-0.2,0.7c-0.1,0.2-0.2,0.4-0.2,0.5
		c-0.1,0.1-0.1,0.2-0.2,0.3l-0.2,0.5c-0.1,0.2-0.2,0.4-0.2,0.5c0.1,0.1,0.2,0.3,0.4,0.4c0.2,0.2,0.4,0.4,0.6,0.5
		c0.2,0.2,0.5,0.4,0.7,0.7c0.1,0,0.1,0.1,0.1,0.1c0.1,0,0.1,0.1,0.1,0.2c0.1,0,0.2,0.1,0.2,0.2v0.1c-0.2,0.1-0.4,0.1-0.7,0.1
		c-0.5-0.1-0.9-0.1-1.4-0.1c-0.2,0-0.4,0-0.7-0.1H137c-0.2,0.2-0.3,0.4-0.4,0.7c-0.1,0.1-0.1,0.2-0.1,0.2c-0.1,0.1-0.1,0.3-0.2,0.5
		c-0.1,0.2-0.1,0.4,0,0.5c0.1,0.2,0.1,0.4,0.2,0.7c0.1,0.2,0.1,0.4,0.2,0.6c0.1,0.4,0.2,0.8,0.3,1.2c0,0.2,0.1,0.4,0.2,0.5l0.2,0.2
		l0.5,0.5c0.2,0.2,0.3,0.3,0.5,0.4c0.1-0.1,0.2-0.1,0.3-0.1c0.1-0.1,0.3-0.2,0.4-0.3c0.1-0.1,0.3-0.1,0.4-0.2c0.4-0.2,0.7-0.4,1-0.5
		l0.4-0.2c0,0,0.1-0.1,0.2-0.1c0.1,0,0.1,0,0.2,0c0,0.3-0.1,0.6-0.3,0.8c0,0.1-0.1,0.2-0.1,0.2l-0.2,0.4c0,0.1-0.1,0.1-0.1,0.2
		l-0.2,0.4c0,0.1-0.1,0.1-0.1,0.2c-0.1,0.2-0.2,0.5-0.2,0.7c0,0.1,0.1,0.2,0.2,0.2c0,0.1,0.1,0.2,0.2,0.2c0.1,0.1,0.3,0.2,0.4,0.4
		c0.1,0.1,0.2,0.1,0.2,0.2c0.2,0.2,0.5,0.3,0.7,0.5c0.1,0.1,0.2,0.2,0.2,0.3c0.1,0.1,0.1,0.1,0.1,0.2c-0.1,0.1-0.4,0.1-0.6,0.1h-0.1
		c-0.2-0.1-0.4-0.1-0.5-0.1c-0.4-0.1-0.8-0.1-1.2-0.1h-0.6c-0.1,0-0.1,0.1-0.2,0.2c0,0.1,0,0.1,0,0.2c0,0.1,0,0.2,0.1,0.3
		c0.1,0.2,0.2,0.4,0.2,0.6c0.2,0.4,0.4,0.8,0.5,1.2c0,0.1,0.1,0.2,0.2,0.3c0.1,0.3,0.2,0.5,0.4,0.7c0.1-0.1,0.2-0.2,0.3-0.3
		c0.1-0.1,0.1-0.2,0.2-0.3l0.2-0.2c0.3-0.4,0.5-0.7,0.8-1c0.3-0.3,0.3-0.4,0.5-0.5c0.2-0.2,0.1-0.1,0.1-0.2c0.1-0.1,0.2-0.3,0.4-0.4
		l0.2-0.2c0,0,0.1-0.1,0.1-0.1l0.3-0.3c0.2-0.2,0.3-0.4,0.4-0.5c0.4-0.5,0.8-1,1.3-1.6l0.4-0.4c0.2-0.2,0.4-0.5,0.6-0.7l0.3-0.3
		c0,0,0-0.1,0.1-0.1c0.1-0.1,0.2-0.2,0.3-0.3c0,0,0-0.1,0.1-0.1c0-0.1,0.1-0.1,0.1-0.1c0,0,0.1-0.1,0.1-0.1c0.1,0,0.1-0.1,0.1-0.1
		c0.1-0.1,0.3-0.3,0.4-0.4c0-0.1,0.1-0.1,0.1-0.1c0.8-0.8,1.6-1.8,2.4-2.7c0.1-0.2,0.3-0.4,0.5-0.6c0.1-0.1,0.1-0.2,0.2-0.2l0.8-1
		c0.2-0.2,0.4-0.5,0.7-0.8c0.2-0.2,0.3-0.4,0.4-0.5c0.2-0.1,0.3-0.3,0.4-0.4c0.1-0.2,0.2-0.3,0.4-0.5c0.5-0.5,0.9-1,1.3-1.5
		c0.2-0.2,0.4-0.5,0.5-0.7l0.2-0.2c0.1-0.1,0.2-0.3,0.3-0.4l0.2-0.2c0.1-0.2,0.3-0.4,0.5-0.6l0.2-0.2c0,0,0.1-0.1,0.1-0.1
		c0.1-0.1,0.2-0.1,0.2-0.2c0.1-0.1,0.2-0.3,0.4-0.5l0.8-1l0.1-0.1l1-1.2c0.1,0,0.1-0.1,0.1-0.1c0.1-0.1,0.2-0.2,0.2-0.3
		c0.1-0.1,0.3-0.3,0.4-0.4c0-0.1,0.1-0.1,0.1-0.1c0.2-0.3,0.5-0.5,0.7-0.8c0.1-0.2,0.2-0.3,0.4-0.5c0.5-0.5,1-1.2,1.5-1.7
		c0.1,0,0.1-0.1,0.1-0.2c0.2-0.2,0.3-0.4,0.5-0.5c0.1-0.1,0.2-0.2,0.3-0.4c0.2-0.2,0.4-0.4,0.5-0.6l0.8-1c0.1-0.2,0.3-0.3,0.4-0.5
		c0,0,0.1-0.1,0.1-0.2c0.1,0,0.1-0.1,0.1-0.1c0,0,0-0.1,0.1-0.1c0.1-0.1,0.1-0.1,0.2-0.2c0-0.1,0.1-0.1,0.1-0.2
		c0.1-0.2,0.3-0.3,0.4-0.4c0.1-0.1,0.1-0.2,0.1-0.3c0.1-0.1,0.2-0.1,0.2-0.2c0.2-0.2,0.3-0.4,0.4-0.5l0.2-0.2
		c0.1-0.1,0.1-0.1,0.1-0.2c0-0.1,0.1-0.1,0.2-0.1c0.2-0.2,0.3-0.5,0.5-0.7c0.2-0.3,0.4-0.6,0.7-0.8l0.4-0.4c0-0.1,0.1-0.1,0.1-0.1
		c0-0.1,0.1-0.2,0.2-0.2c0.1,0,0.1-0.1,0.1-0.2l0.2-0.2c0.1-0.1,0.1-0.2,0.2-0.3c0.1,0,0.1-0.1,0.1-0.2c0.2-0.2,0.4-0.4,0.5-0.6
		l0.2-0.2c0.1-0.2,0.3-0.4,0.4-0.5c0.8-0.9,1.5-1.8,2.3-2.7c0.1,0,0.1-0.1,0.1-0.1c0.1-0.1,0.1-0.1,0.2-0.2c0,0,0.1-0.1,0.1-0.1
		c0.1-0.1,0.1-0.1,0.2-0.1c0.1-0.1,0.1-0.2,0.2-0.2c0-0.1,0.1-0.2,0.2-0.2l0.2-0.2c0.1-0.1,0.2-0.2,0.2-0.4c0.1,0,0.1-0.1,0.1-0.1
		c0.4-0.4,0.7-0.7,1-1.1c0-0.1,0.1-0.1,0.1-0.1c0-0.1,0.1-0.2,0.2-0.2c0.2-0.2,0.4-0.4,0.5-0.7l0.2-0.2c0,0,0.1-0.1,0.1-0.1l0.3-0.3
		c0.2-0.2,0.3-0.4,0.4-0.5c0.2-0.3,0.5-0.5,0.7-0.8c0.2-0.3,0.5-0.7,0.7-0.9c0.1,0,0.1-0.1,0.1-0.2l0.4-0.4c0.1-0.2,0.3-0.3,0.4-0.5
		c0.3-0.4,0.7-0.8,1-1.2l0.5-0.5c0,0,0.1-0.1,0.1-0.1c0.1,0,0.1-0.1,0.1-0.1c0.1-0.1,0.1-0.1,0.1-0.2c0.6-0.7,1.2-1.3,1.8-2
		c0.1-0.1,0.2-0.2,0.2-0.3c0.1-0.1,0.1-0.2,0.2-0.3c0.1-0.1,0.2-0.2,0.2-0.3c0-0.1,0.1-0.1,0.2-0.1c0.1-0.1,0.2-0.2,0.2-0.4
		c0.1,0,0.1-0.1,0.1-0.1l0.2-0.2c0.2-0.3,0.4-0.5,0.6-0.7c0-0.1,0.1-0.1,0.1-0.1c0.1,0,0.1-0.1,0.1-0.1c0.1,0,0.1-0.1,0.1-0.1
		c0-0.1,0.1-0.1,0.1-0.1c0-0.1,0.1-0.2,0.2-0.2c0.2-0.2,0.3-0.4,0.4-0.5c0.1-0.1,0.1-0.1,0.2-0.1c0.1-0.1,0.2-0.3,0.4-0.5
		c0.1-0.2,0.1-0.1,0.2-0.1s0.1-0.2,0.1-0.2c0.1-0.2,0.3-0.3,0.4-0.4c0.1-0.2,0.2-0.3,0.4-0.5l0.2-0.2c0.1-0.1,0.2-0.3,0.3-0.4
		c0.1-0.1,0.2-0.3,0.3-0.4c0.2-0.1,0.3-0.3,0.4-0.4c0.4-0.4,0.7-0.8,1-1.2c0.7-0.8,1.3-1.6,2-2.3c0.1-0.1,0.1-0.3,0.2-0.4
		c0.1-0.1,0.2-0.2,0.3-0.3c0.1-0.1,0.1-0.1,0.1-0.2c0.2-0.2,0.4-0.5,0.6-0.7c0.1-0.1,0.2-0.2,0.3-0.4c-0.1-0.1-0.2-0.1-0.2-0.1
		c-0.2,0-0.4-0.1-0.5-0.1c-0.1,0-0.2-0.1-0.3-0.1c-0.5-0.2-1-0.3-1.6-0.5l-0.9-0.2c-0.1-0.1-0.2-0.1-0.2-0.1c-0.2,0-0.4-0.1-0.5-0.1
		c-0.1,0-0.2,0-0.4,0c-0.1,0-0.1,0-0.1,0.1c-0.1,0.2-0.1,0.3-0.2,0.5c-0.1,0.1-0.2,0.3-0.2,0.4c-0.1,0.1-0.1,0.2,0,0.2
		c0,0.1,0.1,0.2,0.2,0.2c0.1,0.1,0.2,0.2,0.4,0.3s0.4,0.4,0.7,0.5c0.1,0.2,0.3,0.3,0.5,0.4c0.2,0.2,0.3,0.3,0.5,0.5
		c0.1,0,0.1,0.1,0.1,0.1c-0.3,0.1-0.6,0.1-0.8,0.1c-0.4-0.1-0.7-0.1-1.1-0.1h-0.3c-0.2-0.1-0.4-0.1-0.7-0.1c-0.1,0-0.2,0-0.3,0.1
		c-0.2,0.2-0.3,0.4-0.4,0.7c0,0.1-0.1,0.1-0.1,0.2c-0.1,0.2-0.1,0.4-0.2,0.5c0,0.1-0.1,0.1-0.1,0.2c-0.1,0.1-0.1,0.2-0.1,0.3
		c-0.1,0.1-0.1,0.2-0.1,0.2c-0.1,0.1-0.1,0.1-0.1,0.2s-0.2,0.5-0.3,0.4c-0.2-0.2-0.3-0.4-0.2-0.7c-0.1-0.3-0.2-0.6-0.2-0.9
		c-0.1-0.1-0.1-0.2-0.1-0.3l-0.2-0.7c0-0.1-0.1-0.2-0.1-0.3c-0.2-0.1-0.4-0.1-0.7-0.1c-0.3,0-0.7-0.1-1-0.1c-0.3,0-0.8-0.1-1.3-0.1
		c-0.1,0-0.1-0.1-0.1-0.1c0.1-0.2,0.3-0.4,0.5-0.5c0.4-0.2,0.8-0.5,1.2-0.8c0.2-0.1,0.4-0.2,0.5-0.4c0.1,0,0.1-0.1,0.1-0.2
		c0-0.2,0-0.4-0.1-0.6c-0.1-0.3-0.1-0.5-0.2-0.8c0-0.1-0.1-0.2-0.1-0.4h-0.2c-0.2-0.1-0.4-0.1-0.7-0.1h-0.5
		c-1.1-0.1-2.3-0.2-3.4-0.2l0,0L180.2,109.9z"/>
	<path class="st1" d="M158.3,116.2c-0.1,0.1-0.1,0.2-0.1,0.2c0.1,0.2,0.1,0.4,0.2,0.7c0.1,0.4,0.2,0.9,0.4,1.3
		c0.1,0.2,0.2,0.5,0.2,0.7c-0.1,0.1-0.3,0.2-0.5,0.3c-0.5,0.4-1,0.6-1.5,0.9c-0.1,0.1-0.2,0.2-0.4,0.2c-0.1,0.1-0.1,0.1-0.2,0.1
		c-0.1,0.1-0.1,0.1,0,0.1c0.1,0.1,0.3,0.1,0.5,0.1c0.1,0,0.2,0.1,0.3,0.1c0.3,0,0.5,0,0.8,0.1c0.1,0,0.2,0,0.4,0.1h0.6
		c0.2,0,0.3,0,0.4,0.1c0.1,0.1,0.2,0.3,0.2,0.5l0.2,0.7c0.1,0.3,0.1,0.6,0.2,0.9c0.1,0.1,0.1,0.6,0.3,0.5c0.1,0,0.1-0.1,0.1-0.1
		c0.1-0.2,0.2-0.4,0.2-0.5c0.1-0.3,0.2-0.6,0.4-1c0.1-0.3,0.2-0.5,0.3-0.8c0-0.1,0.1-0.1,0.1-0.2c0.4-0.1,0.8-0.1,1.2,0h0.4
		c0.2,0,0.5,0.1,0.7,0.1c0.3,0.1,0.5,0.1,0.8,0v-0.2c-0.1-0.1-0.1-0.1-0.2-0.2l-0.2-0.2c-0.4-0.4-0.8-0.7-1.3-1
		c-0.2-0.1-0.4-0.3-0.5-0.5c0-0.3,0.1-0.5,0.2-0.7c0.2-0.4,0.3-0.8,0.5-1.2c0.1-0.1,0.1-0.2,0.1-0.2c0.1-0.2,0.1-0.3,0.2-0.5
		c0,0,0.1-0.1,0-0.2c0,0,0,0,0,0c-0.1-0.2-0.5,0.1-0.7,0.2c-0.5,0.4-1,0.7-1.5,1l-0.4,0.2c0,0-0.1,0.1-0.1,0.1c-0.1,0-0.1,0-0.2-0.1
		c-0.1-0.1-0.1-0.1-0.2-0.1c-0.1-0.1-0.2-0.2-0.4-0.3c-0.1-0.1-0.2-0.2-0.3-0.2c-0.1-0.1-0.2-0.2-0.3-0.2c-0.2-0.2-0.4-0.3-0.5-0.5
		C158.7,116.3,158.5,116.2,158.3,116.2L158.3,116.2L158.3,116.2z M168.1,117c-0.2,0-0.1,0.5,0,0.7c0.1,0.5,0.2,1,0.4,1.5
		c0.1,0.1,0.1,0.3,0.1,0.4c0.1,0.1,0.1,0.2,0.1,0.3c-0.1,0.2-0.3,0.3-0.5,0.4c-0.7,0.4-1.3,0.8-1.9,1.3c0.2,0.2,0.5,0.2,0.7,0.2
		c0.3,0,0.6,0.1,0.9,0.1c0.3,0,0.5,0.1,0.8,0.1c0.2,0,0.3,0,0.5,0.1c0.1,0.1,0.2,0.3,0.2,0.5c0,0.1,0,0.2,0.1,0.3l0.2,0.9l0.1,0.2
		c0.1,0.2,0.1,0.4,0.1,0.6c0,0.1,0.1,0.2,0.2,0.2c0.2-0.2,0.3-0.4,0.4-0.6c0.1-0.4,0.4-0.8,0.5-1.3l0.2-0.4c0-0.1,0.1-0.3,0.2-0.4
		c0.3-0.1,0.6-0.1,0.8,0h0.2c0.1,0,0.2,0.1,0.3,0.1h0.5c0.2,0,0.4,0.1,0.7,0.1c0.1,0,0.2,0.1,0.4,0.1c0.1,0,0.2,0,0.2-0.1
		c-0.1-0.2-0.3-0.4-0.5-0.5c-0.2-0.2-0.5-0.4-0.7-0.5c-0.1-0.1-0.2-0.1-0.2-0.2c-0.1-0.1-0.2-0.2-0.3-0.2c-0.2-0.2-0.4-0.3-0.5-0.5
		c0.1-0.2,0.1-0.5,0.2-0.7c0.1-0.1,0.1-0.2,0.1-0.2c0.1-0.1,0.1-0.2,0.1-0.3c0,0,0.1-0.1,0.1-0.2c0.1-0.1,0.1-0.1,0.1-0.2
		c0-0.1,0-0.2,0.1-0.2c0-0.1,0.1-0.1,0.1-0.2c0-0.1,0.1-0.2,0.1-0.3c0-0.1,0.1-0.2,0.1-0.3c0-0.1,0-0.1,0-0.2
		c-0.1-0.2-0.5,0.1-0.7,0.2l-0.7,0.4c-0.3,0.2-0.6,0.4-0.9,0.6c-0.1,0.1-0.2,0.1-0.2,0.1c0,0-0.1,0.1-0.2,0.1
		c-0.2,0-0.4-0.1-0.5-0.3c-0.2-0.2-0.4-0.4-0.7-0.5c-0.2-0.1-0.3-0.3-0.5-0.4c-0.1-0.1-0.3-0.2-0.5-0.4
		C168.2,117,168.1,117,168.1,117L168.1,117L168.1,117z M177.8,117.6c0,0-0.1,0.1-0.1,0.2c0,0.2,0.1,0.4,0.1,0.6
		c0,0.2,0.1,0.4,0.1,0.5s0.1,0.2,0.1,0.4c0.1,0.1,0.1,0.4,0.1,0.7c0.1,0.2,0.1,0.5,0.1,0.7c-0.1,0.1-0.5,0.3-0.6,0.4
		c-0.5,0.3-1,0.6-1.5,0.9c-0.2,0.1-0.4,0.3-0.5,0.5c0.2,0.1,0.3,0.1,0.5,0.1c0.1,0,0.3,0.1,0.4,0.1c0.1,0,0.2,0,0.2,0.1h0.3
		c0.2,0,0.4,0,0.6,0.1c0.2,0,0.3,0,0.5,0.1c0.2,0,0.3,0,0.5,0.1c0.1,0.1,0.2,0.3,0.2,0.4c0.1,0.5,0.2,1,0.3,1.5
		c0,0.1,0.1,0.3,0.1,0.4c0,0.3,0.1,0.6,0.3,0.8c0.2-0.2,0.3-0.4,0.4-0.7l0.2-0.4c0.1-0.2,0.2-0.4,0.2-0.6c0-0.1,0.1-0.1,0.1-0.2
		c0-0.1,0-0.1,0.1-0.2c0.1-0.1,0.1-0.2,0.1-0.4l0.2-0.4c0-0.1,0.1-0.1,0.1-0.2c0,0,0.1-0.1,0.1-0.1h0.2c0.3,0,0.7,0,1,0.1h0.4
		c0.2,0,0.5,0.1,0.7,0.1c0.2,0,0.5,0,0.7-0.1c-0.1-0.2-0.3-0.4-0.5-0.6c-0.3-0.2-0.6-0.4-0.8-0.7c-0.1-0.1-0.2-0.2-0.3-0.2
		s-0.1-0.1-0.1-0.2c-0.2-0.1-0.3-0.2-0.4-0.3l-0.2-0.2c0-0.2,0.1-0.4,0.2-0.5c0.1-0.2,0.2-0.4,0.3-0.7c0.1-0.2,0.2-0.5,0.3-0.8
		c0.1-0.1,0.1-0.2,0.1-0.2c0-0.1,0-0.2,0.1-0.2c0.1-0.1,0.1-0.2,0.1-0.2c-0.1-0.2-0.5,0.1-0.7,0.2c-0.3,0.2-0.6,0.3-0.9,0.5
		c-0.2,0.2-0.5,0.3-0.8,0.5c-0.1,0.1-0.2,0.1-0.2,0.1c-0.3-0.1-0.6-0.3-0.8-0.6c-0.1-0.1-0.2-0.2-0.4-0.3c-0.3-0.2-0.5-0.4-0.8-0.7
		C178.1,117.8,178,117.7,177.8,117.6L177.8,117.6L177.8,117.6z M151.6,124c-0.1,0.1-0.1,0.2-0.1,0.2c0.1,0.4,0.2,0.7,0.2,1.1
		c0.1,0.4,0.2,0.8,0.2,1.3c0.1,0.1,0.1,0.3,0.1,0.5c-0.1,0.1-0.2,0.2-0.4,0.2c-0.2,0.1-0.3,0.2-0.5,0.3c-0.3,0.1-0.5,0.3-0.8,0.5
		c-0.2,0.1-0.3,0.2-0.5,0.2c-0.3,0.1-0.4,0.3-0.5,0.5c0.5,0.1,1,0.2,1.5,0.2c0.4,0.1,0.7,0.1,1,0.1c0.2,0,0.4,0,0.6,0.1
		c0.1,0.1,0.1,0.5,0.2,0.6c0.1,0.6,0.2,1.2,0.4,1.7c0,0.3,0.1,0.5,0.3,0.7c0.1-0.1,0.2-0.3,0.2-0.4c0.1-0.1,0.1-0.2,0.1-0.2
		c0.1-0.3,0.2-0.6,0.4-0.8c0.1-0.1,0.1-0.2,0.1-0.3c0.1-0.1,0.1-0.2,0.1-0.3c0-0.1,0.1-0.2,0.2-0.2c0-0.2,0.1-0.4,0.3-0.5
		c0.2,0,0.3,0,0.5,0c0.3,0,0.7,0,1,0.1h0.5c0.1,0,0.3,0.1,0.5,0.1c0.2,0,0.4,0,0.7,0c0,0,0.1,0,0.1-0.1l0,0
		c-0.1-0.3-0.3-0.5-0.5-0.6c-0.5-0.4-1-0.8-1.5-1.2c-0.2-0.1-0.3-0.3-0.4-0.4c0-0.2,0.1-0.5,0.2-0.7c0.1-0.1,0.1-0.2,0.1-0.3
		c0.1-0.1,0.1-0.3,0.2-0.4c0,0,0.1-0.1,0.1-0.2l0.2-0.2c0-0.1,0.1-0.2,0.1-0.4l0.2-0.4c0-0.1,0.1-0.2,0.1-0.3
		c-0.3,0-0.5,0.1-0.7,0.2c-0.3,0.2-0.7,0.4-1,0.6c-0.4,0.3-0.5,0.3-0.7,0.4c-0.1,0.1-0.2,0.1-0.3,0.2c-0.2-0.1-0.4-0.2-0.5-0.4
		c-0.3-0.3-0.6-0.5-1-0.8l-0.4-0.4c-0.1-0.1-0.3-0.2-0.4-0.3C151.7,124.1,151.6,124.1,151.6,124L151.6,124L151.6,124z M161.1,125.2
		c0,0-0.1,0.1-0.1,0.2c0,0.1,0.1,0.2,0.1,0.4s0.1,0.2,0.1,0.4c0.1,0.4,0.2,0.8,0.3,1.3c0.1,0.2,0.2,0.5,0.2,0.8
		c-0.1,0.1-0.1,0.2-0.2,0.2c-0.2,0.1-0.3,0.3-0.5,0.4l-0.4,0.2c-0.2,0.1-0.5,0.3-0.8,0.5c-0.1,0.1-0.2,0.1-0.2,0.2
		c-0.1,0-0.2,0-0.2,0.1c0,0.1-0.1,0.1,0,0.1c0.1,0,0.1,0.1,0.1,0.1c0.3,0.1,0.6,0.1,0.8,0.1c0.1,0,0.3,0.1,0.4,0.1s0.5,0.1,0.8,0.1
		c0.3,0,0.5,0,0.8,0.1c0.1,0.2,0.2,0.4,0.2,0.7c0,0.1,0.1,0.3,0.1,0.4s0.1,0.4,0.2,0.6c0,0.1,0.1,0.3,0.1,0.4c0,0.2,0.1,0.5,0.3,0.6
		c0.1,0,0.1-0.1,0.1-0.1c0.1,0,0.1-0.1,0.1-0.2c0.1-0.1,0.1-0.2,0.1-0.3c0-0.1,0.1-0.2,0.1-0.3c0.1-0.3,0.2-0.5,0.4-0.8
		c0-0.4,0.2-0.7,0.5-1c0.2,0,0.5,0,0.7,0.1c0.3,0,0.6,0,0.9,0.1h0.3c0.3,0,0.6,0.1,0.8,0.1c0.1,0,0.1-0.1,0.2-0.1
		c0.1-0.2-0.4-0.5-0.4-0.5c-0.5-0.4-1-0.8-1.5-1.2c-0.1-0.1-0.2-0.2-0.3-0.4c0-0.2,0.1-0.4,0.1-0.5c0.1-0.2,0.2-0.5,0.4-0.8
		c0-0.1,0.1-0.1,0.1-0.2l0.2-0.4c0.1-0.2,0.2-0.5,0.3-0.7c0,0,0.1-0.1,0.1-0.2c-0.1-0.3-0.6,0.1-0.7,0.2c-0.4,0.2-0.8,0.5-1.2,0.7
		c-0.1,0.1-0.3,0.2-0.5,0.3c-0.1,0.1-0.1,0.1-0.2,0.1c-0.1,0.1-0.2,0.1-0.2,0.1c-0.2-0.1-0.4-0.2-0.5-0.4c-0.2-0.1-0.4-0.3-0.5-0.4
		l-0.3-0.3c-0.1-0.1-0.2-0.2-0.4-0.2c-0.1-0.1-0.3-0.3-0.4-0.4C161.2,125.3,161.1,125.2,161.1,125.2L161.1,125.2L161.1,125.2z
		 M170.2,126.2c-0.1,0.1-0.1,0.2-0.1,0.2c0,0.3,0.1,0.5,0.2,0.8c0.1,0.4,0.2,0.8,0.3,1.2c0.1,0.2,0.2,0.5,0.1,0.8
		c-0.1,0.2-0.4,0.4-0.6,0.4l-0.5,0.4c-0.2,0.1-0.5,0.2-0.7,0.4l-0.4,0.2l-0.2,0.2c-0.1,0-0.1,0.1,0,0.1c0,0,0.1,0.1,0.1,0.1
		c0.1,0,0.2,0,0.3,0.1h0.3c0.4,0.1,0.8,0.1,1.3,0.1c0.1,0.1,0.3,0.1,0.4,0.1c0.2,0,0.3,0,0.5,0.1c0.1,0.3,0.2,0.5,0.2,0.8
		c0.1,0.2,0.1,0.5,0.2,0.8c0,0.1,0.1,0.3,0.1,0.4c0,0.3,0.1,0.5,0.3,0.7c0.1,0,0.1-0.1,0.1-0.1c0.1-0.2,0.2-0.4,0.2-0.5
		c0.1-0.2,0.2-0.5,0.2-0.7c0.1-0.1,0.1-0.2,0.1-0.3c0.1-0.2,0.2-0.5,0.3-0.7c0.1-0.1,0.1-0.2,0.2-0.2c0.2-0.1,0.4-0.1,0.5-0.1
		c0.2,0,0.3,0,0.5,0.1c0.2,0,0.5,0.1,0.7,0.1h0.5c0.2,0.1,0.3,0.1,0.5,0.1h0.2l0.1-0.1c0-0.2-0.1-0.3-0.3-0.4l-0.2-0.2l-1.3-1.1
		c-0.2-0.1-0.3-0.2-0.4-0.4c0-0.2,0-0.3,0.1-0.4c0.1-0.1,0.1-0.3,0.2-0.4c0.1-0.3,0.2-0.5,0.4-0.8s0.2-0.4,0.2-0.6
		c0.1-0.1,0.1-0.3,0.2-0.4v-0.1c-0.1-0.2-0.5,0.1-0.7,0.2s-0.2,0.1-0.3,0.2c-0.3,0.2-0.5,0.4-0.8,0.5c-0.1,0.1-0.2,0.1-0.3,0.2
		c-0.1,0-0.2,0.1-0.3,0.2c-0.1,0.1-0.2,0.1-0.3,0.1h-0.2c-0.1,0-0.2-0.1-0.2-0.2c-0.1-0.1-0.1-0.2-0.2-0.2c-0.4-0.3-0.8-0.7-1.2-1
		C170.6,126.3,170.5,126.2,170.2,126.2L170.2,126.2L170.2,126.2z M145,132.2c-0.1,0-0.1,0.1-0.1,0.2c0.1,0.2,0.1,0.4,0.2,0.6
		c0.1,0.4,0.2,0.8,0.2,1.3c0,0.1,0.1,0.2,0.1,0.2c0.1,0.2,0.1,0.5,0.1,0.7c-0.1,0.1-0.2,0.2-0.4,0.2c-0.3,0.2-0.7,0.5-1.1,0.7
		c-0.2,0.2-0.4,0.3-0.7,0.4c-0.1,0.1-0.2,0.2-0.3,0.2c-0.1,0.1-0.2,0.1-0.2,0.1v0.2l0.1,0.1h0.3c0.2,0,0.4,0.1,0.5,0.1
		c0.4,0.1,0.7,0.1,1.1,0.1c0.2,0,0.4,0,0.6,0.1c0.2,0,0.4,0,0.5,0.1c0.1,0.1,0.2,0.3,0.2,0.5l0.2,0.9c0.1,0.1,0.1,0.3,0.1,0.5
		c0,0.1,0,0.1,0.1,0.2c0,0.1,0,0.2,0.1,0.3c0,0.2,0.1,0.8,0.3,0.7c0.2-0.2,0.3-0.5,0.4-0.7l0.2-0.4c0-0.1,0.1-0.1,0.1-0.2
		c0.1-0.1,0.1-0.1,0.1-0.2c0.1-0.1,0.1-0.2,0.1-0.4c0.1-0.1,0.1-0.1,0.1-0.2c0,0,0.1-0.1,0.1-0.2c0.1-0.1,0.1-0.2,0.2-0.3
		c0-0.1,0-0.2,0.1-0.3c0.1,0,0.2-0.1,0.4-0.1c0.1,0,0.2,0,0.2,0.1h0.3c0.3,0.1,0.5,0,0.8,0.1c0.3,0.1,0.5,0.1,0.8,0.1
		c0.3,0.1,0.5,0,0.8-0.1c-0.1-0.2-0.2-0.4-0.4-0.5c-0.1,0-0.1-0.1-0.2-0.1c-0.5-0.4-1-0.8-1.5-1.3c-0.1-0.1-0.3-0.2-0.4-0.3
		c0-0.2,0.1-0.4,0.2-0.6c0-0.1,0-0.2,0.1-0.2c0.1-0.1,0.1-0.1,0.1-0.2c0.1-0.1,0.1-0.1,0.1-0.2c0.1-0.1,0.1-0.2,0.1-0.4l0.2-0.4
		c0.1-0.1,0.1-0.3,0.1-0.4c0.1-0.1,0.1-0.2,0.2-0.3v-0.3c-0.3,0-0.5,0.1-0.7,0.2c-0.3,0.2-0.5,0.4-0.8,0.5c-0.3,0.1-0.5,0.3-0.8,0.5
		c-0.1,0.1-0.3,0.2-0.4,0.2c-0.2-0.1-0.4-0.2-0.5-0.4c-0.1-0.1-0.3-0.3-0.4-0.4c-0.2-0.1-0.4-0.3-0.5-0.4c-0.1-0.2-0.3-0.3-0.5-0.4
		C145.4,132.4,145.2,132.2,145,132.2L145,132.2L145,132.2z M154.3,133.3c-0.1,0-0.1,0.1-0.1,0.2c0,0.2,0.1,0.4,0.1,0.5
		c0.1,0.1,0.1,0.3,0.1,0.4c0,0.1,0.1,0.2,0.1,0.3c0.1,0.2,0.1,0.4,0.2,0.6c0.1,0.1,0.1,0.2,0.1,0.2c0.1,0.1,0.1,0.2,0.1,0.3
		c0,0.1,0.1,0.3,0.1,0.4c-0.1,0.2-0.3,0.3-0.5,0.4l-0.9,0.5l-0.5,0.4c-0.1,0.1-0.2,0.1-0.2,0.2c-0.1,0-0.2,0.1-0.3,0.1v0.2
		c0.1,0,0.2,0.1,0.2,0.1c0.3,0.1,0.7,0.1,1,0.1c0.2,0,0.4,0,0.5,0.1h0.3c0.1,0,0.1,0,0.2,0.1c0.2,0,0.5,0,0.7,0.1
		c0.1,0.1,0.2,0.3,0.2,0.5c0.1,0.4,0.2,0.7,0.2,1.1c0.1,0.2,0.1,0.3,0.2,0.5c0.1,0.2,0.1,0.7,0.4,0.6l0.1-0.1
		c0.1-0.1,0.1-0.2,0.1-0.4c0.2-0.5,0.4-1.1,0.6-1.6c0.1-0.2,0.1-0.3,0.2-0.5c0.3-0.1,0.5-0.1,0.8,0h0.4c0.2,0,0.4,0.1,0.6,0.1h0.5
		c0.2,0.1,0.5,0.1,0.7,0c-0.1-0.3-0.3-0.5-0.5-0.6c-0.4-0.4-0.9-0.7-1.3-1.1c-0.2-0.1-0.3-0.3-0.4-0.4c0.1-0.3,0.2-0.5,0.3-0.8
		c0.2-0.4,0.3-0.7,0.5-1.1c0-0.1,0.1-0.2,0.1-0.2c0.1-0.2,0.1-0.3,0.2-0.5v-0.2c-0.1-0.2-0.5,0.2-0.7,0.2c-0.1,0.1-0.2,0.2-0.4,0.2
		c-0.4,0.2-0.8,0.5-1.2,0.7c-0.1,0.1-0.4,0.1-0.5,0.2c-0.2,0-0.3-0.1-0.4-0.2c-0.3-0.2-0.6-0.5-0.9-0.8c-0.1-0.1-0.2-0.2-0.4-0.3
		C154.7,133.6,154.5,133.4,154.3,133.3L154.3,133.3L154.3,133.3z M163.5,134.2c-0.1,0-0.1,0.1-0.1,0.1c0,0.3,0,0.6,0.1,0.8
		c0.1,0.4,0.3,0.8,0.4,1.3c0.1,0.2,0.2,0.5,0.2,0.7c-0.2,0.2-0.3,0.3-0.5,0.4l-0.4,0.2l-0.9,0.5l-0.4,0.2c-0.1,0-0.1,0.1-0.2,0.2
		c-0.1,0-0.1,0.1,0,0.1c0,0,0.1,0.1,0.1,0.1c0.2,0.1,0.5,0.1,0.8,0.1h0.4c0.1,0,0.2,0.1,0.3,0.1c0.2,0,0.3,0,0.5,0.1
		c0.3,0,0.6,0,0.8,0.1c0,0.1,0.1,0.2,0.1,0.3c0,0.2,0,0.3,0.1,0.5c0.1,0.5,0.2,0.9,0.3,1.3c0,0.2,0.2,0.5,0.4,0.6l0.1-0.1
		c0.1-0.2,0.2-0.5,0.3-0.8l0.4-0.9c0.1-0.2,0.1-0.3,0.2-0.5c0-0.1,0.1-0.2,0.2-0.3c0,0,0.1-0.1,0.2-0.1c0.1,0,0.3,0,0.4,0
		c0.3,0,0.6,0.1,0.9,0.1c0.1,0,0.2,0.1,0.4,0.1h0.4c0.3,0.1,0.5,0,0.8-0.1c-0.1-0.1-0.2-0.3-0.4-0.4l-0.2-0.2
		c-0.1-0.1-0.1-0.1-0.2-0.2c-0.2-0.2-0.5-0.5-0.8-0.7c-0.1-0.1-0.1-0.1-0.2-0.2c-0.2-0.1-0.3-0.2-0.4-0.4c0-0.2,0-0.4,0.1-0.5
		l0.5-1.3c0.1-0.2,0.2-0.5,0.4-0.8v-0.2c-0.3,0-0.5,0.1-0.7,0.2c-0.3,0.2-0.6,0.5-0.9,0.7l-0.4,0.2c-0.1,0.1-0.2,0.2-0.4,0.2
		c-0.1,0-0.2,0.1-0.3,0.1c-0.2,0-0.4-0.1-0.5-0.3l-0.5-0.5c-0.1-0.1-0.2-0.2-0.4-0.2l-0.3-0.3c-0.1-0.1-0.2-0.1-0.2-0.2
		C163.8,134.3,163.7,134.2,163.5,134.2L163.5,134.2L163.5,134.2z M147.5,141.6c0,0-0.1,0.1-0.1,0.2c0,0.1,0.1,0.2,0.1,0.4
		s0.1,0.2,0.1,0.4c0.1,0.1,0.1,0.4,0.2,0.7c0.1,0.3,0.1,0.4,0.1,0.5c0.1,0.2,0.1,0.3,0.1,0.5c0.1,0.1,0.1,0.2,0.1,0.3
		c-0.1,0.1-0.2,0.3-0.4,0.4c0,0.1-0.1,0.1-0.2,0.1c-0.2,0.1-0.4,0.2-0.5,0.3l-0.5,0.4c-0.1,0-0.2,0.1-0.3,0.1
		c-0.1,0.1-0.6,0.4-0.5,0.5c0.4,0.1,0.7,0.1,1.1,0.1c0.1,0,0.2,0.1,0.3,0.1h0.2c0.3,0,0.6,0.1,0.8,0.1c0.2,0,0.3,0,0.5,0.1
		c0.1,0.1,0.1,0.3,0.1,0.5c0.2,0.5,0.2,1.2,0.4,1.6c0,0.3,0.1,0.5,0.4,0.6c0.1,0,0.1-0.1,0.1-0.1c0.1-0.2,0.2-0.5,0.3-0.8
		s0.3-0.7,0.4-1.1c0-0.2,0.2-0.4,0.3-0.6c0.2-0.1,0.5-0.1,0.7,0c0.1,0,0.3,0,0.4,0.1c0.4,0,0.8,0,1.2,0.1c0.2,0.1,0.5,0.1,0.7,0
		c-0.1-0.3-0.2-0.5-0.5-0.6c-0.2-0.1-0.4-0.3-0.5-0.4l-0.3-0.3c-0.3-0.2-0.5-0.4-0.7-0.6c-0.1,0-0.1-0.1-0.2-0.2
		c0-0.2,0.1-0.4,0.2-0.6c0.1-0.1,0.1-0.2,0.1-0.4c0.2-0.3,0.4-0.7,0.5-1.1c0.1-0.2,0.2-0.4,0.3-0.6c0-0.1,0-0.1-0.1-0.1
		c-0.1-0.2-0.5,0.1-0.6,0.2l-0.7,0.4c-0.3,0.2-0.7,0.5-1,0.7c-0.1,0-0.2,0.1-0.2,0.1c0,0-0.1,0-0.1,0.1l0,0
		c-0.3-0.1-0.6-0.2-0.7-0.5c-0.1-0.1-0.2-0.2-0.4-0.3c-0.1-0.1-0.1-0.1-0.2-0.1c0-0.1-0.1-0.1-0.1-0.1c-0.2-0.2-0.4-0.4-0.7-0.5
		c-0.1-0.1-0.2-0.2-0.3-0.2L147.5,141.6L147.5,141.6z M156.7,142.3c-0.1,0.1-0.1,0.2-0.1,0.2c0,0.1,0,0.3,0.1,0.4
		c0,0.2,0.1,0.3,0.1,0.5c0.1,0.4,0.2,0.8,0.3,1.3c0,0.1,0.1,0.2,0.1,0.3c0,0.1,0.1,0.2,0.1,0.3c-0.1,0.1-0.2,0.3-0.4,0.3
		c-0.3,0.2-0.6,0.4-0.9,0.6c-0.1,0-0.2,0-0.2,0.1c-0.1,0.1-0.3,0.2-0.4,0.3c-0.2,0.1-0.4,0.2-0.6,0.4c0.1,0.1,0.3,0.1,0.5,0.1
		c0.1,0,0.2,0,0.2,0.1l1.7,0.2c0.2,0,0.4,0,0.5,0.1c0.1,0.2,0.1,0.4,0.2,0.5c0.1,0.6,0.2,1.1,0.4,1.6c0,0.1,0,0.3,0.1,0.4
		c0,0,0,0.1,0.1,0.1c0.2,0.1,0.4-0.4,0.4-0.5c0.1-0.3,0.2-0.5,0.4-0.8c0.1-0.2,0.1-0.4,0.2-0.6c0-0.2,0.1-0.4,0.3-0.5
		c0.2-0.1,0.3-0.1,0.5,0c0.5,0,0.9,0.1,1.4,0.1c0.3,0.1,0.6,0.1,0.9,0.1c0.1,0,0.2,0,0.2-0.1c0.2-0.2-0.3-0.5-0.4-0.6l-0.4-0.4
		c-0.3-0.2-0.5-0.5-0.8-0.7c-0.2-0.1-0.4-0.3-0.5-0.5c0-0.2,0.1-0.3,0.2-0.5c0.1-0.4,0.2-0.8,0.4-1.2c0.2-0.2,0.3-0.5,0.4-0.8
		c0.1-0.1,0.1-0.2,0.1-0.2c0-0.1-0.1-0.1-0.1-0.1c-0.1,0-0.2,0.1-0.2,0.1L161,143c-0.4,0.2-0.7,0.4-1,0.6c-0.1,0.1-0.2,0.1-0.2,0.1
		c-0.2,0.2-0.5,0.3-0.7,0.4c-0.2,0-0.3-0.1-0.4-0.2l-0.2-0.2c-0.3-0.3-0.7-0.5-1-0.8C157.2,142.6,156.9,142.4,156.7,142.3
		L156.7,142.3L156.7,142.3z M140.8,149.7c0,0-0.1,0.1-0.1,0.2c0,0.1,0,0.2,0.1,0.4l0.2,0.7c0.1,0.2,0.1,0.4,0.2,0.7l0.2,0.5
		c0.1,0.1,0.1,0.3,0.1,0.4c-0.1,0.2-0.3,0.3-0.5,0.4c-0.2,0.1-0.3,0.2-0.5,0.3l-0.7,0.4l-0.2,0.2c-0.2,0.1-0.5,0.2-0.6,0.4
		c0,0.1,0.1,0.1,0.1,0.1h0.4c0.1,0,0.2,0.1,0.2,0.1c0.2,0,0.4,0.1,0.5,0.1c0.4,0.1,0.8,0.1,1.2,0.1c0.2,0,0.4,0,0.6,0.1
		c0.1,0.2,0.1,0.5,0.2,0.7c0.1,0.1,0.1,0.2,0.1,0.4c0.1,0.3,0.1,0.5,0.2,0.8c0,0.2,0.1,0.5,0.2,0.7c0,0.1,0.1,0.1,0.1,0.2
		c0.2-0.1,0.3-0.4,0.4-0.6c0.1-0.3,0.2-0.6,0.3-0.8c0.1-0.3,0.2-0.5,0.3-0.8c0-0.2,0.1-0.3,0.2-0.4h0.3c0.2,0,0.4,0,0.6,0.1
		c0.3,0,0.6,0,1,0.1c0.4,0,0.7,0.1,1,0.1c0.1,0,0.1,0,0.2-0.1c-0.1-0.3-0.2-0.5-0.5-0.6l-0.7-0.5c-0.2-0.2-0.4-0.4-0.6-0.5
		c-0.2-0.1-0.3-0.3-0.4-0.4c0.1-0.2,0.1-0.5,0.2-0.7c0.1-0.4,0.3-0.8,0.5-1.2c0.1-0.1,0.1-0.2,0.1-0.3c0.1,0,0.1-0.1,0.1-0.1
		c0.1-0.2,0.1-0.4,0.1-0.5c-0.1-0.2-0.6,0.2-0.7,0.2c-0.3,0.2-0.7,0.5-1,0.7l-0.5,0.4c-0.1,0.1-0.3,0.2-0.5,0.2
		c-0.2,0-0.3-0.1-0.4-0.3c-0.2-0.1-0.4-0.3-0.5-0.4c-0.2-0.2-0.5-0.4-0.7-0.5C141.3,149.9,141,149.7,140.8,149.7L140.8,149.7
		L140.8,149.7z M149.9,150.3c0,0.1-0.1,0.1-0.1,0.2v0.2c0.1,0.1,0.1,0.3,0.1,0.4c0.1,0.3,0.1,0.5,0.2,0.8c0,0.1,0.1,0.2,0.1,0.2
		c0.1,0.2,0.1,0.4,0.2,0.6c0.1,0.2,0.1,0.4,0.1,0.5c-0.2,0.2-0.4,0.4-0.7,0.5c-0.4,0.2-0.7,0.4-1,0.5l-0.4,0.2
		c-0.1,0.1-0.2,0.1-0.3,0.2c-0.1,0-0.1,0.1-0.2,0.2c-0.1,0.1-0.1,0.1,0,0.1c0.2,0.1,0.4,0.1,0.7,0.1l1.7,0.2c0.2,0,0.3,0,0.5,0.1
		c0.1,0.1,0.2,0.3,0.2,0.4c0,0.2,0.1,0.4,0.1,0.5c0.1,0.4,0.2,0.8,0.3,1.2c0,0.1,0.1,0.6,0.3,0.5c0,0,0.1,0,0.1-0.1
		c0.1-0.2,0.2-0.5,0.3-0.8c0.1-0.3,0.2-0.5,0.4-0.8c0-0.1,0-0.2,0.1-0.2c0.1-0.1,0.1-0.2,0.1-0.4c0-0.1,0.1-0.2,0.2-0.3
		c0.1,0,0.1-0.1,0.2-0.1c0.4,0,0.7,0.1,1,0.1h0.2c0.1,0,0.2,0.1,0.4,0.1c0.2,0,0.4,0,0.5,0.1h0.3c0.1,0,0.4,0.1,0.5-0.1
		c-0.1-0.3-0.3-0.5-0.5-0.6c-0.2-0.1-0.4-0.3-0.6-0.5c-0.1-0.1-0.2-0.2-0.3-0.3c-0.1-0.1-0.3-0.2-0.4-0.3c-0.3-0.1-0.5-0.4-0.4-0.7
		c0-0.1,0.1-0.2,0.1-0.2c0.1-0.3,0.3-0.7,0.5-1c0.1-0.2,0.1-0.4,0.2-0.5c0.1-0.2,0.2-0.4,0.2-0.6v-0.2c-0.1-0.2-0.4,0-0.5,0.1
		c-0.1,0.1-0.1,0.1-0.2,0.1c-0.5,0.4-1.1,0.7-1.6,1c-0.1,0.1-0.2,0.1-0.3,0.2c0,0-0.1,0.1-0.1,0.1c-0.3-0.1-0.5-0.3-0.7-0.5
		c-0.1-0.2-0.3-0.3-0.5-0.4l-0.2-0.2c-0.2-0.1-0.3-0.2-0.5-0.4C150.2,150.4,150,150.3,149.9,150.3L149.9,150.3L149.9,150.3z
		 M143,158.5c-0.1,0-0.1,0.1-0.1,0.2v0.2c0.1,0.2,0.1,0.4,0.2,0.6l0.2,0.7c0.1,0.2,0.1,0.4,0.2,0.6c0,0.2,0.1,0.4,0.1,0.6
		c-0.2,0.2-0.4,0.4-0.7,0.5c-0.3,0.2-0.7,0.4-1,0.6l-0.4,0.2c-0.1,0.1-0.2,0.2-0.4,0.2c-0.1,0.1-0.1,0.1-0.1,0.2
		c0.1,0.1,0.3,0.2,0.5,0.1c0.1,0,0.2,0,0.2,0.1h0.4c0.2,0.1,0.4,0.1,0.6,0.1h0.5c0.1,0,0.2,0.1,0.3,0.1c0.1,0,0.3,0,0.4,0.1
		c0.1,0.2,0.2,0.4,0.2,0.7c0.1,0.4,0.2,0.8,0.3,1.2c0,0.3,0.1,0.6,0.3,0.8c0.2,0.1,0.4-0.4,0.4-0.5c0.1-0.4,0.3-0.7,0.4-1.1
		c0.1-0.4,0.2-0.7,0.5-1c0.2,0,0.3,0,0.5,0c0.1,0,0.3,0,0.4,0.1c0.2,0,0.4,0,0.5,0.1h0.5c0.2,0,0.4,0.1,0.7,0.1c0.1,0,0.2,0,0.3-0.1
		c0-0.2-0.2-0.4-0.4-0.5c-0.5-0.4-0.9-0.8-1.3-1.2c-0.1-0.1-0.3-0.2-0.4-0.4c0-0.3,0.1-0.5,0.2-0.8c0.2-0.4,0.4-0.9,0.6-1.3
		c0-0.1,0.1-0.3,0.2-0.4V159c-0.3-0.1-0.5,0-0.7,0.2l-0.9,0.5c-0.2,0.1-0.3,0.2-0.5,0.4c-0.2,0.1-0.4,0.2-0.6,0.2
		c-0.1-0.1-0.3-0.1-0.4-0.2c-0.2-0.2-0.4-0.4-0.6-0.6c-0.1-0.1-0.2-0.1-0.3-0.2c-0.1-0.1-0.2-0.1-0.3-0.2
		C143.5,158.8,143.3,158.6,143,158.5L143,158.5L143,158.5z"/>
	<path class="st8" d="M195.3,113c-0.2,0.3-0.5,0.6-0.8,0.9c-0.2,0.3-0.4,0.5-0.7,0.8c-0.3,0.2-0.2,0.2-0.3,0.4
		c-0.3,0.4-0.6,0.7-0.9,1c0,0.1-0.1,0.2-0.1,0.2l-0.2,0.2c-0.1,0.1-0.3,0.3-0.4,0.4c-0.3,0.3-0.5,0.6-0.8,0.9
		c-0.1,0.1-0.2,0.2-0.2,0.4c-0.2,0.2-0.4,0.5-0.6,0.7l-1,1.2c-0.2,0.2-0.4,0.5-0.6,0.7c-0.3,0.3-0.5,0.6-0.7,0.8
		c-0.8,1-1.5,2-2.2,3.1l-0.2,0.4c-0.1,0.3-0.3,0.6-0.5,0.9c-0.1,0.4-0.3,0.7-0.5,1c-0.2,0.6-0.4,1.2-0.6,1.9c0,0.1-0.1,0.2-0.1,0.2
		c-0.1,0.5-0.2,1-0.4,1.5c-0.1,0.2-0.1,0.4-0.1,0.7c-0.1,0.3-0.1,0.7-0.1,1c0,0.3-0.1,0.4-0.1,0.5c0,0.6-0.1,1.2-0.1,1.8
		c0.1,0.4,0,0.8,0.1,1.3c0.1,0.4,0.1,0.9,0.1,1.3c0.2,1.2,0.5,2.5,0.8,3.7c0.1,0.4,0.2,0.9,0.4,1.3c0.2,0.7,0.4,1.5,0.7,2.1
		c0,0.1,0.1,0.2,0.1,0.3c0.2,0.5,0.3,1,0.5,1.5c0.1,0.3,0.2,0.5,0.2,0.8c0.1,0.3,0.2,0.7,0.3,1c0.1,0.2,0.2,0.4,0.2,0.6
		c0.1,0.5,0.3,1,0.4,1.4c0.1,0.4,0.2,0.7,0.2,1l0.2,0.7c0.1,0.4,0.2,0.7,0.3,1.2c0.2,0.8,0.4,1.7,0.5,2.6c0.1,0.6,0.2,1.3,0.2,1.9
		c0,0.1,0.1,0.2,0.1,0.3c0,0.2,0,0.4,0.1,0.6v2.2c0,0.3,0,0.5-0.1,0.8c0,0.1,0,0.3-0.1,0.4c-0.1,0.9-0.2,1.9-0.5,2.8
		c-0.1,0.3-0.1,0.7-0.2,1c0,0.1-0.1,0.2-0.1,0.2l-0.4,0.9l-0.2,0.4c0,0.1,0,0.2-0.1,0.2c-0.1,0.2-0.2,0.4-0.3,0.6
		c-0.1,0.3-0.3,0.5-0.4,0.7v0.1h0.1c0.1-0.1,0.2-0.2,0.3-0.4c0.1-0.1,0.3-0.4,0.5-0.5l1.1-1.3l0.7-0.9c0.2-0.2,0.5-0.5,0.7-0.8
		s0.5-0.6,0.8-0.9c0.2-0.3,0.4-0.5,0.6-0.7c0.1-0.2,0.3-0.3,0.4-0.5c0.3-0.4,0.6-0.8,0.9-1.2c0.3-0.3,0.6-0.7,0.9-1.1l0.4-0.4
		c0.1-0.1,0.1-0.3,0.2-0.4c0.2-0.2,0.3-0.4,0.4-0.7c0.1-0.1,0.1-0.2,0.2-0.3c0-0.1,0.1-0.1,0.1-0.2c0-0.1,0-0.1,0.1-0.2
		c0.1-0.1,0.1-0.2,0.2-0.3c0.4-0.6,0.6-1.2,0.9-1.8c0.1-0.2,0.2-0.5,0.2-0.7c0.1-0.6,0.3-1.2,0.4-1.8c0.1-0.4,0.1-0.8,0.2-1.2
		c0-0.2,0.1-0.4,0.1-0.7c0.1-0.5,0.1-1,0.1-1.6v-0.7c0-0.1,0-0.3-0.1-0.4v-0.4c0-0.4-0.1-0.8-0.1-1.2c-0.1-0.7-0.2-1.3-0.3-2
		s-0.2-1.5-0.4-2.1c-0.2-1-0.5-1.9-0.7-2.9c-0.2-0.7-0.4-1.3-0.6-1.9c-0.4-1.2-0.8-2.4-1.2-3.6c-0.2-0.7-0.4-1.4-0.6-2.1
		c-0.1-0.4-0.2-0.8-0.3-1.2c-0.1-0.1-0.1-0.2-0.1-0.4c-0.1-0.4-0.2-0.8-0.2-1.2c-0.2-0.7-0.4-1.5-0.5-2.3c0-0.4,0-0.8-0.1-1.2
		c0-0.7-0.1-1.5-0.1-2.3c0-0.2,0.1-0.3,0.1-0.5v-0.7c0.1-0.3,0.1-0.5,0.1-0.8c0.1-0.3,0.1-0.7,0.1-1c0.2-1,0.4-1.8,0.7-2.7
		c0-0.1,0-0.2,0.1-0.2V118c0.1-0.1,0.1-0.3,0.2-0.4c0-0.1,0.1-0.2,0.1-0.2c0,0,0.1-0.1,0.1-0.1c0,0,0.1-0.1,0.1-0.2
		c0.1-0.1,0.1-0.3,0.2-0.4c0-0.2,0.1-0.3,0.2-0.5c0.1-0.1,0.1-0.3,0.2-0.4c0.1-0.3,0.3-0.6,0.4-0.8c0.2-0.4,0.5-0.8,0.8-1.3
		c0.1-0.2,0.2-0.3,0.3-0.4C195.3,113.1,195.3,113,195.3,113L195.3,113L195.3,113L195.3,113z M200.2,115.1c-0.1,0.3-0.1,0.6,0,0.8
		v1.2c0,0.1,0.1,0.3,0.1,0.4c0.1,0.5,0.2,1,0.2,1.5c0.1,0.5,0.2,0.8,0.2,1.2l0.4,1.5c0.3,1.3,0.7,2.6,1.1,3.9c0.5,1.5,1,3.1,1.5,4.6
		c0.2,0.7,0.3,1.3,0.5,2c0,0.1,0.1,0.3,0.1,0.4c0.1,0.5,0.2,1,0.3,1.6l0.2,0.9c0.1,0.4,0.1,0.7,0.2,1c0.2,0.9,0.3,1.9,0.3,2.8
		c0,0.5,0,1,0,1.5c0,0.5-0.1,1.1-0.1,1.6c-0.1,0.2-0.1,0.3-0.1,0.5c0,0.2-0.1,0.4-0.1,0.6c0,0.1,0,0.3-0.1,0.4
		c0,0.2-0.1,0.3-0.1,0.5c-0.1,0.3-0.1,0.6-0.2,0.8c-0.1,0.3-0.1,0.6-0.2,0.9c-0.1,0.2-0.2,0.5-0.2,0.7l-0.4,0.7c0,0,0,0.1-0.1,0.1
		c0,0.1-0.1,0.1-0.1,0.2c0,0.1,0,0.2-0.1,0.3c-0.1,0.1-0.2,0.3-0.2,0.4c-0.1,0.1-0.1,0.2-0.2,0.3c0,0-0.1,0.1-0.1,0.2
		c-0.1,0.1-0.1,0.1,0,0.1c0.1-0.1,0.2-0.3,0.3-0.4c0.3-0.3,0.5-0.5,0.8-0.8c0.4-0.5,0.8-1,1.2-1.5l0.1-0.1c0,0,0-0.1,0.1-0.1
		c0.1,0,0.1-0.1,0.1-0.1c0.2-0.1,0.3-0.3,0.4-0.5l0.7-0.9l1.3-1.5c0.2-0.2,0.4-0.4,0.6-0.7c0.2-0.2,0.4-0.5,0.5-0.7
		c0.3-0.4,0.5-0.7,0.8-1c0.1-0.1,0.2-0.2,0.3-0.4c0.1-0.1,0.1-0.1,0.1-0.2l0.5-0.9c0.1-0.1,0.2-0.2,0.2-0.4c0.2-0.3,0.3-0.6,0.5-0.8
		c0.2-0.4,0.4-0.9,0.6-1.3c0.5-1.3,0.8-2.6,1-3.9c0.1-0.4,0.1-0.8,0.1-1.2v-2.3c0-1.1-0.2-2.1-0.4-3.1c0-0.2-0.1-0.4-0.1-0.7
		s-0.1-0.2-0.1-0.4c-0.1-0.1-0.2-0.3-0.4-0.5c-0.5-0.5-1-1-1.5-1.6c-0.7-0.7-1.5-1.4-2.2-2.1c-0.3-0.3-0.7-0.6-1-0.8l-0.4-0.4
		l-0.7-0.5c-0.2-0.2-0.5-0.4-0.7-0.5c-0.5-0.4-1-0.7-1.5-1.1s-1.2-0.7-1.8-1.1c-0.2-0.2-0.5-0.3-0.8-0.5c-0.4-0.2-0.7-0.4-1-0.5
		C200.7,115.3,200.5,115.2,200.2,115.1L200.2,115.1L200.2,115.1z M218.2,132.8c-0.1,0.1-0.2,0.2-0.3,0.3c-0.3,0.3-0.5,0.6-0.8,1
		c-0.5,0.5-1,1.2-1.5,1.7c-0.2,0.3-0.5,0.5-0.7,0.8c-0.2,0.3-0.3,0.5-0.5,0.8c-0.2,0.3-0.4,0.6-0.7,0.9c-0.2,0.4-0.4,0.8-0.7,1.3
		c-0.4,0.7-0.8,1.5-1,2.4c-0.3,1-0.6,2-0.8,3c0,0.2-0.1,0.4-0.1,0.6s-0.1,0.4-0.1,0.6c0,0.1,0,0.2-0.1,0.4v0.4
		c-0.1,1.4-0.1,2.8,0.1,4.2c0.1,0.8,0.2,1.6,0.4,2.4c0.2,1,0.5,1.9,0.7,2.8c0.1,0.1,0.1,0.3,0.2,0.4c0,0.1,0.1,0.1,0.1,0.2
		c0,0.1,0.1,0.1,0.1,0.2s0.1,0.1,0.1,0.2c0,0.1,0,0.2,0.1,0.4c0,0.1,0.1,0.2,0.1,0.2c0.1,0,0.1,0.1,0.1,0.2c0,0.1,0.1,0.1,0.1,0.2
		c0,0.1,0.1,0.1,0.1,0.2v0.2c0.1,0.1,0.1,0.2,0.1,0.2c0.4,1.2,0.7,2.3,1.1,3.5c0.2,0.5,0.4,1,0.5,1.6c0.4,1.5,0.8,2.9,1.1,4.3
		c0.2,0.7,0.3,1.5,0.4,2.3c0.1,0.6,0.1,1.2,0.2,1.8v0.4c0.1,0.4,0.1,0.8,0.1,1.3v0.5c-0.1,0.9-0.1,1.8-0.2,2.5
		c-0.1,0.2-0.1,0.4-0.1,0.6c-0.1,0.4-0.2,0.7-0.2,1.1c-0.1,0.4-0.3,0.9-0.4,1.3c-0.1,0.2-0.2,0.4-0.3,0.7v0.1
		c0.1-0.1,0.2-0.2,0.2-0.3c0.1-0.2,0.2-0.3,0.4-0.5c0.4-0.6,0.8-1.3,1.2-1.9c0.2-0.4,0.5-0.8,0.8-1.3c1-1.8,1.9-3.6,2.7-5.4
		c0.1-0.2,0.2-0.5,0.3-0.8c0.1-0.4,0.2-0.8,0.4-1.2c0.1-0.3,0.2-0.6,0.3-0.8l0.4-1.3c0.2-0.7,0.4-1.4,0.6-2.1
		c0.1-0.2,0.1-0.5,0.2-0.8c0-0.1,0.1-0.1,0.1-0.2l-0.1-0.1c0.1-0.2,0.2-0.4,0.2-0.7c0.1-0.2,0.1-0.4,0.2-0.7l0.2-1.1
		c0.1-0.7,0.2-1.5,0.4-2.2c0.1-1,0.2-2.1,0.2-3.2V156c0.1-0.2,0.1-0.3,0.1-0.5c-0.1-0.3-0.2-0.6-0.2-0.8c-0.1-0.1-0.1-0.1-0.1-0.2
		v-0.2c0-0.1-0.1-0.1-0.1-0.2c0-0.1-0.1-0.2-0.1-0.2c0-0.1-0.1-0.2-0.1-0.3v-0.1c-0.1-0.2-0.1-0.3-0.1-0.5c-0.1-0.3-0.2-0.7-0.4-1
		c-0.3-0.8-0.5-1.6-0.8-2.5c-0.3-0.8-0.5-1.8-0.8-2.7c-0.3-0.9-0.5-1.6-0.7-2.4c-0.1-0.2-0.1-0.4-0.2-0.6c-0.1-0.7-0.3-1.3-0.4-2
		c-0.1-0.1-0.1-0.3-0.1-0.4c0-0.4,0-0.9-0.1-1.3c-0.1-0.9-0.1-1.8-0.1-2.7V137c0-0.2,0-0.4,0.1-0.7c0-0.2,0-0.4,0.1-0.6v-0.2
		l-0.2-0.4c-0.1-0.3-0.3-0.5-0.4-0.8l-0.2-0.4c-0.2-0.3-0.3-0.5-0.4-0.8C218.3,133.1,218.3,132.9,218.2,132.8L218.2,132.8
		L218.2,132.8z M177.9,133.4c-0.1,0.2-0.3,0.4-0.4,0.5c-0.2,0.2-0.5,0.5-0.7,0.8c0,0-0.1,0.1-0.1,0.1c-0.3,0.3-0.6,0.6-0.9,1
		c-0.3,0.4-0.4,0.5-0.6,0.7c-0.2,0.3-0.5,0.6-0.8,0.9c-0.4,0.5-0.8,1-1.3,1.5c-0.5,0.7-1.1,1.3-1.6,1.9c-0.2,0.3-0.5,0.6-0.8,1
		c-0.9,1.2-1.7,2.5-2.4,3.8c-0.5,1-0.9,2.1-1.2,3.3c-0.2,0.6-0.3,1.2-0.4,1.9c0,0.4-0.1,0.7-0.1,1c-0.1,0.3-0.1,0.6-0.1,0.8v0.4
		c-0.1,1.2,0,2.4,0.1,3.6c0.1,0.2,0.1,0.5,0.1,0.8c0.1,0.7,0.3,1.4,0.4,2.1c0.1,0.7,0.3,1,0.4,1.6c0,0.1,0.1,0.3,0.1,0.4
		c0.1,0.1,0.1,0.3,0.1,0.4l0.4,1.3l0.4,1.1c0.2,0.8,0.4,1.5,0.7,2.3c0.1,0.3,0.2,0.5,0.2,0.8c0.2,0.4,0.3,0.8,0.4,1.3
		c0.1,0.2,0.1,0.3,0.1,0.5c0.1,0.4,0.2,0.8,0.4,1.2c0.1,0.2,0.1,0.5,0.2,0.7c0.1,0.2,0.1,0.4,0.2,0.6c0,0.2,0.1,0.5,0.1,0.7
		c0.1,0.3,0.1,0.6,0.2,1c0,0.3,0.1,0.5,0.1,0.8c0,0.1,0,0.2,0.1,0.3c0,0,0,0.1,0.1,0.1v0.1c0.1,0.4,0.1,0.7,0.2,1
		c0.1,0.4,0.1,0.9,0.1,1.3c0,0.3,0.1,0.6,0.1,0.9c0.1,0.4,0.1,0.8,0.1,1.2v0.2c0,0.7-0.1,1.3-0.1,2c0,0.3,0,0.6-0.1,0.9
		c0,0.1-0.1,0.2-0.1,0.2l-0.2,1.1l-0.2,0.7c-0.2,0.5-0.4,1.2-0.6,1.7c-0.1,0.4-0.3,0.7-0.5,1c-0.2,0.3-0.3,0.6-0.5,0.8
		c-0.1,0.1-0.1,0.2-0.1,0.3c0.1-0.2,0.3-0.3,0.5-0.5c0.5-0.7,1.2-1.5,1.8-2.1c0.2-0.2,0.4-0.4,0.5-0.7c0.3-0.3,0.6-0.7,0.8-1
		c0.3-0.4,0.7-0.7,1-1.2c0.3-0.2,0.5-0.5,0.7-0.8c0.5-0.5,0.9-1.1,1.4-1.6c0.3-0.4,0.7-0.8,1-1.2c0.3-0.4,0.4-0.8,0.7-1.2
		c0.3-0.4,0.4-0.8,0.6-1.2c0.4-0.7,0.7-1.4,0.9-2.1c0.4-1.6,0.7-3.2,0.7-4.9v-1.2c-0.1-1.2-0.2-2.5-0.4-3.7
		c-0.1-0.3-0.1-0.5-0.2-0.8c-0.1-0.5-0.2-0.9-0.3-1.3c-0.2-0.9-0.4-1.8-0.7-2.7c-0.1-0.4-0.3-0.8-0.4-1.3c-0.2-0.8-0.5-1.6-0.7-2.4
		c-0.1-0.1-0.1-0.3-0.2-0.4c-0.1-0.5-0.4-1.1-0.5-1.6s-0.2-0.8-0.4-1.2c-0.6-1.9-1.1-3.8-1.4-5.8c-0.1-0.7-0.2-1.3-0.2-2
		c-0.1-0.3-0.1-0.6-0.1-0.8v-0.3c0-0.6,0-1.2,0.1-1.8c0-0.2,0-0.4,0.1-0.6c0.1-0.8,0.2-1.7,0.4-2.5c0.1-0.4,0.2-0.9,0.4-1.3
		c0.1-0.3,0.2-0.7,0.3-1c0.3-0.9,0.7-1.7,1.2-2.5c0.1-0.2,0.2-0.4,0.4-0.7c0.1-0.1,0.2-0.2,0.2-0.3l0,0L177.9,133.4z M206.7,146.2
		c-0.1,0.1-0.2,0.3-0.3,0.4c-0.4,0.4-0.7,0.9-1.2,1.3c-0.2,0.3-0.4,0.6-0.7,0.8c-0.2,0.2-0.4,0.4-0.5,0.6c-0.7,0.8-1.3,1.6-1.9,2.3
		c-0.7,0.7-1,1.2-1.6,1.8l-0.9,1.1c-0.1,0.1-0.1,0.2-0.1,0.2c0,0.1-0.1,0.1-0.1,0.2l-0.2,0.2c0,0.1-0.1,0.2-0.2,0.2
		c-0.1,0.2-0.3,0.4-0.4,0.6c-1,1.3-1.8,2.7-2.4,4.2c-0.2,0.5-0.4,1.2-0.5,1.8c-0.1,0.2-0.1,0.5-0.2,0.8c-0.1,0.4-0.2,0.8-0.2,1.2
		c-0.1,0.5-0.1,0.9-0.1,1.4c-0.1,0.4-0.1,0.8-0.1,1.2c-0.1,1.7,0.1,3.3,0.4,5c0.1,0.6,0.3,1.3,0.5,1.9c0.1,0.6,0.3,1.1,0.4,1.7
		l1.3,4c0.1,0.4,0.2,0.7,0.4,1c0.1,0.4,0.2,0.7,0.4,1c0.1,0.3,0.1,0.5,0.2,0.7c0.1,0.5,0.3,1,0.5,1.5c0.2,0.8,0.4,1.7,0.6,2.5
		c0.1,0.5,0.3,1.2,0.4,1.8c0,0.4,0.1,0.8,0.2,1.2c0.1,0.6,0.2,1.2,0.2,1.8c0,0.4,0.1,0.7,0.1,1.1c0.1,0.4,0.1,0.8,0.1,1.3v0.7h0.1
		c0.1,0,0.1-0.1,0.2-0.1c0.2-0.1,0.4-0.3,0.5-0.4c0.4-0.2,0.7-0.4,1-0.5l0.5-0.3c0.2-0.2,0.5-0.4,0.8-0.5c0.5-0.3,1-0.6,1.5-1
		s0.8-0.6,1.2-0.9c0.2-0.1,0.3-0.2,0.5-0.4l0.9-0.7c0.2-0.1,0.3-0.2,0.4-0.3c0.1-0.2,0.1-0.4,0.2-0.6c0.1-0.2,0.1-0.4,0.1-0.5
		c0.1-0.2,0.1-0.4,0.1-0.5c0.2-1,0.3-2,0.4-3v-0.5c0-0.6,0-1.2,0-1.8c0-0.2,0-0.4-0.1-0.6c0-0.4-0.1-0.7-0.1-1c0-0.3-0.1-0.7-0.2-1
		c0-0.4-0.1-0.9-0.2-1.3c0-0.1-0.1-0.2-0.1-0.3c0,0,0-0.1-0.1-0.1v-0.2c-0.1-0.2-0.1-0.5-0.2-0.8c-0.1-0.3-0.2-0.8-0.3-1.2
		c-0.2-0.8-0.4-1.5-0.6-2.3c-0.3-1-0.6-1.9-1-2.8l-0.7-2.4c-0.5-1.3-0.9-2.7-1.3-4c-0.4-1.6-0.7-3.2-0.8-4.8c-0.1-1,0-2,0-3
		c0.1-0.2,0.1-0.4,0.1-0.7c0-0.4,0-0.7,0.1-1.1c0.1-0.5,0.2-1,0.3-1.5c0.1-0.2,0.1-0.4,0.1-0.5c0.1-0.5,0.3-1.1,0.5-1.6
		c0.1-0.2,0.2-0.5,0.2-0.7l0.9-1.8c0.2-0.3,0.3-0.6,0.5-0.8c0.1-0.3,0.3-0.5,0.5-0.8C206.6,146.4,206.7,146.3,206.7,146.2
		L206.7,146.2L206.7,146.2z M161.7,152.5l-0.4,0.4c-0.2,0.2-0.4,0.5-0.5,0.7l-0.7,0.9c-0.3,0.4-0.6,0.7-0.9,1
		c-0.2,0.3-0.4,0.5-0.7,0.8c-0.2,0.2-0.4,0.5-0.6,0.7c-0.1,0.1-0.2,0.2-0.2,0.3c-0.2,0.2-0.4,0.4-0.6,0.7c-0.1,0.2-0.3,0.4-0.4,0.5
		l-0.4,0.4l-0.7,0.8c-0.4,0.4-0.7,0.8-1,1.2c-0.1,0.1-0.1,0.1-0.2,0.2c-0.1,0.1-0.2,0.3-0.3,0.4l-0.4,0.5c-0.3,0.4-0.5,0.8-0.7,1.2
		c-0.2,0.2-0.3,0.4-0.4,0.7c-1.1,2.1-1.7,4.4-1.9,6.7c-0.1,0.2-0.1,0.4-0.1,0.6c0,0.4,0,0.9-0.1,1.3c0,1.2,0.1,2.3,0.2,3.5
		c0.1,0.6,0.2,1.3,0.4,1.9c0.1,0.2,0.1,0.4,0.1,0.5c0.2,0.8,0.4,1.6,0.7,2.4c0.1,0.2,0.2,0.5,0.2,0.8c0.1,0.3,0.2,0.7,0.3,1.1
		c0.1,0.1,0.1,0.3,0.1,0.4c0.2,0.5,0.3,1,0.5,1.5c0.2,0.5,0.2,0.8,0.4,1.2s0.2,0.5,0.2,0.8c0.1,0.3,0.1,0.4,0.2,0.6
		c0.2,0.5,0.3,1.1,0.4,1.6c0.1,0.5,0.2,0.9,0.3,1.4c0.1,0.2,0.1,0.4,0.1,0.6c0,0.1,0.1,0.3,0.1,0.4c0,0.1,0,0.2,0.1,0.4
		c0.1,0.1,0.2,0.2,0.4,0.3c0.4,0.2,0.8,0.5,1.3,0.8c1.4,0.8,2.7,1.6,4.2,2.2l1.2,0.5c0.1,0,0.3,0.1,0.5,0.1c0.1-0.2,0.2-0.4,0.3-0.5
		l0.4-1.1c0.5-1.6,0.8-3.3,0.8-5c0-0.6,0-1.2-0.1-1.8c0-0.6-0.1-1.2-0.2-1.8v-0.2c-0.1-0.2-0.1-0.5-0.1-0.7c-0.1-0.5-0.2-1-0.2-1.5
		c-0.1-0.2-0.1-0.5-0.2-0.8c-0.2-0.8-0.4-1.5-0.5-2.3c-0.1-0.1-0.1-0.2-0.1-0.4l-0.4-1.3c-0.1-0.5-0.3-0.9-0.4-1.4s-0.3-0.8-0.4-1.3
		c-0.2-0.7-0.4-1.4-0.7-2.1l-0.2-0.7c-0.1-0.4-0.2-0.8-0.4-1.2c-0.2-0.7-0.4-1.5-0.6-2.1c-0.2-1-0.4-1.9-0.6-2.9v-0.1
		c-0.1-0.5-0.1-1-0.2-1.6c0-0.5,0-0.9,0-1.4c0-0.1-0.1-0.2-0.1-0.4c0-0.1,0.1-0.4,0.1-0.6c0-0.3,0-0.6,0.1-1c0-0.3,0.1-0.5,0.1-0.8
		c0-0.3,0.1-0.8,0.2-1.2c0-0.2,0.1-0.3,0.1-0.4s0.1-0.2,0.1-0.3s0.1-0.2,0.1-0.3c0-0.1,0.1-0.2,0.1-0.3c0.1-0.4,0.2-0.9,0.4-1.3
		c0.2-0.5,0.3-1,0.5-1.5v-0.1c0-0.1,0.1-0.1,0.1-0.1c0-0.1,0.1-0.1,0.1-0.2c0-0.1,0.2-0.4,0.2-0.5c0.1-0.1,0.1-0.3,0.2-0.4
		c0-0.1,0-0.2,0.1-0.2c0.1-0.1,0.1-0.1,0.1-0.2l0.2-0.4c0.2-0.2,0.3-0.4,0.4-0.6c0-0.1,0.1-0.2,0.1-0.2
		C161.6,152.6,161.6,152.6,161.7,152.5L161.7,152.5L161.7,152.5z M190.9,164.8c-0.2,0.1-0.3,0.3-0.4,0.5c-0.5,0.5-0.9,1-1.3,1.6
		c-0.3,0.4-0.7,0.7-1,1.2c-0.7,0.7-1.3,1.5-1.9,2.2c-0.3,0.4-0.5,0.7-0.8,1.1c-0.3,0.4-0.5,0.5-0.7,0.8c-0.2,0.3-0.4,0.5-0.7,0.8
		c-0.2,0.3-0.5,0.6-0.8,1c-0.2,0.2-0.3,0.4-0.5,0.5c-0.7,1-1.4,2.1-1.9,3.3c-0.2,0.5-0.5,1-0.7,1.5l-0.4,1.3c-0.1,0.5-0.2,1-0.4,1.6
		c-0.1,0.5-0.2,1.2-0.2,1.8c0,0.2,0,0.4,0,0.7v2.2c0.1,0.5,0.1,1,0.1,1.5c0,0.2,0.1,0.5,0.1,0.8c0.1,0.7,0.2,1.3,0.4,1.9
		c0.1,0.4,0.2,0.9,0.3,1.4c0.1,0.1,0.1,0.2,0.1,0.3c0,0.2,0.1,0.4,0.2,0.6c0.1,0.5,0.3,1,0.4,1.5c0.3,0.8,0.6,1.7,0.9,2.6
		c0.1,0.4,0.3,0.9,0.4,1.4c0.1,0.2,0.1,0.3,0.2,0.4c0.1,0.1,0.2,0.1,0.4,0.1c0,0,0.1-0.1,0.2-0.1h0.5c0-0.1,0.1-0.1,0.1-0.1h0.4
		c0,0,0.1-0.1,0.2-0.1h0.5c0,0,0.1-0.1,0.1-0.1h0.4c0-0.1,0.1-0.1,0.1-0.1h0.3c0.1,0,0.1-0.1,0.1-0.1h0.3c0,0,0.1,0,0.1-0.1h0.2
		c0,0,0.1-0.1,0.2-0.1h0.2c0,0,0.1-0.1,0.1-0.1h0.2c0,0,0.1-0.1,0.1-0.1h0.2c0,0,0.1-0.1,0.2-0.1c0.1,0,0.2-0.1,0.2-0.1h0.1
		c0.1,0,0.2-0.1,0.4-0.1c0.1-0.1,0.2-0.1,0.3-0.1h0.1c0.1,0,0.2-0.1,0.2-0.1c0.1-0.1,0.2-0.1,0.3-0.1c0.1-0.1,0.2-0.1,0.2-0.1
		c0.2,0,0.4-0.1,0.6-0.1c0.6-0.1,1.2-0.3,1.8-0.5c0.3-0.1,0.6-0.2,0.9-0.3c0-0.1-0.1-0.3-0.1-0.4c0-0.3-0.1-0.7-0.2-1
		c-0.3-1.2-0.5-2.3-0.9-3.4c-0.1-0.3-0.1-0.6-0.2-0.8c-0.1-0.2-0.2-0.5-0.2-0.7c-0.3-1-0.7-1.9-1-2.9c-0.2-0.4-0.3-0.9-0.5-1.3
		c-0.2-0.6-0.4-1.2-0.5-1.8c-0.2-0.8-0.5-1.6-0.7-2.4c-0.2-0.7-0.4-1.4-0.5-2.1c-0.3-1.4-0.4-2.9-0.4-4.4v-0.7c0-0.3,0-0.7,0.1-1
		c0-0.3,0-0.6,0.1-0.9c0.1-0.9,0.3-1.8,0.5-2.7c0.3-1.2,0.8-2.4,1.4-3.5c0.2-0.4,0.5-0.9,0.8-1.3c0.1-0.2,0.2-0.4,0.3-0.5
		c0-0.1,0.1-0.2,0.2-0.2L190.9,164.8L190.9,164.8L190.9,164.8z M146.2,170.6c-0.1,0.2-0.3,0.3-0.4,0.4c-0.2,0.4-0.5,0.7-0.7,1
		c-0.3,0.3-0.6,0.6-0.8,1l-0.3,0.3l-0.8,1c-0.2,0.2-0.4,0.5-0.6,0.7c-0.4,0.4-0.8,0.9-1.2,1.4c-0.1,0.1-0.1,0.2-0.2,0.2
		c0,0.1-0.1,0.1-0.1,0.2c0,0.1,0,0.3,0.1,0.4c0.1,0.2,0.3,0.5,0.4,0.7c0.2,0.4,0.5,0.8,0.8,1.2c0.1,0.2,0.3,0.4,0.4,0.6
		c0.1-0.2,0.2-0.4,0.1-0.6c0-0.2,0.1-0.4,0.1-0.5c0.1-0.4,0.2-0.8,0.3-1.2c0.3-1.2,0.7-2.3,1.2-3.4c0.2-0.5,0.5-1,0.8-1.5
		s0.5-0.8,0.8-1.2c0.1-0.2,0.3-0.4,0.4-0.5v0L146.2,170.6L146.2,170.6z M173.4,185.3c-0.4,0.5-0.8,0.9-1.2,1.4
		c-0.4,0.5-0.7,0.8-1,1.3c-0.4,0.4-0.7,0.8-1,1.2c-0.4,0.4-0.7,0.8-1,1.2c-0.4,0.4-0.7,0.8-1,1.2c-0.7,0.7-1.3,1.5-1.9,2.2l-1.6,2
		l-0.2,0.2c-0.1,0.1-0.2,0.2-0.3,0.4v0.1c0.1,0.1,0.2,0.1,0.4,0.1c0.1,0.1,0.5,0.2,0.8,0.2c0.4,0.2,0.9,0.3,1.3,0.4
		c0.2,0.1,0.3,0.1,0.5,0.2c0.2,0.1,0.4,0.1,0.6,0.2c0.4,0.1,0.8,0.2,1.2,0.3c0.2,0,0.5,0,0.7,0.1c0.2,0.1,0.5,0.1,0.7,0.1
		c0,0.1,0.1,0.1,0.1,0v-0.4c0-0.2-0.1-0.4-0.1-0.6c0-0.7,0-1.3,0.1-1.9c0.1-0.8,0.1-1.7,0.2-2.5c0.1-0.3,0.1-0.7,0.2-1
		c0-0.2,0.1-0.4,0.1-0.6c0.1-0.5,0.2-1,0.4-1.5c0.1-0.3,0.2-0.7,0.4-1c0.2-0.5,0.4-1,0.7-1.5c0.2-0.4,0.4-0.7,0.6-1
		C173.1,185.8,173.3,185.6,173.4,185.3L173.4,185.3L173.4,185.3L173.4,185.3z"/>
</g>
</svg>
