<svg id="Layer_2" data-name="Layer 2" xmlns="http://www.w3.org/2000/svg" viewBox="0 0 90 90"><defs><style>.cls-1{fill:#fff;}.cls-2{fill:#f9f8f4;}.cls-3{fill:#446586;}</style></defs><title>pricing-fisma-moderate</title><circle class="cls-1" cx="45" cy="45" r="45"/><polygon class="cls-2" points="73.95 67.42 73.68 36.63 47.15 21 20.88 36.17 21.14 66.96 47.68 82.59 73.95 67.42"/><path class="cls-3" d="M50.94,84.26L22.47,67.61l-0.19-33L50.57,18.31,79,35l0.19,33ZM77.29,66.91L77,36.12,50.49,20.49,24.22,35.66l0.27,30.8L51,82.08Z" transform="translate(-5.34 -5.49)"/><polygon class="cls-3" points="19.14 28.53 45.68 44.16 71.95 28.99 73.88 30.01 45.6 46.34 17.13 29.69 19.14 28.53"/><path class="cls-3" d="M51.94,27v8h7.68v2H51.94V45H49.76V37H42.08v-2h7.68V27h2.18Z" transform="translate(-5.34 -5.49)"/></svg>