<svg id="Layer_2" data-name="Layer 2" xmlns="http://www.w3.org/2000/svg" viewBox="0 0 90 90"><defs><style>.cls-1{fill:#fff;}.cls-2{fill:#f69f93;}.cls-2,.cls-3{opacity:0.5;}.cls-3{fill:#446586;}</style></defs><title>pricing-prototype</title><circle class="cls-1" cx="45" cy="45" r="45"/><path class="cls-2" d="M36,24V74a6.5,6.5,0,0,0,13,0V24H36Z" transform="translate(-5.34 -4.49)"/><path class="cls-2" d="M56,39V74a6.5,6.5,0,0,0,13,0V39H56Z" transform="translate(-5.34 -4.49)"/><path class="cls-3" d="M40.5,79.5A8.51,8.51,0,0,1,32,71V19H49V71A8.51,8.51,0,0,1,40.5,79.5ZM34,21V71a6.5,6.5,0,0,0,13,0V21H34Z" transform="translate(-5.34 -4.49)"/><path class="cls-3" d="M60.5,79.5A8.51,8.51,0,0,1,52,71V34H69V71A8.51,8.51,0,0,1,60.5,79.5ZM54,36V71a6.5,6.5,0,0,0,13,0V36H54Z" transform="translate(-5.34 -4.49)"/></svg>