<?xml version="1.0" encoding="utf-8"?>
<!-- Generator: Adobe Illustrator 19.2.1, SVG Export Plug-In . SVG Version: 6.00 Build 0)  -->
<svg version="1.1" xmlns="http://www.w3.org/2000/svg" xmlns:xlink="http://www.w3.org/1999/xlink" x="0px" y="0px"
	 viewBox="0 0 100 100" style="enable-background:new 0 0 100 100;" xml:space="preserve">
<style type="text/css">
	.st0{fill:#FFFFFF;}
	.st1{fill:#F9F8F4;}
	.st2{fill:#446586;}
</style>
<g id="Layer_1">
</g>
<g id="Layer_2">
	<circle class="st0" cx="50.3" cy="50.5" r="45"/>
	<path class="st1" d="M36,25v50c0,3.6,2.9,6.5,6.5,6.5S49,78.6,49,75V25H36z"/>
	<path class="st1" d="M56,40v35c0,3.6,2.9,6.5,6.5,6.5S69,78.6,69,75V40H56z"/>
	<path class="st2" d="M40.5,80.5c-4.7,0-8.5-3.8-8.5-8.5V20h17v52C49,76.7,45.2,80.5,40.5,80.5z M34,22v50c0,3.6,2.9,6.5,6.5,6.5
		S47,75.6,47,72V22H34z"/>
	<path class="st2" d="M60.5,80.5c-4.7,0-8.5-3.8-8.5-8.5V35h17v37C69,76.7,65.2,80.5,60.5,80.5z M54,37v35c0,3.6,2.9,6.5,6.5,6.5
		S67,75.6,67,72V37H54z"/>
</g>
</svg>
