<svg id="Layer_2" data-name="Layer 2" xmlns="http://www.w3.org/2000/svg" viewBox="0 0 90 90"><defs><style>.cls-1{fill:#fff;}.cls-2{fill:#f69f93;}.cls-2,.cls-3{opacity:0.5;isolation:isolate;}.cls-3{fill:#446586;}</style></defs><title>pricing-sandbox</title><circle class="cls-1" cx="45" cy="45" r="45"/><path class="cls-2" d="M31.18,66.94c0,3.47,5.94,6.27,18.41,6.27S68.1,70.4,68.1,66.94l4.27-30.25c0-3.47-10.3-6.27-22.77-6.27s-22.77,2.81-22.77,6.27Z" transform="translate(-5.26 -4.98)"/><path class="cls-3" d="M68.48,33.24a0.81,0.81,0,0,0-.55.22l0,0c-2.3,2.49-10,4.39-19.43,4.68-9.41-.29-17.13-2.19-19.43-4.68l0,0a0.82,0.82,0,1,0-1.11,1.2c1.74,2.64,9.44,4.7,19.06,5.08a0.8,0.8,0,0,0,.25.05l0.08,0v0l1.16,0,1.16,0v0l0.08,0A0.8,0.8,0,0,0,50,39.73c9.62-.38,17.32-2.44,19.06-5.08A0.82,0.82,0,0,0,68.48,33.24Z" transform="translate(-5.26 -4.98)"/><path class="cls-3" d="M77,45.67a14.94,14.94,0,0,0-4.5-10.4l0.5-3.8c0-3.76-11-6.81-24.56-6.81s-24.56,3-24.56,6.81l0.92,7a15.19,15.19,0,0,0-1,2,13.72,13.72,0,0,0-1,5.17,14.3,14.3,0,0,0,2.8,8.39,18.28,18.28,0,0,0,1.5,1.8l1.09,8.3c0,3.76,6.73,6.81,20.26,6.81s20.29-3,20.29-6.81l0.71-5.45C74.14,55.36,77,50.79,77,45.67ZM48.59,26.42c12.48,0,22.77,2.81,22.77,6.27L67.89,57.33c-0.27.18-.51,0.37-0.79,0.54a33.3,33.3,0,0,1-17.2,4.45c-8.66,0-16.29-2.88-20.85-7.25L25.82,32.69C25.82,29.23,36.12,26.42,48.59,26.42Zm-24,19.25a11.3,11.3,0,0,1,.65-3.75L26.6,52.13A11.91,11.91,0,0,1,24.61,45.67ZM67.1,62.94c0,3.47-6,6.27-18.51,6.27S30.18,66.4,30.18,62.94L29.47,58c4.93,3.87,12.19,6.28,20.42,6.28a35.7,35.7,0,0,0,16.85-3.95c0.27-.15.52-0.31,0.78-0.46Zm2.71-7,2.36-18.1a12.4,12.4,0,0,1,3,7.87C75.18,49.53,73.16,53.07,69.81,55.9Z" transform="translate(-5.26 -4.98)"/></svg>