<svg id="Layer_1" data-name="Layer 1" xmlns="http://www.w3.org/2000/svg" viewBox="0 0 40 40"><defs><style>.cls-1{fill:#999;}</style></defs><title>icon-external</title><path class="cls-1" d="M25.05,21.34H24.38a0.32,0.32,0,0,0-.34.34V25a1.69,1.69,0,0,1-1.69,1.69H13.62a1.69,1.69,0,0,1-1.71-1.67V16.29A1.69,1.69,0,0,1,13.6,14.6H21a0.32,0.32,0,0,0,.34-0.34V13.59a0.32,0.32,0,0,0-.3-0.34H13.62a3,3,0,0,0-3,3V25a3,3,0,0,0,3,3h8.76a3,3,0,0,0,3-3V21.68a0.32,0.32,0,0,0-.3-0.34h0Z"/><path class="cls-1" d="M29.23,12.11a0.65,0.65,0,0,0-.47-0.2H23.37A0.67,0.67,0,0,0,22.89,13l1.85,1.85-6.87,6.87a0.33,0.33,0,0,0,0,.47h0l1.2,1.2a0.33,0.33,0,0,0,.47,0h0l6.87-6.87,1.85,1.85A0.67,0.67,0,0,0,29.42,18V12.58a0.65,0.65,0,0,0-.2-0.47h0Z"/></svg>