<?xml version="1.0" encoding="utf-8"?>
<!-- Generator: Adobe Illustrator 19.2.1, SVG Export Plug-In . SVG Version: 6.00 Build 0)  -->
<svg version="1.1" id="Layer_1" xmlns="http://www.w3.org/2000/svg" xmlns:xlink="http://www.w3.org/1999/xlink" x="0px" y="0px"
	 viewBox="0 0 20 15.7" style="enable-background:new 0 0 20 15.7;" xml:space="preserve">
<style type="text/css">
	.st0{fill:#FFFFFF;}
</style>
<title>email</title>
<path class="st0" d="M17,12.1c0,0.7-0.6,1.2-1.2,1.3H4.2c-0.7,0-1.2-0.6-1.2-1.3V3.6c0-0.7,0.6-1.2,1.2-1.2h11.5
	C16.4,2.4,17,3,17,3.6l0,0V12.1z M15.7,3.4H4.2C4.1,3.4,4,3.5,4,3.6c0,0.9,0.4,1.7,1.2,2.2c1,0.8,2.1,1.6,3.1,2.4
	C8.7,8.7,9.4,9.4,10,9.4l0,0c0.5,0,1.3-0.7,1.7-1.1c1-0.8,2.1-1.6,3.1-2.4c0.6-0.5,1-1.2,1.1-2C16,3.7,16,3.4,15.7,3.4z M16,6.1
	c-0.2,0.2-0.3,0.4-0.5,0.5c-1.1,0.9-2.2,1.7-3.4,2.6c-0.6,0.6-1.3,1-2.1,1.1l0,0c-0.8-0.1-1.5-0.5-2.1-1.1C6.8,8.4,5.7,7.5,4.5,6.6
	C4.3,6.5,4.2,6.3,4,6.1v6c0,0.1,0.1,0.2,0.3,0.3h11.5c0.1,0,0.2-0.1,0.3-0.3v-6H16z"/>
</svg>
