<svg xmlns="http://www.w3.org/2000/svg" version="1.1" xmlns:dc="http://purl.org/dc/elements/1.1/" viewBox="0 0 36.000001 36.000001" height="320px" width="320px">
<circle cx="19.799999" cy="19.799999" r="17.774" transform="translate(-1.8,-1.8)" style="fill:#ffffff;fill-rule:evenodd" />
<path d="M 5.053,11.915 4.528,13.228 4.262,13.119 4.668,12.106 4.195,11.913 3.821,12.848 3.568,12.744 3.942,11.809 3.395,11.585 2.977,12.632 2.705,12.521 l 0.538,-1.346 1.81,0.74 z m -0.638,1.664 -0.077,0.34 -1.63,0.563 1.425,0.332 -0.071,0.311 -1.904,-0.445 0.077,-0.338 1.631,-0.568 -1.425,-0.332 0.07,-0.308 1.904,0.445 z m -0.361,1.865 -0.037,0.353 -1.602,0.33 1.5,0.659 -0.036,0.349 -1.873,-0.886 0.034,-0.328 2.014,-0.477 z m -0.128,2.085 -0.011,0.33 -1.953,-0.069 0.011,-0.33 1.953,0.069 z m -0.169,1.225 -0.599,0.042 0.032,0.47 c 0.01,0.136 0.04,0.234 0.092,0.289 0.051,0.057 0.131,0.081 0.237,0.073 0.104,-0.007 0.178,-0.041 0.22,-0.103 0.043,-0.062 0.06,-0.161 0.05,-0.295 L 3.757,18.754 z m 0.251,-0.342 0.06,0.849 c 0.001,0.026 0.003,0.056 0.003,0.086 0,0.01 -10e-4,0.016 0,0.018 C 4.083,19.54 4.044,19.679 3.955,19.784 3.866,19.89 3.737,19.948 3.568,19.96 3.458,19.968 3.361,19.95 3.28,19.907 3.197,19.863 3.137,19.798 3.096,19.711 3.075,19.792 3.039,19.854 2.987,19.892 2.934,19.931 2.846,19.958 2.722,19.974 L 2.443,20.01 H 2.441 C 2.32,20.024 2.248,20.056 2.224,20.108 L 2.167,20.112 2.142,19.745 c 0.025,-0.016 0.054,-0.029 0.089,-0.039 0.034,-0.01 0.089,-0.02 0.165,-0.029 l 0.232,-0.025 c 0.125,-0.017 0.206,-0.05 0.245,-0.098 0.039,-0.049 0.054,-0.129 0.046,-0.238 L 2.915,19.253 2.885,18.82 2.083,18.877 2.059,18.55 4.008,18.412 z m 0.147,2.779 C 4.112,21.003 4.015,20.872 3.863,20.796 3.71,20.721 3.52,20.71 3.29,20.763 3.061,20.817 2.895,20.91 2.791,21.046 2.687,21.181 2.657,21.343 2.7,21.53 c 0.042,0.187 0.14,0.317 0.292,0.393 0.152,0.076 0.343,0.087 0.572,0.033 0.229,-0.053 0.395,-0.147 0.5,-0.283 0.103,-0.134 0.134,-0.295 0.091,-0.482 z M 4.429,21.127 C 4.494,21.412 4.456,21.658 4.316,21.865 4.174,22.071 3.948,22.211 3.637,22.283 3.326,22.355 3.062,22.331 2.846,22.208 2.629,22.084 2.488,21.88 2.423,21.595 2.358,21.308 2.396,21.062 2.536,20.855 2.677,20.65 2.903,20.51 3.215,20.437 c 0.312,-0.072 0.576,-0.048 0.792,0.075 0.216,0.124 0.357,0.328 0.422,0.615 z m 0.39,1.226 0.13,0.324 -1.015,1.405 1.356,-0.552 0.118,0.295 -1.812,0.739 -0.128,-0.321 1.013,-1.411 -1.356,0.554 -0.116,-0.292 1.81,-0.741 z m 0.749,1.85 0.243,0.409 -1.098,1.221 1.585,-0.4 0.243,0.409 L 4.866,26.859 4.707,26.592 6.091,25.75 4.458,26.171 4.294,25.896 5.432,24.641 4.048,25.482 3.893,25.221 5.568,24.203 z m 1.325,2.068 0.843,1.132 -0.229,0.174 -0.65,-0.873 -0.408,0.311 0.6,0.805 L 6.831,27.987 6.23,27.18 5.759,27.54 6.431,28.441 6.197,28.62 5.332,27.461 6.893,26.271 z M 7.974,27.613 8.23,27.847 7.928,29.56 8.907,28.461 9.141,28.674 7.833,30.142 7.579,29.911 7.877,28.194 6.898,29.292 6.666,29.081 7.974,27.613 z m 1.432,1.311 1.235,0.906 -0.168,0.234 -0.485,-0.356 -0.98,1.364 -0.261,-0.193 0.979,-1.363 -0.488,-0.358 0.168,-0.234 z m 1.956,1.737 -0.686,0.583 0.498,0.303 0.188,-0.886 z m 0.014,-0.38 0.313,0.191 -0.391,2.066 -0.298,-0.181 0.11,-0.528 -0.651,-0.396 -0.407,0.35 -0.292,-0.177 1.616,-1.325 z m 1.164,0.587 0.302,0.124 -0.621,1.554 0.895,0.364 -0.111,0.278 -1.196,-0.488 0.731,-1.832 z m 3.012,1.253 -0.086,0.618 0.418,0.06 c 0.131,0.019 0.227,0.008 0.289,-0.032 0.063,-0.04 0.102,-0.114 0.116,-0.224 0.015,-0.106 -0.002,-0.189 -0.05,-0.247 -0.048,-0.058 -0.131,-0.096 -0.25,-0.112 l -0.437,-0.063 z m -0.283,-0.327 0.737,0.104 c 0.119,0.017 0.207,0.034 0.262,0.054 0.056,0.02 0.105,0.045 0.146,0.077 0.082,0.061 0.139,0.139 0.172,0.234 0.033,0.097 0.042,0.208 0.024,0.333 -0.015,0.104 -0.046,0.194 -0.095,0.271 -0.05,0.077 -0.114,0.137 -0.192,0.181 -0.055,0.029 -0.116,0.048 -0.184,0.054 -0.068,0.007 -0.16,0.002 -0.275,-0.015 l -0.439,-0.063 -0.107,0.771 -0.321,-0.046 0.272,-1.955 z m 2.145,0.503 v 0.607 h 0.466 c 0.136,0 0.234,-0.023 0.293,-0.072 0.059,-0.048 0.088,-0.126 0.088,-0.234 0,-0.105 -0.028,-0.182 -0.086,-0.229 -0.058,-0.047 -0.154,-0.071 -0.288,-0.071 h -0.473 v -0.001 z m -0.319,-0.278 h 0.842 c 0.026,0 0.054,0.001 0.085,0.003 0.01,0 0.016,0.001 0.018,0.001 0.172,0 0.308,0.049 0.404,0.146 0.099,0.097 0.146,0.231 0.146,0.402 0,0.111 -0.023,0.207 -0.072,0.286 -0.049,0.08 -0.118,0.137 -0.207,0.172 0.08,0.026 0.137,0.067 0.172,0.123 0.034,0.056 0.056,0.146 0.062,0.273 l 0.018,0.282 v 0.003 c 0.005,0.123 0.032,0.198 0.081,0.226 v 0.058 H 18.28 C 18.265,33.968 18.255,33.936 18.247,33.901 18.239,33.867 18.234,33.81 18.23,33.733 l -0.011,-0.235 c -0.007,-0.127 -0.033,-0.212 -0.078,-0.253 -0.046,-0.043 -0.123,-0.063 -0.232,-0.063 h -0.492 v 0.813 h -0.322 v -1.976 z m 2.834,0.103 c -0.188,0.027 -0.326,0.113 -0.414,0.26 -0.088,0.147 -0.115,0.337 -0.083,0.573 0.033,0.234 0.111,0.41 0.236,0.527 0.124,0.116 0.279,0.161 0.469,0.134 0.187,-0.026 0.324,-0.112 0.412,-0.26 0.087,-0.146 0.115,-0.337 0.083,-0.571 -0.033,-0.236 -0.111,-0.412 -0.235,-0.528 -0.123,-0.118 -0.279,-0.162 -0.468,-0.135 z m -0.04,-0.282 c 0.288,-0.041 0.526,0.019 0.719,0.178 0.19,0.161 0.308,0.4 0.353,0.721 0.044,0.319 -0.004,0.583 -0.144,0.79 -0.14,0.207 -0.354,0.331 -0.641,0.372 -0.288,0.04 -0.528,-0.019 -0.72,-0.179 -0.19,-0.16 -0.309,-0.399 -0.353,-0.72 -0.045,-0.32 0.003,-0.584 0.143,-0.791 0.142,-0.206 0.355,-0.331 0.643,-0.371 z m 1.113,-0.099 1.46,-0.451 0.084,0.277 -0.573,0.177 0.487,1.612 -0.31,0.096 -0.487,-1.612 -0.577,0.179 -0.084,-0.278 z m 1.844,-0.59 1.3,-0.53 0.106,0.269 -1.002,0.409 0.19,0.478 0.925,-0.377 0.103,0.256 -0.925,0.378 0.222,0.554 1.035,-0.423 0.11,0.274 -1.332,0.544 -0.732,-1.832 z m 3.371,-0.989 -0.275,0.167 c -0.076,-0.093 -0.167,-0.144 -0.275,-0.155 -0.107,-0.012 -0.221,0.019 -0.341,0.092 -0.16,0.097 -0.251,0.227 -0.273,0.39 -0.021,0.162 0.026,0.344 0.146,0.544 0.12,0.201 0.258,0.333 0.416,0.396 0.157,0.062 0.313,0.046 0.468,-0.048 0.123,-0.074 0.202,-0.173 0.238,-0.295 0.037,-0.122 0.024,-0.245 -0.038,-0.371 l 0.272,-0.166 c 0.107,0.195 0.13,0.396 0.067,0.6 -0.063,0.203 -0.195,0.368 -0.4,0.493 -0.239,0.145 -0.475,0.18 -0.706,0.104 -0.232,-0.075 -0.431,-0.251 -0.596,-0.528 -0.166,-0.28 -0.227,-0.542 -0.181,-0.784 0.046,-0.241 0.194,-0.438 0.442,-0.589 0.202,-0.122 0.394,-0.17 0.578,-0.143 0.183,0.026 0.336,0.124 0.458,0.293 z m -0.043,-0.644 1.22,-0.929 0.172,0.231 -0.479,0.365 1.003,1.346 -0.258,0.197 -1.004,-1.347 -0.481,0.367 -0.173,-0.23 z m 1.52,-1.255 0.242,-0.221 1.308,1.467 -0.242,0.222 -1.308,-1.468 z m 1.308,-1.042 c -0.122,0.147 -0.167,0.305 -0.135,0.473 0.031,0.168 0.137,0.329 0.317,0.481 0.18,0.152 0.354,0.23 0.524,0.233 0.17,0.002 0.315,-0.069 0.438,-0.218 0.121,-0.146 0.166,-0.303 0.135,-0.472 -0.033,-0.169 -0.138,-0.329 -0.318,-0.481 -0.18,-0.152 -0.354,-0.229 -0.523,-0.232 -0.17,-0.003 -0.316,0.069 -0.438,0.216 z m -0.216,-0.183 c 0.187,-0.225 0.403,-0.342 0.651,-0.353 0.248,-0.01 0.494,0.088 0.738,0.296 0.245,0.208 0.384,0.436 0.417,0.684 0.033,0.249 -0.043,0.486 -0.229,0.71 -0.188,0.226 -0.405,0.344 -0.653,0.354 -0.247,0.011 -0.493,-0.089 -0.738,-0.296 -0.246,-0.208 -0.385,-0.437 -0.417,-0.685 -0.034,-0.247 0.043,-0.485 0.231,-0.71 z m 0.901,-0.941 0.178,-0.299 1.722,-0.027 -1.253,-0.761 0.162,-0.272 1.675,1.017 -0.177,0.297 -1.725,0.031 1.253,0.762 -0.16,0.271 -1.675,-1.019 z m 1.965,-3.925 0.707,0.558 0.189,-0.556 -0.896,-0.002 z m -0.37,0.066 0.119,-0.351 2.081,-0.043 -0.113,0.332 -0.534,0.002 -0.248,0.726 0.422,0.33 -0.11,0.325 -1.617,-1.321 z m 1.297,-2.831 -0.056,0.321 c -0.118,0.004 -0.218,0.044 -0.297,0.119 -0.078,0.075 -0.13,0.178 -0.152,0.309 -0.034,0.194 0.003,0.357 0.113,0.487 0.108,0.129 0.278,0.215 0.511,0.256 0.227,0.041 0.415,0.02 0.564,-0.066 0.149,-0.085 0.241,-0.221 0.274,-0.408 0.027,-0.16 10e-4,-0.298 -0.079,-0.413 -0.081,-0.117 -0.202,-0.192 -0.365,-0.229 L 33,20.315 l -0.265,-0.048 0.145,-0.829 1.039,0.185 -0.038,0.214 -0.252,0.011 c 0.084,0.09 0.142,0.189 0.173,0.301 0.033,0.113 0.037,0.233 0.015,0.363 -0.048,0.269 -0.178,0.469 -0.393,0.603 -0.216,0.134 -0.475,0.174 -0.776,0.12 -0.309,-0.056 -0.54,-0.184 -0.694,-0.384 -0.153,-0.201 -0.207,-0.441 -0.158,-0.723 0.041,-0.234 0.131,-0.415 0.269,-0.541 0.137,-0.128 0.308,-0.188 0.514,-0.18 z m -0.544,-0.574 0.049,-1.416 0.286,0.01 -0.037,1.093 0.51,0.019 0.034,-1.008 0.273,0.01 -0.034,1.007 0.59,0.021 0.039,-1.129 0.293,0.011 -0.051,1.451 -1.952,-0.069 z m -0.019,-1.784 -0.036,-0.347 1.358,-1.069 -1.454,0.155 -0.032,-0.317 1.943,-0.206 0.035,0.345 -1.358,1.074 1.454,-0.154 0.033,0.313 -1.943,0.206 z m -0.018,-3.883 0.072,0.316 c -0.111,0.045 -0.188,0.116 -0.232,0.216 -0.044,0.1 -0.051,0.219 -0.019,0.355 0.042,0.184 0.136,0.312 0.282,0.385 0.146,0.071 0.331,0.08 0.556,0.027 0.228,-0.052 0.395,-0.145 0.501,-0.277 0.106,-0.132 0.141,-0.286 0.1,-0.465 -0.032,-0.141 -0.1,-0.247 -0.203,-0.32 -0.104,-0.072 -0.224,-0.099 -0.361,-0.077 l -0.071,-0.313 c 0.216,-0.043 0.411,-0.003 0.584,0.12 0.173,0.122 0.286,0.302 0.341,0.538 0.063,0.273 0.022,0.511 -0.12,0.71 -0.143,0.201 -0.369,0.337 -0.681,0.409 -0.315,0.074 -0.58,0.051 -0.793,-0.068 -0.214,-0.118 -0.353,-0.321 -0.418,-0.606 -0.053,-0.232 -0.038,-0.432 0.044,-0.6 0.081,-0.17 0.221,-0.286 0.418,-0.35 z m -0.615,0.095 -0.151,-0.379 0.646,-0.783 -0.997,-0.096 -0.141,-0.353 1.348,0.182 0.716,-0.293 0.122,0.307 -0.702,0.286 -0.841,1.129 z" style="fill:#0050b8;fill-rule:evenodd" />
<ellipse cx="6.9580002" cy="11.282" rx="0.54000002" ry="0.54500002" transform="translate(-1.8,-1.8)" style="fill:#0050b8;fill-rule:evenodd" />
<ellipse cx="32.375999" cy="11.279" rx="0.53899997" ry="0.54500002" transform="translate(-1.8,-1.8)" style="fill:#0050b8;fill-rule:evenodd" />
<path d="m 12.158,14.449 c -0.139,2.535 2.813,5.927 5.856,5.927 3.043,0 6.142,-3.784 5.856,-5.927 H 12.158 z" style="fill:#00cc33;fill-rule:evenodd" />
<path d="m 12.165,15.081 c 0.324,2.971 2.827,5.295 5.85,5.295 3.052,0 5.572,-2.367 5.859,-5.377 H 23.85 c -0.088,0.756 -0.728,1.346 -1.498,1.346 -0.684,0 -1.263,-0.464 -1.447,-1.095 -0.185,0.631 -0.764,1.095 -1.447,1.095 -0.683,0 -1.263,-0.464 -1.447,-1.095 -0.185,0.631 -0.764,1.095 -1.448,1.095 -0.694,0 -1.282,-0.479 -1.456,-1.126 -0.174,0.647 -0.761,1.126 -1.456,1.126 -0.743,0 -1.363,-0.548 -1.486,-1.264 z" style="fill:#0050b8;fill-rule:evenodd" />
<path d="m 18.596,14.46 h 5.265 c 0,-3.276 -2.634,-5.949 -5.862,-5.949 -3.229,0 -5.862,2.673 -5.862,5.949 h 5.578 c -0.659,-0.193 -1.143,-0.811 -1.143,-1.537 0,-0.882 0.711,-1.602 1.584,-1.602 0.872,0 1.584,0.72 1.584,1.602 0,0.726 -0.484,1.343 -1.144,1.537 z" style="fill:#3399ff;fill-rule:evenodd" />
<rect width="0.51099998" height="0.39899999" x="17.403" y="25.484001" style="fill:#00cc33;fill-rule:evenodd" />
<path d="M 6.553,6.9 6.786,6.671 7.626,7.55 C 7.743,7.672 7.855,7.738 7.962,7.745 8.07,7.753 8.178,7.703 8.287,7.597 8.397,7.491 8.45,7.382 8.446,7.273 8.442,7.163 8.382,7.047 8.266,6.926 L 7.426,6.046 7.66,5.819 8.513,6.712 C 8.684,6.891 8.768,7.076 8.765,7.268 8.762,7.459 8.671,7.641 8.494,7.814 8.312,7.991 8.13,8.078 7.946,8.075 7.762,8.072 7.582,7.977 7.406,7.793 L 6.553,6.9 z M 8.402,5.245 8.684,5.046 10.26,5.726 9.426,4.52 9.682,4.338 10.798,5.948 10.519,6.145 8.937,5.47 9.772,6.675 9.518,6.855 8.402,5.245 z m 2.076,-1.351 0.29,-0.149 0.883,1.752 -0.29,0.149 -0.883,-1.752 z m 0.889,-0.459 1.419,-0.55 0.102,0.269 -0.558,0.217 0.595,1.565 -0.301,0.117 -0.594,-1.566 -0.561,0.218 -0.102,-0.27 z m 1.997,-0.758 1.34,-0.389 0.079,0.277 -1.035,0.3 0.14,0.493 0.955,-0.276 0.075,0.265 -0.954,0.276 0.162,0.571 1.068,-0.31 0.081,0.283 L 13.9,4.566 13.364,2.677 z m 2.57,-0.285 0.168,1.387 0.395,-0.049 c 0.191,-0.023 0.325,-0.099 0.402,-0.226 0.076,-0.127 0.1,-0.313 0.07,-0.555 C 16.942,2.728 16.876,2.565 16.771,2.463 16.667,2.359 16.526,2.318 16.351,2.34 L 15.934,2.392 z M 15.585,2.155 16.33,2.062 c 0.283,-0.035 0.506,0.02 0.667,0.164 0.161,0.144 0.262,0.378 0.301,0.7 0.038,0.315 -0.01,0.567 -0.145,0.756 -0.135,0.189 -0.349,0.302 -0.641,0.338 L 15.82,4.106 15.585,2.155 z M 20.014,2.694 19.707,2.669 C 19.71,2.557 19.676,2.467 19.605,2.397 19.535,2.328 19.436,2.288 19.309,2.276 19.204,2.267 19.116,2.284 19.044,2.328 18.972,2.372 18.935,2.431 18.928,2.504 18.922,2.578 18.946,2.643 19,2.694 c 0.055,0.053 0.174,0.112 0.357,0.177 0.278,0.099 0.458,0.194 0.538,0.287 0.079,0.093 0.112,0.215 0.1,0.367 -0.016,0.185 -0.097,0.327 -0.243,0.427 -0.146,0.1 -0.333,0.14 -0.561,0.12 C 18.951,4.051 18.768,3.975 18.645,3.846 18.521,3.717 18.464,3.542 18.473,3.322 l 0.313,0.028 c -0.002,0.127 0.036,0.229 0.116,0.308 0.079,0.077 0.192,0.123 0.338,0.136 0.111,0.01 0.204,-0.009 0.279,-0.058 0.075,-0.048 0.116,-0.11 0.123,-0.189 C 19.645,3.516 19.638,3.48 19.621,3.439 19.604,3.398 19.583,3.362 19.555,3.331 19.508,3.279 19.399,3.225 19.227,3.165 19.19,3.152 19.163,3.143 19.143,3.137 18.932,3.06 18.785,2.973 18.704,2.876 18.622,2.779 18.588,2.653 18.601,2.5 c 0.014,-0.162 0.091,-0.289 0.23,-0.38 0.141,-0.091 0.319,-0.127 0.536,-0.107 0.212,0.019 0.375,0.09 0.491,0.213 0.116,0.123 0.171,0.278 0.156,0.468 z M 20.763,2.221 22.243,2.567 22.179,2.848 21.598,2.712 21.224,4.346 20.91,4.273 21.283,2.639 20.698,2.502 20.763,2.221 z M 23.355,3.309 22.783,4 l 0.54,0.209 0.032,-0.9 z M 23.304,2.934 23.644,3.067 23.614,5.161 23.291,5.036 23.309,4.498 22.603,4.224 22.264,4.637 21.948,4.515 23.304,2.934 z m 1.322,0.55 1.354,0.697 -0.13,0.257 -0.532,-0.273 -0.753,1.494 -0.287,-0.147 0.753,-1.495 -0.535,-0.275 0.13,-0.258 z m 1.96,1.097 1.143,0.809 -0.164,0.236 -0.882,-0.624 -0.291,0.421 0.813,0.575 -0.156,0.226 -0.813,-0.576 -0.337,0.487 0.91,0.645 -0.168,0.24 -1.171,-0.829 1.116,-1.61 z M 29.023,7.339 28.801,7.124 C 28.872,7.039 28.903,6.947 28.891,6.848 28.88,6.749 28.828,6.656 28.737,6.566 28.661,6.492 28.582,6.449 28.499,6.438 28.417,6.427 28.35,6.447 28.3,6.5 c -0.052,0.054 -0.072,0.119 -0.063,0.194 0.01,0.076 0.065,0.197 0.167,0.364 0.156,0.254 0.235,0.442 0.24,0.565 0.004,0.122 -0.046,0.239 -0.151,0.349 C 28.366,8.106 28.215,8.164 28.039,8.15 27.863,8.134 27.692,8.046 27.528,7.886 27.354,7.716 27.259,7.542 27.244,7.364 27.229,7.186 27.293,7.013 27.437,6.847 l 0.226,0.221 c -0.081,0.098 -0.115,0.202 -0.102,0.313 0.014,0.111 0.073,0.219 0.179,0.321 0.08,0.078 0.164,0.122 0.252,0.133 0.089,0.011 0.16,-0.012 0.215,-0.069 C 28.228,7.744 28.245,7.711 28.258,7.668 28.272,7.626 28.277,7.584 28.274,7.542 28.27,7.473 28.219,7.359 28.123,7.205 28.102,7.171 28.087,7.146 28.076,7.129 27.96,6.935 27.899,6.775 27.896,6.647 27.892,6.519 27.943,6.4 28.05,6.289 c 0.112,-0.117 0.251,-0.167 0.416,-0.148 0.166,0.019 0.327,0.104 0.484,0.258 0.152,0.148 0.235,0.309 0.249,0.478 0.013,0.169 -0.045,0.323 -0.176,0.462 z" style="fill:#0050b8;fill-rule:evenodd" />
<path d="m 28.29,16.94 c 0.045,0.003 -0.067,-0.004 -0.002,0.021 -0.076,2.131 -1.375,4.325 -2.725,5.729 -0.324,0.394 -0.668,0.743 -0.938,1.037 -0.005,0.062 -0.042,-0.045 0.022,0.001 1.321,0.129 2.974,0.051 4.255,0.694 -0.473,0.86 -1.722,1.255 -2.612,1.674 -2.471,1.019 -5.171,0.924 -7.692,0.281 0,0 -0.24,-0.099 -0.26,-0.142 l -0.007,0.953 c -0.248,0.005 -0.475,0.011 -0.654,-10e-4 -0.133,-0.03 -0.008,-0.768 -0.088,-0.897 l -0.188,0.091 C 14.023,27.175 9.803,26.608 7.326,24.517 7.18,24.362 7.075,24.272 7.037,24.166 c 0.003,-0.042 0,0 0.024,-0.02 1.3,-0.475 2.982,-0.633 4.316,-0.67 0.022,0.002 0.039,0.086 0.042,0.044 C 9.516,21.591 8.395,19.487 7.851,16.901 L 7.878,16.84 c 2.631,0.401 4.941,1.444 6.61,3.192 1.379,1.417 2.454,3.54 3.029,5.423 0.367,0.501 0.045,0.293 0.032,0.168 0.013,-0.745 -0.023,-3.754 -0.031,-4.521 0.247,0.017 0.634,-0.021 0.789,0.011 l 0.02,4.375 c 0.064,0.046 -0.073,0.078 -0.003,0.042 0.316,-0.581 0.764,-1.981 1.191,-2.555 0.976,-2.092 2.894,-3.831 5.077,-4.932 1.012,-0.512 2.44,-0.895 3.698,-1.103 z m -1.104,1.16 c -0.717,2.254 -2.028,3.743 -4.015,5.208 -0.924,0.562 -1.84,1.02 -2.946,1.32 -0.045,-0.003 -0.043,-0.024 -0.086,-0.048 0.113,-0.884 0.699,-1.736 1.119,-2.496 0.704,-0.929 1.565,-1.846 2.59,-2.546 0.974,-0.62 2.028,-1.131 3.34,-1.459 0.037,0.106 -0.109,-0.048 -0.002,0.021 z M 8.998,17.831 c 2.471,0.722 4.527,2.412 5.832,4.488 0.335,0.623 0.655,1.432 0.915,2.153 -10e-4,0.021 -0.039,-0.085 -0.066,-0.024 C 14.49,24.37 13.43,23.491 12.524,22.955 10.79,21.473 9.518,19.835 8.975,17.829 8.979,17.788 8.93,17.826 8.998,17.831 z" style="fill:#00cc33;fill-rule:evenodd" />
<path d="M 18,0 C 22.969,0 27.469,2.016 30.727,5.272 33.984,8.53 36,13.03 36,18 36,22.97 33.984,27.47 30.727,30.728 27.469,33.984 22.969,36 18,36 13.032,36 8.532,33.984 5.273,30.728 2.015,27.47 0,22.97 0,18 0,13.03 2.016,8.53 5.273,5.272 8.532,2.015 13.032,0 18,0 z M 30.413,5.592 C 27.236,2.416 22.847,0.451 18,0.451 13.153,0.451 8.763,2.416 5.587,5.592 2.411,8.767 0.446,13.154 0.446,18 c 0,4.846 1.965,9.233 5.141,12.409 3.177,3.176 7.565,5.141 12.413,5.141 4.848,0 9.236,-1.965 12.413,-5.141 3.176,-3.176 5.142,-7.563 5.142,-12.409 0,-4.846 -1.966,-9.233 -5.142,-12.408 z" style="fill:#0050b8" />
</svg>
