<svg id="Layer_1" data-name="Layer 1" xmlns="http://www.w3.org/2000/svg" viewBox="0 0 910 512"><defs><style>.cls-1{fill:#fff;}</style></defs><title>angle-arrow-right-white</title><path class="cls-1" d="M30.77,5.12L5.13,30.77a16.13,16.13,0,0,0-.8,22.8q0.39,0.42.8,0.8L206.75,256,5.13,457.62a16.13,16.13,0,0,0-.8,22.8q0.39,0.42.8,0.8l25.65,25.65a16.13,16.13,0,0,0,22.8.8q0.42-.39.8-0.8L293.45,267.8a16.13,16.13,0,0,0,.79-22.8q-0.38-.41-0.79-0.79L54.38,5.12a16.17,16.17,0,0,0-22.86-.74q-0.38.36-.74,0.74h0Z"/></svg>
