<svg xmlns="http://www.w3.org/2000/svg" viewBox="0 0 233 47" id="logo"><title>logo</title><g fill="none" fill-rule="evenodd"><path d="M57.547 18.534a3.71 3.71 0 0 0-1.679-1.276 5.563 5.563 0 0 0-2.024-.403c-.843 0-1.61.153-2.3.46a5.39 5.39 0 0 0-1.782 1.265 5.62 5.62 0 0 0-1.15 1.886 6.671 6.671 0 0 0-.403 2.346c0 .89.13 1.702.391 2.438.26.736.632 1.368 1.115 1.898.484.529 1.062.939 1.737 1.23.675.291 1.434.437 2.277.437.874 0 1.648-.172 2.323-.518a4.54 4.54 0 0 0 1.633-1.368l2.323 1.633a7.443 7.443 0 0 1-2.645 2.104c-1.043.499-2.262.748-3.657.748-1.273 0-2.442-.21-3.508-.633a8.08 8.08 0 0 1-2.748-1.77 8.062 8.062 0 0 1-1.794-2.714c-.43-1.05-.644-2.212-.644-3.485 0-1.303.226-2.48.678-3.53a7.862 7.862 0 0 1 1.864-2.68 8.271 8.271 0 0 1 2.794-1.702c1.073-.399 2.239-.598 3.496-.598.521 0 1.066.05 1.633.15.567.1 1.112.252 1.633.46a7.903 7.903 0 0 1 1.472.77c.46.307.851.675 1.173 1.104l-2.208 1.748zm6.45-3.818h2.898v13.708h6.923V31h-9.82V14.716zm12.477 8.096c0-1.303.218-2.48.655-3.53a7.752 7.752 0 0 1 1.817-2.68 8.045 8.045 0 0 1 2.76-1.702c1.066-.399 2.228-.598 3.485-.598 1.273 0 2.446.2 3.519.598a8.146 8.146 0 0 1 2.783 1.702 7.675 7.675 0 0 1 1.828 2.68c.437 1.05.656 2.227.656 3.53 0 1.273-.219 2.434-.656 3.485a8.035 8.035 0 0 1-1.828 2.713 8.306 8.306 0 0 1-2.783 1.771c-1.073.422-2.246.633-3.52.633-1.256 0-2.418-.21-3.484-.633a8.205 8.205 0 0 1-2.76-1.77 8.12 8.12 0 0 1-1.817-2.714c-.437-1.05-.655-2.212-.655-3.485zm3.15 0c0 .874.135 1.675.403 2.403.269.729.652 1.361 1.15 1.898a5.282 5.282 0 0 0 1.771 1.253c.683.3 1.438.449 2.266.449.828 0 1.587-.15 2.277-.449a5.252 5.252 0 0 0 1.782-1.253 5.597 5.597 0 0 0 1.15-1.898c.269-.728.403-1.529.403-2.403 0-.843-.134-1.625-.403-2.346a5.72 5.72 0 0 0-1.138-1.886 5.267 5.267 0 0 0-1.771-1.265c-.69-.307-1.457-.46-2.3-.46-.843 0-1.606.153-2.289.46a5.297 5.297 0 0 0-1.76 1.265 5.72 5.72 0 0 0-1.138 1.886 6.671 6.671 0 0 0-.402 2.346zm32.426 2.208c0 .981-.169 1.867-.506 2.657a5.956 5.956 0 0 1-1.38 2.012 6.07 6.07 0 0 1-2.07 1.276 7.344 7.344 0 0 1-2.599.449c-.935 0-1.802-.15-2.599-.449a6.196 6.196 0 0 1-2.081-1.276 5.745 5.745 0 0 1-1.38-2.012c-.33-.79-.495-1.676-.495-2.657V14.716h2.898v10.189c0 .475.061.947.184 1.415.123.467.326.885.61 1.253.283.368.659.667 1.127.897.467.23 1.046.345 1.736.345s1.269-.115 1.737-.345c.467-.23.843-.529 1.127-.897.283-.368.486-.786.61-1.253.122-.468.183-.94.183-1.415V14.716h2.898V25.02zm5.745-10.304h5.773c1.058 0 2.124.138 3.197.414a8.278 8.278 0 0 1 2.898 1.368c.86.637 1.557 1.472 2.093 2.508.537 1.035.805 2.319.805 3.852 0 1.426-.268 2.653-.805 3.68-.536 1.027-1.234 1.87-2.093 2.53a8.75 8.75 0 0 1-2.898 1.46 11.33 11.33 0 0 1-3.197.472h-5.773V14.716zm5.313 13.754c.752 0 1.503-.088 2.254-.264a5.875 5.875 0 0 0 2.036-.898c.606-.421 1.1-.992 1.483-1.713.384-.72.575-1.633.575-2.737 0-1.165-.191-2.116-.575-2.852-.383-.736-.877-1.311-1.483-1.725a5.524 5.524 0 0 0-2.036-.851 11.246 11.246 0 0 0-2.254-.23h-2.415v11.27h2.415zm12.807.92c0-.49.18-.912.54-1.265.36-.353.794-.529 1.3-.529.49 0 .92.169 1.288.506.368.337.552.751.552 1.242 0 .49-.18.912-.54 1.265-.361.353-.794.529-1.3.529-.246 0-.48-.046-.702-.138a2 2 0 0 1-.586-.368 1.71 1.71 0 0 1-.403-.552c-.1-.215-.15-.445-.15-.69zm21.984.759c-.828.399-1.737.71-2.726.931-.989.223-2.127.334-3.415.334-1.319 0-2.523-.21-3.611-.633-1.089-.421-2.024-1.011-2.806-1.77a8.035 8.035 0 0 1-1.829-2.714c-.437-1.05-.655-2.212-.655-3.485 0-1.303.226-2.48.678-3.53a7.862 7.862 0 0 1 1.863-2.68 8.271 8.271 0 0 1 2.795-1.702c1.073-.399 2.238-.598 3.496-.598 1.303 0 2.495.188 3.576.564 1.081.375 1.951.87 2.61 1.483l-2 2.162c-.414-.46-.993-.851-1.737-1.173a6.04 6.04 0 0 0-2.426-.483c-.859 0-1.637.153-2.335.46a5.238 5.238 0 0 0-1.782 1.265 5.72 5.72 0 0 0-1.139 1.886 6.671 6.671 0 0 0-.402 2.346c0 .874.134 1.675.402 2.403.268.729.652 1.361 1.15 1.898a5.174 5.174 0 0 0 1.817 1.253c.713.3 1.522.449 2.427.449 1.242 0 2.323-.192 3.243-.575V24.1h-3.427v-2.392h6.233v8.441zm4.637-7.337c0-1.303.218-2.48.655-3.53a7.752 7.752 0 0 1 1.817-2.68 8.045 8.045 0 0 1 2.76-1.702c1.066-.399 2.227-.598 3.485-.598 1.272 0 2.445.2 3.519.598a8.146 8.146 0 0 1 2.783 1.702 7.675 7.675 0 0 1 1.828 2.68c.437 1.05.656 2.227.656 3.53 0 1.273-.219 2.434-.656 3.485a8.035 8.035 0 0 1-1.828 2.713 8.306 8.306 0 0 1-2.783 1.771c-1.074.422-2.247.633-3.52.633-1.257 0-2.418-.21-3.484-.633a8.205 8.205 0 0 1-2.76-1.77 8.12 8.12 0 0 1-1.817-2.714c-.437-1.05-.655-2.212-.655-3.485zm3.15 0c0 .874.135 1.675.403 2.403.268.729.652 1.361 1.15 1.898a5.282 5.282 0 0 0 1.771 1.253c.682.3 1.438.449 2.266.449.828 0 1.587-.15 2.277-.449a5.252 5.252 0 0 0 1.782-1.253 5.597 5.597 0 0 0 1.15-1.898c.268-.728.403-1.529.403-2.403 0-.843-.135-1.625-.403-2.346a5.72 5.72 0 0 0-1.138-1.886 5.267 5.267 0 0 0-1.771-1.265c-.69-.307-1.457-.46-2.3-.46-.844 0-1.607.153-2.289.46a5.297 5.297 0 0 0-1.76 1.265 5.72 5.72 0 0 0-1.138 1.886 6.671 6.671 0 0 0-.402 2.346zm17.154-8.096h3.243l4.485 12.535h.092l4.53-12.535h3.129L191.787 31h-2.507l-6.44-16.284z" fill="#333"></path><g transform="translate(0 1)"><path fill="#046CD5" d="M17 0L0 12.377l6.93 5.33h7.557l2.507-7.727 2.508 7.727h7.58L34 12.377z"></path><path fill="#333" d="M27.082 17.704h.004l-6.034 4.774 2.508 7.725-6.566-4.775-6.566 4.775 2.508-7.725-6.007-4.774L0 12.376v19.645l17 12.355 17-12.355V12.376z"></path></g></g></svg>