<svg width="90" height="90" viewBox="0 0 90 90" fill="none" xmlns="http://www.w3.org/2000/svg">
<path d="M45 90C69.8528 90 90 69.8528 90 45C90 20.1472 69.8528 0 45 0C20.1472 0 0 20.1472 0 45C0 69.8528 20.1472 90 45 90Z" fill="white"/>
<path opacity="0.5" d="M45.6 78.8L17.2 62.1L17 29.1L45.3 12.8L73.7 29.5L73.9 62.5L45.6 78.8ZM72 61.4L71.7 30.6L45.2 15L18.9 30.2L19.2 61L45.7 76.6L72 61.4Z" fill="#446586"/>
<path opacity="0.5" d="M19.2 28.5L45.7 44.1L72 29L73.8999 30L45.6 46.3L17.2 29.7L19.2 28.5Z" fill="#446586"/>
<path opacity="0.5" d="M30 37L58.9 20.7L60.8 21.7L32.5 38.5L30 37Z" fill="#446586"/>
</svg>
